<?xml version="1.0" standalone="no"?>
<!DOCTYPE svg PUBLIC "-//W3C//DTD SVG 1.1//EN" "http://www.w3.org/Graphics/SVG/1.1/DTD/svg11.dtd" >
<svg xmlns="http://www.w3.org/2000/svg">
<metadata></metadata>
<defs>
<font id="its_dripping_medium" horiz-adv-x="1036" >
<font-face units-per-em="2048" ascent="1638" descent="-410" />
<missing-glyph horiz-adv-x="921" />
<glyph horiz-adv-x="2048" />
<glyph horiz-adv-x="2048" />
<glyph unicode="&#xd;" horiz-adv-x="681" />
<glyph unicode=" "  horiz-adv-x="921" />
<glyph unicode="&#x09;" horiz-adv-x="921" />
<glyph unicode="&#xa0;" horiz-adv-x="921" />
<glyph unicode="!" horiz-adv-x="464" d="M297 483q0 -6 -4 -28q-2 -18 -6 -33q-2 -14 -4 -27q-4 -23 -21 -45l-2 -10q0 -10 -6 -18q2 -12 2 -25v-176q0 -16 -12.5 -27.5t-28.5 -11.5t-27.5 11t-11.5 28v176q0 8 -2 14q-6 16 -10 35q-2 18 0 37q-2 8 -6 25q-6 29 -9.5 44t-5.5 29q-2 16 -4 33v25q-2 4 -2 8 q-6 23 -8 43v31v57v29q0 6 -2 16q-6 14 -10 31q-4 14 -8 24q-10 25 -5 49q2 14 5 29q4 18 12 37q6 16 10 31q2 2 2 4v2v2v6t-2 14q-2 12 -6 23q-6 16 -12 33q-6 18 -9 36q-2 29 17 56q10 14 18 24q2 6 6 11q0 4 2 6q4 16 7 24v9q-2 14 8 27t26 16h5q23 10 43 2.5t32 -21.5 q10 -14 15 -24q8 2 16 2q16 -2 27.5 -15.5t9.5 -30.5l-2 -14q0 -2 2 -6q14 -20 20 -41q4 -16 6 -33q2 -20 0 -41q-2 -20 -10 -39q-6 -14 -18 -30q-2 -6 -2 -11q-2 -14 -2 -26v-29q0 -20 -8 -43q-6 -16 -11 -31q-4 -8 -4 -14q0 -10 2 -20q2 -12 4 -23q2 -12 4 -31l7 -28 q4 -12 10 -29q8 -20 10 -41q2 -35 -27 -59q-10 -8 -16 -19q-4 -6 -6 -8q0 -6 2 -31zM307 -123q14 -2 23.5 -14.5t7.5 -26.5v-18q-4 -39 -39 -58q-12 -6 -27 -14q-23 -12 -49 -12q-2 0 -4 -2t-4 -2q-2 -6 -2 -15v-28q0 -16 -2 -33v-6q0 -16 -2 -31q-2 -25 -41 -12.5t-39 20.5 q0 20 2 37v47q0 16 2 37v31v24q-2 10 -2 21q-2 6 -4 14q-6 18 -10 37q-4 33 12 64q16 35 47 47l17 6q27 12 47 -13q25 -8 26 -30q4 -4 8 -6q25 -20 31 -52q2 -6 2 -12z" />
<glyph unicode="&#x22;" horiz-adv-x="591" d="M489 1192q-6 -20 -30 -27v-20q0 -20 -10 -45q-8 -16 -19 -35q-8 -14 -14 -27q-6 -18 -15 -37q-2 -2 -4 -8v-28t2 -27q4 -18 8.5 -35.5t8.5 -34.5l4 -16q6 -23 -10 -39l4 -16l2 -17q2 -8 0 -16v-2q4 -18 2 -41q-2 -18 -4 -43l-4 -25q-2 -16 -15.5 -26.5t-30 -8t-26.5 15.5 t-6 30l2 24q2 23 4 39q2 10 0 18l-4 13q-2 10 2 18l-2 8q-2 16 -4 27q-2 6 -6 16q-14 20 -17 43v33v25v30q2 20 8 41q2 6 4 11q2 23 5 41q4 25 12 47q4 16 6 43q2 23 8 37q4 12 6 22l4 12q2 16 16.5 25.5t31.5 5.5h4q18 10 39 4l12 -4q16 -6 23 -20.5t3 -30.5zM195 1231 q14 0 26 -12.5t12 -28.5v-19q0 -18 -2 -36q0 -14 -2 -31q-2 -18 -2 -37q-2 -10 -4 -37v-37v-37q2 -18 0 -34l4 -4q12 -23 17 -46q0 -10 2 -22q4 -16 4 -35q0 -18 -6 -39q-2 -12 -4 -22v-19l2 -12q2 -16 -8.5 -29.5t-27 -15.5t-29.5 9t-15 28v12q-2 18 0 35q0 16 6 35 q2 10 2 18v8q0 2 -2 4l-8 21q-10 23 -13 39q-18 14 -30 35q-16 27 -15 53q4 23 19 43q4 6 4 14q0 2 -2 6q-12 20 -17 39q-6 25 0 49q4 18 13 37q10 18 24 35l13 14q4 4 12 9q11 10 27 10z" />
<glyph unicode="#" horiz-adv-x="1243" d="M104 387q2 16 16.5 24.5t31.5 4.5h2q23 12 43 -4q2 -2 4 -6q6 0 14 -3q35 -4 78 -6q8 -2 16 -2q-2 12 4 23l13 22q8 18 8 23q2 12 2 22v90q0 14 -2 29q0 14 -4 27l-4 28v17h-58q-8 0 -16 -2q-6 -2 -12 -10q-16 -14 -33 -27q-16 -12 -46 -2t-30 39q0 12 -2 28q-2 18 -2 35 v13q-8 12 -8 28q2 16 14 26.5t29 8.5l37 -2q35 -4 88 -6q25 -2 51 -4q-2 45 -2 86q-2 43 -2 76q-2 37 -2 61q0 29 6 53l4 23q2 16 16.5 25.5t30.5 7.5q18 -4 27 -21q8 -10 10 -22l2 -19q4 -18 4 -33q2 -16 2 -32v-56q0 -8 4 -20q2 -16 6 -29q4 -16 7 -37q2 -20 -5 -43 q-4 -16 -10 -30q31 -2 60 -3q55 -2 118 -6q23 0 43 -2v31q2 33 2 70q0 6 -2 12q-2 18 -2 37q0 10 -4 26t-8 29l-4 12q-4 16 3 29.5t22 20.5v47q0 16 11 27.5t27.5 11.5t28.5 -11.5t12 -27.5v-121q0 -31 -2 -78q0 -4 -2 -6q2 -4 4 -10q6 -20 7 -39q2 -20 -5 -43 q-2 -12 -6 -25q41 -4 76 -6q41 -2 73 -4t57.5 -4t41.5 -4l17 -2q12 0 22 -11q18 0 31 -14q12 -2 20 -10l6 -6q12 -12 12.5 -28.5t-11 -28t-29 -11.5t-27.5 10l-6 6h-2q-12 -2 -29 -6q-14 -4 -22 -10q-20 -10 -41 -12q-12 -2 -25 -6q-12 -4 -29 -13q-2 -8 -2 -16 q-2 -20 -8 -41q-12 -31 -46 -23.5t-40 27.5q-4 16 -10 31q-8 18 -12 33q-4 10 -11 20q-2 0 -2 2h-4v-22q2 -33 2 -70q6 -16 9 -35l2 -18q0 -16 -11 -29q0 -33 2 -63v-21h23h100q45 0 86 -2q37 -2 60 0q29 2 43 2h14q14 0 26.5 -11t12.5 -26q8 -2 12 -4q14 -8 19.5 -24.5 t-2.5 -30.5l-7 -15q-18 -31 -51 -36q-16 -2 -35 -2h-26t-33 -2h-35q-4 0 -10 -3q-6 -4 -10 -10q-6 -8 -10 -20q-6 -18 -13 -35q-4 -16 -41 -23.5t-43 27.5q-2 14 -4 33q-2 20 0 37q2 8 2 18q-10 0 -18 -2q-18 -6 -41 -6h-21v-23q2 -37 0 -67v-51q-2 -20 -2 -35v-47v-9l2 -14 q4 -12 7 -31q6 -20 8 -36q2 -25 -6 -48l-5 -12q-6 -16 -21 -23.5t-30.5 -2t-22.5 20.5t-1 30l4 14q2 6 2 12q-2 12 -6 29q-2 16 -6 31l-2 12q-2 8 0 16q-2 4 -3 11v47q0 16 3 37v51q2 29 0 63v29h-5q-18 -4 -34 -4h-31q-4 0 -14 -4q-18 -10 -37 -19q-33 -10 -58 0 q-23 8 -30 29v-47q-2 -41 -2 -74v-63q-2 -27 -2 -43q0 -12 -3 -25q20 -12 19 -35q4 -10 2 -18v-14q-2 -12 -2 -33v-13.5v-11.5q8 -16 8 -35q0 -18 -6 -39v-4v-10q2 -23 2 -35v-12q0 -14 -10 -25q10 -12 10 -26v-12v-23l2 -14q4 -16 -6 -29.5t-26.5 -15.5t-30 7t-15.5 25 l-2 17q-2 10 -2 20l-2 2l-4 15q-4 14 -10 30l-4 15q-10 27 12 43q2 10 3 19t3 18v14q-2 12 -2 33q-12 20 -14 47q0 20 4 39v2q-14 14 -10 35l2 18q2 16 2 31q0 18 2 47v59q0 35 2 76q0 33 -2 70h-29q-16 0 -33 2h-24q-10 0 -19 -2q-10 -2 -18 -7q-4 -2 -8 -8q-6 -8 -9 -18 q-4 -20 -8 -35q-2 -10 -2 -18q0 -12 2 -25q2 -20 -4 -43q-4 -12 -6 -23v-32q0 -2 -4 -5t-11.5 -4.5t-16.5 -2.5t-17 -2t-15.5 0t-11.5 2t-4 4v24q-2 6 -6 14q-8 18 -14 39q-8 25 -9 43v33v29v26q-2 16 -2 35q0 18 2 33q0 8 2 16q-6 15 -2 29zM651 600q-2 -14 -10 -25 q-10 -12 -26.5 -13t-28.5 9l-13 13q-18 14 -30 34q-10 18 -17 37v2l-8 -4q-25 -12 -53 -8q-23 4 -41 19l4 -62q2 -51 6 -102t8 -103v-6q43 -2 80 -4q57 -2 123 0h19v16q-2 53 -2 109v31q-4 16 -7 30q0 10 -4 23v4zM182 328v-4l4 4h-2h-2z" />
<glyph unicode="$" horiz-adv-x="1130" d="M607.5 1228q15.5 -5 23.5 -19.5t2 -30.5l-4 -13q-2 -10 -8 -20v-2v-19v-49q-2 -27 -3 -49h5q18 2 35.5 2t37.5 -2q18 0 35 -2t43 -6q29 -2 47 -8q23 -6 43 -17q18 -8 35 -20q23 -14 35 -35q10 -16 18 -31q10 -16 19 -35q6 -16 10 -32t8 -31q4 -16 4 -33l2 -6 q8 -16 11 -33q4 -16 4 -37v-14q0 -16 -12.5 -28.5t-29 -12.5t-27.5 12.5t-11 28.5v14q0 12 -2 23q-2 6 -6 12q-8 16 -17 35q-6 12 -12 27l-16 28t-17 33q-6 14 -10 27q-10 4 -21 6q-14 4 -26 8q-6 -4 -10 -10q-8 -14 -23 -31q-10 -16 -45 -12t-37 35q-2 6 -6 12l-2 2 q-18 4 -37 12q-2 2 -8 4v-14q0 -23 -4 -41q-2 -14 -6 -33v-2q4 -33 7 -65.5t5 -63.5q2 -20 4 -43q10 -23 14 -43h7h32q12 0 25 2h35q20 0 49 -6q18 -6 37 -6q23 -2 45 -8q20 -4 45 -15q27 -12 45 -30.5t31 -40.5q10 -20 16 -45q6 -23 6 -41v-35q-2 -23 -8 -41q-4 -12 -8 -27 v-8q-4 -31 -35 -53q-16 -16 -37 -27q-14 -6 -31 -14q-2 -10 -2 -18q0 -16 -2 -37q-2 -16 -2 -29q2 -18 -4 -41q-4 -18 -22.5 -33.5t-40.5 -11.5q-35 8 -48 43q-6 14 -8 31q-4 10 -8 24q-2 10 -8 19q-2 4 -8 6q-2 2 -4 2q-4 -2 -15 -8q-18 -12 -35 -21q-18 -8 -34 -12h-4v-4 q-2 -20 -2 -33v-2q4 -4 6 -8q10 -27 4 -55q-6 -23 -15 -39q-4 -8 -6 -17q-2 -8 0 -14q2 -12 11 -29q12 -31 4 -59q-6 -16 -9 -27q-4 -16 -10 -33l-8 -24q20 -16 14 -41l-2 -16q-4 -14 -6 -29q-2 -8 0 -29q4 -27 2 -51l-2 -21q-2 -16 -14.5 -27t-28.5 -9t-27.5 14t-9.5 29 l2 20q2 16 0 39q-4 29 0 47q2 14 4 33l2 4q-27 18 -16 47l6 14q4 12 8 27q4 12 9 25q4 14 8 30q0 4 -2 7q-8 23 -13 40q-4 20 -2 41q-6 12 -2 25l4 23q4 20 7 36q2 6 2 11v2q-14 25 -13 49h-24q-14 -2 -25 -4q-8 -2 -16 -6q-6 -2 -17 -13q-8 -8 -12 -16q-8 -20 -32.5 -27.5 t-43.5 4.5q-20 14 -37 37q-4 6 -8 10q-12 6 -24 13q-10 4 -19 4q-12 2 -24 2h-35q-18 2 -39 10q-16 6 -33.5 14.5t-34.5 18.5l-12 10q-23 14 -18 41q-12 20 -13 43v14q0 16 12.5 28.5t29 11.5t27.5 -12t11 -28v-14q0 -2 4 -6q6 -8 13 -12q14 -6 26 -11q10 -4 27 -6 q23 0 37 -4q12 -2 26 -4q8 -2 21 -2h35q14 0 32 2q23 2 41 0q14 0 29 2q20 4 43 6q16 0 39 2q14 2 31 2v7v34q0 14 -2 33q-2 23 -2 49q-2 25 -2 47v50q-2 18 -2 36h-25q-18 0 -37 5q-18 2 -37 8l-24 4h-27q-2 0 -4 -2q-8 -6 -12 -13q-8 -12 -17 -26q-4 -4 -24.5 -10.5t-41 0 t-16.5 32.5v25q0 6 -2 12q-8 4 -18 8q-10 2 -21 7q-31 10 -49 30q-14 16 -24 33q-10 18 -17 39q-4 20 -4 39q0 10 -2 29q-4 25 -4 45q0 23 6 49q4 20 8 43q6 25 17 47q10 23 28.5 42t38.5 32q18 12 47 20q16 4 45 14q27 8 44 11l28 4t45 5t45 3h8q-2 12 -4 27q-4 25 -2 45 q2 16 4 34q4 18 15 39q4 12 8 23l4 12q4 16 19.5 23.5t31 2.5zM379 846q-4 27 -8 37q-10 -2 -21 -6q-16 -6 -28 -13q-10 -4 -23 -12l-6 -6v-8q2 -14 6 -27q6 -20 6 -41q0 -18 -2 -39q-4 -16 -7 -34.5t-7 -30.5q-2 -8 -2 -21q0 -4 2 -6q6 -10 18 -23q6 -6 12 -10h5 q20 0 43 -2q20 -4 39 -4h40q16 0 35 2q20 2 39 2h33h12q0 8 -2 19v4q-6 14 -12 24q-10 18 -16.5 41t-6.5 43q0 16 2 35q2 18 9 37q2 10 6 22q-4 25 -4 48v34q-18 -2 -35 -2h-33q-4 0 -6 -2l-2 -2q-4 -14 -4 -24q-2 -12 -2 -23q2 -16 -18.5 -19t-41.5 1zM659 422v-21 q0 -20 3 -45q0 -23 2 -43q2 -23 2 -43v-30q6 0 12 2q20 2 41 6q18 2 37 2q14 2 28 6q16 4 34 8t28 8q8 2 18 7l2 2q23 18 43 24q4 2 15 8q6 6 8 13v8q-2 18 -2 41q0 18 -2 33l-4 16h-9.5t-9.5 -2t-6 -6q-8 -14 -22 -31q-10 -16 -46 -12t-36 39q0 16 2 37q-8 4 -15 6 q-8 6 -20 10q-14 4 -27 6q-8 2 -14 0q-4 -2 -6 -4q-18 -25 -37 -39q-7 -4 -19 -6z" />
<glyph unicode="%" horiz-adv-x="1230" d="M1096 977q14 -8 19 -23.5t-1 -29.5l-6 -15q-10 -20 -33 -39q-14 -12 -31 -22v-17v-36q-2 -14 -2 -31q0 -20 -2 -35q-2 -33 -35.5 -37t-43.5 10q-20 18 -29 43q-4 14 -8 33q-20 -20 -39 -35q-23 -14 -39 -24q-10 -4 -21 -10q-8 -8 -14 -15q-2 -6 -4 -14q-4 -27 -27 -51 q-18 -18 -35 -31q-23 -18 -49 -20q-2 0 -4 -3q-10 -10 -20 -18q-2 -4 -2 -8q-2 -16 -8 -35q-2 -8 -3 -16q0 -18 -1 -35t-5 -31q-4 -18 -10 -35q-2 -2 0 -6q2 -12 4 -26q6 -23 0 -48q-4 -16 -18.5 -29.5t-32.5 -15.5q-39 -4 -61 37q-10 18 -19 33l-4 4q-2 -2 -4 -6 q-10 -20 -33 -37q-16 -12 -28.5 -21.5t-24.5 -17.5q-2 -16 -8 -31q-14 -31 -47 -38q-18 -6 -37 -9q-4 0 -8 -4q-14 -12 -29 -24q-16 -14 -31 -25l-8 -8q-6 -14 -10 -27q-4 -8 -8 -14q6 -16 0 -33l-9 -18l-2 -8q8 -20 11 -37q2 -16 2 -35q-2 -20 -11 -41q-4 -8 -4 -18 q-2 -14 0 -27v-33q0 -14 2 -24q2 -16 2 -31q0 -14 2 -27q0 -16 -2 -35v-24l2 -12q2 -16 -8 -29.5t-26.5 -16t-29.5 9t-15 27.5v15q-2 16 0 37v22q-2 14 -3 31q0 12 -2 24v4q-18 8 -22 27l-2 14q-4 14 -6 31q-4 23 0 43q2 12 4 27q0 6 -2 10q-6 16 -11 35q-8 29 0 57 q4 10 9 21q-14 27 6 47l18 20q16 20 29 33q12 18 41 43q25 23 43 41q20 18 47 45q27 25 57 57q33 35 64 62q29 25 57 55q29 33 55 59q27 31 58 56l18 18q12 18 31 31v2q27 29 55 53l41 41q6 4 10 10q12 16 31 29v0q23 23 41 39t48 43t51.5 48.5l35.5 35.5l29 29q18 16 33 26 l14 8q12 8 28.5 5.5t26.5 -15.5q4 -6 4 -12q5 0 9 -2zM1006 446q25 -6 53 -30q31 -25 43 -47q10 -18 18 -41q6 -23 8 -58q4 -43 -14 -71q-4 -6 -8 -13v-6q0 -16 -2 -33q0 -18 -4 -32q-4 -18 -13 -35q-6 -10 -8 -21q-6 -16 -14 -34q-6 -12 -12 -27q-4 -6 -9 -14q0 -8 3 -21 q0 -6 2 -10q14 -25 10 -53q-2 -12 -2 -23v-12q0 -16 -11.5 -28.5t-28 -13.5t-28.5 10t-12 28v14q0 16 2 35v6q-6 10 -10 25q-18 2 -31 20q-20 35 0 70q2 4 4 6q-4 0 -4 -2q-23 -10 -43 -12q-10 0 -23 -3q-10 -4 -22 -8q-6 -2 -14 -12q-6 -6 -24.5 -11t-38 2t-21.5 32 q-2 10 -2 22l-9 4q-14 8 -18 23.5t4 29.5q2 6 8 11q-6 6 -10 12q-14 20 -20 45q-8 23 -11 47q-4 25 -2 43q4 20 21 64q18 41 30 59q12 20 39 45q29 29 49 37q16 6 39 14q27 8 52 8q29 -2 51 -14l16 -8q11 -7 17 -19zM393 877q16 -6 25 -5q12 4 20 11q8 6 17 16q6 6 12 16 q-12 8 -25 19l-20 12q-8 -4 -14 -10q-8 -8 -11 -16q-6 -14 -6 -25q0 -6 2 -18zM496 1090h4q27 -4 63 -25q39 -23 53 -47q12 -18 20.5 -39t14.5 -47q4 -27 0 -49q-4 -18 -14 -39q-8 -20 -16 -35q-4 -8 -11 -14q-6 -18 -9 -27.5t-3 -19.5v-27q0 -27 -24.5 -40t-45.5 -3 q-16 8 -32 20l-2 2q-14 -2 -25 0q2 -14 -6 -27.5t-23 -17.5q-16 -4 -30.5 4.5t-18.5 24.5l-8 25q-4 2 -8 2q-23 -14 -45 -9q-33 12 -45 43q-8 20 -9 48q0 8 3 14q-6 16 -9 35q-4 18 -4 41l-4 8q-10 12 -7 28.5t15 26.5q2 0 4 2q4 12 13 31q14 31 35 57q25 31 53 43 q20 8 35 15q16 6 34 8l15 4q23 2 37 -16zM932 287q-4 2 -8 2l-19 6q-8 -6 -20 -12q-14 -8 -27 -17q4 -18 -8 -33l14 -14q10 -8 21 -12l8 -4q10 6 25 12q8 4 14 8q2 2 2 4q0 4 2 11q0 6 -2 14l-4 14q-2 11 2 21z" />
<glyph unicode="&#x26;" horiz-adv-x="1081" d="M180 539q16 16 39 10l12 12q16 18 35 35q18 12 35 27q10 6 18 12q-12 16 -22 33q-14 23 -25.5 44t-23.5 46q-14 29 -19 49q-4 16 -10 37q-6 23 -8 41q-4 25 -2 45q4 16 10 35q6 20 19 36q8 16 22 35q14 23 31 37q16 14 33 27q18 14 38 22t37 13q16 6 33 8q16 4 43 5t47 1 q18 -2 35.5 -5t38.5 -9q25 -6 41 -16.5t39 -28.5q18 -18 33 -37q14 -16 20 -35q8 -16 12 -35q2 -16 4 -35q2 -20 0 -39l-2 -14q-2 -23 -22 -33q0 -4 2 -10q8 -25 6 -51q-2 -18 -2 -35l-2 -16q-2 -16 -14.5 -26.5t-28.5 -9.5t-27.5 14t-9.5 30l2 14q0 16 2 35q0 10 -2 20 q-6 23 -10 39q-2 20 2 43q2 12 2 21q0 6 -4 12q-6 12 -12 27q-8 18 -13 37q0 2 -2 6q-6 0 -12 -2q-16 -4 -35 -4q-33 -2 -57 26l-2 2q-8 2 -15 2q-4 -2 -12 -4l-8 -24q-2 -4 -6 -8.5t-17.5 -12.5t-23.5 -11t-20.5 3t-16.5 25v2h-2h-14q-12 0 -25 8l-10 -10q29 -23 31 -56 q0 -18 -5.5 -39.5t-15.5 -42.5q-6 -8 -6 -16q0 -2 2 -8q10 -18 18 -31q6 -12 15 -25q8 -10 20 -20q18 -18 29 -45q8 -23 8 -45v-21q10 -10 14 -22v-17q8 -10 17 -18q10 -14 20 -27q6 -6 13 -12q23 -4 30 -27l8 -20q4 -4 9 -10q12 -16 20 -27q14 -14 35 -43q20 -25 31 -39 q12 -14 22 -27.5t25 -29.5q10 -14 31 -35q29 -31 40 -45q14 -16 25 -33q8 -14 18 -30q8 14 15 26q8 16 18 37q2 10 6 16l-2 2q-14 27 -12 52q0 18 6 39q4 8 4 18q2 12 2 25q0 8 -4 18q-4 16 -9 34.5t-9 35.5q-4 25 4 49l4 14q6 23 31 27q12 27 39 26q16 -2 27.5 -14 t11.5 -29l-2 -22q0 -18 2 -27q4 -20 6 -43q2 -20 4 -43q4 -27 2 -55q-2 -27 -8 -51q-4 -25 -11 -47q8 -23 7 -48q0 -23 -9 -45q-6 -14 -12 -30q-4 -12 -4 -21l-2 -14q0 -20 -19 -33l3 -2q14 -23 24 -35q6 -12 21.5 -31.5t25.5 -31.5l10 -15q14 -16 9 -36l2 -11q2 -12 6 -30 q4 -23 4 -41v-31v-33q-2 -12 -4 -26q0 -14 -2 -31q0 -18 -2 -37q-2 -20 -6 -37l-2 -16q-2 -16 -16.5 -26.5t-30 -7.5t-25.5 16.5t-6 29.5l2 16q2 16 4 33q2 12 2 25q-4 6 -6 14l-4 14q-4 16 -6 31q-2 20 4 43q2 10 2 16q0 2 -2 5q-10 12 -21 28q-2 4 -6 6q-12 4 -23 9 q-16 4 -30 8q-16 6 -27.5 21.5t-11.5 33.5q0 16 4 35v12q0 2 -2 4q-6 8 -14 17q2 -25 -17 -37l-16 -10q-18 -12 -31 -19q-12 -8 -29 -16q-10 -6 -26 -17q-16 -10 -27 -20q-10 -10 -14 -21q-10 -16 -29.5 -23t-38.5 -3q-14 6 -30 14q-12 -6 -29 -12q-20 -8 -39 -12 q-10 -2 -21 -7q-10 -4 -18 -10q-23 -18 -49 -18q-20 -2 -38.5 13t-18.5 38q0 14 2 33q-12 16 -23 30q-10 14 -16 31q-14 8 -27 17q-25 16 -45 43q-18 25 -31 49l-18 45q-6 20 -8 37q-2 12 -7 26q-4 18 -4 47v49q0 29 7 58q6 27 8 45q4 27 14 45q6 12 12 27q8 14 21 32 q4 4 8 11q-12 25 8 45zM231 358v0l9 -30q4 -18 6 -35q2 -16 4 -31v-33q0 -18 -4 -34v-13q2 -12 5 -21t9 -24q6 -12 16 -26q12 -20 19 -39q4 -16 6 -33q2 -10 4 -19q12 -6 21 -8q10 -4 22 -6t27 -4h24h29q16 2 31 4q14 2 28.5 5t32.5 9q20 6 39 13q16 6 31 12q14 6 31 16 q20 12 41 23q16 6 30 16q8 6 17 13v8t-2 6q-2 4 -11 8q-16 8 -30 19l-17 10q-14 8 -17 24.5t5 30.5q2 4 6 6q-4 8 -12 17q-14 16 -25 26q-8 6 -14 8q-18 6 -35 17q-18 10 -35 29q-12 12 -22 24q-10 8 -17 12q-4 2 -8 2l-20 -4q-25 -4 -47 4q-16 6 -29.5 21.5t-13.5 34.5 q0 16 2 30v23v33v16l-9 -10q-12 -14 -24 -29q-10 -12 -19 -22q-10 -16 -18 -29q-6 -6 -10 -12l2 -15q2 -16 -7.5 -29.5t-25.5 -15.5q-13 -4 -25 2z" />
<glyph unicode="'" horiz-adv-x="401" d="M210 1244q11 -11 11 -30q31 -6 31 -38q14 0 27.5 -9.5t15.5 -23.5l4 -17q4 -29 -6 -51q-8 -20 -23 -37q-6 -8 -10 -14q6 -18 8 -31q6 -20 6 -39q0 -2 2 -6q12 -20 15 -41q6 -35 -25 -61q-14 -12 -28 -23q-10 -6 -21 -18q-10 -8 -13 -15.5t-5 -15.5t-2 -14q2 -20 -2 -39 q-2 -10 0 -21v-12q0 -16 -11.5 -28.5t-28 -12.5t-28.5 11.5t-12 27.5v14q-2 16 2 35q2 8 2 17q-2 18 2 39q0 8 4 16l-4 20q-2 20 -5 38t-5 36q-2 20 -2 43q0 16 -3 31q0 14 -2 29q-2 18 -2 34q0 14 2 39v35q0 16 2 33q2 18 7 39q8 27 28 47l13 12q10 12 27.5 12t28.5 -11z " />
<glyph unicode="(" horiz-adv-x="653" d="M537 1241q23 -23 6 -49l-8 -12q-4 -8 -7 -17q-2 -14 -2 -28q-2 -14 -2 -27q0 -25 -17.5 -35t-35.5 -8t-27 8q-18 12 -34 29q-4 6 -11 8q-6 2 -16 0q-16 0 -28.5 -2t-26.5 -4q-2 -2 -9 -6q-10 -8 -18 -17l-6 -12v-12q4 -23 2 -43q-4 -16 -8 -31q-6 -20 -21 -41 q-10 -12 -18 -25.5t-14 -25.5q-2 -6 -5 -12q-2 -10 -2 -19q0 -6 2 -14q6 -16 9 -37q0 -10 4 -25q6 -18 10 -34q2 -14 4 -29q4 -16 2 -35q0 -20 -8 -45t-19 -43l-18 -27q-6 -12 -12 -26q-4 -10 -6 -19q-2 -12 -4 -28t-5 -37q-2 -16 0 -33q2 -23 2 -39q0 -14 3 -31 q4 -18 8 -32q8 -23 10 -43q2 -18 4 -35v-33.5t-1 -34t-5 -33.5q-2 -8 -2 -18v-29q0 -10 2 -20q4 -14 8 -27q2 -10 2 -20q4 -4 8 -6q16 -12 37 -27q16 -10 29 -16q20 -8 41 -19q16 -8 37 -16q23 -10 43 -21q18 -8 30 -12q8 -4 15 -4q4 -2 10 2l6 2l6 8q12 12 28.5 13.5 t29 -10t13.5 -28t-9 -28.5l-8 -8q-2 -4 -7 -8q-6 -29 -22 -50q-16 -18 -37 -28q-16 -8 -35 -13q-10 -2 -18 -6t-17 -12q-6 -6 -10 -12q-4 -10 -4 -19q-4 -20 -42 -23t-42 21q-2 12 -6 27q-6 23 -6 41v29q-2 14 -2 26q0 10 -2 21l-2 2q-4 2 -9 4h-29.5h-27.5q-8 -2 -14 -4 q-2 -2 -4 -6q-10 -16 -47 -10.5t-33 36.5q0 12 2 27q2 18 6 35q2 10 6 28q2 18 6 31q2 4 2 8q-6 14 -10 25q-4 12 -10 24q-6 18 -10 39q-2 16 -4.5 35t-2.5 41v33q-4 20 0 39v16q-2 16 -2 33v31v32t2 33q0 14 2 29v35q2 14 3 32q0 20 2 39v37q0 23 2 43q2 18 2 35v39 q2 14 2 33q0 20 2 71q4 51 4 68q0 23 2 39q2 12 6 41q2 27 2 37q0 12 2 26q0 18 4 37q4 16 19 49q14 35 26 56q16 27 43 41q18 10 35 20q20 14 41 21q18 6 39 10q20 4 41 10q16 2 31 8q18 6 34.5 9t28.5 6l15 4q31 6 45 -23zM209 -57v-2v2z" />
<glyph unicode=")" horiz-adv-x="638" d="M440 106q-2 2 -2 3q-33 4 -51 32q-18 29 -8 60q4 16 12 32q10 20 25 39q10 10 16 23q6 10 10 18v4q-2 14 -6 35q-2 20 -2 37v29v31q-2 20 2 40q2 10 2 19v18q-16 8 -30 19q-37 27 -29 65q6 23 20 43q6 8 9 15q2 10 4 26q2 10 2 21q0 16 2 33q0 23 4 38q4 12 6 23l10 35 q4 14 4 24q2 8 0 17q0 6 -4 14t-12 23q-12 16 -23 34q-16 25 -16 50q-2 20 8 45q4 12 8 22q-2 2 -8 6q-16 -4 -31 -4q-37 0 -53 35q-4 0 -8 2q-23 4 -43 16q-8 6 -18 11q-12 -4 -25 -11q-2 -4 -2 -10v-63q0 -16 2 -31q0 -18 -6 -41q-2 -16 -42 -17t-40 23q2 12 0 19 q-2 12 -6 24q-6 20 -6 41q0 8 -2 14q-4 14 -9 31q-4 25 2 47q4 14 11 31q6 14 14 31l6 14q8 23 33 25q18 29 49 12l17 -8q14 -6 30 -13q16 -6 39 -10q25 -4 37 -4q20 -2 39 -10q8 -4 25 -6q16 -6 36 -17q23 -12 37 -36q12 -20 19 -44q6 -20 11 -40.5t11 -45.5t8 -38 q2 -14 4 -27q4 -18 5 -33v-20q2 -14 2 -31v-39v-47q-2 -20 0 -33v-28v-27q0 -14 -2 -39v-35v-26v-95q0 -16 -2 -39t-5 -43v-36v-39v-41v-39v-33q2 -18 2 -43q-2 -18 -2 -35q0 -18 -2 -37v-10q2 -18 0 -41q-4 -25 -16 -43q-10 -16 -25 -31q-10 -14 -22 -28q-20 -23 -41 -39 q-14 -12 -29 -23q-4 -12 -12 -20l-12 -15q-16 -14 -33 -26q-18 -14 -39 -23q-14 -6 -27 -12q-8 -4 -16 -12t-16 -21q-4 -6 -23.5 -12t-40 0t-20.5 33q0 20 8 45q8 20 16 37q12 25 35 39q12 18 33 18q8 6 16 14q18 14 39 23q16 6 33 14q16 8 33 21q18 12 34 24q12 8 23 17 q8 12 12 26q2 6 2 10z" />
<glyph unicode="*" horiz-adv-x="788" d="M328 1202h12q31 12 49 -12l4 -6q27 -10 27 -37q4 -6 6 -12q16 -25 16 -50q0 -29 -24 -57l-2 -2v-41q20 14 41 27q29 16 50 28.5t50 26.5l29 14q14 8 30.5 3t22.5 -19h2q6 -6 8 -14q6 -14 0 -29.5t-20 -24.5l-13 -4q-6 -2 -12 -6q2 -2 2 -6q4 -16 4 -37q2 -33 -32.5 -41 t-47.5 8q-14 12 -28 27h-8q-2 -2 -7 -2q-8 -4 -16 -10q-6 -10 -16 -17l-13 -8q-4 -2 -6 -2q20 -14 39 -29q27 -20 51 -36q23 -18 47 -37q12 -8 23 -17h2q27 -4 49 -30q12 -12 19 -25l10 -10q25 -25 2 -53v-7q0 -16 -12.5 -28.5t-28.5 -12.5t-27.5 12.5t-11.5 28.5v13 q0 6 -2 12q-10 10 -25 18v2q-8 -2 -18 -10q-6 -4 -23.5 -7t-36 5t-22.5 33v31q0 4 -2 10q-8 4 -18 8q-27 -27 -56 -2v-43q0 -18 -2 -33q4 -6 6 -12q10 -25 7 -49q-4 -25 -19 -47v-2v-7q18 -20 23 -47q2 -16 2 -28q2 -14 2 -31v-66q0 -16 -11.5 -28.5t-28 -12.5t-28.5 12.5 t-12 28.5v66v23q-27 10 -27 38v29q-2 8 -2 19q0 8 2 18v29q2 14 2 28q0 10 2 23q-10 18 -14 35q-8 27 2 53l-6 10q-2 8 -2 17h-4h-19q-10 0 -20 4q-2 -2 -6 -4q-2 -2 -6 -5q-4 -10 -13 -16l-12 -10q-6 -6 -10 -12q0 -2 -2 -5q0 -12 -2 -26q-6 -25 -17 -43q-14 -25 -48 -7.5 t-30 38.5q4 20 13 43q2 4 2 8q-2 27 10 49q12 27 37 41q14 6 28.5 15t26.5 18q14 8 31 18l16 12q-4 4 -10 9l-20 12q-12 -6 -23 -12q-23 -14 -49.5 1t-24.5 42q0 8 -4 18q0 2 -2 4l-8 6q-14 8 -19.5 23.5t3.5 29.5q10 20 32 21q16 18 39 14q14 -4 23.5 -16t7.5 -29 q23 -12 39 -18q0 -2 2 -2q8 0 16 -2q25 -4 41 -9q2 -2 6 -2v5l-2 22q-4 27 -8 47t-8 53l-4 31q-2 16 8.5 29.5t26.5 15.5z" />
<glyph unicode="+" horiz-adv-x="1075" d="M500 883q8 2 16 -2q8 4 19 2q14 0 25 -13.5t11 -27.5l-2 -21q-2 -18 -2 -30v-119q0 -23 2 -43q2 -25 2 -51q0 -18 2 -50q0 -6 2 -12q10 0 23 -2q31 -2 55 -2h52q25 0 49 -2q20 -2 34 -2q18 2 37 2q14 0 33 2q25 2 43 2l14 -2q27 0 37 -27q23 -10 23 -36 q0 -16 -12.5 -27.5t-28.5 -11.5h-14q-6 0 -15 -2q-23 -10 -47 -11q-12 0 -18 -4q-18 -8 -37 -10q-2 0 -8 -2q-8 -6 -19 -19q-8 -8 -23.5 -13t-33 0t-27.5 24q-6 14 -10 22q-4 0 -8 -2q-16 -2 -37 -4q-23 -2 -39 0q-10 2 -20 2q0 -14 2 -31q2 -49 2 -69v-45v-82q0 -18 -2 -37 q-2 -10 -2 -29q2 -23 0 -41q-2 -14 -3 -24v-13q2 -16 -8 -26q2 -8 4 -14l2 -13q14 -10 17 -26l2 -17q0 -12 2 -22q4 -12 6 -27q4 -23 -2 -47q-2 -10 -2 -18q0 -6 2 -11q12 -23 12 -47v-14q0 -16 -12 -27.5t-28.5 -11.5t-28 11t-11.5 28v14q0 6 -4 10q-10 23 -10 48 q0 18 6 38v11q-2 12 -6 26q-2 14 -4 33v6q-12 8 -14 23l-4 12q0 6 -9 16q-16 25 -20 56q-2 29 6 51q2 6 2 18q0 6 -2 13q-10 20 -13 40.5t-1 41.5q2 25 14 45q8 14 16 24q2 6 2 10q2 14 3 27q2 10 2 25q0 12 -2 28v27q-12 -4 -27 -8q-35 -12 -66 18q-12 12 -22 29 q-14 0 -29 2q-10 2 -20 2q-16 0 -33 2q-8 -8 -14 -16q-12 -16 -25 -31q-14 -16 -41 -16.5t-41 20.5q-6 8 -14 14q-2 2 -6 2l-15 2q-16 2 -27.5 14.5t-9.5 28.5v5q-2 14 6.5 27t22.5 18l14 4q18 6 50 6q27 2 49 4q23 2 49 2q25 0 53 2q29 2 62.5 4t64.5 2h21q-2 2 -2 6 q-6 18 -11 39q0 10 -2 23q-8 4 -16 6q-27 10 -43 35q-12 23 -10 49q0 18 6 37q6 18 14 35q8 18 21 38q8 14 12 23q2 8 2 14l-2 17q-2 16 9.5 29.5t27.5 13.5z" />
<glyph unicode="," horiz-adv-x="456" d="M109 -205q-2 8 -3 15v22v8q-14 29 11 49l4 2q2 4 2 9q0 20 4 37q6 20 23 43q14 18 30 32q8 8 17 21q4 6 4 9v5q-33 2 -58 31q-20 25 -24 51q-6 10 -8 23q0 20 6 38q2 8 6 19q14 35 57 41q27 4 47 0q16 -2 39 -14q31 -14 43 -46v-2v-2q14 -10 25 -26q18 -25 20 -49 q2 -23 -6 -45q-6 -16 -20 -35q-4 -10 -6 -19q-4 -20 -9 -39q-6 -23 -30 -53q-23 -27 -39 -41l-15 -14q-12 -8 -28 -8q-6 -8 -15 -15v-10v-12q2 -6 2 -15v-16v-45q-2 -23 -2 -37v-16q0 -16 -12 -28.5t-28.5 -12.5t-28 12t-11.5 29v16q0 18 3 43v39v6z" />
<glyph unicode="-" d="M338 -4q-6 2 -10 4q-12 10 -14.5 26.5t8.5 30.5l10 13q2 4 2 12v45v25q-2 14 -4 30q-2 14 -4 33v39q2 18 4 35q0 8 -2 18q-2 12 -4 23q-6 18 -7 39v22h-30q-12 0 -27 -2q-6 -2 -10 -6q-12 -8 -21 -18q-6 -8 -8 -13q-10 -29 -45 -21.5t-39 27.5q-2 4 -8 13q-18 23 -25 47 q-6 20 4.5 40.5t30.5 28.5l15 5q20 6 36 -9q4 0 9 -2q14 -2 39 -4q23 -4 47 -4q29 0 59 -2q37 -4 76 -6t76 -2h24q14 4 31 6q20 4 41 2q16 -2 33 -4l12 -4h59q31 0 64 2q37 6 80 8l41 2q25 0 37 -20q8 -4 12 -13q8 -14 4 -30.5t-19 -24.5l-14 -8q-23 -12 -47 -14 q-16 -2 -35 -3q-14 0 -26 -2q-14 0 -25 -2q-12 -2 -27 -4q-14 -4 -24 -7t-27 -9q-8 -4 -16 -12q-8 -6 -27.5 -10.5t-37 6t-17.5 34.5q0 12 -2 23v4h-25.5h-34.5q-14 -4 -28 -6q-12 -2 -27 -4q-2 -2 -8 -6l-2 -2q-2 -23 -14 -41q-6 -14 -13.5 -26.5t-11.5 -25.5l-8 -20 q-2 -12 -6 -29q-2 -12 0 -24v-2q6 -10 4 -23l-2 -14v-33v-21q2 -6 2 -14v-16q0 -16 -2 -41v-25q-2 -16 -14.5 -26.5t-28.5 -10.5q-23 3 -33 23z" />
<glyph unicode="." horiz-adv-x="468" d="M287 20q-10 -2 -23 -4q-2 0 -4 -2q-6 -4 -10 -8q2 -10 2 -16q0 -18 -6 -39q-2 -8 -2 -16.5t-20.5 -10.5t-40 3t-19.5 12q0 18 2 36v27q-2 4 -2 8q-31 -18 -53 8q-10 12 -8.5 28.5t14.5 27.5l12 12v12q-2 10 -4 21q-2 25 8 49q10 23 31 39q25 18 53 20q23 2 39 0 q20 -2 41 -10q23 -10 43 -39l14 -18q10 -12 7 -28.5t-15 -27.5v-4q27 -14 21 -45q0 -4 -5 -10q6 -16 -2 -30.5t-23 -19.5t-29.5 3t-20.5 22z" />
<glyph unicode="/" horiz-adv-x="798" d="M377 174q-2 -16 -4 -37q-2 -27 -6 -47l-2 -16q2 -10 2 -23q6 -8 6 -20v-13q0 -27 -15 -49q-2 -2 -2 -4q0 -10 2 -24q0 -6 4 -13l9 -12q8 -14 4 -30.5t-17.5 -24.5t-30 -4t-24.5 16l-8 12q-12 20 -16 45q-2 18 -3 35v12q-14 8 -18 27q-12 12 -12 29q0 2 1 3l1 1l-6 4 q-2 -8 -4 -18q-4 -12 -5 -23q-4 -23 -14 -41q-4 -8 -6 -16q-4 -14 -8 -27q-4 -10 -4 -18q-2 -12 -2 -27v-31q0 -14 -1 -30.5t-5 -32.5q-2 -6 0 -10q2 -16 2 -31q2 -23 -5 -43q-4 -12 -4 -23q-2 -10 -2 -20v-29q0 -12 2 -22q2 -16 2 -33t-2 -33q-2 -14 -2 -27q-2 -10 -2 -24 v-17q0 -16 -12 -27t-27.5 -11t-28 11t-12.5 27v17q0 18 2 33q0 12 2 26q2 12 2.5 24.5t-2.5 24.5q-2 14 -2 31v27q0 16 2.5 32.5t6.5 34.5q4 8 2 15q0 12 -2 24q-2 20 2 39q2 12 3 23.5t1 23.5v31q0 14 2 27q-27 18 -15 47l9 16q8 18 14 33q6 14 14.5 34.5t18.5 49.5 q4 8 6 16q2 18 10 35q2 12 8 23q6 14 13 32q8 16 14 35q8 20 16 41q8 16 13 35q6 20 12 41q8 20 16 43q6 18 13 35q6 18 14 39q6 23 14 45t19 43q8 18 14 37q6 20 15.5 41.5t16.5 38t15 38.5q8 18 15 37q6 23 14 43q10 18 18 37q8 14 15.5 28.5t13.5 30.5q6 14 12 31 q8 20 23 49q14 27 24 52q12 29 23 45q8 12 14 28q8 20 19 39q6 14 10 25l4 14q4 14 18.5 22.5t30.5 4.5q23 -8 27 -33l2 -2q18 -20 20 -47q2 -18 4 -33q0 -16 -4 -39q-2 -20 -8 -39q-4 -16 -8 -31q-6 -23 -23 -43q-20 -25 -47 -32q-14 -2 -26 -4q-6 -10 -7 -15 q-4 -16 -8 -33q-4 -16 -14 -32q-4 -8 -8 -21q-4 -16 -10 -35q-6 -10 -7 -18q-2 -14 -6 -29q-2 -14 -4 -26q0 -12 -2 -29v-16q4 -16 4 -33q0 -8 2 -19q4 -16 2 -34q-2 -29 -24 -52q-16 -16 -33 -28q-12 -8 -25 -21q-8 -6 -10 -12q-6 -8 -8 -18q-6 -16 -16 -35q-6 -10 -11 -23 q-6 -16 -10 -28q-2 -8 -8 -17q2 -8 2 -16q4 -18 6 -31q4 -14 6 -31l2 -12q5 -27 -18 -41z" />
<glyph unicode="0" horiz-adv-x="1085" d="M721 49q4 2 18 2q8 2 23 6q14 6 24 11q10 4 19 10q2 4 2 10q2 20 6 39q4 14 10 30.5t13 30.5q8 16 16 35q8 16 12 29q4 10 6 20v23q0 10 -2 20q-2 14 -6 33q-6 20 -10 41q-4 20 -8 41q-2 23 -2 45v37q2 18 8 39q4 16 8 35l4 32v31v33q0 16 2 31q0 10 -2 26q-2 23 -2 41 v33q0 25 12 47q4 10 7 17q4 14 8 32q4 8 4 15v4l-4 24t-4 25q0 4 -2 10q-4 2 -8.5 5t-6.5 3q-4 0 -12 -2q0 -2 -2 -2l-12 -24q-6 -18 -19 -35q-12 -18 -40.5 -20.5t-45.5 22.5q-14 29 -4 57q2 6 2 10q-4 4 -8 7q-8 2 -18 4q-6 2 -13 0q-12 -2 -26 -6q-12 -2 -23 -7 q-6 -6 -14 -10q-6 -8 -8 -16q-6 -20 -15.5 -37.5t-31 -22t-37.5 6.5q-14 -14 -19 -21q-10 -16 -33 -41q2 -4 2 -10q4 -16 7 -29q4 -16 4 -33v-24q0 -16 -4 -35q-2 -14 -4 -31q-2 -12 -7 -24q2 -14 2 -29q-2 -12 -2 -22q0 -16 -4 -33q-2 -12 -6 -27v-8t-18.5 -17.5t-36 -18.5 t-25.5 18q-4 14 0 34q-2 10 -2 19v33q0 23 4 38q2 10 6 19l-4 16q-2 16 -2 31.5t2 34.5q0 10 -2 20t-6 19q-8 18 -10 39q0 20 2 39q0 4 1 9t2 11t2 10t1 6q-8 14 -16 27q-6 10 -11 25l-2 -11q-4 -23 -20 -43q-6 -10 -10 -18q-2 -6 -2 -10v-23q2 -18 0 -37q-2 -18 -4 -32 q-2 -10 -5 -23v-29q2 -14 4.5 -29.5t6.5 -29.5q6 -18 6 -35q2 -14 4 -29q2 -16 2 -30q2 -25 -12 -49q-14 -25 -39 -35l-8 -8q-6 -8 -7 -13q-2 -12 -4 -22q-2 -18 -6 -37q-2 -6 -6 -14q0 -10 -2 -25q0 -23 -2 -43q-2 -18 -2 -32.5t2 -26.5q2 -18 2 -33v-29q0 -14 2 -31 q2 -18 6 -30q0 -6 2 -11q12 -8 25 -16q16 -12 29 -22q16 -10 30 -25q2 -4 6 -6q2 -2 4 -2q18 -8 35 -13q18 -6 33 -12l16 -6q25 -4 39 -8q10 -4 21 -4q14 -2 26 -2q10 -2 23 0q14 0 29 2q14 2 30.5 3t32.5 1q12 2 27.5 4t46.5 8zM356 997q-2 0 -2 2q0 -2 2 -2zM166 121 q-4 2 -6 2q-25 10 -43 35q-18 27 -13 57q2 12 5 27q2 20 10 39q8 16 12 26q4 14 6 27q4 14 10 31q6 16 17 32q4 6 6 13l2 16q0 16 10 29v18q0 27 2 49q2 16 0 37q-2 27 0 45q2 14 2 35q0 23 -2 43v39v27q0 16 4 43q4 20 7 43q2 27 12 55q8 27 20 49q10 20 21 41q10 20 20 37 q10 20 27 37q16 16 35 28q23 14 45 21q12 4 28 8q16 6 33 8q14 2 33 4q16 2 32.5 3t35.5 3q18 2 34 0h29h37q20 0 39 -2q16 -2 41 -4q16 -2 31 -4h32q14 -2 27 -2q16 0 31 -2h14l12 -4q20 2 35 -12l16 -19q23 -23 33 -47q2 -2 2 -4q20 -25 21 -53v-25v-14v-2q6 -23 6 -39 v-27v-22q2 -16 2 -33q2 -23 4 -41v-43q-2 -18 -2 -38.5t-2 -41.5v-31q0 -12 2 -32q2 -25 -2 -45q-2 -12 -6 -29q-2 -10 -2 -18q-2 -14 -2 -27v-21q0 -12 2 -34q4 -27 4 -54v-43q-2 -20 -6 -41q-2 -14 0 -26q0 -27 -6 -47q-2 -12 -7 -25q-4 -16 -8 -33q-6 -18 -16 -37 q-8 -14 -17 -26q-8 -16 -24 -35q-2 -4 -4 -4q0 -8 2 -18q2 -16 2 -35q0 -16 -2 -35q-2 -16 -3 -27.5t-3 -29.5q0 -10 2 -19q2 -18 -37 -24.5t-43 6.5l-8 32q-4 12 -9 23q0 4 -2 8q-14 -4 -26 -4h-25q-18 0 -39 6q-10 2 -18 2q-6 0 -12 -2q-4 -2 -11 -8q-18 -25 -39 -33 q-20 -10 -41.5 -3t-31.5 26q-2 4 -6 8q-4 2 -9 2q-14 0 -32 2q-8 0 -19 -2q-29 -4 -55 8q-2 0 -4 2q10 -31 -17 -47q-14 -8 -30.5 -4t-24.5 19l-8 12q-10 18 -14 39q-4 14 -7 30v15q-2 8 0 14q-4 4 -6 8q-10 4 -18 11q-16 10 -31 20q0 2 -2 4l-4 -16v-17q2 -12 2 -28 q2 -16 2 -33q0 -18 -8 -28.5t-20.5 -10.5t-24.5 3t-20.5 6t-10.5 5q-23 23 -31 49q-4 20 -4 44t4 45q4 18 13 36q4 9 8 19z" />
<glyph unicode="1" horiz-adv-x="667" d="M158 -27q2 16 14 26.5t29 10.5l16 -2q8 0 21 -2l-2 10q-6 25 18 43v21v39q2 18 4 37v10q0 10 -1 22.5t-3 30.5q-2 16 -4 35v36.5t2 37.5q0 23 8 43q6 14 14 30q2 4 2 7q-2 12 -4 22q-4 18 -6 37v31q0 14 2 30v22.5t-1 23t-3 22.5t-8 22q-10 25 -10 46v2q-12 16 -10 34 l4 17q2 10 2 20q0 12 -2 25q0 20 6 43q6 16 12 33q2 10 4 18q2 20 12 41q6 12 11 23q2 8 2 16q2 10 0 18q-2 12 -4 23q-4 18 -7 37q-2 10 -2 20q-2 0 -4 -2q-12 -8 -28 -20q-12 -8 -23 -19q-6 -8 -8 -16q-2 -6 -27 -14l6 -17q10 -27 -12 -43l17 -33q8 -14 1.5 -30.5 t-20.5 -23.5t-29.5 -2t-23.5 20l-17 34q-14 27 11 47q0 2 -2 5l-11 32q-6 16 1.5 30.5t23.5 21.5q2 12 8 24q8 23 29 37q4 6 12 10l15 8q12 8 27.5 19.5t31.5 27.5q14 12 20 25q12 20 31 37q10 14 41 14t43 -26q8 -23 8 -45v-134q0 -18 -4 -34v-17q0 -14 -4 -41 q-4 -20 -6 -43q0 -25 -2 -39v-26q0 -16 -4 -43t-6 -35v-21q0 -14 -2 -40q0 -27 -2 -46q-2 -10 -3 -24v-37v-131q0 -18 -2 -37q-2 -12 0 -25q0 -20 -4 -49q-2 -29 -4 -43q-4 -12 -4 -30q-2 -18 -4 -41q-4 -25 -6 -45v-4v-11v-71q0 -20 -2 -37l-2 -15q0 -4 -2 -10h24h4 q10 16 29 17l19 2q20 2 34 2q18 10 39 2q31 -14 21 -47q4 -14 0 -27q25 14 45 -6l8 -6q10 -12 10 -28.5t-11 -29t-27.5 -12.5t-28.5 12l-6 6q-18 18 -9 43l-6 -4q2 -4 2 -10v-86q0 -29 -28 -37v-16v-2q10 -10 12 -25l4 -41q0 -16 -10.5 -28.5t-26.5 -14.5t-28.5 8.5 t-14.5 26.5l-4 33q-12 12 -12 29v16q0 10 -2 18l-2 13v4q-14 2 -25 10q-16 16 -27 37q-6 2 -10 2q-8 0 -14 -4l-15 -4q-18 -8 -34 2q-6 -20 -43 -17.5t-39 25.5q0 6 -4 18q-10 25 -9 47l3 15q2 10 8 20v4z" />
<glyph unicode="2" horiz-adv-x="1130" d="M137 -59q-2 8 0 16q-2 6 -2 12q-4 12 -6 23q-10 10 -16 20q-14 27 -9 56q2 14 7 26q4 14 8 29.5t10 36.5q4 18 10 41q6 25 13 39q4 16 12 36q10 20 20 41q12 27 33 45q16 16 35 29q18 14 39 29q23 16 45 31q27 16 41 22q8 4 33 23q29 23 45 30q14 10 30 19q18 10 35 16 q14 6 29.5 13.5t40.5 21.5q27 12 43 22q16 6 33 17q16 8 30 14q14 8 29 13q6 4 23 14q20 16 36 29q12 8 23 18l16 16q-2 12 -2 25q0 10 -1 20.5t-3 20.5q-4 18 -4 37q0 25 14 49q8 12 13 24q2 4 4 9q-16 0 -31 4q-29 4 -47 28q-10 14 -21 25q-14 16 -22 35q-16 6 -31 14 q-14 6 -26 14q-6 2 -11 3q-14 2 -26 2q-8 0 -23 -5q-4 -16 -10 -30q-4 -6 -4 -13q-4 -25 -43 -12.5t-39 23.5q0 4 2 8q-23 2 -25 10q-2 2 -2 4q-16 -12 -34 -14q-23 -4 -45 4q-6 2 -15 2h-29q-8 0 -16 -2q-6 -2 -14 -10q-16 -14 -31 -25q-6 -4 -14 -14q-8 -12 -15 -21 q-6 -12 -12 -28t-10 -29q-4 -16 -17 -39q-4 -4 -9 -7t-20.5 -10t-26.5 -8.5t-20.5 7t-9.5 28.5q0 18 5 37q4 12 10 27l-2 4q-8 23 -10 43q-2 18 0 39q2 23 14 45q10 18 31 37q18 16 41.5 31.5t50.5 23.5q25 8 40 13.5t38 9.5q20 4 30 8q16 4 39 6q23 4 49 4q27 0 49 -4 q20 -2 41 -6t45 -12q23 -6 39 -9q20 -4 41 -10q18 -6 35 -10q16 -4 33 -8q20 -6 39 -19q16 -10 33 -26q16 -14 28 -27q16 -16 29.5 -36.5t22.5 -39.5q8 -18 12 -35l8 -32q4 -20 4 -37v-62q0 -18 -6 -45q-8 -25 -21 -45q-4 -10 -12 -20l2 -2q0 -16 -2 -33q-2 -25 -18 -47 q-6 -10 -8 -19q-2 -4 -3 -10q2 -14 3 -31q2 -16 2 -34q0 -20 -17.5 -38t-40.5 -16q-31 4 -51 33l-2 2q-14 -8 -27 -16q-14 -6 -28 -15q-20 -10 -41 -14q-20 -4 -37 -6q-12 -2 -25 -2l-4 -4q-8 -6 -12 -15q-10 -16 -21 -32q-10 -14 -19 -27.5t-17 -28.5q-23 -33 -60 -28 q-14 2 -26 4q-6 0 -11 -2q-10 -4 -20 -10q-12 -10 -27 -19q-10 -4 -26 -18q-18 -10 -27.5 -15.5t-20.5 -13.5q-8 -8 -12 -16t-8 -19q-2 -12 -8 -31q-6 -18 -12 -34q-8 -14 -17 -31q-10 -18 -22 -35q-10 -12 -19 -24q-8 -12 -10 -21v-2h4q23 -2 35 -2q16 0 34.5 -1t41.5 -5 q20 -2 36 -2h33q2 0 4 2h11h30q20 -2 37 -2t31 2q23 2 37 4q16 2 33 4q20 4 40 4q16 2 33 2q18 2 37 2q16 0 31 2q20 2 43 -2h20q16 2 33 2h41q23 0 35 4q25 6 47 6h20q18 25 48 13q14 -6 20 -21.5t0 -29.5l-6 -15q-6 -16 -23 -37q-16 -20 -32 -32q-10 -6 -27 -19 q-4 -6 -10 -10q2 -12 -2 -23q-4 -14 -19 -22q-2 -4 -4 -10q-2 -8 -3 -19.5t-7 -17.5q0 -12 2 -25q0 -23 2 -47q2 -25 2 -41v-16q0 -16 -12.5 -27.5t-28.5 -11.5t-27.5 11t-11.5 28v16q0 12 -2 37t-2 45q-2 25 -2 39v2q-6 16 -10 31q-6 23 -4 43q0 16 4 33h-4q-12 -4 -25 -7 q-18 -6 -37 -6h-26q-8 0 -17 -2q-6 -2 -12 -6q-8 -8 -16 -20q-12 -18 -27 -37q-14 -16 -39 -19.5t-45 13.5q-12 14 -27 28l-4 4q-16 -8 -30 -14t-27 -10q-23 -6 -45 -4q-31 2 -51 28l-4 4q-10 2 -19 5q-16 0 -26 2q-6 0 -15 -2q-2 0 -6 -5q-10 -12 -22 -28q-23 -29 -54 -29 q-33 -2 -57 29q-14 23 -21 47q-2 10 -6 22q-2 5 -4 11zM874 -25v-4q2 2 5 4h-5z" />
<glyph unicode="3" horiz-adv-x="1026" d="M586 -96q-10 8 -20.5 15t-20.5 11q-4 2 -8 2q-14 0 -33 2q-20 2 -39 7q-6 4 -12 4q-4 0 -15 -4q-12 -6 -20 -13q-12 -10 -25 -20q-14 -14 -35.5 -16.5t-40.5 10.5q-14 10 -28 24q-10 10 -21 17q-18 10 -37 24q-23 18 -34 37q-8 14 -19 31q0 2 -2 4l-8 8q-16 12 -31 31 q-18 20 -26 39l-7 12q-6 16 1.5 31.5t21.5 21.5q25 10 43 -10q31 6 43 -22l6 -17q6 -14 12 -29q4 -6 7 -12l8 -4q14 -10 37 -20q20 -10 32 -13q18 -6 37 -12q8 -4 25 -4q18 -2 39 0q27 4 47 6q16 0 41 2q27 4 40 5t34 5q18 2 34 9q18 4 39 12q23 10 37 14q14 6 27 14 q4 2 10 7q6 8 10 16q4 4 4 8q2 14 9 33q4 20 16 39q12 18 24 35q6 8 7 12q2 10 2 20v25q0 10 -2 23q0 6 -4 12q-6 14 -13 29q-2 6 -10 12t-14 8q-8 2 -15 2q-6 0 -16 -2q-12 -2 -25 -6q-23 -8 -47 -4q-18 4 -33.5 19.5t-15.5 35.5v29v14h-6h-33q-18 2 -37 4q-10 2 -20 2 q-2 0 -8 -4q-8 -4 -13 -8q-2 -4 -2 -8q0 -6 -20.5 -10.5t-40 -2t-19.5 12.5q0 18 3 35q2 8 2 18q-2 8 -5 16q-14 27 -8 54l2 12q4 16 18.5 25.5t30.5 5.5q12 -2 21 -13l20 4q18 4 35 11q16 6 37 12q16 4 35 12q25 12 45 21q23 10 43 18q18 8 33 21q8 6 16 14v2q2 10 0 23 q-2 20 8 43q6 18 18.5 35.5t30.5 31.5l23 23q0 6 -2 12q0 8 -6 18v2q-4 -2 -8 -6q-20 -10 -47 3.5t-27 39.5l-1 3t-5 6q-35 14 -41 51q-2 12 -4 26l-4 4q-10 8 -21 13q-8 4 -14 6h-21q-6 0 -12 -4q-16 -10 -35 -17q-25 -10 -49 -8q-33 2 -53 31q-6 0 -12.5 -1t-14.5 -7 q-8 -4 -10 -11l-16 -28l-7 -17q-8 -16 -28 -20q6 -27 -17 -41l-18 -12q-6 -4 -10 -6q-12 -12 -25 -21q-16 -12 -33 -20q-12 -6 -24 -13q-2 -10 -4 -22q-4 -16 -11 -33q-14 -29 -42.5 -28t-41.5 18q-18 23 -18 51q-10 16 -4 33l4 12q6 20 27 47q6 10 12 19l2 2l16 28t17 31 q12 20 29.5 38.5t37.5 31.5q12 10 31 24q23 16 43 29q18 8 37 18q23 10 47 15q16 2 37 6q23 2 43 2q18 0 34.5 -1t35.5 -5q16 -2 34 -4q20 -4 43 -11q23 -8 39 -18q14 -8 35 -23q20 -12 39 -28q20 -18 39 -43q14 -20 22 -33q14 -14 27 -37q16 -12 27 -29q10 -18 16 -38 q8 -29 -4 -54q0 -4 -2 -8q-2 -8 -2 -18q-4 -23 -12 -41q-8 -16 -21 -37q-12 -18 -23.5 -33.5t-29.5 -36.5l-8 -12q-2 -2 -4 -6q-14 -18 -29 -33q-14 -10 -29 -23q-16 -14 -37 -22q-14 -8 -26 -14q10 -2 22 -5q8 0 19 -4q16 -6 26 -10q14 -4 29 -10q14 -6 31 -14 q23 -10 41 -31q18 -18 30 -41q8 -18 17 -35q10 -20 14 -39q2 -18 4 -35.5t2 -31.5v-9q20 -14 17 -39l-4 -14q-2 -10 -2 -22v-31q-2 -18 -9 -35q-4 -16 -10 -33q-6 -12 -16 -30q-4 -10 -9 -21q-4 -6 -4 -20q0 -20 2 -33q2 -29 -18 -34t-43 7l-23 10q-10 18 -14 25 q-10 -12 -24 -25q-14 -14 -25 -26q-4 -4 -6 -8q-2 -14 -5 -26.5t-5 -25.5q-2 -16 -9 -34q-4 -8 -10 -17q2 -8 2 -16q-2 -18 -8 -37q-2 -12 -2 -27q-2 -12 0 -24q0 -18 2 -25q0 -10 4 -22l4 -15q4 -16 -4 -30.5t-23.5 -18.5t-31 4.5t-19.5 22.5l-4 16q-4 18 -6 33 q-2 18 -2 29q-2 16 0 37q0 20 6 38q0 6 2 15l-2 2q-24 12 -22 39z" />
<glyph unicode="4" horiz-adv-x="1110" d="M147 469q25 29 35 39q10 12 23 29l24 32q14 18 35 39q16 18 29 37q16 20 31 41q12 16 22 35q14 25 35 47q16 18 33 39q16 20 37 43q14 16 26 39q16 29 28.5 48t29.5 40l22 33q10 18 27 45q14 27 26 47q14 27 33 45l14 14q12 10 28.5 10t29.5 -12q14 -14 10 -37 q8 -8 12 -18l13 -37q6 -16 -5 -33l-2 -16q-4 -25 -4 -35q0 -14 -2 -37q-2 -16 -2 -33q-2 -16 -2 -51q-2 -33 -2 -61q0 -29 -2 -68q-2 -35 -2 -67q-2 -35 0 -74l4 -78q0 -35 2 -63q31 2 55 4q29 2 60 2h47q25 2 43 2h4h2q14 6 29.5 0t21.5 -21.5t0 -29.5q10 -10 13 -27 q2 -16 -9.5 -28.5t-27.5 -14.5l-19 -2q-16 0 -24 -2q-16 -4 -35 -6q-10 0 -19 -2q-6 -8 -6 -15q-6 -23 -22 -45q-14 -18 -42 -19t-44 25q-6 12 -15 27q-2 4 -6 6v-63q0 -31 -1 -65t-5 -64q-4 -27 -4 -52q0 -29 -4 -55q-4 -20 -4 -37q0 -20 -2 -37l-2 -12q0 -14 -10 -24 q0 -6 -2 -17v-18q2 -4 6 -11q20 -25 22 -51q2 -18 -2 -37v-4l8 -34q2 -16 -7 -31t-24.5 -18t-29.5 6.5t-19 23.5l-6 37q-4 8 -2 18l2 15v18q0 2 -4 8q-20 25 -24 49q-2 18 0 37q2 12 2 23q0 8 -2 18q-2 8 -7 17q-14 25 -14 49q0 18 4 35.5t10 33.5q2 8 5 17q2 10 2 20v29 q0 16 2 33q2 12 4 26q4 18 10 39q4 12 4 23q2 16 6 31q2 8 2 14v41h-2q-12 0 -22 -4q-12 -2 -23 -4q-16 -6 -35 -9q-10 0 -24 -2h-2q-14 -16 -31 -26q-16 -14 -40.5 -11t-39.5 21q-12 18 -18 39q-2 4 -8 10q-14 -2 -27 -2q-16 0 -33 2q-14 4 -31 8q-8 2 -14 2l-8 -4l-6 -6 q-4 -12 -6 -22q-2 -6 -2 -17q2 -4 -18.5 -10t-38 -8t-21.5 2q0 6 -4 14q-4 6 -13 15q-18 16 -32 36l-2 2q-18 -4 -35 9q-12 10 -14.5 26.5t8.5 28.5l12 14q12 17 24 29zM610 840q-10 -18 -20 -33q-8 -10 -12 -23q-4 -8 -6.5 -18t-0.5 -21q2 -18 -2 -45q-6 -33 -30 -55 q-31 -29 -64 -22q-10 2 -20 2q-6 -10 -13 -19q-12 -23 -32 -39q-14 -12 -31 -20q-8 -6 -19 -17q-14 -12 -28 -26q-16 -14 -33 -27q-18 -14 -43 -20l-16 -6q-2 -2 -4 -5h12h49q29 -2 63 -2h72h78q41 -2 78 0q27 2 51 2q0 10 -2 25q-2 29 -2 43v53q0 6 -2 13q-4 10 -10 22 q-8 12 -13 27q-10 23 -8 47q2 25 12 47q6 12 11 25q4 10 6 24q2 6 0 8q-6 14 -13 29q-6 15 -8 31z" />
<glyph unicode="5" horiz-adv-x="1116" d="M229 842q8 35 13 51q4 16 10 33q4 12 4 24q4 18 12 47q8 27 17 45q16 33 51 41q12 2 31 7q20 4 36 6t33 2q14 2 33 4q18 2 39 6q23 2 47 4h45q23 2 47 4q27 2 55.5 5t49.5 5q23 2 47 2q18 2 32 5q14 2 27 4q23 2 47 -4l17 -5q14 -4 23 -18t5 -31q-4 -10 -12 -16 q14 -23 0 -43l-8 -14q0 -2 -2 -5v-24q0 -29 -37 -33t-45 14q-6 14 -15 31q-2 8 -6 17q-18 -2 -37 -5q-27 -2 -47 5l-16 4l-2 -2q-8 -8 -8 -13q-6 -20 -22.5 -31.5t-37.5 -11.5q-33 -2 -59 25q-10 10 -21 16q-14 -2 -28 -6q-18 -4 -41 -2q-12 2 -25 2h-12q-8 0 -18 4l-15 -4 q-14 -6 -26 -12q-8 -4 -15 -10q-8 -8 -14 -21q-8 -14 -14 -26q-6 -14 -15 -29q-4 -6 -4 -15q-2 -12 -2 -24q0 -16 -2 -35q-4 -20 -16 -45q-8 -18 -17 -31q14 4 30.5 7.5t39.5 7.5q20 2 37 6q23 4 43 6q18 2 35 4q20 2 41 4q20 0 41.5 -1t37.5 -3q14 -2 27 -4q16 -4 41 -12 q16 -6 31 -15h2q25 -8 41 -16q8 -4 14 -8l12 -4l2 -2q10 -4 23 -7q20 -8 49 -28l25 -19q8 -4 14 -14q20 -18 33 -37q14 -18 24 -33q6 -14 19 -34q14 -23 22 -50q8 -23 13 -36q6 -18 6 -41v-37q-2 -16 -4 -39q-4 -25 -11.5 -51.5t-16.5 -49t-24 -47.5q-14 -25 -26 -41 t-27 -32q-14 -14 -28 -29q-2 -4 -5 -12q-4 -16 -8 -31q-8 -20 -22 -41q-8 -10 -11 -18q-4 -10 -4 -21q-2 -12 -2 -22q0 -20 -6 -41q-8 -25 -39.5 -27t-44.5 20q-8 14 -14 31q-2 4 -6 10q-10 -4 -19 -8q-18 -8 -41 -8h-26q-14 0 -31.5 2t-30.5 4q-10 2 -22 4h-21q-2 0 -8 -2 q-6 -4 -8 -8q-10 -18 -31.5 -26.5t-44.5 4.5q-23 12 -37 34q-8 10 -17 19.5t-18 13.5q-12 8 -26 14q-12 6 -23 11q-16 6 -32 14t-31 16q-18 10 -39 29q0 2 -2 2v-2q0 -10 2 -22q0 -14 2 -27q2 -10 4 -21q4 -18 8 -34q4 -27 -6 -56q-6 -16 -8 -28l-4 -15q-4 -16 -18.5 -24 t-31 -4t-24.5 18t-4 31l4 14q4 14 12 35q2 8 0 12q-2 16 -6 33q-4 14 -6 31q0 12 -2 26q-2 16 -2 31q0 6 -2 12q-4 10 -8 23q-8 18 -11 35l-4 14q-2 14 7.5 28.5t25.5 18.5h4q23 8 39 -8l8 -6q23 4 37 -15l13 -14q2 -2 2 -4q12 -4 22 -10q16 -6 31 -13q16 -6 35.5 -14 t35.5 -14t35 -13.5t43 -13.5q23 -6 41 -10q20 -4 45 -8q20 -4 33 -4q14 0 29 2q12 0 24 4q14 4 37 10q20 4 45 12q25 6 35 13q10 4 31.5 19t34.5 26q6 8 14 14q6 14 14 31q10 20 29 37q10 12 20 22q8 10 13 19q6 12 10 22q2 8 2 14q2 2 0 5q-6 10 -16 22q-18 25 -23 47 q-4 16 -4 35q0 10 -2 20q-4 20 0 41q2 16 8 35q2 8 2 15q-4 2 -10 4l-12 8q-8 6 -19 8q-12 6 -24 8q-25 4 -45 23q-14 14 -27 30q-6 6 -14.5 13.5t-18.5 9.5q-14 4 -24 6q-2 2 -9 0q-2 -2 -6 -4q-6 -12 -43 -13t-37 38q0 2 -2 4v2q-6 2 -10 2q-10 2 -22 0q-18 -2 -37 0 q-10 2 -21 0q-4 0 -12 -4q-12 -8 -27 -15q-16 -8 -30.5 -13t-28.5 -5q-14 -2 -27 -6q-8 -2 -14 -6q-8 -6 -20 -19q-4 -2 -10.5 -5t-21 -8t-25.5 -5t-20 10t-9 31v26q0 8 -3 19q-2 4 -8 12q-27 27 -22 60q0 6 2 14q2 18 8 37q4 16 6 26q2 16 6 35q4 17 4 25z" />
<glyph unicode="6" horiz-adv-x="960" d="M190 477q0 -10 -2 -18q0 -14 -2 -29q16 -18 9 -41l-5 -14v-21q0 -18 5 -37q4 -20 8 -34t10 -41q2 -2 2 -4q6 -10 12 -21q8 -16 15 -29q6 -12 16 -26q14 -18 27 -37q2 -4 6 -10q6 -8 16 -15q14 -10 33 -26q12 -10 22 -15q14 -6 31 -12q14 -6 27 -8q12 -2 24 0q23 2 50 0 q18 -2 32 0q16 2 36 5t36 9q20 6 39 10q10 2 21.5 8.5t21.5 16.5h2q4 10 6 16q6 14 14 31q2 6 3 10v31q2 20 6 39q8 23 26 43q6 6 6 10q2 10 2 21q-2 25 7 47q2 2 0 4q-2 12 -4 29q-4 18 -5 34q0 8 -2 21q-2 6 -6 12q-8 10 -14 15q-16 8 -33 20l-12 10q-8 8 -12 17h-5 q-31 -10 -59 2q-27 12 -37 43q-8 23 -6 45q0 12 2 26q0 2 -2 7v2h-10q-16 0 -35 4q-16 2 -29 4q-4 0 -8 -2h-2q-2 -6 -2 -11q-2 -20 -10 -43q-6 -16 -43 -22t-43 31q0 10 -2 24q0 2 -2 4l-4 -2q-18 -4 -35 8q-2 -2 -6 -4q-10 -8 -20.5 -18t-20.5 -25q-10 -16 -15 -26 q-6 -16 -14 -35l-10 -16q-6 -14 -24 -19.5t-32 2.5zM627 -96q-10 4 -21 10q-12 8 -26 14q-10 6 -23 11h-4q-18 -4 -31 -9q-20 -4 -43 0q-18 2 -37 9q-6 4 -14 4q-4 0 -10 -2t-12 -7q-14 -14 -33 -24q-27 -16 -56 -10q-31 6 -49 39q-10 20 -16 38q-4 14 -10 25q-8 14 -15 29 q-8 20 -8 43q0 2 -2 6q-4 6 -10 12q-14 16 -25 37q-10 18 -21 36.5t-20 39.5l-4 8q-14 23 -22 41q-10 25 -13 57q0 31 2 47q2 12 5 25v2q-4 20 -3 43q2 18 3.5 38.5t5.5 39.5q2 20 4 41q4 23 8 43q4 18 8 45q8 29 17 47q6 14 10 33q6 25 18 47q10 20 17 37q10 18 22 39 q12 14 23 32q12 20 28 39q14 18 27 35q16 18 37 37q18 14 37 31q18 18 35 30q16 14 32 27q12 8 29 21q16 12 29 24q14 14 30 29q18 18 37 26l15 7q14 8 29.5 3t23.5 -22q6 -10 4 -22q4 -4 8 -13l4 -12q12 -27 4 -53q-4 -10 -4 -21q-2 -12 -2 -24q0 -10 2 -21 q4 -35 -28.5 -45t-45.5 2q-12 6 -24 19q0 -12 -4 -23l-8 -12q-2 -8 -5 -19l-4 -18q-2 -16 -15 -26.5t-30 -8.5q-6 2 -14 4q-10 -29 -41 -35q-27 -4 -51 9q-4 -8 -8 -19l-2 -2q2 -6 2 -14l-4 -35q-2 -16 -15.5 -26.5t-30.5 -8.5q-8 2 -14 6q-4 -8 -8 -14q-10 -16 -21 -31 q-6 -10 -12 -22q-4 -4 -6 -8q12 10 25 18q16 10 32 18q20 12 39 19q12 4 31 10q23 6 48.5 9t55.5 -1q29 -2 58 -10q27 -6 55 -14q29 -8 47 -15q18 -8 43 -20t46.5 -28.5t37.5 -37.5l1 -3t3 -3q6 -6 11 -14l8 -12q14 -20 22 -43q4 -16 10 -37q8 -25 13 -45q6 -20 10 -47 q6 -29 4 -54t-2 -41v-43q0 -25 -2 -47q-4 -25 -12 -45q-8 -16 -20.5 -38.5t-28 -44t-29.5 -38.5q-8 -8 -19 -16q-4 -10 -8 -21q-4 -10 -6 -20q-2 -14 -6 -31q-6 -18 -12 -37q-4 -6 -8 -10q2 -6 2 -14v-14q-2 -2 0 -7q12 -27 8 -55l-2 -16q-4 -16 -17.5 -25.5t-30 -6.5 t-25.5 16.5t-7 29.5l2 16q2 4 0 7q-10 23 -8 47v4zM336 -16l2 -2l2 2h-4z" />
<glyph unicode="7" horiz-adv-x="1103" d="M885 1026q8 2 16 0q4 10 8 18q4 6 6 13l-12 -4h-4q-25 -18 -47 -25q-16 -4 -30.5 -8t-28.5 -8q-18 -6 -39 -8q-14 -2 -31 -3q-14 0 -25 -2q-4 -2 -10 -6l-6 -8q-2 -12 -4 -22l-4 -17q-2 -10 -10 -18q-8 -25 -33 -27q-16 -2 -29.5 9.5t-13.5 27.5l-2 14q-2 18 0 35l-2 2 q-4 8 -13 15l-16 8q-10 8 -14 20q-6 -2 -13 -2h-26h-23q-6 -2 -14 -6q-10 -6 -19 -14q-10 -12 -18 -25q-4 -4 -22.5 -8t-38 4t-21.5 35q-2 0 -4 6q-2 2 -4 2l-19 6q-12 4 -20 12q-2 -2 -4 -2q-14 -10 -29 -16q-6 -4 -12 -12l-2 -2q-2 -20 -8 -39q-6 -23 -27 -41l-16 -12 l2 -13q2 -14 -6 -26q6 -18 6 -37q0 -8 2 -17q6 -16 6 -34v-13q2 -16 -9.5 -28.5t-27.5 -13.5t-28.5 10.5t-14.5 27.5v12q0 8 -2 19q-6 16 -6 37q0 6 -2 12l-10 25q-16 33 -2 63q4 8 10 14q0 12 2 27q2 20 6 37q4 25 14 43q12 16 35 37q20 18 40 29.5t36 17.5l29 6q31 2 43 6 q18 4 41 6q20 2 43 0t45 -4q23 -4 34 -4q14 0 29 -4q10 0 33 -2h37q14 -2 26 -2h191h37q14 -2 34 -2q16 -2 31 -2q8 0 15 -2l24 14q14 6 29.5 2t23.5 -18q12 -23 -2 -43v-6q8 -27 0 -52q-6 -16 -14 -32l-20 -35q-12 -23 -21 -39q-4 -2 -6 -8q0 -8 -2 -19q-2 -20 -10 -41 q-6 -20 -21 -39q-12 -16 -22 -24q-12 -29 -28.5 -59.5t-33.5 -57.5q-8 -16 -18 -37l-4 -12q-6 -14 -11 -29q-4 -12 -6 -20q-2 -18 -12 -41q-8 -14 -16 -31q-8 -14 -15 -27l-8 -20q-4 -12 -8 -27q-4 -16 -10 -32q-6 -18 -15 -35q-4 -8 -6 -17q-2 -8 -2 -16v-29 q-2 -18 -10 -37q-6 -16 -17 -32q-8 -18 -22 -35q-12 -14 -21 -27q-8 -10 -18 -26q-8 -14 -12 -23.5t-8 -21.5q-2 -10 -5 -23q-2 -16 -2 -29q-2 -16 -10 -39q-8 -20 -19.5 -37.5t-27.5 -31.5q-12 -12 -22 -25q-8 -10 -17 -20q-4 -8 -6 -17q-2 -10 -4 -22q-2 -10 -2 -21l2 -14 q0 -16 -11.5 -28.5t-27.5 -13.5t-28.5 10.5t-12.5 27.5l-2 16q0 16 2 33q2 12 4 23q-25 18 -14 47l6 20q8 20 16 39q6 14 13 31q8 20 16 40.5t18 43.5q10 25 21 45q6 16 22 47q12 29 24.5 53.5t27.5 50.5q12 25 28 54q14 27 29 55q14 29 33 61q18 31 30 56q12 27 26.5 58.5 t31.5 64.5q4 8 6 14l4 8q4 14 8 31q6 12 6 24q4 23 17 45q12 20 28 39q14 14 27 25q8 18 14 33q10 25 21 47q4 10 10 18q0 8 -2 17l-2 14q-4 14 6.5 28.5t24.5 16.5z" />
<glyph unicode="8" horiz-adv-x="1099" d="M883 35q-6 -6 -13 -10q-8 -10 -14 -19q-14 -25 -39 -35q-23 -8 -45 -6h-20l-7 -4q-25 -20 -57 -18q-20 2 -41 10q-12 6 -24 10h-2q-16 -4 -33 -10q-25 -8 -45 -8h-31q-12 2 -27 2q-16 0 -28 -2q-10 0 -21 -4q-6 -2 -14 -11q-12 -12 -25 -22q-8 -14 -44 -10t-36 39 q0 4 -4 12l-16 28q-12 18 -21 43q-4 12 -6 27q-23 10 -39 23q-16 12 -28 26q-18 16 -31 39q-12 20 -20.5 37.5t-14.5 32.5q-4 12 -8 28q-6 20 -6 43q0 18 2 43q0 25 6 50q4 23 8 41q4 14 11 34q6 18 12 33q4 14 12 31q8 18 23 35q12 16 27.5 32.5t35.5 30.5q14 12 29 19 q-8 4 -15 8q-16 10 -38.5 29.5t-36.5 35.5q-4 4 -6 9h-5q0 -2 -2 -4.5t-15 -8.5t-29.5 -9t-29 5t-10.5 29q2 18 7 39q6 23 20 43l8 16q-8 23 -8 47v47q2 25 6 50.5t15 50.5q8 25 14 39q6 20 22 41q12 14 25 30q14 18 31 33q16 16 39 29q20 10 43 20q23 8 45 17q20 6 41 12 q23 4 47 6q25 2 53 0q27 0 41 -2q8 -2 24 -2h41q18 -2 35 -4q25 -2 43 -12q12 -4 33 -13q23 -10 41 -18q20 -10 41 -25q20 -14 35 -26q16 -14 28 -31q10 -12 17 -25q10 -10 18 -20q25 -23 27 -51q2 -16 0 -35q-2 -10 -2 -21q0 -6 4 -20q6 -23 8 -42.5t0 -37.5q-2 -16 -8 -35 l-8 -20q-2 -16 -6 -31q-4 -12 -9 -25q-4 -14 -12 -34q-10 -25 -24 -41q-6 -8 -13 -17q-4 -12 -10 -26q-6 -12 -12 -21q18 -10 35 -29l14 -14q16 -16 10 -41q12 -18 20.5 -34.5t16.5 -32.5q8 -18 14 -41q2 -10 4 -23h9q16 -2 26 -16.5t6 -28.5l-2 -18q-2 -16 -4 -29.5 t-6 -34.5q-2 -23 -6 -43t-10 -39q-4 -12 -4 -26q-2 -18 -4 -35q-2 -12 -5 -27q-2 -14 -4 -29q0 -8 -2 -12zM752 653l16 11q8 6 20 20q2 4 3 4q2 8 4 14q2 16 8 33t16 33q8 12 17 27q6 10 14 24q2 14 4 27q2 16 2 35q2 14 0 26q-2 16 -6 35q-2 16 -7 35.5t-9 34.5l-11 22 q-2 2 -6 4v-2q-2 0 -5 -3t-3 -5q-2 -20 -10 -41q-6 -16 -43 -17t-39 31v25q0 6 -2 14q-6 18 -6 39q-2 2 -2 4q-4 0 -9 -2q-16 0 -24 -4q-16 -6 -33 -8q-25 -6 -47 2l-14 4q-14 4 -22.5 19.5t-2.5 29.5q0 4 2 6l-12 -24q-10 -16 -43 -18.5t-43 30.5q0 6 -6 15q-2 4 -4 4 l-15 4q-10 4 -16 10q-10 -2 -19 -4q2 -14 -4 -27l-6 -14q-4 -8 -4 -14q-2 -8 0 -15q8 -23 6 -43v-26t-4 -31q-8 -33 -42 -29t-42 21q-6 14 -12 26q-6 10 -12 21v-2q2 -27 -9 -53q-8 -23 -26 -43q-10 -12 -15 -21q-4 -12 -10 -25q-2 -6 -2 -12v-24q2 -4 2 -11q4 -12 8 -22 q8 -14 17 -29v-2l2 -2q18 -8 37 -25q12 -10 24 -16q18 -12 35 -27q14 -10 31 -24l2 -2q14 -4 31 -8q18 -4 38 -9q20 -4 35 -6q8 -2 25 -2h39q20 0 45 -2q20 0 30 2q18 2 44 0h30q16 2 33 2h27zM313 446q0 -6 -2 -10q-6 -16 -12 -33q-8 -18 -23 -38q-8 -8 -12 -19 q-6 -12 -8 -29q-4 -14 -4 -22v-29q0 -10 2 -22q4 -16 6 -31q2 -8 8 -16.5t13 -12.5q18 -14 32 -32q12 -18 21 -35q4 -8 6 -17q4 -2 6 -2q18 -10 27 -12q10 -4 22 -6q10 -2 27 -2q20 -2 41 -2q20 -2 45 -6q16 -2 31 2q29 4 51 -2q12 -2 22 0q16 0 33 4q18 2 33 4q8 2 22 6 q16 6 33 14q18 10 35 17q14 8 35 16q12 6 22 16q16 14 27 27q8 8 12 16q4 10 8 25q4 14 9 31q2 8 4 22v29q-2 20 -2 37q0 10 -2 26t-7 33q-4 14 -8 27q-8 14 -15 28.5t-17 28.5q-8 14 -17 27q-20 -2 -33 12l-6 6q-6 4 -8 13q0 -8 -4 -15q-4 -10 -14 -18q-2 -6 -7 -13 q-12 -29 -40 -40q-23 -8 -43.5 0t-30.5 24q-10 18 -17 35q-2 0 -2 2q-10 -8 -22 -10l-15 -2q-18 -2 -32 -2q-27 0 -51 16l-5 4q-6 0 -14 -4q-12 -4 -27 -10q-10 -4 -20 -10q-4 -4 -8 -11q-2 -2 -2 -4v-59q0 -20 -35 -31.5t-47 12.5q-6 14 -10 31q-5 8 -11 16zM375 2 q2 -2 2 -4l4 4h-2h-4z" />
<glyph unicode="9" horiz-adv-x="1021" d="M782 702q14 -23 0 -45v-2q14 -25 -4 -47q-2 -6 -8 -12t-14 -10q-12 -12 -29 -23q-18 -14 -37 -22q-23 -12 -43 -15q-18 -2 -37 -2q-6 0 -12 -2q-14 -6 -29 -10q-18 -4 -41 -6t-41 0q-37 8 -49 49l-4 4q0 2 -2 2q-14 2 -26 2q-18 2 -37 8l-27 9q-16 2 -37 10q-6 2 -10 2 l-2 -2q-12 -12 -21 -25q0 -2 -8 -7t-20.5 -9t-23.5 -5t-21.5 7t-12.5 27q0 10 -4 20q-2 12 -6 25q-6 18 -8 39q-2 18 -2 34q0 8 -2 15q-4 12 -10 22q-2 6 -7 15q-6 6 -10 12q-18 27 -26 57q-8 29 -9 45q0 18 9 49q6 25 12 52q6 29 12 43q4 16 15 34q12 20 34 41q16 14 31 35 q23 29 43 41q16 10 33 19q10 8 24 16q18 14 39 25q16 4 31 12q20 12 40.5 17t39.5 5q10 2 27 2q18 2 47 2q23 -2 39 -2q20 0 34 -4q16 -2 33 -8q16 -4 31 -12q18 -6 43.5 -21.5t46.5 -29.5q23 -18 45 -45q18 -25 33 -46q14 -20 20 -38q6 -12 11.5 -26.5t10.5 -30t9 -30 t8 -30.5q6 -18 8 -37q0 -14 2 -31q2 -16 5 -28q2 -14 2 -33q0 -18 -1 -40t-4 -42v-8q2 -14 0 -31q-2 -12 -2 -25l-4 -32q-4 -18 -12 -41q-2 0 -2 -2v-2q-6 -20 -14 -43q-8 -16 -13 -33q-6 -20 -12 -39q-6 -18 -14 -39q-8 -20 -21 -41q-10 -16 -20 -29q0 -10 -2 -24 q-2 -18 -6 -39q-6 -20 -17 -41q-10 -16 -18 -31q-10 -18 -25 -37q-8 -8 -10 -14q-4 -10 -6 -23l-4 -24q-2 -18 -6 -37q-6 -20 -25.5 -32.5t-42.5 -6.5q-16 6 -35 16h-6q-8 -2 -20 -8t-27 -18q-18 -14 -33 -25q-20 -14 -43 -16q-14 -2 -24 -4q-10 0 -23 -4q-8 -2 -16 -8 q-12 -8 -27 -19q-10 -8 -16 -18q-6 -8 -13 -19q-18 -37 -61 -33q-23 2 -43 13q-12 6 -27 12q-8 4 -14 4q4 -16 4 -29v-28q0 -10 2 -23q2 -16 2 -30v-13q0 -16 -12 -27.5t-28.5 -11.5t-28 11.5t-11.5 27.5v13q0 10 -2 22q-2 16 -2 31v24q0 10 -2 23q-4 18 -2 37q2 12 4 28 q2 18 12 39q12 29 48 33q14 8 30 6l6 -2l13 2q18 0 26 4q14 6 30.5 11.5t39.5 9.5q4 2 10 2q4 2 6 2q12 6 37 16q23 10 45 23q20 12 37 22q14 8 29 15q10 6 20 16q14 14 31 27q14 10 29 26q20 18 39 31q12 8 18 16q10 12 23 27q10 12 16 25q10 16 27 39q10 12 16 22 q2 6 2 12q0 20 2 37q4 16 6 29q4 16 15 35q10 16 24 32q12 14 21 27q8 8 14 23l12 24q2 12 4 25q4 16 6 33q2 16 5 32v15q-2 14 -3 30q-2 18 -4 35v31q0 2 -2 4q-6 2 -10 2q-25 0 -39 22.5t-6 43.5q4 10 6 22q0 2 -2 4q-10 20 -12 43q-2 20 4 39q-8 12 -16 27q-6 10 -15 14 q-12 10 -26 21q-10 6 -23 10q-16 8 -33 16q-20 10 -37 35q-4 6 -6 8h-2l-8 -4q0 -6 2 -14q2 -16 6 -33q6 -29 -2 -57q-84 -57 -84 6q0 12 -2 22q0 10 -4 21q-4 14 -8 26q-8 20 -8 41q0 2 -2 7h-19.5t-15.5 -3q-18 -6 -39 -8q-10 -2 -21 -4q-2 -2 -6 -4l-16 -24 q-6 -10 -10 -21q-2 -4 -2 -8q2 -16 2 -33q0 -20 -39 -23.5t-43 15.5q0 4 -4 10q-14 -12 -29 -22q-8 -6 -18 -21l-15 -16q-8 -8 -18 -13q-2 -6 -4 -14q-6 -27 -13 -53q-6 -20 -6 -29q0 -6 6 -24q2 -6 5 -13q6 -6 10 -12l8 -14l4 -8q6 -8 12 -15q16 -16 39 -35q18 -18 31 -24 q14 -8 33 -17q16 -8 26 -12q10 -6 24.5 -9t27.5 -5q18 -4 32 -8q14 -2 27 -4q14 -2 35 -3h37h26q8 0 25 3q18 4 39 10q20 4 39 10q12 2 20 6q12 8 27 17l14 8q12 10 28.5 5.5t24.5 -16.5z" />
<glyph unicode=":" horiz-adv-x="509" d="M289 240q61 16 80 -27q8 -18 2 -43q12 -18 14 -39q29 -14 23 -45l-7 -18q-2 -12 -2 -25q-2 -23 -8 -43q-2 0 -5 -2t-11 -6t-15.5 -7t-17.5 -5.5t-16.5 0t-11.5 9.5t-5 19l-4 -2q-16 -4 -29 -8q-8 -2 -18 -6v-12q0 -25 -4 -41q-4 -18 -42 -18.5t-40 24.5q0 10 -2 22 q0 2 -4 6q-18 25 -19 56q0 10 -2 18h-2q-25 14 -37 43q-16 41 15 74l4 6q6 12 12 25q12 20 37 38q20 16 41 27l14 8q14 8 30.5 3t25.5 -19q2 -4 4 -12zM268 879q41 6 70 -11q25 -14 41 -39q0 -2 2 -4q4 -6 6 -14l4 -14q6 -23 4 -43q-2 -16 -6 -33q-2 -12 -4 -25 q-2 -14 -8 -30q0 -6 -2 -13q27 -20 12 -49l-6 -14q-2 -4 0 -19l4 -28q2 -18 -12 -33l2 -12q2 -16 -9.5 -28.5t-27.5 -14.5t-28.5 8t-14.5 26l-2 15q0 8 -4 16q0 4 -6 6l-13 11q-23 16 -16 43q-6 6 -8 16v4q-18 -12 -37 -4q-10 4 -16 12q-27 -6 -41 17l-5 6q-6 -2 -12 0 q-16 2 -25.5 16.5t-5.5 30.5l5 18q4 29 22 45q6 14 16 31q-2 12 0 23q4 16 17 32q18 37 53 47l19 7q18 6 32 -2z" />
<glyph unicode=";" horiz-adv-x="468" d="M141 860q12 29 43 41l17 8q12 4 26 0q14 4 29 4q39 -2 66 -26q23 -20 32 -49q10 -27 8 -54q4 -10 5 -20v-12q0 -20 -9 -41q-4 -10 -8 -23q-2 -10 -2 -20v-27q0 -14 -2 -33q0 -20 -6 -43q-6 -18 -10 -35q-6 -18 -15 -36q-10 -18 -47 -14.5t-37 34.5q0 16 2 33q2 12 0 24 q0 10 -4 19q-6 12 -14 26q-6 10 -14 21q-8 8 -17 12q-16 -4 -38.5 8.5t-24.5 34.5q-2 4 -6 13q-12 23 -13 49q0 14 7 30v17q3 26 32 59zM258 -244v-10q-4 -16 -17.5 -26.5t-28.5 -8.5t-25.5 15.5t-8.5 29.5l4 33q0 2 2 6q-18 12 -16 33l2 18q2 18 2 31v27v14q-12 25 6 43 l4 6l4 8q6 10 11 21q4 8 4 18q4 23 18 45q14 16 35 33q6 6 8 10t2 7l-2 2q-6 4 -10 6q-20 2 -39 10q-31 12 -41 45q-10 31 6 64l8 16q4 8 15 14q8 12 18 17q23 10 43 10q25 0 47 -17q18 -12 33 -32q16 -20 18 -43q4 -14 5 -35v-33q0 -20 -11 -47q-8 -20 -12 -35 q-8 -16 -19.5 -36.5t-25.5 -37.5q-12 -14 -23 -28q-14 -14 -22 -23v-22v-27q0 -10 -2 -20q6 -6 10 -13l19 -32q8 -14 2.5 -31t-19.5 -23q-2 -2 -4 -2z" />
<glyph unicode="&#x3c;" horiz-adv-x="1067" d="M915 205q16 0 28.5 -12.5t12.5 -28.5v-2q16 -23 5 -45q-2 -6 -9 -13q0 -6 -2 -12v-2q10 -14 4 -33l-6 -18q-4 -18 -8 -39q-6 -25 -18 -55l-7 -15v-8q2 -16 3.5 -30.5t1.5 -28.5v-45q0 -16 -11.5 -27.5t-28 -11.5t-28.5 11t-12 28v45v23.5t-2 23.5q-2 8 -2 12q-2 8 -2 17 q-2 12 -3 26q-2 14 -2 31v29q0 14 -1 25t-5 28l-4 20q-16 6 -31 15q-18 10 -34 28l-25 25q-12 12 -26.5 23.5t-30.5 23.5q-14 10 -27 18q-6 -14 -12 -26q-4 -6 -6 -19q-2 -20 -4 -36q0 -6 -20.5 -11.5t-41 -1.5t-20.5 17q2 14 4 32q2 14 2 29q0 8 -2 16q-2 2 -4 2 q-18 10 -35 21q-20 12 -39 31q-16 14 -27 22q-8 6 -14 8q-14 4 -29 7q-12 2 -27.5 -0.5t-25.5 -6.5q-16 -6 -31 -12q-23 -8 -46 5.5t-23 39.5q0 12 -2 27q0 12 -2 24q0 4 -4 11q-4 8 -15 16q-27 23 -33 51v10q-2 0 -4 2q-25 16 -39 27q-25 18 -36 49q-10 14 -5 41t29 37 q12 6 27.5 14.5t36.5 14.5q18 8 38.5 16t43.5 19q20 8 46.5 22t51.5 29q27 16 63 35q33 16 70 30q35 12 68 27q33 14 65 35q33 20 57 35q25 16 43 28q18 14 50 35q29 18 41 27l14 8q12 10 28.5 6t26.5 -16q12 -20 0 -43q6 -12 0 -27l-4 -14q-4 -12 -6 -21q-2 -12 -4 -26 q-2 -10 0 -21q2 -20 4 -35q2 -23 2 -43q0 -25 -6 -43q-8 -29 -38 -32t-42 12q-20 16 -33 39q-8 16 -16 34q-2 6 -6 15q-18 -14 -33 -25q-20 -10 -37 -16q-10 -4 -20 -10q-2 -2 -2 -4q-2 -6 0 -11q6 -27 -29 -41t-49 4q-6 10 -13 21q-2 0 -4 -2q-20 -10 -39 -14 q-10 -2 -24 -7q-14 -4 -29 -8q-4 0 -10 -4q-10 -8 -16 -16q-14 -23 -43 -35q-31 -14 -56 -6h-14q-14 -2 -29 -4q-10 -2 -22 -7q-10 -2 -21 -8q-8 -6 -18 -14l4 -12q6 -16 10 -29q4 -12 6 -25q8 -6 17 -10q29 -18 66.5 -40.5t72.5 -42t74 -36.5q39 -20 79 -39q41 -18 78 -40 q37 -18 68 -31q35 -14 70 -35q33 -18 65 -37q20 -12 39 -22q10 8 20 8z" />
<glyph unicode="=" horiz-adv-x="892" d="M125 438q-2 16 9 29.5t28 13.5l24 2q25 0 50 2t59 4h76t86 3q47 4 100 2q49 -2 92 -2q18 0 33 2q10 10 25 10q8 0 14 -2l12 4q16 4 30.5 -5t18.5 -24.5t-4 -30t-24 -18.5h-2q4 -18 8 -39q2 -23 0 -49v-39q0 -23 -2 -39q-2 -14 -6 -29q-2 -14 -9 -32v-4q-2 -16 -4 -33 q-2 -12 -2 -27v-35q0 -23 -4 -41l-4 -16q-2 -16 -16.5 -25.5t-29.5 -6.5t-24.5 17.5t-7.5 30.5l4 15q2 12 2 26v35v25q-2 4 -2 10q-2 16 0 33q2 10 2 22t-2 23q0 8 -2 29q-2 12 -4 23t-2 24q-4 10 -6 20l-4 12q-16 -6 -37 -6q-18 0 -39 4q-18 6 -35 17q-6 2 -14 6 q-6 -6 -8 -10q-6 -14 -15 -31q-8 -16 -40.5 -20.5t-42.5 28.5q-4 18 -3 39v2h-4h-26h-21q-4 -2 -10 -4q-10 -6 -23 -18q-4 -4 -6 -9q-2 -10 -2 -20q-2 -12 -2 -27q0 -14 -39 -21t-41 13q-2 14 -4 29v22q-14 0 -26 -2q-25 -6 -54 6l-18 6q-14 6 -21.5 21.5t-1.5 30.5 q6 14 21 22v2zM719 764q16 29 49 16q14 -6 20.5 -21.5t-0.5 -29.5l-6 -18q-4 -8 -4 -15v-32q-2 -29 -20 -56q-2 -2 -7.5 -6t-19.5 -10t-25.5 -6t-20.5 9t-11 32l-2 2q-4 6 -10 10q-20 12 -33 33q-12 2 -19 2q-16 0 -32 2q-16 0 -31 2h-21q-14 -2 -28 -2q-6 0 -13 -4 q-4 -2 -12 -8q-8 -8 -14 -21q-4 -4 -15.5 -10t-26 -10.5t-27.5 3t-17 25.5q0 2 -2 6q-6 -2 -11 -2q-12 -2 -26 -4q-16 -2 -37 -2q-6 0 -10 -2q-4 -10 -6 -20q-2 -20 -41 -23.5t-41 23.5q-2 8 -6 18q-6 10 -15.5 19.5t-19.5 15.5l-17 8q-14 8 -19 23.5t1 29.5q10 20 33 23 q6 4 14 4l29 -2q27 0 57 2q31 2 66 0q43 -2 86 -2q43 2 84 2h71q35 0 62 2q27 0 53 -2q25 -2 41 -4z" />
<glyph unicode="&#x3e;" horiz-adv-x="1021" d="M274 80q-16 4 -25 18.5t-5 30.5l2 12l2 4q-12 -4 -23 -8q-4 -2 -8 -2l-8 -8l-21 -21l-10 -10l-2 -6q-10 -12 -26.5 -16t-30 5t-16.5 25.5t6 30.5l4 6l10 17q20 31 45 41q4 4 8 6q6 4 14 8q16 12 42 27.5t61 31.5q31 16 63 37q35 20 76 43t85 44.5t85 41.5t78 39 q33 16 55 27q-25 -6 -41 10l-14 12q-12 12 -23 25q-6 6 -8 10q-14 23 -16 47q0 14 -2 27q0 2 -2 8q-6 10 -15.5 21.5t-21.5 23.5q-14 14 -27 23q-10 10 -24 18q-12 8 -29 14q-12 6 -25 7q-6 2 -9 0t-5 -7q-10 -18 -41 -22t-45 24q-6 16 -10 35q-2 16 -2 37q0 10 -2 23l-2 2 q-18 12 -35 24q-12 8 -23 15q-14 6 -28 10l-2 2l-4 -16l-9 -27q-4 -16 -6 -29q-10 -27 -46 -16.5t-38 29.5v30q-2 16 0 35q2 20 15 41q-2 6 -5 12q-12 14 -8 35v6q-2 16 8.5 29.5t26.5 15.5t28.5 -8t14.5 -26h6q33 -14 56 -27l45 -25q29 -14 61 -39q31 -23 57 -36 q29 -16 62 -37q33 -20 63 -39q29 -16 62 -35q31 -18 59 -39q27 -20 45 -35q18 -12 31 -20q18 -10 31.5 -19.5t31 -23t31.5 -23.5q16 -14 18.5 -33.5t-4 -34t-16.5 -22.5q-23 -27 -51 -41q-4 -2 -6 -4q-8 -10 -15 -22q-8 -12 -22 -31q-6 -8 -12 -21q-10 -20 -19 -37 q-8 -12 -10 -22q-12 -35 -47 -45q-39 -8 -66 22l-2 2q-18 -14 -31 -24q-18 -14 -40 -23q-23 -8 -43 -8q-8 0 -17.5 -2t-19.5 -6q-8 -23 -27 -41q-23 -23 -51 -27q-14 -2 -29 -2h-2q-4 -4 -6 -8q-4 -8 -6 -20q-2 -14 -4 -29q0 -18 -1 -30.5t-1 -24.5q0 -8 2 -21q4 -16 6 -31 q4 -16 4 -32q0 -14 -2 -31q-2 -18 -6 -35q-2 -12 -6 -28q-2 -10 0 -17q2 -18 2 -35q-2 -12 -2 -24v-39q0 -16 -11.5 -28.5t-28 -12.5t-28.5 12t-12 29v39q0 12 2 26q0 10 -2 21q-2 20 2 45q4 16 8 33q2 10 4 22v23q0 8 -2 16q-2 12 -6 29q-6 23 -4 41v6q-9 -2 -17 0z M762 580q-4 0 -8 -5l-4 -4q10 -12 11 -28.5t-11 -28.5q-2 -2 -5 -4q2 2 9 4q18 10 30 16q2 4 2 7q2 2 2 4q-2 2 -6 8l-12 14q-6 9 -8 17z" />
<glyph unicode="?" horiz-adv-x="1015" d="M233 969q-10 -14 -22 -27q-8 -12 -14 -20q-4 -10 -9 -23l-4 -12v-10q0 -6 -2 -15l2 -8q0 -6 4 -18q8 -23 9 -45q0 -16 -2 -31q-4 -10 -21.5 -9t-38 7t-20.5 12v21q-4 12 -6 26t-5 31q-2 6 -2 10v6q0 12 2 21v10q2 16 2 29q0 27 3 39q0 18 8 45q8 20 16 39q8 20 21 38 q10 18 22 37q14 18 30.5 32.5t41.5 31.5q27 16 45 22q16 6 37 13q25 6 41 8q14 2 32 6q25 4 48 2q16 -2 26 -2q14 0 40 -2t56 -6q31 -6 50 -13l28 -12q16 -8 33 -16q14 -6 27 -12q16 -6 39 -21q20 -14 41 -27q25 -16 43 -34q16 -18 31.5 -41t23.5 -43q8 -23 12 -41 q4 -16 6 -29q4 -16 6 -33q2 -20 -4 -47q-6 -23 -14 -43q-6 -16 -12 -31q-8 -18 -19 -34q-10 -16 -24 -35l-17 -17q0 -10 -4 -22q-6 -18 -18 -39q-10 -16 -20.5 -31.5t-24.5 -30.5q-6 -8 -8 -12q-6 -20 -26 -31.5t-40 -5.5q-20 4 -41 21q-10 8 -23 16q-8 -6 -16 -10 q-10 -6 -22 -21q-20 -18 -37 -30q-6 -4 -11 -13q-4 -6 -4 -8v-28q0 -29 -20 -54q-14 -16 -31 -28q-6 -4 -10 -11l-4 -12q0 -12 -4 -29q-2 -18 -8 -36l-5 -11l3 -20q0 -14 -11.5 -27.5t-27 -13.5t-28.5 10t-13 27l-2 49q-2 14 8 27v2v28q0 20 2 39q4 14 6 33q4 16 6 33 q2 20 8 41q6 23 19 45q12 23 30 39q16 14 37 26q16 12 37 21q18 10 43 18q20 8 31 13q14 6 29 14q12 4 24 10q14 10 37 19q20 8 41 18q10 6 23 12q0 10 4 19q4 16 12 37q10 20 20 34q8 14 19 29q4 6 4 10q-4 8 -12 19q-8 10 -19 18q-25 20 -28 53q0 10 -3 21l-2 2 q-12 8 -26 18q-25 16 -35 39q-6 16 -10 35q-2 6 -4 14q-12 4 -21 4q-2 0 -4 3q-2 -14 -12 -23q-10 -12 -26.5 -12t-29.5 12l-6 6q-8 8 -10 19q-2 0 -6 -2q-10 -2 -25 -7q-4 -2 -16 -10q-6 -6 -8 -10q-4 -18 -10 -33q-4 -12 -9 -26q-12 -31 -47 -21t-39 31q-2 18 -6 30 q-4 18 -2 37q0 4 -4 13q-6 4 -14 4q-10 2 -21 2l-14 -2h-10l-4 -4q-8 -8 -15 -21q-6 -10 -6 -14q-2 -10 -2 -23q0 -8 2 -22q0 -4 -1 -8.5t-5 -17.5t-11 -18t-21 -9t-32 8zM373 -190q-27 10 -27 24q-2 18 -2 35q0 2 -2 4q-2 4 -4 4q-23 6 -41 23q-16 14 -29 32q-16 25 -16 50 q0 23 14 45l8 14q12 18 35 18q4 4 7 8.5t8 8.5q8 6 14 10q25 18 47 29q27 12 51 12q35 0 58 -29q14 -18 22 -37q8 -18 10 -36q23 -14 19 -39l-4 -21q-6 -39 -37 -53q-6 -14 -15 -31q-16 -25 -47 -35l-2 -4q-8 -10 -10 -18q-6 -14 -16 -19q23 -18 14 -45l-4 -12q-2 -6 -2 -24 q2 -23 4 -33l4 -15q4 -16 -4 -30.5t-24.5 -18.5t-31 4.5t-18.5 24.5l-4 14q-4 18 -6 49q-2 33 4 54l4 12q7 17 23 25zM682 616l2 -2l4 4q-2 0 -4 -2h-2z" />
<glyph unicode="@" horiz-adv-x="1282" d="M1036 291q-12 0 -22 4q-20 4 -41 18q-12 8 -23 21q-4 2 -8 6q-20 12 -29 31q-6 -2 -10 -6q-10 -6 -18 -13q-14 -10 -25 -16q-12 -8 -24 -19q-2 -2 -5 -4q-6 -20 -24 -43q-14 -16 -39 -20t-45 14q-8 6 -14 10q-8 2 -17 5h-22h-17q-4 -2 -12 -9l-2 -2q-4 -18 -10 -35 q-6 -8 -24.5 -6t-37 11.5t-16.5 19.5t4 18q0 2 -2 5q-8 12 -16 28q-8 10 -13 21q-8 6 -16 14q-20 18 -29 41q-8 16 -10 39q-4 16 -5 32.5t-1 32.5q0 18 4 39q2 14 4 33q2 20 4 37q0 20 3 38.5t5 35.5q4 16 9 33q4 18 10 36q6 16 12 35q8 31 25.5 50.5t40.5 27.5q14 6 30 12 q18 6 39 8q12 2 27 5q20 2 39 2q16 0 35 -2h30q23 0 47 -9q18 -8 37 -18q14 -8 33 -23l2 -2h8q35 0 56 -32q16 -25 14 -52v-26q0 -16 -2 -31v-22v-15q2 -18 2 -43q0 -18 2 -37q2 -8 2 -16l2 -2q10 -18 0 -37q0 -8 2 -14q16 -12 16 -33v-45q0 -10 3 -19h16q8 0 16 3l15 6 q14 4 29.5 -3.5t19.5 -23.5q4 -6 2 -14q29 -8 28 -37q0 -20 -16 -33q2 -4 2 -8l2 -12q0 -10 4 -23l4 -16q4 -16 -4 -30.5t-23.5 -19t-29.5 4t-18 22.5l-7 17q-4 18 -6 36l-2 13v6zM690 756l-12 -4l-14 -2q-16 -4 -37 -5q-2 0 -6 -4q-6 -4 -13 -10q6 -20 8 -37q2 -35 -30 -59 q-8 -8 -17 -19q-8 -12 -10 -22q-2 -4 -2 -8q2 -14 2 -29v-33v-20q2 -10 6 -21q4 -12 10 -24t13 -27q8 -18 10 -41q0 -4 2 -6q6 -2 14 -4q12 -4 31 -8q14 -2 27 -2q16 2 28 4q14 0 25 2q10 2 23 4q10 2 20 8q18 8 39 14q18 6 29 13q2 2 6 4h2l14 12q4 2 6 4q6 4 13 10 q4 6 4 11q4 14 6 28q2 18 6 35v19v24q-2 2 -2 4q-2 16 -2 33q0 20 4 39q2 10 2 20q0 8 -2 17q0 12 -4 22q-4 14 -10 29q-4 10 -9 18h-22q-8 0 -14 -2q-2 -14 -7 -26q-2 -20 -10 -39q-6 -18 -45 -17t-39 31q2 16 4 35q2 6 2 14q-8 4 -16 7l-21 4zM1171 805q2 -14 5 -29 q0 -20 -2 -39q-2 -10 -42 -5t-38 16q0 4 -2 10q-4 12 -9 26q-4 14 -8 33q-2 12 -2 27q-2 4 -4 12q-6 18 -12 33q-4 14 -10 29q-8 20 -11 38q-2 16 -2 31v31q-6 8 -12 14q-8 12 -21 23q-8 10 -20 16q-8 6 -20 12q-2 2 -7 2q-10 2 -22 2q-16 2 -37 11q-14 4 -29 10l-24 4 q-6 2 -15 -2q-14 -4 -24 -10q-20 -10 -47 -15q-18 -2 -33 -2q-12 -2 -25 -4q-10 -2 -20 -6q-6 -2 -14.5 -9t-12.5 -13q-8 -16 -18 -33q-27 -39 -66 -27q-14 4 -30 10q-8 2 -15 5q-2 0 -2 -2q-12 -8 -26 -19q-23 -16 -45 -16q-2 0 -7 -2q-8 -6 -18 -19q-12 -14 -21 -26 q-8 -10 -12 -19q-4 -8 -6 -18q-2 -14 -10 -35q-8 -23 -21 -41q-16 -18 -35 -29q-12 -6 -22 -14q-6 -6 -12 -14q-8 -12 -15 -23q-6 -10 -10 -20q-4 -18 -12 -35q-4 -8 -6 -19v-8q6 -18 8 -37v-37q-4 -20 -10 -36l-9 -27q-4 -14 -8 -27q-2 -6 -2 -14q0 -4 4 -10q14 -20 19 -43 q0 -10 4 -23q4 -12 10 -20q12 -20 16 -43q2 -10 9 -19q10 -14 22 -26q18 -20 29 -41q10 -23 10 -45q0 -10 2 -27q4 -4 10 -8q12 -10 31 -25q16 -12 29 -22q14 -8 26 -17q14 -8 33 -16q16 -10 37 -18q20 -10 41 -19q18 -6 29 -8q12 -2 34 -8q20 -6 39 -8q16 -2 37 0 q25 0 53 2q29 2 41 4t29 4q12 2 26.5 5t30.5 9q14 4 25 10q12 8 25 19l28 20q2 2 6 4v2q10 20 31 25h2q12 10 29.5 9t28 -13t8.5 -29.5t-15 -27.5l-14 -13l-4 -4q-8 -16 -16 -29q-10 -20 -33 -36q-16 -12 -31 -23q-16 -10 -33 -20q-16 -6 -28 -13q-4 -2 -11 -8l-4 -8 q-6 -25 -22 -45q-16 -18 -44 -16t-42 24q-12 23 -13 47q0 6 -4 15h-4q-10 0 -20 -3q-18 -4 -37 -4q-18 0 -35 2q-16 0 -29 5q2 -8 5 -15q4 -14 8 -31l8 -24q4 -6 6 -12q6 -16 12.5 -30.5t-12 -24t-38 -9.5t-25.5 4q-10 20 -17 39q-2 4 -4 6q-8 8 -18 17q-10 6 -19 10 q-12 4 -26 10q-25 10 -43 35q-12 16 -21 33q-2 4 -6 6q-16 12 -33 24q-14 12 -28 21q-8 6 -15 10q-20 6 -41 23q-23 18 -33 43q-6 18 -8 37q-2 14 -2 26q-16 14 -26 29q-8 10 -19 24q-16 16 -28 33q-14 18 -25 37q-10 16 -18 35q-6 18 -12.5 33.5t-10.5 29.5t-9 33t-7 37 q-4 23 -5 41v29v26t-2 27q-4 20 -2 47q2 23 9 43q4 18 9 36.5t11 37.5q8 23 12 39q6 23 19 43q12 20 24 39q14 20 27.5 36.5t30.5 34.5q14 18 28 37q16 25 37 43q20 18 39 35q18 16 43 35q23 16 43 30t44 27.5t48 24.5l35 14q18 8 43 12q23 4 35 8q14 2 27 5q14 2 41 6 q25 4 53 8q25 4 39 6q23 4 49 -2q12 -2 35 -6q25 -2 51 -8q25 -6 49 -19l8 -4q8 -2 15 -6q18 -8 36 -23q16 -12 29 -22q20 -16 31 -41q4 -8 6 -14v-2q12 -18 20 -35q8 -18 15 -41q8 -20 12 -35q4 -18 6 -33q2 -8 4 -18q6 -16 11 -33l4 -16q3 -19 -9 -33z" />
<glyph unicode="A" horiz-adv-x="1077" d="M539 1145q14 8 30.5 3t22.5 -20l10 -20q8 -18 21 -39q10 -20 16 -35q10 -16 18 -35q8 -18 15 -38q2 -14 10 -35q10 -25 20 -52q6 -20 15 -36q14 -27 22.5 -48.5t20.5 -52.5q12 -33 16 -57q4 -18 15 -43q4 -12 8 -23q20 -10 24 -30q2 -14 -4 -27q4 -14 8 -29q4 -16 11 -32 q2 -6 4 -15q0 -2 2 -6q8 -25 12 -47q4 -16 12 -33q8 -20 17 -45q6 -23 13 -44t9 -36l8 -28t9 -29q4 -16 8 -30.5t8 -37.5q4 -20 8 -36t8 -31l2 -12q4 -4 7 -11q12 -23 12 -45v-14q0 -25 -25 -37l4 -8q6 -16 0 -31.5t-21 -20.5t-30.5 1t-21.5 22l-11 27q-6 16 0.5 31.5 t22.5 21.5h2v8q0 4 -2 8q-4 6 -10 11q-25 18 -29 45q-4 18 -2 37l-2 2q-10 16 -17.5 32.5t-11.5 30.5q-4 12 -10 25q-6 18 -10 37q-2 12 -6 23t-9 24q-10 18 -12 37q-4 20 -2 38v25v27l-2 10q-6 25 -8 41q0 2 -2 6q0 2 -3 5l-5 5q-6 0 -13 2v-2q0 -16 -2 -30t-42 -14.5 t-40 18.5v22q-12 2 -26 6q-10 6 -21 13q-16 -8 -28 -13q-4 0 -13 -8q-16 -16 -30 -27q-8 -6 -13 -12q-4 -6 -6 -12q-4 -23 -12 -41q-8 -12 -14 -25v-12v-8q2 -8 2 -10q2 -8 2 -17q2 -2 2 -4q12 -18 18 -39q8 -31 -29.5 -41t-48.5 6q-18 27 -20 54v6q-4 10 -4 18q-2 8 -2 21 v10q-2 12 0 27v6q0 6 -2 14q-4 10 -6 21q-4 -4 -5 -9q0 -10 2 -20q6 -27 -6 -55q-14 -31 -45 -43q-8 -4 -18 -13q-6 -6 -6 -10q-4 -10 -4 -20q0 -23 -9 -45q-6 -16 -18 -35q-10 -14 -21 -29q-10 -14 -20 -29q-8 -12 -12 -24l-4 -8q2 -20 -2 -37q-6 -25 -31 -47q-6 -6 -8 -13 q-8 -16 -15 -32q-2 -6 -2 -11q0 -12 2 -24q0 -8 4 -19l5 -14q4 -14 -3 -27l5 -6l4 -8q20 -16 14 -41l-6 -29q-4 -14 -18.5 -23t-31 -5t-24.5 17t-4 30l2 10q-4 4 -6 8l-16 27q-12 23 2 43q-4 14 -6.5 28.5t-2.5 28.5q-2 23 9 45q6 16 12 31q0 2 2 2q-2 10 0 21l8 20 q6 20 12 35q6 12 11 24q4 14 10 29q4 10 8 27q4 20 9 41.5t10.5 38t13.5 41.5q8 23 18 47q8 23 15 45q10 27 22 49q8 16 17 35q8 23 16 43q8 16 14 37q8 20 15 40q6 23 15 44.5t19 42.5q10 20 17 38q10 20 18 38t15 34q6 16 14 39q6 18 10 31q8 16 14 30t15 39q10 29 20 52 q8 23 19 45q8 18 12 34t6 29v10l-4 13q-2 12 4 24q5 19 21 27zM651 610q-4 8 -6 17q-2 18 -4 39.5t-2 38.5q0 18 2 36q2 10 2 23q0 8 -2 14v2q-8 2 -16 2q-6 2 -13 0q-23 -4 -41 8.5t-24 30.5q-4 14 -7 30.5t-3 31.5v2q-10 -29 -16.5 -43.5t-14.5 -32.5q-6 -14 -10 -29 q-4 -18 -13 -39q-8 -18 -18 -39q-8 -16 -16 -34q-8 -20 -19 -41q-10 -20 -16 -39q-2 0 -2 -2h6l24 6q31 6 50 8q16 2 32.5 4t34.5 4q20 2 39.5 3t48.5 -1h4z" />
<glyph unicode="B" horiz-adv-x="1107" d="M129 1116q0 16 12.5 27.5t28.5 11.5h49q16 0 29 2q14 2 31 2q20 2 38 0q10 -2 21 0q16 2 55 0h41q18 2 33 2q18 0 43 -4q23 -2 39 -4q18 0 41 -4q18 -4 37 -6q23 -2 45 -6q18 -6 35 -11q20 -4 34 -12q14 -6 29 -12q23 -12 41 -39q18 -23 27 -47q4 -18 10 -35q4 -16 6 -33 q4 -14 6 -28q4 -18 4 -35q2 -18 0 -37q-2 -16 -4 -33q-4 -18 -9 -35.5t-15 -36.5q-10 -20 -27 -38q-12 -14 -23 -25l30 -10t38 -13q25 -8 43 -22q20 -14 35 -31q10 -14 20 -31q8 -14 17 -28q10 -16 20 -41t12 -47q4 -18 5 -39q2 -23 0 -45q-4 -18 -7.5 -34.5t-5.5 -31.5 q-4 -23 -16 -43q-10 -20 -27 -41l-2 -2q-2 -12 -2 -20q0 -16 -3 -35t-9 -37q-4 -14 -8 -25v-18q0 -23 -11 -45q-6 -18 -43.5 -18t-37.5 30q0 4 -3 8q-8 12 -12 25q-10 -8 -20 -14t-21 -15q-12 -10 -20 -21t-13 -22q-4 -8 -6 -14q0 -12 -2 -25q-2 -18 -6 -34q-8 -23 -31 -29 l5 -6q18 -23 20 -49q0 -18 -2 -39l-2 -19q-2 -16 -15.5 -26.5t-30 -8t-26.5 15.5t-8 30l2 16q2 14 2 27q0 2 -4 4l-10 14q-10 12 -8 28.5t16 26.5q2 2 6 4q-16 20 -18 43q0 4 -4 13q-6 12 -17 22q-6 6 -12 6l-21 6q-8 0 -14 7q-2 0 -4 -2q-10 -6 -23 -15q-23 -16 -51 -16 q-18 0 -37 4q-10 2 -21 3t-22 1q-20 0 -39.5 6t-37.5 19q-8 6 -15 6q-12 4 -26 6q-16 2 -33 6l-8 -6v-21q-2 -10 -2 -20q0 -20 -13.5 -26.5t-29 -1.5t-27.5 11.5t-14 8.5q-6 23 -6 43q0 8 -3 20q-2 10 -6 23q-6 16 -8 30l-4 13q-8 33 25 47q-2 8 -2 14q-2 6 -2 13l-3 16 q-2 16 -2 30.5t5 30.5v74v35q0 16 -3 35v10q-4 6 -6 14q-6 20 -6 39v25q-2 10 -4 26q-2 20 -2 39q0 10 -2 19q-2 8 -6 20q-6 14 -10 31q-6 16 -9 39q-2 23 7 47q6 18 14 39q4 10 4 16q0 8 -4 17l-6 16q-8 14 -2 29.5t20 23.5q4 0 8 2v11v147l-20 29q-10 14 -7 29.5t13 25.5 v8zM459 600l-8 -6q-23 -14 -43 -21q-14 -2 -31 -4l-4 -2q-14 -10 -29 -20q-6 -4 -10 -12q-2 -2 -2 -7v-6q2 -8 2 -14q0 -12 -40 -18.5t-42 10.5v6q-14 16 -25 31l-4 8v-10v-39v-37q2 -8 2 -15v-2q12 -23 13 -47v-33q0 -18 -5 -38q-2 -12 -2 -27q0 -18 -2 -35v-22v-33 q2 -14 4 -35v-37h9q18 0 34 -4q14 -2 35 -4q20 -2 37 -2q23 0 39 -2q10 -2 27 -2q16 -2 32 0q20 2 41 2h35q14 0 28.5 1t30 3t33.5 6q18 2 48 6q25 4 36 8q10 2 33 10.5t39 16.5q18 10 37 21q2 6 6 14t4 14t-2 15q-4 16 -4 34q0 23 14 47q8 16 15 29q2 6 4 14q0 14 2 31 q2 10 2 25v28v27q0 20 10 43q-2 6 -8 14q-2 2 -4 5q-10 2 -21 2q-2 0 -4 -2q-8 -14 -40.5 -12.5t-41.5 34.5q0 4 -4 8q-10 14 -20 29l-6 6q-8 2 -17 2q-14 2 -24 2h-27q-10 0 -20 -2q-16 -4 -33 -4q-10 -2 -23 -6q-10 -4 -20 -10q-16 -14 -41 -11.5t-39 21.5q-2 4 -6 8z M293 1055q2 -29 -14 -54l-3 -4q-2 -18 -4 -32q-2 -10 -4 -23q-2 -16 -8 -33q-2 -8 -2 -16q-2 -6 0 -12q2 -12 6 -27q4 -14 10 -29q6 -18 11 -34q4 -18 4 -35v-33q-2 -14 -4 -27v-2q14 2 24 2q6 0 13 2h12h14q16 2 35 4q23 4 49 5h39h72q20 0 51 -2t49 -7q12 -2 29 -2 q6 8 16 15l17 8q12 6 20 14l25 25q-2 6 -2 14l2 12q2 14 5 30.5t7 33.5q4 14 4 26q2 12 2 27q0 10 -4 19q-2 6 -4 20q-10 -10 -19 -18q-8 -12 -14 -25.5t-10 -28.5q0 -2 -13.5 -9t-29 -11t-27.5 1t-12 23v31q2 23 10 43q4 8 4 19q2 14 2 28q2 12 4 26.5t11 33.5h-9 q-6 0 -12 2q-2 -12 -4 -27l-2 -12q-2 -16 -15.5 -26.5t-29.5 -8.5q-31 4 -35 35q-14 -10 -43 -8t-31 16q-2 4 -6 10h-26h-9h-2l-18 -6q-14 -4 -29 -10q-4 -2 -6 -2q-4 -10 -6 -21q-4 -14 -7 -30.5t-43 -13.5t-38 24q0 18 4 35v20l-2 17q-2 4 -2 8h-2zM739 1026v-2h2z" />
<glyph unicode="C" horiz-adv-x="1024" d="M807 1110q10 -18 2 -37v-6q8 -4 14 -10l6 -6q12 -10 12.5 -27.5t-12.5 -28.5q-25 -25 -53 -4q-8 -10 -18 -20q-10 -8 -19 -19q-6 -8 -8 -16q-6 -20 -43 -21.5t-41 25.5q-2 12 -4 23h-4q-18 -2 -37 0v-9q-2 -16 -14.5 -27.5t-28.5 -8.5l-14 2h-31q-8 0 -12 -2 q-6 -2 -15 -11q-25 -29 -57 -24q-20 2 -39 10q-2 2 -6 2q-4 -6 -6 -10l-4 -15q0 -4 -2 -6l-2 -8q0 -2 2 -4q8 -23 8 -43q-2 -12 -2 -27q0 -12 2 -24q2 -29 -38 -29t-44 14q-4 12 -8 27l-15 -6q-4 0 -10 -2q-4 -8 -12 -21q-2 -2 -2 -6q0 -10 2 -18q6 -23 -2 -47 q-6 -16 -16 -35q-4 -8 -5 -12q-2 -10 0 -19q2 -18 2 -33v-92v-24q4 -18 3 -37q0 -12 2 -23q4 -18 4 -37q0 -8 2 -14q4 -12 8 -33q4 -10 6 -14q4 -14 8 -29q4 -10 9.5 -20t11.5 -21q12 -20 16 -43q2 -25 -8 -49q-4 -8 -4 -16q-2 -10 -2 -19q0 -2 2 -4q4 -2 12 -4q12 -6 29 -8 q18 -2 37 -4q23 -2 37 -4q12 -2 26 -4q16 -2 33 -4q12 -2 27 -5q14 -2 26 -2h33q12 -2 22 -2h35h33q14 0 31 2q12 0 20 2q18 4 37 5h27q8 0 16 2q14 4 37 8q10 0 20 4q16 6 35 8l13 2q16 2 29.5 -7t17.5 -26q4 -35 -29 -45q-2 -14 -8 -30q-6 -14 -13 -27q-8 -29 -30 -45 l-2 -2q-2 -12 -4 -25q0 -8 2 -20q2 -20 -31 -36.5t-49 7.5q-10 18 -15 39q-4 12 -6 23q-8 25 -2 47q2 12 2 22v10h-2q-2 2 -4 3h-82h-22q-16 -2 -37 0h-19q-8 -2 -16 -5q-2 -2 -4 -6q-4 -6 -6 -14q0 -18 -34 -32.5t-50 16.5q-6 16 -10 32q-2 4 -9 11h-14q-12 -2 -24 -2 q-12 -2 -25 -5q-14 -2 -31 -4q-4 0 -8 -2q-4 -4 -8 -12q-8 -14 -12 -27q-2 -6 -3 -10q4 -10 7 -20q4 -14 -15.5 -23.5t-38 -8.5t-24.5 9q-4 10 -8 23q-6 12 -13 22q-10 18 -12 39q-6 25 4 49q6 10 12 25v2q-16 8 -26 24q-12 12 -23 31q-12 18 -18 37q-6 14 -12 29 q-4 14 -11 35q-4 16 -8 28q-6 18 -6 39q0 12 2 31q0 12 -2 28q-4 16 -8 33q-4 25 -4 45v33v37q2 14 2 31q0 14 -2 30q-4 20 -4 39q0 12 -2 29q-2 18 -5 33q-2 16 -2 35v34v31q0 16 2 37q0 18 5 37q2 10 2 20q0 16 2 31q0 20 6 39q6 16 14 35q8 16 17 30q10 16 26 35 q16 18 35 31q18 12 39 18q12 2 24 9q14 4 33 8q16 4 35 6q6 0 18 4q20 8 46 10q20 4 40 4h31h31q18 2 29 2q14 2 28 5q12 2 35 2q16 2 31 6q23 4 47 6q18 2 37 4q14 4 24 10l15 8q14 6 30.5 2t22.5 -18zM698 1026v-2q0 2 2 2h-2z" />
<glyph unicode="D" horiz-adv-x="1091" d="M811 25q-2 10 -2 22q-2 2 -2 6q-14 -10 -31 -8l-28 4q-2 2 -7 0q-10 -4 -24 -8q-2 -6 -6 -10q-20 -29 -56 -29h-26q-2 -2 -4 -2q-4 -4 -7 -6q-6 -27 -38.5 -30t-44.5 20l-3 2q-12 4 -24 6l-14 2q-16 4 -25.5 17.5t-5.5 29.5v2q-2 0 -4 2q-10 -8 -19 -14q-16 -14 -37 -21 q2 -20 0 -35q-4 -20 -16 -41q-18 -27 -49 -15.5t-36 32t-7 37.5q0 10 -2 20q-6 4 -10 6q-2 -16 -9 -41q-6 -23 -6 -30v-15q0 -18 -16 -30q8 -20 10 -39q0 -12 4 -23q4 -20 4 -39v-53q0 -4 4 -12l9 -17q6 -16 0 -30v-4v-15v-37q2 -18 6 -39l4 -22q2 -16 -7.5 -29.5 t-25.5 -16.5t-29.5 6t-17.5 26l-4 22q-4 25 -6 49v41v15q0 6 2 12l-4 8q-10 23 -11 43v53q0 8 -2 17q-4 18 -6 39q-2 10 -6 22q-10 23 -10 45q-2 18 -2 35q0 6 -2 12q-4 8 -8 17q-4 10 -4 20q-2 8 0 19q-25 4 -31 26q-6 16 2 30.5t22 20.5h4q0 16 3 31q2 12 6 23q-2 23 0 41 q2 14 2 28v32.5t-2 29.5q-4 20 -4 45v37q0 23 2 43q2 18 2 28v25q-4 16 -4 29v28q0 8 -2 15q-4 16 -9 30q-4 14 -8 27q-2 14 -4 33q-4 18 -4 34q-2 10 -6 23q-4 14 -8 27q-8 20 -9 43q0 14 2 30q0 16 2 33q2 16 5 33q4 18 12 37q4 12 8 22q4 18 12 37l9 14q4 8 12 15 q0 8 2 14v29v24l-12 2q-16 2 -26.5 15.5t-8.5 30t16.5 26.5t28.5 8l20 -4q20 -2 43 -8q16 -4 31 -4q16 -2 31 -2q16 -2 33 -2h34q18 0 37 2h41q20 0 41 -2q18 -2 39 -6q16 -4 35 -6q18 -4 37 -5q20 -2 43 -4q25 0 49 -3t47 -7q20 -4 41 -8q20 -4 37 -10q20 -4 37 -11 q18 -8 41 -26q18 -18 34 -35q16 -18 27 -37q10 -20 16 -41q4 -14 9.5 -32.5t7.5 -34.5q2 -18 4 -37q2 -16 4 -35t4 -31q4 -16 2 -37v-30v-33q2 -20 0 -43q-2 -20 -6 -39q-2 -16 -2 -31v-37q0 -23 -4 -45q-2 -14 -4 -24v-25q0 -16 -4 -37q-2 -16 -4 -35q-2 -16 -2 -26 q0 -14 -2 -29q-2 -23 -13 -43q-8 -16 -14 -29q-8 -16 -23 -32q0 -10 -2 -21q-2 -23 -8 -37q-8 -16 -10 -24q0 -8 -2 -17q6 -16 4 -30q6 -18 8 -35q2 -20 2 -41q-2 -29 -31.5 -40t-50.5 7q-27 27 -22 60q2 18 10 36q2 5 2 9zM487 936q-2 -6 -6 -12l-7 -6q-7 -7 -18.5 -11 t-23.5 -6t-21.5 5t-11.5 24l-2 2q-10 8 -16 22q-14 -14 -39 -11t-35 20q-6 8 -16 20l-4 4q-14 0 -27 -2h-16v-4v-31q0 -18 -2 -35q-2 -12 -4 -26q0 -14 -2 -37q-2 -18 -5 -41v-41v-43t2 -41q2 -20 3 -43v-172v-2q4 -14 8 -27q4 -16 6 -36q2 -16 2 -31t-2 -32t-8 -40v-14 q2 -12 4 -25q2 -16 4 -30.5t2 -30t-2 -29.5q0 -8 -2 -14q8 -8 8 -21l2 -16q18 0 35 2q18 2 39 2h35q20 2 41 4h41h26q12 0 33 2q25 2 47 2h27q10 2 24 6q12 2 37 6q16 2 33 5q12 12 29 10q10 0 18 -6q14 4 29 6q18 4 32 8q10 2 19 6q2 2 6 2q2 12 5 23.5t7 23.5q6 25 21 45 q8 10 12 21v0q-2 16 -4 33q-2 25 8 47q6 12 10 24v4q-4 16 -4 35q0 18 6 37q6 14 11 31q4 10 6 18q0 4 -2 8q-12 25 -11 50q2 18 11 38q2 8 2 15v24q0 8 -4 21q-8 23 -11 41q0 8 -4 16q-4 14 -8 33q-4 18 -4 35v53v23l-4 16q-6 2 -12 2q-33 2 -56 29q-14 18 -18 37 q-6 2 -14 2q-6 2 -11 2q4 -14 0 -29q-4 -29 -30 -47q-2 -12 -2 -23v-30q-2 -20 -19.5 -36t-40.5 -14q-33 2 -51 33q-12 20 -16 41q-2 16 -4 31q-2 12 -5 27q-14 12 -28 26q-8 8 -15 17q-12 -31 -43 -25z" />
<glyph unicode="E" horiz-adv-x="960" d="M291 -213v-14q2 -6 4 -13q14 -23 12 -49v-26v-156q0 -16 -12 -27.5t-28.5 -11.5t-28 11.5t-11.5 27.5v156v28q0 4 -2 8q-12 20 -14 46q0 14 -2 26q0 8 -4 21q-2 6 -6 14q-10 14 -23 35q-16 29 -14 57q2 14 0 31q0 12 -4 24q-14 8 -27 21l-14 8q-12 10 -14.5 26.5 t8.5 30.5q6 6 14 11q-4 12 -4 24v25q0 14 2 29q0 8 -2 18q-2 16 -6 41q-2 25 -4 47q-2 25 -2 51v78q0 23 -3 35q0 16 3 33q2 12 6 39q2 29 4 51q0 25 2 39v30q-8 12 -8 27q2 12 10 23v8q2 25 2 37q0 14 2 28v27v37q2 29 4 45q2 10 2 20v80v39q2 14 4 29q2 12 2 28q2 18 4 37 q2 18 15.5 33.5t34.5 17.5q12 2 22 7q16 4 37 4h27q12 0 28.5 2t28.5 4q16 2 41 2q23 -2 45 -4q23 -2 35 -2h35h40q20 0 43 -2q18 -2 37 -2h41h30.5t29.5 2q12 0 22 2q14 2 27 6q12 0 22 4l15 4q14 4 28.5 -5t18.5 -24q2 -4 2 -8q4 -8 2 -16v-15q-2 -14 -2 -28.5v-26.5 q0 -6 2 -12q8 -20 8 -43t-18.5 -30t-39 -1t-24.5 12q-8 16 -18 33q-2 8 -6 15q-14 -14 -35 -31q-4 -2 -15.5 -6t-27 -8.5t-28.5 5t-15 33.5l-2 13q0 6 2 12q-8 2 -17 6q-4 -8 -10 -14l-14 -12q-4 -4 -6 -9q-2 -6 0 -12q2 -18 2 -35q-2 -12 -2 -24q0 -25 -13 -50 q-8 -16 -22 -32q2 -31 -17.5 -35t-42.5 4l-22 10q-12 25 -12 53v31q0 2 -2 4q-8 14 -19 29q-14 27 -12 53q2 6 0 15l-2 2q-4 -2 -10 -4q-20 -8 -43 -9q-10 0 -21 -2q-16 -4 -33 -4h-14q-6 0 -12 2v-8q-4 -16 -11 -35q-6 -14 -14 -30q-4 -10 -4 -17v-20q2 -14 4 -29 q4 -20 4 -41q0 -18 -2 -37q-2 -14 -2 -24v-27q0 -6 4 -18q4 -16 10 -27q2 -6 5 -12h10q18 -2 39 -4q20 -2 39 -3h37q18 0 43 -2q20 -2 34 -2h37q14 0 29 2q20 2 47 0q23 -2 39 -2h18q6 0 13 -2q14 6 28 0q14 -8 20.5 -23.5t0.5 -29.5l-6 -12q-6 -12 -11 -27q-6 -16 -12 -31 q-12 -25 -42 -25.5t-42 17.5q-2 4 -4 4q-8 4 -16 4q-14 2 -31 5q-14 4 -25 4q-2 0 -6 -2q-20 -10 -45 -13q-20 0 -43 4q-6 2 -12 2q-4 0 -10 -2q-14 -10 -29 -16q-6 -4 -8 -8l-4 -8q0 -8 2 -17q2 -14 6 -35q2 -16 -29 -37.5t-49 5.5q-14 20 -18 41q-4 23 0 45q2 8 0 18 t-5 19l-10 10l-4 4q-8 -12 -14 -23q-6 -10 -10 -20q-2 -6 -2 -12q0 -10 2 -21q2 -12 6 -27q6 -27 -4 -53q-4 -10 -7 -20q0 -4 3 -11q2 -10 8 -18q12 -18 18 -37q8 -29 -6 -57q-4 -12 -6 -21q-4 -12 -6 -24q0 -8 2 -17q0 -8 4 -18q6 -10 12 -23q18 -27 6 -59h4q16 0 34 1 t36 3q23 2 45 2q18 -2 37 -2q18 0 37 4q23 2 37 4q16 2 32 2q18 2 33 2h31q14 0 27 2q16 2 42.5 3.5t45.5 1.5h26h27l16 2q8 0 17 -2q4 0 6 -2q16 -4 24.5 -18.5t3.5 -29.5l-2 -14q-4 -14 -10 -29q-4 -10 -6 -22t-2 -23q0 -16 -2 -32q0 -12 -40 -15.5t-40 15.5q0 12 -2 26 q-2 12 -4 25q0 4 -4 8h-2q-12 2 -23 2q-8 -2 -18 -4q-8 -4 -17 -8q-2 -14 -6 -27q-6 -20 -20 -41q-4 -4 -4 -8q-2 -6 0 -12q6 -25 -10.5 -36t-38 -10t-27.5 7q-16 16 -27 35q-8 18 -14 39q-2 18 -2 36q-6 0 -12 -2h-27q-4 -2 -12 -4q-4 -4 -11 -10q-18 -23 -45 -29 q-41 -10 -65 31h-8q-18 -4 -35 -4l4 -12q6 -25 6 -62q-2 -33 -6 -57l-2 -25zM580 14v-2v2zM221 1047l4 8q-4 0 -4 -2v-6z" />
<glyph unicode="F" horiz-adv-x="897" d="M137 1047q-2 20 15 34q14 16 36 13h2q12 0 31 2q20 2 41 2q16 0 35 2q23 4 45 6q25 2 49 2h47h45q23 0 49 2q25 2 48 4q25 4 45 10q25 4 45 4q14 2 28 2q16 2 35 7l19 2q16 2 29.5 -8.5t15.5 -26.5q4 -29 -23 -41q8 -12 6 -27l-2 -14v-23v-55q0 -25 -16 -49q-4 -6 -4 -8 q-2 -10 0 -23q0 -12 2 -24q6 -33 -31 -41t-47 8q-18 23 -20 47q-2 16 0 39q2 6 0 8q-8 16 -13 33q-4 8 -10 14l-12 13q-12 14 -11 32h-16q-6 2 -10 0q-12 -4 -29 -8q-31 -10 -59 4q-12 6 -25 12q-16 -6 -28 -8t-27 -6q-14 -2 -29 -4q-2 0 -4 -4q-2 0 -4 -2v-12v-29 q0 -4 2 -10q4 -14 4 -29q2 -23 -18.5 -23t-40.5 9l-23 10q0 6 -2 14q-4 16 -8 35q-2 12 -6 23q-2 6 -8 10q-6 6 -11 8q-16 4 -34 14l-15 9q-6 4 -10 8v-19v-8q8 -16 4 -33l-4 -12v-18q0 -14 4 -39q4 -27 6 -49.5t2 -42.5q2 -20 2 -50v-96v-47v-8h9q18 -2 34 -2h13q8 2 18 8 l14 12q14 8 31 6t25 -16q6 -6 6 -12h35q25 2 43 4q23 2 45 2q23 2 45 2h37h28l17 2q16 0 29.5 -10t13.5 -27q2 -16 -8.5 -28.5t-24.5 -14.5q-6 -12 -18.5 -22.5t-31 -14.5t-36.5 17q-10 0 -20.5 -1t-18.5 -5.5t-16 -10.5q-10 -8 -17 -16q-8 -14 -20 -33q-14 -14 -41 -17 t-45 23q-8 14 -15 29q-4 8 -14 20q-8 10 -16 21q-18 2 -33 2q-4 -2 -10 -6h-2q-6 -14 -15 -31q-4 -10 -4 -16q0 -4 2 -15q8 -23 8 -43v-32v-29q0 -6 2.5 -14.5t8.5 -16.5q12 -16 18 -37q4 -10 10 -24q12 -23 15 -45q2 -18 -2 -37q-2 -10 -2 -21q0 -6 2 -12q10 -23 8 -45 q-2 -27 -31 -55q-16 -16 -29 -31q-2 -4 -4 -6v-27q-2 -12 -2 -22q0 -6 2 -13q8 -18 11 -36q2 -12 2 -27l2 -12q2 -14 -8 -27q10 -27 12 -57l4 -29q2 -16 -9.5 -28.5t-27.5 -14.5t-28.5 8t-14.5 27l-2 28q-2 23 -10 39l-10 23q-10 27 12 47q-2 6 -2 12q0 8 -4 17q-8 20 -9 43 q0 14 3 30v5q-8 10 -9 22v16v25q0 12 -2 23q-2 14 -4 33.5t-2 39.5v37q0 18 -2 41q-2 25 -4 50.5t-4 54.5q0 29 -4 53q-4 29 -6 56.5t-3 57t-1 56.5q0 25 -2 51v51v96v2q-20 6 -25 25l-4 14q-4 14 -12 35q-12 39 2 68q6 12 10 24q4 14 8 27q4 8 6 16v39q-2 31 2 51v3z" />
<glyph unicode="G" horiz-adv-x="1091" d="M754.5 402.5q11.5 11.5 29 11.5t27.5 -11l6 -6q12 -12 12 -28.5t-11 -27.5t-28.5 -11t-27.5 10l-6 6q-12 12 -12.5 28.5t11 28zM236 143q4 -10 2 -22q10 -6 16 -17l8 -12q2 -6 8 -14q8 -2 15 -6q10 -4 24 -9q18 -4 33 -8q10 -4 31 -4h43q20 0 41 -2h28q14 2 33 4 q18 0 37 2q18 2 39 4q18 0 40.5 2t45.5 5q20 4 37 6q16 4 33 8q16 2 34 6t33 8q10 2 21 6q8 4 16 11q0 4 -2 8q-4 18 -2 39q2 18 10 39q4 4 2 10q0 10 -2 18q-6 16 -8 35v31q0 18 4 37q2 16 10 37q6 16 11 32q4 14 4 23q2 10 2 20v27q0 8 -4 22q0 2 -2 3q0 -2 -3 -3 q-6 -6 -8 -12q-6 -18 -16 -39q-2 -4 -14.5 -11t-26.5 -11t-27.5 2t-17.5 26q-4 10 -8 21q-6 18 -8 35q0 6 -3 10q-6 2 -14 2h-26q-4 -2 -7 -4q-4 -2 -4 -4q-2 -12 -6 -25q-2 -20 -31 -26q4 -20 -2 -45q-4 -18 -10 -33l-4 -15q-4 -16 -19.5 -23t-31 -2t-22.5 20.5t-3 29.5 l6 14q4 12 7 27q2 8 0 12q0 8 -7 19q-6 14 -10 28q-2 4 -8 11q-14 12 -21 28q-29 10 -28 39q0 16 11 28.5t28 12.5h14h8h2h2q10 0 21 -2q14 0 24 2q14 2 29 4h33h55q14 0 27 2q16 0 35 -2q12 -2 26 -4q18 0 35 -2q12 -2 31 -4q27 -2 49 -16q31 -16 39 -45q6 -18 6 -39v-25 q2 -16 2 -39q0 -18 2 -35v-41q0 -16 4 -34q2 -25 2 -41q0 -14 -2 -37q-2 -20 -6 -43q-2 -16 -4 -25l2 -10q2 -18 2 -35q0 -16 -2 -33q-2 -14 -6 -39q-4 -20 -6 -36q-2 -14 -2 -25v-31q0 -20 -2 -37q0 -10 -13 -18q-4 -12 -14 -18q-2 -2 -4 -2v-25q2 -23 2 -37q0 -12 2 -27 v-32v-25v-33l-2 -16q-2 -16 -14.5 -26.5t-29 -9.5t-27.5 14.5t-9 29.5l2 14v27v25v26q-2 16 -2 33q0 12 -2 33v37v12q0 10 4 18q-8 6 -16 9q-8 4 -19 6q-16 4 -30 8q-10 4 -21 6h-2q-10 -6 -18 -12q-29 -23 -60 -17q-8 2 -16 2q-12 -2 -21 -6q-39 -14 -73 27l-7 6h-8l-10 -2 q-8 -12 -18 -25q-18 -29 -50 -32q-18 -2 -35.5 9t-23.5 26q-4 2 -8 2q-20 0 -41 8q-14 4 -29 8q-16 4 -31 8q-10 4 -20 4q-23 2 -43 17q-18 12 -37 30q-16 10 -33 27q-20 16 -34 35q-14 18 -23 35q-8 14 -14 34q-6 18 -9 39q-4 23 -4 41v33q0 18 2 37v33q0 23 5 43 q2 14 2 26v70q0 16 -2 31v34q-2 14 -3 35q-2 23 0 47q2 27 3 41q0 16 -3 41v43q2 18 3 41q2 20 0 39q0 23 4 45q4 20 8 41q6 18 12 41q6 25 14 43q6 23 19 43q14 23 33.5 40.5t38.5 27.5q18 8 36 14q23 6 43 6q12 0 31 2q18 4 43 6q29 4 49 5q14 0 35 2q25 6 47 8q25 4 41 6 q16 0 37 2q20 2 33 2h35q29 2 53 -4q20 -4 39 -6q16 -4 26 -4q18 0 37 -6q20 -6 43 -27q27 -20 35 -43q6 -16 10 -39q2 -16 3 -31.5t1 -31.5v-17q0 -25 -22 -37l4 -16q6 -27 8 -45q2 -25 -24.5 -41.5t-49.5 -1.5q-16 10 -23 29.5t-1 37.5q2 10 2 19q0 4 -2 6q-8 12 -19 27 q-4 4 -8 6q-25 10 -43 35q-8 4 -12 12l-8 12q-6 10 -17 19v2l-20 -4q-16 -6 -33 -11q-20 -4 -41 -2q-12 0 -26 4q2 -18 2 -34q0 -25 -13 -48q-4 -10 -16 -16q2 -6 2 -12l2 -13q2 -16 -9 -29.5t-26.5 -14.5t-29 9.5t-15.5 26.5l-2 13q0 8 -4 18q-6 20 -6 41v22l-2 15 q0 10 2 18v10h-12q-6 2 -15 0q-10 -4 -22 -12q-20 -10 -45 -10q-16 0 -33 2q-4 0 -8 -2q-10 -4 -19 -8v-13q0 -8 2 -16q6 -16 11 -31q6 -29 -21 -44t-45 -9q-4 -8 -6 -18q-2 -8 -2 -17v-22q2 -12 6 -25q4 -16 8 -37q2 -25 -4 -45q-6 -16 -8 -30q-4 -12 -8 -29 q-4 -12 -4 -21.5t2 -17.5q4 -14 6 -29q4 -18 4 -35q0 -16 -2 -34q-2 -16 -2 -29q-2 -10 0 -18q0 -12 2 -27q0 -10 2 -18q4 -14 8 -31q2 -16 2 -37v-29q0 -16 -2 -33q-2 -16 -6 -32t-8 -37q-4 -12 -4 -23l2 -16q0 -13 -8 -25zM760 1059q0 2 2 2h-2v-2z" />
<glyph unicode="H" horiz-adv-x="1103" d="M932 1135q16 4 29.5 -6.5t15.5 -26.5l2 -19q4 -20 6 -36q0 -14 2 -37q2 -25 2 -47q8 -18 8 -37q2 -14 4 -29q2 -23 -4 -45q-4 -12 -8 -45q0 -8 -4 -16v-56q0 -37 -2 -67q0 -23 -2 -50q4 -14 6 -26q2 -16 2 -33v-24q0 -16 -2 -33q-2 -12 -2 -29q0 -23 -4 -41 q-6 -14 -12 -31q-6 -14 -11 -26q0 -14 -2 -27v-47q0 -23 -4 -51q2 -2 4 -6l5 -15q6 -14 10 -26q10 -20 12 -43v-31q2 -14 2 -27v-32v-33q0 -20 -2 -39q-2 -14 -4 -29q-2 -16 -2 -30q-2 -4 -2 -7q12 -12 10 -30v-15q-2 -12 -2 -28v-56q0 -18 -1 -35.5t-5 -33.5q-2 -14 -4 -25 v-26q0 -20 -4 -48q-4 -31 -15 -51l-6 -12q-8 -14 -23.5 -20.5t-29.5 2t-19.5 23.5t1.5 30l6 14q4 8 6 25q4 20 4 37v34q2 14 6 31q2 12 3 26.5t1 28.5v56v24q-8 4 -10 15q-6 14 -10 32t-4 37v51q0 12 -2 23q-4 10 -5 18v19v8q0 6 -2 14q-2 16 -4 37q-2 20 -2 35.5t2 32.5v26 v35q0 18 2 35q2 10 2 23q0 20 4 38q2 14 7 29q2 10 2 23q4 33 8 63q2 31 6 66q2 18 4 39q-12 -4 -24 -7q8 -10 8 -24q6 -12 2 -28.5t-17 -24.5q-14 -8 -30.5 -4t-24.5 18l-8 12q-4 8 -8 19l-45 53q-2 2 -2 6h-37q-12 2 -19 -2q-2 0 -6 -4q-8 -12 -14 -27l-2 -2q2 -18 -2 -35 q4 -12 4 -24v-10q2 -10 4 -23q0 -18 -2 -45l-41 -27q-39 -18 -43 19q-2 16 0 35q2 12 2 24v6q-6 16 -6 31q-10 14 -17 27q-6 12 -10 22q-6 2 -8 2q-6 -10 -12 -26q-4 -8 -19.5 -19.5t-35 -14.5t-33.5 23q-2 6 -11 13l-12 10l-2 2q-6 -4 -10 -10q-2 -6 -2 -8q0 -10 2 -19 q4 -23 0 -47q-2 -6 -19.5 -18.5t-38 -11.5t-26.5 24q-2 4 -8 12q-14 20 -23 37q-2 8 -10 16q-8 10 -23 25q-4 4 -8 6q-8 2 -18 0l-19 -4q-2 -35 -2 -65v-60q4 -10 4 -22q2 -16 2 -31v-27q0 -16 -2 -30q0 -12 -2 -29q-2 -14 -2 -25v-28v-2v-2q2 -27 2 -54q0 -6 -2 -12 q2 -4 2 -8q0 -10 4 -33l2 -20q2 -14 -4 -27v-12v-35l1 -3t2 -5t0 -7.5t-5 -9.5q10 -10 13 -24q8 -16 14 -33l6 -16q4 -14 -3 -29.5t-24 -20.5q-2 -2 -4 -2l21 -26q10 -14 8 -30.5t-14.5 -27t-29.5 -7.5t-26 16l-28 34q-14 4 -25 17q-8 12 -6 28.5t14 26.5l13 8q6 4 8 8 q-4 16 -4 31v2q-8 12 -4 29l-11 27l-4 18q-4 18 9 33q0 12 -3 26q-2 18 -2 41v27v14q-2 14 -2 29q0 12 2 31q-2 20 -2 49q-2 33 0 67q2 31 2 66v2q-4 12 -10 27l-8 16q-23 12 -21 39l3 14v21q-4 16 -7 35q0 20 2 38q2 23 11 41q8 20 26 43q8 12 11 19q2 10 6 20v33v66 q2 33 2 63q0 29 2 57q0 27 2 46q0 23 2 51q2 31 8 49l4 16q4 16 18.5 24.5t30.5 4.5q14 -4 22.5 -16.5t6.5 -26.5q2 -2 2 -6l6 -15q12 -27 0 -57q-4 -12 -6 -22q-2 -12 -2 -23v-29q0 -6 2 -16q6 -16 8 -31q4 -20 0 -43q-2 -16 -6 -28q-2 -12 -6 -27q-2 -16 -10 -37 q-2 -6 -2 -12q-2 -14 -6 -29v-26q0 -16 -3 -33h21q29 0 63.5 2t69.5 2h68q37 2 77 4q41 2 82 6q41 6 74 8t62 4q25 2 51 7q31 4 51 6q16 2 39 2q2 12 2 24q2 14 6 33q2 16 6 31v51q0 23 2 57q0 20 2 37q-6 16 -6 33q0 10 -2 25v32q0 8 -4 19l-4 14q-4 16 4 31q4 31 35 35z " />
<glyph unicode="I" horiz-adv-x="1032" d="M141 -109q-16 4 -24 18.5t-4 31.5l2 12q10 39 47 45q16 4 33 4h26h29q18 2 33 2h30q14 0 27 2h35q12 -2 26 0q20 0 37 2q12 0 23 2q-14 12 -15 31v86v37q0 14 3 29v28v94q0 16 1 37t1 39q0 20 4 39q0 16 2 35q0 20 2 39q2 16 2 33q2 16 4 34q2 16 4 35v6q0 6 -2 15 q-4 16 -5 33.5t-1 33.5t2 35q4 18 8 33q2 16 10 41q2 6 2 12q2 10 2 25q0 12 -2 26v25q-8 16 -10 35q-2 16 -4 35q0 16 -2 30v6q-10 10 -18 21q-8 10 -21 20q-20 18 -29 41q-6 2 -10 4q-10 0 -19.5 -1t-19.5 -3q-6 -2 -18 -12l-8 -8q-2 -12 -5 -23q0 -18 -38.5 -21t-42.5 19 q-2 14 -2 35l-3 4q-6 6 -10 8l-14 6q-2 0 -4 3q-10 -12 -27 -17q-6 -14 -21.5 -20t-30.5 1t-21.5 22.5t1.5 29.5l11 27q10 20 35 22l14 25q8 14 23.5 18t29.5 -2q18 6 41 6h19q10 0 20 -4h6q16 2 31 4q18 4 35 4h35q18 0 36 4q23 2 41 4t41 3q23 2 49 2q23 0 33 2q18 2 41 0 q10 -2 31 0q29 2 47 0h18q16 2 31 2q12 2 25 4l8 2l12 12q14 8 30.5 5t24.5 -17l9 -12q6 -6 16 -15l16 -12q12 -10 15.5 -26.5t-6.5 -30.5t-29 -15q-2 -6 -2 -12v-21q2 -10 6 -24q4 -20 4 -45q-2 -23 -33.5 -35t-48.5 14q-16 25 -10 56v2q-2 6 -8 10q-16 12 -31 33h-10 q-16 -10 -27 -17q-8 -2 -18 -10q2 -4 0 -8v-12q-2 -18 -8 -35l-4 -13q-4 -16 -19.5 -23t-31 -3t-22.5 19.5t-3 29.5l4 14q2 8 4 19v4q-6 6 -10 12q-12 4 -13 10q-2 6 -6 15h-14h-29q2 -14 -8 -27q0 -8 2 -14v-39v-14q2 -2 2 -3l10 -22q12 -25 -8 -45v-4v-27q4 -14 4 -31v-32 t-2 -31q-2 -14 -4 -23q0 -4 -2 -8v-35q0 -20 -2 -41q0 -16 -2 -32q0 -18 -2 -37q-2 -6 -2 -12q0 -2 2 -5q6 -23 6 -45v-92q0 -23 -4 -45q-4 -16 -6 -28q0 -20 -6 -39q-4 -14 -6 -27q-2 -10 -2 -18v-29q0 -8 2 -12q6 -14 10 -29l10 -25q10 -20 12 -39q4 -16 5 -31.5t1 -31.5 q0 -23 -8 -43q-6 -12 -12 -27q-4 -10 -6 -18q-4 -10 -6 -23q16 0 30 -2q12 0 27 2q16 2 33 4q18 2 39 2h114q14 0 39 -2q20 0 39 2h23q16 2 28.5 -9t14.5 -27q2 -31 -29 -41q-6 -16 -22 -23l-15 -6q-10 -12 -35.5 -19.5t-29.5 -3.5l-2 5q-12 -2 -27 -2q-8 0 -16 -3 q-8 -2 -23 -8v-14q2 -6 2 -10q6 -14 8 -33q2 -16 2 -37q0 -14 2 -25q2 -14 3 -34v-15q2 -16 -10.5 -28.5t-29 -12.5t-27.5 11.5t-13 27.5v17q0 10 -2 20q-2 18 -2 39q0 14 -2 29v4q-8 2 -11 8q-2 12 -8 25q-4 12 -10 26q-2 2 -4 6q-12 -2 -21 -4q-12 -2 -24 -6l-15 -2 q-12 -2 -24 2q2 -6 0 -12l-2 -25q-2 -16 -15.5 -26.5t-29 -9.5t-26.5 14.5t-9 29.5l4 27v2q-6 10 -6 23q-10 -10 -21 -19q-16 -16 -41.5 -14t-40.5 22q-6 8 -12 19h-18t-17 -2q-6 -2 -14 -8q-2 -23 -10 -39q-2 -2 -7.5 -5.5t-18.5 -9.5t-23.5 -8t-20.5 6t-12 27l-15 12 q-10 8 -14 21q-15 -15 -35 -11z" />
<glyph unicode="J" horiz-adv-x="1073" d="M131 125q-16 6 -23.5 20.5t-3.5 30.5l7 19q8 29 30 51v6v106q0 16 11.5 28.5t28 12.5t28.5 -12t12 -29v-94q0 -2 2 -2q23 -27 -2 -53q2 -4 2 -8q4 -14 8 -25q2 -8 9.5 -19.5t17.5 -21.5t21 -14q12 -8 29.5 -15.5t29.5 -13.5q6 -2 12 -2h31q14 0 29 2q18 4 38.5 5t36.5 1 h25q14 2 31 4q18 2 34 2q12 2 31 7q23 4 40.5 7t31.5 7q16 4 33 10q14 2 28 8q16 6 28.5 13.5t23.5 15.5q8 6 20 19.5t20 23.5q2 6 5 12q2 8 2 15v57q0 20 8 41q6 14 12 31q4 8 4 12q0 10 -1 20.5t-4 22.5t-7 27q-4 16 -8 34q-6 23 -8 45q0 12 -3 31q-4 23 -4 43v66v30 q0 18 4 37q2 16 5 31v2q-6 14 -15 27q-6 12 -14 30q-10 27 -4 50q4 20 14 36q8 12 13.5 22.5t9.5 23.5q4 10 6 20v14q-2 14 -4 33q-2 18 0 37l2 16q0 14 13 25.5t30 9.5q6 0 10 -2q16 31 47 21q16 -6 24.5 -20.5t2.5 -31.5l-4 -12q-2 -10 -4 -18q-2 -16 -5 -31 q-2 -10 -4 -23v-30v-156q0 -23 -2 -43q-2 -18 -2 -33v-28v-33q-2 -14 -4 -31v-27q-2 -12 -2 -26v-246v-33q-2 -20 -4 -32q-2 -23 -10 -45q-6 -16 -12 -31q-6 -12 -13 -25q-2 -2 -2 -4q-2 -12 -4 -22t-2 -23v-29v-32q-2 -8 0 -15.5t8 -15.5q12 -18 17 -41q4 -23 0 -43 q-2 -12 -4 -25q0 -12 -7 -20q0 -12 -4 -27q-2 -12 -2 -24q-2 -16 -2 -31q0 -18 -4 -43l-2 -23q-2 -16 -15.5 -26t-29.5 -7t-26.5 16t-8.5 30l4 20q2 20 2 33q0 18 2 35q0 20 4 37q2 10 2 18q-8 14 -16 27q-4 12 -12 26q-10 16 -17 33q-2 2 -6 4l-10 6q-14 2 -27 4 q-2 0 -6 -2q0 -2 2 -10q0 -23 -18.5 -32t-36.5 -6t-25 9q-8 8 -18 15q-6 2 -8 2q-10 0 -23 -2h-35q-16 0 -32 2l-2 2q-12 -8 -27 -14q-14 -8 -29 -15q-25 -12 -53 -4l-20 4q-16 -12 -35 -20q-27 -10 -55 -2q-20 8 -37 22q-10 6 -21 13q-10 4 -22 8q-29 8 -45 39q-4 8 -15 28 q-6 10 -14 23q-16 18 -25 33l-8 12q0 2 -2 2h-2z" />
<glyph unicode="K" horiz-adv-x="1046" d="M784 1147q16 -29 -8 -49q4 -8 2 -17v-14q-2 -16 -8 -35q-8 -25 -31 -43q-8 -8 -14 -18q-8 -12 -8 -19q-2 -6 0 -16q2 -18 4 -33q2 -20 1 -38.5t-7 -35.5q-14 -31 -46 -26.5t-40 24.5q-6 12 -15 27q-2 4 -6 8l-4 -4q-18 -14 -37 -24q-10 -4 -18 -13q-8 -8 -12 -14 q-4 -10 -7 -23q-6 -25 -28 -47q-12 -12 -29 -24q-8 -8 -13 -16.5t-5 -16.5q-4 -10 -4 -21v-14q0 -16 -11.5 -27.5t-27.5 -11.5h-2q6 -8 14 -18q14 -16 35 -37q29 -25 43 -43q10 -12 19 -24.5t22 -24.5q12 -12 30 -33q20 -23 45 -51q23 -27 46 -51q20 -25 51 -54 q23 -23 45 -49q20 -27 32.5 -39t24.5 -24q14 -16 39 -49q18 -29 35 -48q14 -18 27 -30l14 -15q12 -12 12 -28.5t-12 -28.5q-6 -8 -19 -10q-8 -10 -20 -15q-14 -6 -29.5 2.5t-19.5 22.5l-6 14q-2 8 -9 19q-12 16 -20 33q-6 12 -14 22l-2 2q-2 0 -2 2v-4v-29v-28 q-2 -23 -13 -45q-8 -20 -43 -19.5t-41 29.5q-4 18 -4 35q0 6 -2 14q-8 20 -8 41q0 8 -2 16q-4 18 -4 37q0 18 6 37q2 6 2 15q0 2 -4 8t-12 10q-12 10 -25 16q-6 4 -12 9l-6 -9q-6 -8 -24.5 -7t-37 11.5t-14.5 22.5q4 10 6 25q2 10 0 16q-16 14 -33 31l-24 28q-8 10 -19 19 q-10 6 -16 8q-33 8 -45 41q-4 14 -8 31q0 4 -5 8q-8 10 -20 20q-18 18 -33 41q-14 25 -14 51v29q0 6 -2 14q0 2 -2 5q-14 20 -25 34v2q-12 -12 -22 -24q-4 -4 -6 -8q14 -8 18 -24.5t-2 -27.5q14 -18 22 -36q10 -25 11 -48q0 -23 -38 -28.5t-46 16.5q-2 10 -8 23l-7 14 q-2 6 -2 14q-10 10 -14 25l-4 -4q2 -4 2 -8v-39q0 -8 2 -21q4 -20 0 -43q-2 -10 -2 -20q2 -8 4 -19q6 -16 10 -32q4 -18 6 -31.5t5 -26.5q2 -16 2 -33v-26v-19q2 -2 4 -8q14 -16 22 -35q16 -37 -10 -69q-10 -10 -16 -23l-2 -4q2 -27 -5 -47l-8 -16v-47q0 -12 2 -21 q4 -18 4 -35v-55q0 -18 -4 -41l-4 -14l2 -4q6 -23 9.5 -40.5t3.5 -35.5v-15q0 -16 -11.5 -28t-28 -12t-27.5 11t-13 27v15q0 12 -2 25.5t-9 29.5l-6 21q-4 18 6 34l2 2q2 16 3 25v33q-23 12 -23 37l2 14v27q2 10 0 20q0 23 12 45q-23 10 -22 35v39v35q2 16 -2 32 q-6 27 -6 56v43q0 16 -2 39q-2 27 -3 49q0 20 -2 45q-2 23 -2 49q0 27 2 49v37t2 37q2 18 3 37v108q0 16 -3 33q-2 18 -2 41q-2 23 -2 41v35q0 23 2 37v26v27q-2 18 -2 33q0 16 2 30q0 8 2 29q2 16 3 27q0 18 4 34v17l-2 12q-2 16 9 29.5t27 15.5q29 2 39 -24q33 -10 29 -41 v-15q-2 -2 0 -4q2 -4 7 -12t7 -12q6 -14 15 -29q12 -27 8 -53q-4 -20 -16 -43q-6 -14 -13 -29q-4 -12 -6 -20v-17q0 -12 4 -24q2 -14 4 -29q2 -23 -8 -47q-4 -12 -10 -29q-4 -10 -10 -26q-4 -12 -4 -21q-2 -10 -3 -24v-44q0 -8 -2 -14v-2q16 18 35 39q23 27 51 55l37 37 q12 14 25 31q16 18 35 37q14 12 28 26l28.5 28.5l29.5 29.5q16 16 32 33q18 14 33 26q10 8 19 21q12 16 24 30q12 18 27 33l35 35q20 20 30 33q14 16 27 30q14 18 33 29l14 6q14 8 29.5 4t23.5 -18z" />
<glyph unicode="L" horiz-adv-x="968" d="M705 29q27 -4 34 -4h29q10 0 23 2l16 2q33 6 45 -27q14 -10 14 -29q2 -16 -8 -28.5t-27 -14.5l-12 -2q-10 0 -28.5 -3t-34.5 -3q-12 0 -23 -2q-4 0 -10 -6q-8 -4 -14 -12q-12 -18 -40 -20.5t-44 20.5v2q-12 4 -23 6q-2 2 -4 0q-14 -4 -31 -6q-16 -4 -35 -4q-8 0 -18 -2 v-2q-6 -8 -10 -21q-2 -8 -2 -18v-31q0 -6 -8 -12q2 -12 -2 -25q-2 -10 -5 -22q-2 -12 -2 -25q-2 -10 -2 -21q2 -14 2 -32t-4 -37l-2 -12q-2 -16 -15 -26.5t-29.5 -8.5t-26 16t-7.5 29l2 14q2 12 3 25q0 16 -3 28q0 16 3 33q2 14 4 29l4 24q-8 16 -17 33q-8 20 -10 43v6 q-2 0 -2 2q-10 14 -23 29q-12 0 -24 2q-8 0 -15.5 -1t-19.5 -9q-8 -6 -14 -12q-10 -16 -27 -33q-16 -18 -48 -9t-36 40v32q0 8 -2 16.5t-6 16.5q-6 12 -10 23q-31 23 -29 55q2 12 2 22q0 16 2 33v29v4q-10 18 -14 33q-8 20 -8 43q-2 29 12 51q8 12 12 20v17q2 14 2 29.5 v27.5q-4 12 -6 25q-2 20 -2 39v26q0 18 6 39q2 8 6 17v6q0 16 1 33.5t1 37.5q2 18 2 33v29q-2 16 0 35q2 12 3 26v121v3v1q-2 4 -7 8q-14 18 -22 35q-8 16 -12 33q-8 20 -7 43q2 20 9 39q6 12 12 29q4 10 6 20q2 6 2 14v31q0 12 -2 23q0 8 -4 20l-4 14q-4 16 4 30.5t22 19.5 q8 6 19 8q16 0 29.5 -10.5t15.5 -26.5v-12q2 -10 4 -21q4 -16 4 -35v-114v-28.5t2 -23.5q2 -14 5 -29.5t3 -33.5q2 -2 2 -4l33 -31q23 -25 25 -55q2 -25 -2 -43q-4 -16 -15 -37q-6 -14 -10 -25q-2 -8 -2 -16v-55q0 -23 -8 -47q-8 -18 -14 -33q-6 -18 -15 -33q0 -4 -2 -8v-37 q0 -25 -2 -45q0 -12 -2 -21q8 -20 8 -41q-2 -16 -2 -32q-2 -16 -8 -31v-2v-39v-72q6 -8 8 -18q8 -18 10 -39q2 -18 0 -35v-12h19q12 -2 27 0q18 0 36 -2q14 -2 39 -4t39 -2q12 0 27 -2h24h105q20 0 31 2h36q23 2 46 2q25 0 43 -4z" />
<glyph unicode="M" horiz-adv-x="1138" d="M1015.5 1138.5q14.5 -8.5 19.5 -23.5t-3 -30l-8 -12q8 -12 6 -24v-19q-2 -18 -3 -40.5t-3 -49.5t-2 -49q-2 -18 0 -41q2 -27 0 -49v-21q4 -20 2 -45q-4 -16 -4 -28v-7q0 -18 2 -51q2 -29 0 -55q-2 -23 -2 -45q0 -25 -1 -53.5t-3 -53.5q-2 -23 -6 -51q-2 -25 -2 -49 q-2 -25 -4 -47q-2 -16 0 -31v-42.5v-41.5q0 -16 2 -41v-43v-43q0 -10 -5 -18q2 -18 0 -35q-2 -20 -8 -37q-4 -10 -6 -20q-4 -10 -4 -19q0 -4 4 -12l10 -18q6 -14 1 -31t-20 -23t-30.5 -1t-23.5 20l-9 18q-12 27 -12 49q0 16 4 35q4 16 13 31q2 8 2 16q2 8 0 17q-4 12 -9 24 q-6 16 -10 35q-6 25 -2 45q4 14 8 33q2 4 2 10q0 4 -6 12q-10 16 -18 31q-6 16 -13 35q-6 16 -8 33q-2 14 -4 30q-4 25 4 47v11q-2 8 -6 18q-16 35 6 68q10 14 23 30q10 12 20 25q4 8 4 12q0 23 9 41q2 10 4 19q0 12 2 28q0 20 4 41q2 18 6 35q2 8 2 17v2v51v8q-4 10 -10 20 q-10 18 -15 35q-4 -4 -8 -10q-6 -8 -10 -16q-2 -6 -2 -13q-2 -12 -4 -28t-8 -35q-4 -14 -13 -31q-4 -10 -10 -20q10 -18 0 -37l-6 -15q-4 -6 -6 -14q12 -23 14 -47l2 -16q2 -16 -9 -28.5t-27.5 -14.5t-29 9t-14.5 27v17q-2 6 -4 10q-16 27 -12 55q2 4 2 9q-8 -6 -22 -17 q-8 -6 -15 -12q-8 -10 -14 -21q-6 -12 -14 -26q-6 -12 -15 -27q-4 -10 -6 -20q-4 -18 -8 -35q-4 -14 -8 -31q-4 -14 -6 -26q-2 -18 -7 -35q-4 -18 -39.5 -24.5t-44.5 22.5l-4 28q0 8 -4 17q-4 16 -10 35q0 8 -2 14q-6 -8 -24.5 -14.5t-37 0t-22.5 28.5q-2 10 -6 21 q-4 14 -8 30q-4 18 -2 39v23q0 10 -4.5 19.5t-10.5 17.5q-8 12 -16 22q-10 -16 -26.5 -11t-33.5 19l-16 17v18q0 12 -2 27q0 14 -4 27q-2 10 -6 22q-2 4 -8 10q-18 16 -35 37q-14 18 -23 33l-8 16v-4q0 -18 -4 -37q-2 -12 -4 -26q-2 -8 -2 -21q2 -12 6 -24q6 -18 8 -37 q0 -18 -2 -41q-2 -12 -2 -23q0 -20 -6 -41q-6 -16 -10 -30q-4 -10 -9.5 -23.5t-7.5 -23.5v-15q2 -14 3 -29.5t3 -33.5v-33q0 -16 -2 -37q-4 -20 -8 -37q-4 -14 -12 -31l-8 -28q-4 -18 -4 -33v-39q0 -23 -4 -45l-3 -6q2 -14 7 -23l8 -32q2 -18 2 -35q0 -20 -6 -41 q-4 -16 -13 -33q-4 -10 -6 -16q0 -4 2 -8q8 -20 9 -41q0 -10 2 -23q0 -6 4 -12q6 -12 14 -25q14 -27 10 -53q8 -10 8 -25l2 -12v-29q2 -20 -2 -39q-2 -14 -4 -32l-2 -19q0 -16 -13 -27.5t-29.5 -10.5t-27 14.5t-10.5 29.5l2 19q2 23 7 39q2 12 0 22v29v4q-16 14 -13 35l4 14 h-2q-8 14 -16 29q-10 20 -12 41q-2 16 -2 31q0 4 -2 10q-10 25 -9 47q2 18 13 41q2 6 4 10q-20 16 -17 41l4 14q2 8 3 21v31v12q-4 20 -5 39q-2 27 5 49q4 10 6 22q2 14 8 33q2 16 2 35q-2 27 2 53q2 23 3 41.5t1 40.5v49q2 23 4 45q2 18 4 41t4 41v29q-2 20 0 45 q2 18 3 38.5t1 37.5v41q2 16 3 35v63v29q0 16 2 43q0 20 -1 37.5t-4 29.5l-2 13q-6 31 21 45q6 6 14 10q14 8 30.5 2t22.5 -20l9 -19q10 -16 22 -41q10 -23 23 -41q10 -20 20 -37q10 -14 21 -32q10 -14 20 -29q14 -16 27 -35q12 -14 26 -31q16 -18 27 -34q12 -14 23 -27 q10 -14 24 -33q14 -18 23 -33l20 -30q10 -14 31 -39q20 -27 33 -45q6 -10 10 -19q8 10 18 23q12 20 27 37q10 14 21.5 28.5t23.5 32.5q12 20 28.5 39.5t32.5 40.5q16 18 33 39q16 20 31 45q18 25 35 45q18 23 32 41q12 16 23 33q10 18 29 49q16 29 26 45l11 18q6 14 22 18.5 t30.5 -4zM811 764v2v0v-2zM238 956q-4 8 -9 15v-6zM530 557v0v0z" />
<glyph unicode="N" horiz-adv-x="1060" d="M367 561q-2 6 -5 10l-10 15q-23 25 -22 53q0 8 -2 20q-4 14 -6 29q-2 8 -7 23q-10 18 -16 32q-6 16 -10 35q-4 12 -10 29q-8 20 -15 43q-6 23 -10 43q-6 18 -12 35q-4 10 -11 18l-14 15q-6 8 -8 18q-2 0 -2 1v3q0 -6 2 -12q4 -18 6 -37q2 -12 4 -23l10 -20q10 -16 17 -31 q10 -20 10 -45v-33q0 -20 -4 -39q-4 -16 -8 -26q-2 -12 -4 -25q-2 -10 -2 -22v-29v-27q2 -16 2 -30v-27q0 -16 -2 -33q-2 -23 -11 -43q-8 -18 -18 -35q-6 -8 -10 -20q-2 -6 -2 -10q0 -12 4 -25q2 -16 6 -37q2 -23 2 -37q0 -16 -2 -30v-21q2 -14 4 -26q0 -14 2 -27 q0 -10 2 -23q2 -14 2 -34v-35q-2 -18 -10 -37q-4 -12 -6 -23q-2 -8 -2 -16q0 -10 2 -25l4 -32v-6q25 -10 24 -37v-15q0 -10 2 -20l2 -14q2 -16 -8 -29.5t-26.5 -17t-29.5 7t-15 26.5l-2 15v6q-4 0 -9 2q-14 6 -21 20.5t-1 30.5l4 12v11q0 10 -2 20q-27 14 -19 45l2 14 q4 12 5 25v32.5t2 35.5v38v48t2 55v53v70q0 41 2 73q2 33 2 68q-2 37 -2 72q-2 35 -2 71q0 37 -1 70t-1 64q0 29 -2 55v51q0 20 -2 45t-3 41v31l-2 20q0 14 9.5 26.5t25.5 14.5q2 23 23 31q16 6 31.5 0t21.5 -21l6 -16q6 -14 12 -27q4 -10 15 -22q10 -16 24.5 -36.5 t28.5 -41.5q14 -18 29 -39q14 -20 26 -43q12 -20 25 -43q12 -20 27 -39q18 -23 34 -49q16 -25 30.5 -46t29.5 -42q16 -20 35 -47q14 -23 28 -41q16 -20 35 -47q16 -25 33 -47q16 -23 32.5 -44.5t34.5 -43.5q18 -23 41 -49q10 -14 21 -27q4 -2 10 -6q20 -14 29 -39 q12 -18 24 -37q12 -20 23 -35q2 12 2 25v28q0 16 1 40t5 46q2 18 2 39v7l-4 12q-4 12 -6 24q-4 10 -8 23q-8 16 -10.5 34.5t1.5 37.5q4 20 17 41q8 14 16 26q2 2 2 4v19q-2 2 -2 6q-4 12 -7 25.5t-7 25.5q-2 10 -8 21q-6 8 -17 16q-14 8 -20 28.5t4 45.5q6 10 14 24 q6 12 8 21q2 8 3 14v27q0 16 4 34q2 18 14 35v8q0 18 -2 35q-2 20 -2 37v29l-4 8q-14 29 12 49q0 4 2 8l8 17q6 14 21.5 20t31 -1t20.5 -22.5t-1 -29.5l-6 -16q-2 -4 -4 -15q4 -10 8 -22q4 -14 8 -31q2 -12 6 -29q4 -23 -4 -45q-4 -14 -12 -26v-45q0 -20 2 -45q0 -25 2 -50 v-51q0 -25 2 -47q2 -14 2 -33q12 -25 6 -51v-8q-2 -8 -2 -16q-2 -20 -2 -43t-1 -50.5t-3 -48.5q0 -12 -2 -22q6 -18 6 -39v-29q0 -14 2 -29q0 -6 1 -17t1 -15q2 -14 4 -29q4 -18 6 -35q4 -23 0 -43q-4 -12 -4 -26q-2 -16 -4 -31q0 -12 -2 -29q-2 -20 -2 -33q-2 -14 -6 -30 q-2 -16 -6 -39l-4 -23v-20q0 -14 2 -29q2 -18 2 -33q0 -6 2 -14q6 -23 8 -39q4 -20 4 -37q0 -14 -2 -31q-2 -16 -8 -43l-6 -20q-4 -16 -18.5 -24.5t-31 -4.5t-24.5 18.5t-4 30.5l6 23q4 18 6 29q2 12 2 22t-4 25q-2 14 -4 26q-6 20 -6 39h-4q-16 6 -23.5 21.5t-1.5 30.5 l2 12l-8 24q-8 20 -8 39q0 6 -2 13l-8 28l-4 15q-6 23 12 41q-10 10 -23 22q-16 18 -26 39q-6 14 -12 31q-6 14 -13 28q-6 14 -10 29q0 2 -2 2l-12 16l-6 3q-18 8 -35 16q-18 10 -37 29q-14 14 -29 24l-4 4q-12 -14 -46 -5t-32 42q2 12 2 27q0 8 -2 14q-4 10 -12 29 q-14 25 -16 45q-2 12 -5 26q-4 8 -10 19q-4 10 -10 14q-10 6 -20 10q-2 -2 -3 -4q4 -23 5 -37q0 -31 -40 -20.5t-42 18.5q-2 17 -2 31z" />
<glyph unicode="O" horiz-adv-x="921" d="M561 1149q6 2 10 0l15 -2q20 -2 45 -12q23 -10 40 -21.5t34 -26.5q14 -12 30 -28q23 -20 31 -43q6 -16 9 -33.5t5 -36.5q0 -12 2 -24q2 -2 2 -4q14 -18 21 -44q6 -23 8 -40l2 -17q2 -20 -14 -33v-12q0 -16 2 -37q0 -23 2 -43t2 -33q4 -16 4 -43v-49q0 -20 2 -30 q2 -14 3 -33t3 -39q2 -23 2 -43t-2 -41q-2 -20 -6 -43q-4 -16 -4 -33q0 -23 -2 -43q0 -20 -2 -35q-2 -18 -6 -32q-2 -16 -8 -35v-8q2 -6 6 -15l6 -16q6 -14 0 -29.5t-21 -21.5q-2 -2 -4 -2q4 -2 6 -5q14 -10 15.5 -26.5t-8.5 -28.5l-13 -16q-14 -16 -22 -25q-18 -14 -27 -22 q-12 -14 -26.5 -27.5t-30.5 -26.5q-20 -16 -41 -20q-4 0 -13 -6l-4 -4q-6 -14 -14 -29q-10 -25 -41 -25t-43 21q-12 18 -16 39q-2 8 -4 18q-2 2 -7 2q-6 0 -14 -2q-16 -2 -31 -4q-10 0 -22 -4q-16 -2 -33 -4q-8 0 -14 -4q-10 -4 -23 -10q-23 -12 -45 -15q0 -8 -2 -14 q-2 -12 -4 -25q-2 -8 -2 -18v-51v-41v-27q0 -16 -11.5 -27.5t-27.5 -11.5t-28.5 11.5t-12.5 27.5v27v41v51q0 16 2 33q2 14 6 28q2 6 0 15l-2 2l-12 12q-12 10 -13 26.5t9 28.5q4 4 10 9q-6 18 -6 34q0 4 -2 11q-4 10 -10 20q-10 16 -17 35q-6 16 -10 37v4q-6 14 -12 27 q-8 18 -12 36q-4 14 -8.5 29.5t-8.5 30.5q-4 16 -6 33q-2 14 -4 26q-4 14 -5 33.5t-1 36.5v31q0 12 -2 24q-2 16 -2 37v125v37v37q-2 12 -4 28q-2 14 -5 31q-2 18 -2 37v92q0 20 2 39q2 16 9 37q4 16 8 31q6 14 12 30q6 14 12 29q6 16 17 31q6 14 16 30q10 18 29 35 q16 18 37 31q18 12 35 20q18 8 40 15q18 6 33 10q14 4 31 6q18 4 35 4h26q14 0 33 -2q18 -2 37 -6q8 -2 12 -2l15 2q10 0 20 -4zM315 1016q8 -23 -8 -39l-10 -12q-10 -10 -16.5 -22.5t-9.5 -22t-4 -19.5t-3 -29q-2 -14 -2 -24t2 -25q2 -14 2 -26q2 -20 -4 -43t-20 -41 q-8 -12 -15 -25q-4 -4 -4 -10q2 -8 4 -19q6 -20 9 -41q2 -12 4 -26q4 -16 4 -31q2 -2 6 -8q12 -18 18 -35q10 -20 13 -41q2 -25 -9 -47q-4 -14 -12 -31q-8 -16 -14 -30q-6 -10 -10 -23q-4 -10 -7 -20q-4 -10 -4 -23q0 -6 2 -10q8 -20 9 -43q2 -18 2 -37q0 -12 2 -25 q2 -16 6 -28q2 -16 4 -35q2 -12 2 -25l8 -12q10 -14 18.5 -25.5t18.5 -21.5q8 -8 20 -16q14 -8 27 -13q12 -4 25 -8q12 -4 28.5 -8t32.5 -6t29 -2h61q10 0 21 4q20 6 37 10q10 0 23 5t23.5 12.5t22.5 19.5q14 12 29 27q8 8 12 16q4 12 8 29q4 14 9 28q-8 14 -11 31 q-4 20 -2 41q2 14 4 29q2 8 2 16t-4 18q-4 12 -10 25q-8 27 -4 51q2 14 7 30.5t11 33.5q4 12 7.5 24.5t5.5 20.5v16q0 2 -4 6q-4 6 -9 8q-41 16 -36 62q2 12 0 27q-2 20 0 34q0 23 14 45q8 12 14 25q4 6 4 12l2 15q4 23 25 30v33q0 16 -2 33q0 16 -3 36.5t-5 32.5 q-2 6 -2 15q-6 4 -11 10l-12 16q-23 25 0 52h-6q-2 -2 -4 -2q-8 -14 -44 -9t-36 37q0 8 -2 15q-2 8 -4 14h-6q-18 0 -37 6q-12 4 -29 8q-8 4 -16 4q-10 -2 -25 -2q-12 -2 -24 -6q-2 0 -4 -2q-4 -6 -5 -10q-2 -14 -4 -31q-2 -12 -42 -17t-40 21q0 8 -4 19q0 2 -4 6t-6 4 q-8 0 -12 -2l-15 -4h-2z" />
<glyph unicode="P" horiz-adv-x="1011" d="M135 1122q0 16 11.5 28.5t27.5 12.5h19q14 0 26 2q10 2 23 4q14 2 30 5l33 4q18 4 35 4q12 0 29 2l28 4q16 2 43 4h39h29q16 0 35 -2q14 -2 38.5 -5t47.5 -5q20 -4 47 -9q27 -6 47 -12q18 -4 39 -12q18 -6 35 -12q18 -10 36.5 -24.5t30.5 -35.5q12 -18 21 -43 q8 -23 12 -43q6 -20 8 -41q0 -16 4 -35q2 -25 0 -47q0 -23 -4 -41q-4 -16 -8 -32.5t-10 -34.5q-8 -20 -25 -43q-6 -6 -12 -13q-4 -6 -10 -16q-2 -6 -2 -8q-2 -20 -11 -41q-6 -12 -8 -23q-4 -10 -6 -24q-2 -20 -8 -39q-10 -29 -43 -31h-2v-18q0 -2 2 -6q10 -20 10 -43v-15 q0 -16 -12 -27.5t-28.5 -11.5t-28 11.5t-11.5 27.5q-4 4 -4 8l-6 15q-4 12 -12 24q-10 23 -13 41q-2 6 -6 13q-2 6 -12 16l-2 2h-14q-23 0 -43 6q-4 0 -13 2q-8 -6 -18 -8q-2 -6 -2 -12q-2 -20 -8 -39q-6 -20 -24.5 -26.5t-36 -0.5t-23.5 15q-18 20 -25 45q0 2 -2 6 q-10 -2 -18 0q-8 0 -19 2q-12 0 -26.5 1t-24.5 1h-14q-16 0 -27 12l-4 -4l-8 -12q-10 -14 -26.5 -17.5t-29.5 4.5q-2 2 -2 3v-21q0 -23 -2 -47q-2 -20 -4 -39q0 -20 2 -37q2 -23 2 -45q-2 -18 -2 -37q2 -23 0 -41q-2 -14 0 -30q2 -23 4 -45v-33q2 -16 4 -39q2 -25 0 -41 q-2 -14 -2 -27v-14q0 -16 -10 -27q4 -10 6 -18q4 -23 -4 -49l6 -15q8 -16 0 -32q6 -20 2 -43q-4 -16 -6 -35q-2 -18 -4 -35q6 -8 8 -21l2 -16q0 -14 7 -43l6 -31q2 -16 -7.5 -29.5t-24.5 -16.5t-29.5 6.5t-18.5 25.5l-4 29q-6 33 -8 53l-2 4q-10 14 -9 31v16q2 16 6 37 q2 18 5 39q2 6 0 10q-4 14 -11 25l-6 14q-10 27 10 45q2 4 2 6l3 6q-2 10 -9 21l-6 12q-14 33 17 51q0 14 2 27q2 12 0 31v8q-10 -2 -19 0q-16 2 -25.5 16.5t-7.5 30.5l4 12q2 16 9 31q2 8 2 16q2 12 2 23q0 18 6 37q4 10 4 20q4 16 10 33v10q-2 16 -2 33v53q0 14 2 29v31v6 q-37 20 -33 57q2 18 7 35q4 10 6 20q2 16 8 35q6 16 14 35q-4 10 -10 21q-8 20 -10 41q-2 18 0 36t2 27q2 10 2 21q0 10 -2 22l-2 14q0 14 8 27q-2 14 -4 31v37q0 12 -2 24q-2 16 -4 41v43v17q0 20 16 32zM786 752q2 2 2 4q4 4 7 10v14q-2 16 -2 33q0 18 4 35v6q-4 10 -9 20 q-8 14 -14 29q-8 18 -10 37q0 2 -2 6q-10 10 -21 23q-16 18 -24 38.5t-8 43.5v4h-19q-18 -2 -33 -2h-51q-8 0 -20 -2t-25 -7q-39 -12 -67 21q-6 6 -13 8q-6 4 -12 4q-12 2 -22.5 2t-20.5 -2q-12 0 -25 -2q-10 -2 -20 -6q-14 -4 -31 -8v-8q-2 -12 -4 -35q0 -4 -15.5 -20.5 t-35 -22.5t-33.5 22q-2 10 -10 19q-4 6 -10 10t-15 4q-12 2 -20 0h-8q2 -18 4 -31q2 -16 2 -34q0 -14 1 -32t4 -35t7 -40q4 -25 4 -45q-2 -18 0 -33q0 -18 2 -41q2 -25 4 -47q2 -18 2 -35q18 4 35 5q14 0 32.5 1t39.5 5q25 2 39 2q12 0 28 2q14 0 29 2q18 2 36.5 3t41.5 1 q18 0 35 2q14 0 30 4q23 4 43 6t34 4t30 6.5t41 10.5q20 6 29 12q10 6 24 18q6 5 10 11zM739 633h2h-2z" />
<glyph unicode="Q" horiz-adv-x="1087" d="M815 877q6 -16 8 -27q2 -18 4 -31q0 -12 4 -31q2 -20 3 -38q0 -8 2 -19q4 -16 4 -33q0 -12 2 -28v-35v-86q0 -10 2 -27v-22q2 -12 2 -27v-24q2 -12 4 -33q2 -20 4 -41v-33q0 -18 -4 -35q-2 -12 -2 -24v-13q0 -31 -31 -39l-8 -24q-6 -18 -10 -33q-6 -16 -21 -37 q0 -2 -2 -4q14 -16 31 -33q25 -25 35 -34q14 -16 32 -41q16 -23 29 -41q14 -18 27 -37q6 -10 16 -17l17 -12q16 -14 14 -37q10 -10 10 -24v-35q0 -29 -26 -37q-4 -4 -9 -6q-8 -6 -16 -10l-8 -2v-3q0 -6 4 -12q12 -27 6 -55q-4 -20 -12 -39q-4 -8 -4 -16q-2 -12 -2 -23v-27 q0 -10 2 -20q6 -25 -7 -55l-8 -17q-6 -16 -21.5 -22t-30.5 0t-21.5 21.5t0.5 31.5l8 18q2 4 2 9q-4 18 -4 34v27q0 14 2 31q2 20 10 41q6 10 8 22v6q-10 20 -12 45q0 12 2 29q-12 20 -12 45q0 10 -2 23q0 2 -5 6q-20 23 -22 49q-2 10 -4 21q-6 4 -12 4q-10 2 -20.5 3 t-27.5 1q-16 0 -33.5 14t-19.5 33q-2 18 0 37v2q-6 -10 -12 -21q-12 -14 -25 -26q-18 -16 -24 -25q-10 -14 -21 -27q-14 -18 -41.5 -14t-38.5 25q-2 0 -6 -2q-12 -2 -24 -7q-10 -2 -21 -8q-20 -8 -39 -8q-8 -2 -18 -4q-8 -2 -16 -10q-14 -8 -25 -19q-16 -12 -37 -22 q-12 -10 -43 -3t-33 38q-2 12 -4 28v33q0 12 -2 25q-2 4 -2 8q-2 0 -6 2h-8q-27 6 -31 33q-12 14 -20 28t-21 31q-16 20 -22 39q-6 16 -11 35q-2 16 -4 33q-2 12 -4 26t-4 31q-4 14 -6 39q-4 20 -6 37q-2 18 -2 43q-2 25 -4 51q0 25 -2 43v41q0 16 -3 35q-2 18 -2 39v32 q-2 20 0 39v25v33q-2 25 -2 45v34v27q0 16 4 35q2 10 5 31q4 25 10 43q4 12 8 28t8 29q6 16 15 35q10 23 24 39q10 14 27 28q18 18 37 29q16 10 32.5 17.5t32.5 13.5q12 6 27 12q20 10 43 12q14 2 28 6q25 6 46 7h15h17h35h13.5h13.5q20 0 43 -9q16 -6 30 -12l13 -4 q23 -10 24 -37q6 -2 11 -4l14 -8q23 -12 37 -33q8 -12 18 -29q2 0 4 -4q0 -2 2 -2q6 -6 11 -16q0 -2 6 -8q12 -16 22 -33q10 -18 19 -37q8 -18 12 -37q2 -10 6 -28zM569 1001l-4 3q-10 4 -20 4l-19 2q-16 2 -26.5 14t-10.5 29q2 4 3 8v4h-3q-2 0 -6 -4q-12 -10 -16 -17 q-6 -10 -10 -18q-2 -8 -2 -14q0 -25 -40 -24t-42 18q-2 12 -6 22q-4 2 -7 2q-8 0 -16 -2l-16 -6q-14 -4 -31 2q12 -18 4 -39l-8 -14q-8 -20 -25 -41q-12 -16 -20 -29q-8 -10 -12.5 -21.5t-6.5 -23.5t-2 -18q0 -2 11 -21q10 -25 10 -39q2 -20 -2 -37q-2 -10 -4 -23t-2 -24 q2 -2 4 -6q14 -18 24 -33q12 -16 8 -40.5t-22 -36.5q-8 -6 -14.5 -14.5t-6.5 -14.5q-4 -14 -10 -31q-2 -10 -6 -22v-17q4 -16 6 -30q0 -12 2 -29q2 -20 0 -37q-2 -14 -6 -31q-4 -12 -5 -22.5t-1 -22.5q0 -4 4 -12q6 -14 14 -27q6 -8 15 -16q18 -14 30 -33q12 -16 21 -35 q8 -25 6 -47q-2 -10 -2 -22v-31v-12q12 -6 18 -19q4 -2 7 -2q8 -4 18 -4q20 -2 39 -4q12 -2 25 -4q12 -2 30 -2q12 -2 23 0q14 0 28 2q8 0 19 2q12 4 27 8q12 4 24 10q14 4 31 11l24 12q12 8 25 20q2 2 6 7l8 8h-2l-20 8q-18 6 -37 16q-29 16 -39 43q-8 23 -2 47l2 15 q4 16 17.5 25.5t29.5 7.5q6 -2 10 -5q23 6 39 -10l15 -14q16 -18 32 -35q10 -10 21 -22q4 6 4 8q6 12 10 30q6 16 10 37q6 18 7 29q2 14 6 33q4 12 5 22t1 21v86q0 16 2 35v4q-2 16 -2 28q0 6 -4 11q-4 8 -13 16q-18 18 -26 37q-4 12 -12 24q-6 10 -15 19q-25 23 -26 53 q-4 25 4 49q6 16 12 35q4 12 6 21.5t2 19.5q0 18 4 39q2 10 0 18q0 10 -6 25l-8 18q-12 31 14 50q-2 2 -4 6q-4 4 -8 10h-2l-6 -6q-2 -2 -17 -6q-6 -6 -16 -13q0 -8 -2 -16l-2 -16q-4 -16 -17.5 -26.5t-30 -7.5t-25.5 16t-7 30l4 16q2 14 2 27q-2 12 6 26zM281 1038 q0 2 -2 2h-3q3 -2 5 -2z" />
<glyph unicode="R" horiz-adv-x="1024" d="M881 793q-10 -20 -13 -31v-17q2 -12 2 -28q2 -16 2 -31q0 -12 2 -22q2 -33 -31.5 -42.5t-45.5 3.5q-18 16 -31 37l-8 16h-4q4 -8 4 -16q2 -20 -17 -33q12 -25 -8 -45q-12 -12 -31 -11q0 -2 -2 -2q-8 -14 -24.5 -17t-30.5 5l-43 29q-12 8 -16 24l-6 -2h-11q2 -6 6 -14 q10 -16 23 -33q14 -18 25 -31q12 -16 22 -36q10 -16 19.5 -30.5t21.5 -27.5q14 -18 29 -43q10 -23 20 -43t21 -39q12 -20 24 -43q12 -25 21 -47q6 -18 16 -41t18.5 -39t16.5 -32q10 -20 16 -45q4 -18 9.5 -30.5t13.5 -25.5q10 -16 18 -28l9 -15q14 -27 -7 -49q6 -14 4 -31 q-2 -14 -2 -28q-2 -18 -8 -35l-4 -14q-4 -14 -19.5 -22.5t-30.5 -3.5t-22.5 20.5t-3.5 29.5l4 14q2 8 5 19q0 10 2 22q-18 16 -25 35q-10 20 -10 41v8q-4 8 -8 15q-8 10 -23 24q-10 10 -20 17q-12 6 -23 10q-18 6 -28.5 23.5t-10.5 35.5q2 12 2 25v27v20q-4 8 -6 14 q-6 20 -10 41q-2 10 -6 21q-4 10 -11 18q-10 12 -20 25q0 -2 -2 -4q-6 -6 -24.5 -11.5t-38 1t-21.5 32.5q-2 16 -2 33q0 12 -2 25q0 12 -2 28v4q-29 6 -31 33l-4 19q0 12 -6 26t-17 33q-8 14 -18 29q-4 -2 -8 -5l-12 -4q-4 0 -11 -6q-16 -16 -35 -26q-16 -12 -45.5 -2 t-29.5 38q0 8 -2 15l-7 2q-31 8 -30 39h-2v-4q-2 -8 -2 -17q0 -4 4 -10q10 -20 12 -43q0 -16 -2 -33q-2 -18 -10 -41q-6 -14 -15 -28q-2 -4 -2 -11q2 -12 2 -24q2 -16 2 -31q0 -10 3 -22v-31q0 -8 2 -19q4 -18 2 -36q-2 -23 -11 -41q-6 -14 -16 -33q-8 -16 -16 -29 q-6 -14 -11 -24q-4 -8 -6 -17q-2 -12 -6 -31q-2 -10 0 -18q2 -16 0 -35q-2 -20 -10 -39q-6 -14 -14 -28q-4 -8 -7 -17l-4 -24q0 -8 1 -14.5t5 -14.5q10 -18 13 -39v-14v-4q2 -4 2 -6l4 -15q2 -16 4 -37q2 -18 2 -51l2 -31q2 -16 -9 -28.5t-27.5 -13.5t-29 10.5t-14.5 27.5 l-2 31q0 31 -2 49q0 16 -4 27l-2 14v8q-2 4 -4 11v14q0 4 -4 12q-8 16 -12.5 34.5t-0.5 39.5q2 16 5 31q2 12 8 26q-6 14 0 29l4 16q4 10 4 23v47q2 25 4 41q0 18 4 37q2 14 2 28v265q0 20 -2 45v53q2 23 2 43v47q2 25 4 47q2 16 2 39q2 27 2 43v35.5t-2 36.5q-2 18 -4 43 q-2 23 -4 37q-4 16 -4 37q-2 20 -2 34v35v20.5v16.5v31q0 18 6 37q10 39 49 45h15q23 2 36 -17q6 2 13 4q20 4 45 7q23 4 46 7t46 7q29 6 57 2q18 -2 45 -2h39h33q12 -2 23 -2q16 0 43 -2q27 -4 43 -8q12 -4 34 -13q25 -6 45 -16q4 -2 9 -2q18 -6 32 -23l2 -2q18 -12 33 -28 q16 -18 29 -48q12 -25 16 -49q6 -20 11 -39q4 -25 2 -51q-2 -10 -2 -18q18 -14 14 -39l-2 -19q0 1 -8 -36zM729 1065q-2 2 -6 4q-10 4 -16 4h-5q-18 -6 -36 -6q-6 0 -13 -4q-18 -6 -41 -6q0 -2 -2 -2q-6 -4 -10 -11q-8 -12 -12 -22q-4 -6 -4 -10q0 -10 2 -25 q4 -20 -22.5 -43.5t-53.5 0.5q-16 20 -23 45q-2 12 -6 23q-10 18 -12 39q-2 4 -4 10q-16 4 -33 12q-8 -4 -18 -8q-18 -12 -39 -16q-10 -4 -21 -11q-4 -2 -4 -6q-10 -23 -45 -22.5t-41 30.5q-2 4 -4 9q-6 -2 -14 -5l-17 -6q-10 -4 -22 0v-4v-4v-35q0 -12 2 -28q0 -18 2 -31 q2 -16 4 -41t4 -43q2 -20 4 -41v-41q0 -12 -2 -43q0 -25 -2 -47q-2 -8 -2 -21q10 8 23 9h12q16 2 41 0t39 -2q12 -2 26.5 -2t30.5 2q14 0 37 6q27 4 52.5 8t45.5 6q18 2 33 6q18 4 35 8q16 4 29 11l20 8q10 8 21 12q8 6 16 8q12 8 35.5 28.5t40.5 39.5q16 18 26 37 q10 16 13 30q2 14 4 29q-14 8 -19 23l-4 14q-4 14 -8 25q-2 8 -8 18q-10 18 -15 39q-4 12 -8 27q-2 10 -6 16z" />
<glyph unicode="S" horiz-adv-x="1099" d="M113 322q4 14 16 22v10q0 16 11.5 28.5t27.5 11.5t28.5 -12t12.5 -28v-20q-2 -14 0 -25q2 -14 5 -31.5t7 -33.5q4 -18 6 -33q2 -12 4 -23q4 -14 9 -26q4 -8 12 -25q6 -12 16 -24t23 -23q12 -10 31 -22q18 -12 28 -17q14 -6 29 -10q18 -6 37 -14q14 -4 26 -7q16 -4 33 -6 q14 -4 27 -6q14 -2 33 -6q14 -2 26 -2q12 -2 27 0q16 0 33 2q20 2 34 2q10 2 25 4q14 2 27 4q10 0 24 6t33 15q10 4 22 12q8 10 17 23q12 18 22 32q6 6 9 13q4 14 12 32q6 14 12 27.5t12 30.5q6 16 9 33q4 14 6 26v23q-2 16 -2 32q0 6 -2 13l-7 14v2q-20 -2 -43.5 7 t-21.5 20q2 8 4 18q0 12 -2 23q-2 16 0 35v16q-4 0 -8 2h-12q-12 -2 -23 -4q-18 -4 -41 0q-14 2 -29 4q-12 2 -28 4q-16 4 -33 6q-4 -4 -6 -10q-4 0 -10.5 -3t-20.5 -7t-25.5 -4t-19.5 8t-6 26l-2 2q-6 12 -15.5 22.5t-21.5 23.5q-12 -2 -25 -5q-16 -2 -30 -2h-27h-27 l-24 -6q-12 -4 -23 -10q-14 -12 -44.5 -4t-33.5 39q0 10 -2 18q-4 16 -4 35q0 8 -4 16q0 2 -4 7q-10 8 -22 16q-16 10 -29 25l-10 10q-18 18 -29 35q-12 18 -18 36q-6 14 -9 31q-4 16 -6 37q-2 20 -2 41q-2 23 2 41t11 37q8 18 20 37q10 14 20.5 29.5t22.5 29.5q12 18 25 31 q12 16 30 31q18 14 37 24q16 8 35.5 17.5t35 15.5t42.5 12q29 8 47 10q14 2 32.5 4.5t32.5 2.5t33 -2q14 -2 27 -3h31q12 -2 34 0q33 0 54 -6q18 -4 41 -12q23 -10 38 -18q20 -10 39 -25q18 -16 31 -37q10 -14 19 -29q14 -18 20 -38q6 -18 10 -39q2 -20 4 -37q2 -18 2 -35 q0 -18 -4 -37l-2 -14q-4 -12 -14 -23l6 -10q12 -23 14 -47q2 -25 -8 -51l-6 -19q-6 -16 -21.5 -23t-29.5 -1t-21.5 21.5t-3.5 29.5l8 18q4 12 3 19q-25 8 -27 37v12q0 10 2 22q-20 16 -25 39q-6 25 2 47q2 6 5 17q-14 18 -23 39q-10 20 -12 43v10q-4 2 -6 2q-23 -2 -43 4 q-10 4 -23 6q-6 0 -10 -2q-18 -10 -35 -14q-23 -6 -41 4t-27 27q-8 2 -14 2h-27h-26q-10 -2 -23 -4q-14 -4 -28 -9q4 -14 6 -28q6 -29 -29 -40t-47 7q-4 4 -10 6q-4 2 -8 2q-12 -4 -25 -10q-18 -10 -35 -14q-12 -4 -26 -9q2 -10 0 -20l-7 -16q-4 -14 -6 -27q-4 -14 -6 -35 q-2 -20 -4 -35v-24v-33q0 -10 2 -27q2 -8 8 -16l2 -2q8 -8 15 -12l26 -13q16 -6 33.5 -11t28.5 -7q12 -2 37 -6t41 -6q18 -2 34 -5q14 -2 37 -2q25 -2 41 -2h35q23 0 43 -2q20 -4 37 -6q16 -2 35 -4q25 -4 47 -14q16 -6 30 -15q18 -8 37 -18q16 -12 33 -23q23 -12 39 -26 q18 -16 35.5 -38t28 -39t16.5 -36q6 -18 10 -35q4 -18 8 -39q4 -25 4 -43q0 -20 -6 -41q-2 -16 -6 -30q-2 -18 -10 -45q-6 -27 -14 -43q-6 -12 -13 -27q-6 -12 -16 -33q-10 -23 -27 -43q-14 -18 -28 -35q-16 -18 -37 -34q-12 -12 -25 -27l-6 -4q-2 -14 -2 -25q-2 -12 -2 -24 q0 -29 -29.5 -40t-46.5 3q-14 10 -31 22q-6 6 -12 9q-6 2 -15 2t-18 -2q-16 -6 -32 -6q-14 -2 -33 -3q-10 0 -17 -2q-8 -4 -18 -8q-16 -10 -35 -14q-41 -12 -67 24q-4 4 -9 7q-10 4 -22 6q-12 0 -23 2q-2 -39 -22.5 -44t-40.5 9l-19 14q-14 16 -24 29q-12 16 -23 31l-16 28 q-2 4 -4 4q-10 6 -23 15q2 -12 4 -21q4 -18 4.5 -36.5t-4.5 -34.5q-2 -10 -3 -23.5t-1 -30.5v-61q0 -16 -2 -39q-2 -20 -4 -45l-4 -20q-2 -16 -15.5 -26.5t-29.5 -8.5t-25.5 15t-7.5 30l2 22q4 20 5 39t1 33v61q0 20 3 37q2 18 4 33q2 8 2 18.5t-2 20.5q-2 14 -9 39 q-2 14 -4 24q-4 16 -6 29q-4 16 -4 33q-2 12 -4 26t-4 27l-2 14q-4 18 8 33q0 10 -4 21q-2 16 -6 32t-8 33l-7 17q-7 23 9 39zM903 397h2q0 2 -2 4v-4zM350 598h4h-4z" />
<glyph unicode="T" horiz-adv-x="1040" d="M131 1163q10 2 21 0q6 4 16 4h57q31 0 49 -4q16 0 31 -2q12 0 29 2q25 6 49 6q18 0 39 2q25 2 47 0q14 -2 33 0q23 2 46 3.5t46 1.5h86h31q16 2 30 4q18 2 39 2q18 2 35 2h31q-4 14 4 27.5t22 19.5q16 4 31 -3t21 -24l8 -28q14 -41 2 -70q-4 -12 -8 -27q-6 -18 -13 -32 q-4 -10 -6 -25q-6 -18 -39.5 -26.5t-46.5 22.5q-2 8 -10 20q-10 14 -16 27q-8 -2 -13 -2q-18 -4 -34 -4q-10 0 -23 -2q-2 0 -8 -4q-10 -8 -19 -17l-12 -20q-6 -16 -43 -16.5t-39 32.5l-2 4q-8 0 -14 -2q-12 -2 -25 -4l-6 -2v-2q2 -16 2 -33v-96q0 -10 2 -25q4 -23 2 -43 q-2 -10 -2 -20q2 -16 2 -39v-72q0 -16 -2 -39q-2 -18 -2 -34q0 -18 -2 -41q0 -23 -2 -41v-41q-2 -20 -2 -64q-2 -43 -2 -61v-39q0 -20 -2 -41q-2 -23 -4 -37q-2 -16 -2 -33q-2 -20 -4 -41q0 -10 -2 -20q4 -6 6 -14q4 -23 -2 -48q-2 -10 -2 -18q2 -14 2 -29v-20q4 -12 6 -27 q2 -23 -2 -43v-10q2 -10 6 -20l6 -15q6 -16 -1 -30.5t-21 -20.5q4 -20 2 -39q-2 -12 -2 -29q0 -16 2 -41q4 -33 0 -63l-5 -29q-4 -14 -17 -24.5t-29.5 -8t-25.5 16.5t-7 31l4 26q4 20 2 43q-4 29 -4 49q0 23 2 39q2 6 0 13q-4 12 -11 24l-6 15q-6 14 0 29.5t23 21.5l2 2v12 q-10 10 -10 25v137v6q-4 2 -6 2q-18 6 -29.5 22.5t-11.5 34.5q2 20 8 41q8 18 20 41q10 18 13 31q4 12 4 23q2 16 8 34q2 12 2 25q0 14 -2 25q-2 10 -6 20q-6 18 -11 41q0 2 -4 6q-29 35 -8 72q4 6 4 12q2 14 4 27q2 18 11 39q6 12 8 24q4 10 6 23q0 8 -1 16t-3 16 q-6 18 -10 37q-6 25 2 49q4 12 6 23q2 16 10 35q6 12 8 22q2 6 2 19v26q-2 6 -4 15q-6 12 -10 26l-6 15q-2 8 -2 14l-2 -10q-4 -27 -21 -47q-20 -20 -44.5 -17.5t-41.5 19.5q-16 20 -24 41q-4 10 -9 20q-14 4 -27.5 10.5t-31.5 14.5l-18 8q-10 4 -19 14l-4 -8q-6 -8 -20 -12 q-8 -10 -23 -12q-14 -4 -28.5 4t-18.5 24l-4 19q-4 16 -10 39l-7 24q-4 14 4.5 28.5t22.5 20.5z" />
<glyph unicode="U" horiz-adv-x="1081" d="M563 -68q0 6 2 11l-2 2h-2q-12 -12 -20 -23q-6 -8 -11 -18q-6 -14 -39.5 -23.5t-44.5 25.5q-2 6 -8 14l-8 14q-2 2 -4 5q-8 -8 -16 -17q-6 -6 -25.5 -10t-38 4t-18.5 33v24q-2 4 -4 11q-6 12 -15 24l-8 12q-4 6 -6 15q-4 4 -8 6q-10 10 -21 14q-18 10 -35 29 q-18 20 -26 49q-6 25 -6 47q0 14 2 29q-4 8 -6 14q-8 6 -15 10q-27 20 -35 48q-4 16 -4 34q0 16 2 31q0 14 2 31q2 16 7 31q2 8 2 18v82v26.5t-2 30.5v35q0 12 -2 25q-2 8 -7 16q-10 20 -12 41q-2 8 -6 18q-4 14 -8 29q-6 23 -2 45q2 10 4 23q2 16 2 30q2 12 0 21q0 6 -4 10 q-10 20 -15 47q-2 31 17 60q12 16 16 28q6 14 10 25q2 6 2 14v29q0 12 3 24q-2 8 -5 17l-2 14q-6 31 23 43q10 10 24 10q16 0 28.5 -12t12.5 -29v-12q0 -14 -2 -31q2 -16 2 -32v-35v-41v-51q-2 -25 -2 -47q0 -25 2 -37q2 -14 3.5 -39t1.5 -39t-3 -33v-35v-41v-28 q2 -14 5 -39v-39q2 -16 0 -35q-2 -14 -2 -25v-92q0 -12 2 -22q4 -18 6 -41q0 -12 4 -21q8 -18 12 -34v-7q14 -10 27 -22q16 -16 26 -35q8 -14 17 -27l8 -14q12 -18 0 -39q2 -2 6 -4q10 -8 27 -18q14 -8 32 -19q14 -8 29 -12q14 -4 31 -8q18 -4 35 -8q12 -4 22 -6.5t23 -4.5 q16 -2 35 -6q12 -2 20 -2q10 0 25 4q18 2 39 6q14 0 26 6q14 4 29 13q18 10 33 18q12 8 26 17q12 8 27 20q8 8 14 23q10 20 21 41q8 14 12 26q6 16 10 33q6 16 6 29q2 8 4 24q-4 14 -8 31q-4 14 -6 29l-8 24q-4 10 -10 23q-10 18 -15 37q-4 18 -4 38q0 25 15 52q8 12 14 26 q6 16 10 29q6 16 12 31q2 2 2 4v16q0 12 -2 27v28q-2 16 2 46q-4 16 -4 32q-2 12 -4 27v29q0 8 -2 14q-6 12 -10 29q-4 20 -4 39q0 14 -2 26q0 16 4 35q2 8 2 16v39q0 27 27 37q-2 8 -2 14v52q0 16 12 27.5t28.5 11.5t27.5 -11.5t11 -27.5v-27q4 -6 5 -14v-47q0 -16 2 -29 q2 -14 4 -25q4 -16 4 -34q0 -12 2 -29q2 -20 2 -41v-33v-33q2 -23 4 -37v-36v-158v-35q0 -14 -2 -27v-30q0 -20 -2 -37v-25q0 -14 -2 -30q0 -6 -2 -11q0 -18 2 -30q2 -16 0 -41q0 -16 -2 -33q8 -10 8 -25v-16q0 -18 -2 -33q0 -18 -6 -35q-4 -12 -6 -22q-4 -23 -15 -43 q-6 -8 -6 -15q-2 -6 -4 -16q4 -27 -16 -49q-6 -18 -23 -39q-8 -10 -14 -31q-6 -16 -4 -24q8 -29 -29 -47q4 -16 4 -35v-25l2 -16q0 -8 -2 -14q2 -4 2 -9v-14q2 -16 0 -33q0 -18 -6 -37l-4 -12q-6 -16 -20.5 -23.5t-30 -2t-23.5 20.5t-2 30l4 12q2 8 2 16q2 12 0 25v16 q0 6 2 11q-2 4 -2 6l-2 16v33q0 10 -2 20q-2 2 -6 4l-27 27l-14 12q-4 -2 -8 -6q-27 -16 -57 -10l-2 -2q-20 -10 -41 -12h-13q-16 -2 -29.5 8t-15.5 26z" />
<glyph unicode="V" horiz-adv-x="1159" d="M393 31v6v31l-2 22q-2 10 4 21v8q-4 16 -8 33l-2 18q-4 18 6 33v6q-4 16 -8 35q-6 20 -6 39q-2 12 -4 22q-2 6 -4 14q-2 6 -4 11q-4 6 -7 12q0 4 -2 6q-6 12 -18 25q-8 10 -16 16q-10 6 -21 8q-27 10 -43 37q-12 25 -12 45q0 16 2 33q2 18 10 39q4 12 4 20v27v27 q0 14 2 34q2 6 0 19q-6 23 -14 51q-4 8 -6 19q-10 10 -21 22q-20 25 -20 53q0 4 -4 13q-4 12 -11 22q0 -4 -2 -8q-2 -6 -2 -14v-31v-14q0 -14 -11 -26.5t-27.5 -12.5t-29 12t-12.5 27v14v29q0 23 7 43q4 12 8 26q4 12 4 25l2 14q0 10 8 21q-10 31 -8 53v16q0 14 10 27 l-12 20l-12 15q-10 14 -8.5 30.5t16.5 26.5q2 2 6 4l4 4q12 10 29.5 9t27.5 -13l13 -14q18 -20 24 -45q6 -18 10.5 -35t8.5 -35q6 -16 10 -35q8 -20 12 -43q6 -20 15 -51q6 -27 14 -47q8 -23 16 -47l4 -12q16 -16 25 -37q4 -20 4 -39q0 -10 2 -23q6 -20 14 -47q8 -31 15 -59 q6 -25 14 -51q8 -29 16 -60t17 -59q4 -20 12 -41q6 -12 8 -23l4 -8q8 -25 13 -47q6 -25 12 -57q6 -29 10 -43q8 -16 17 -37q6 -16 12 -33q8 -20 14 -37q2 -6 2 -12q10 18 17 39q10 25 18 47q10 27 29 61q16 31 31.5 61.5t32 68.5t30.5 71q16 37 33 74q16 37 33 73 q14 39 30 78t35 82q16 45 29 76q14 33 26 63q12 29 21 54q10 29 22 59q6 16 9 25q6 20 18 49q18 33 39 49l12 8q23 16 45 2q25 -10 25 -37v-14q0 -16 -2 -31q-2 -25 -17 -45q-10 -14 -24 -33q-10 -12 -15 -24q-4 -10 -6 -23v-26q2 -18 2 -35v-27q0 -20 -8 -43 q-6 -14 -10 -28q-8 -14 -16 -31q-14 -23 -43 -33v-6q2 -20 2 -39q-2 -23 -11 -43q-6 -12 -8 -22q-2 -16 -12 -39q-8 -18 -17 -33q-8 -18 -22 -35q-12 -12 -23 -27q-6 -8 -8 -12q-2 -10 -2 -20.5t2 -22.5q4 -14 8 -29q4 -20 5 -43q0 -18 -3 -34q-2 -20 -12 -41 q-6 -12 -10 -25q-4 -8 -4 -14q-2 -8 0 -17q2 -20 -10.5 -27t-28.5 -4t-29.5 8t-13.5 7q-8 18 -12 37v4q-6 -14 -15 -31q-8 -23 -16 -39q-8 -14 -16 -30q-8 -14 -11 -33l-6 -25q-2 -12 -12 -20q0 -12 -4 -25q-2 -18 -8 -35q-4 -12 -7 -26q-4 -18 -14 -39q-6 -14 -20 -29v-10 l-4 -14q-2 -12 -5 -27v-29v-55q0 -16 -12 -28.5t-28.5 -12.5t-27.5 12.5t-11 28.5v55v31q2 23 6 41v4q-12 10 -11 33q2 14 5 29q-6 12 -15 26q-6 8 -10 19q-4 -12 -10 -25q-2 -4 -15.5 -9t-28 -8t-27.5 5t-13 28q-2 27 14 52z" />
<glyph unicode="W" horiz-adv-x="1703" d="M629 150q-6 -10 -15 -23q-10 -14 -15 -24.5t-9 -22.5q-6 -18 -19 -37q-4 -12 -8 -25q-2 -18 -6 -38q-4 -16 -6 -33v-19q0 -14 -12.5 -26.5t-28.5 -10.5h-6l-2 -4q-6 -14 -19.5 -21t-27.5 -3q-10 -10 -25 -13q-16 0 -29.5 11.5t-13.5 27.5v13q-2 12 -3 26.5t-3 26.5 q0 12 -4 27q0 6 -4 12q-8 12 -21 29q-12 20 -18 38q-8 25 -2 52q2 14 10 37l4 20v25v32q-2 16 -4 31q0 8 -2 21q-4 18 -4 36v31q-2 2 -2 6q0 -10 -2 -20q-4 -12 -6 -26.5t-5.5 -27t-7.5 -24.5q-2 -16 -12 -37q-10 -18 -46 -13t-36 34q0 16 2 30q0 12 2 27q0 8 2 29 q2 12 0 20q0 12 -2 23q-4 18 -4 36q2 23 12 46q8 16 15 32q6 14 10 27q2 6 0 14q0 4 -4 8q-14 18 -25 39q-6 14 -14 27q-8 16 -12 35q-4 14 -8 26q-4 18 -5 37q0 16 7 37q2 12 4 23v6q-27 -10 -41.5 -2t-18.5 24l-2 19q0 4 -4 12q-8 18 -14 41q-6 31 8 57l2 4q-2 14 -2 27 q-2 12 -4 25q-4 16 -6 28q-2 10 -6 19l-7 14q-8 23 9 43q-4 14 2 29.5t20.5 21.5t29.5 0t21 -22l9 -15q6 -18 14 -32q8 -20 16 -43q10 -25 19 -52q8 -25 16 -49q4 -12 8 -26q8 -12 11 -27q0 -2 2 -6q8 -27 16 -49q8 -27 20 -64q10 -35 18.5 -61.5t16.5 -59.5t17 -67 q8 -35 16 -68q10 -39 16 -67q2 -4 2 -8q4 -8 7 -19q2 -6 4 -14q2 -10 4 -21q10 -33 16 -61q8 -29 12 -58q6 -25 11 -45q8 -25 12 -49q2 -6 4 -14q4 12 10 25q12 31 23 63q10 31 22 78q12 51 25 92q14 41 35 84q16 37 28 78q12 47 25 80q2 10 4 18q4 20 14 43q4 6 9 14 q2 6 4 11q12 37 26 67q10 29 19 56q0 4 2 6v6v53q0 14 2 35q2 23 10 41q8 25 29 43q14 14 28 26q6 10 13 21q14 20 40.5 22.5t43.5 -16.5q16 -16 33 -45q14 -27 24 -53q6 -23 16.5 -46.5t24.5 -52.5t31 -63q14 -27 30 -61q14 -29 27 -58q12 -29 27 -63q16 -35 30 -68t29 -65 q12 -33 25 -64q12 -29 22 -53q8 -4 13 -10q23 -20 26 -50q4 -18 4 -34v-13q2 -4 4 -10q10 -27 23.5 -58.5t25.5 -60.5q2 -6 5 -12q2 20 6 43q4 33 10 74q8 43 18 86q10 41 19 86q10 47 24 90q14 39 21 78q6 45 16 88q10 37 19 80q8 47 18 90q10 39 14 63q4 20 9 47 q-2 6 -2 11q-6 18 -7 39q0 18 7 41q6 25 22 45q8 8 12 16q4 10 9 18l6 19q6 14 21.5 21.5t30.5 1t21.5 -22t-0.5 -29.5v-2q0 -10 -4 -20l-8 -17q-2 -2 -2 -4q-4 -6 -6 -12q-6 -14 -8 -27q-2 -16 -4 -33q-2 -14 -6 -34q6 -14 10 -29q6 -18 8 -39q2 -20 -2 -41q-2 -12 -2 -22 v-54q0 -12 2 -24v-37v-57q2 -6 1 -12.5t-10 -20t-30 -15.5q-2 -6 -2 -14q-4 -20 -12 -37q-2 -8 -4 -20q-4 -12 -4 -23q0 -10 2 -26q2 -18 2 -35q-2 -23 -11 -43q-6 -20 -22 -39q-10 -12 -23 -29q-10 -12 -14 -20q-6 -10 -8 -23q-6 -14 -8 -26q-4 -8 -4 -19q0 -10 4 -20 q6 -23 6 -41q0 -14 -4 -34t-13 -44q-8 -25 -14 -39q-6 -12 -10 -25l-4 -14q-6 -14 -17 -20v-15q0 -23 1 -46t1 -36q2 -37 -51 -24q4 -6 4 -13l2 -12v-33v-16q0 -12 -6 -23v-18q2 -29 0 -47t-4 -35l-2 -18q-2 -14 -15.5 -24.5t-28.5 -9.5t-25.5 14.5t-8.5 29.5l2 18 q2 16 2 31q2 12 0 39v25q-2 4 -2 8v6q-2 18 -4 31v14q-2 12 4 20q-2 16 -2 31q0 8 -10 47q-6 31 -4 51v25q0 12 -2 29l-4 16q-16 -18 -39 -12l-21 6q-6 2 -14 6q-35 -16 -57 6q-20 20 -27 45q-4 16 -4 39v27q0 6 -4 14q-2 12 -8 23q-12 25 -9 49q2 20 13 41q6 10 10 22 q2 10 2 17q0 8 -2 20q-2 16 -4 33q-2 12 -7 22.5t-14 20.5l-12 20q-2 -6 -2 -12q-8 -23 -46 -14.5t-38 29.5q0 16 2 32q2 14 6 33q-2 4 -2 8q-2 16 -4 31q0 4 -4 12q-8 16 -16 31q-10 18 -17 37q-8 20 -10 41q-2 16 -4 33q-2 16 -4 28q-2 6 -6 17q-6 10 -15 20 q-14 16 -20 35q-6 16 -12 31q-2 6 -11 18q-2 4 -4 6q-4 -18 -12 -39q-6 -18 -12 -39v-16q-2 -18 -6 -35l-15 -35q-8 -16 -14 -28.5t-12 -28.5q-4 -8 -9 -14q-8 -29 -20 -60q0 -2 -2 -4v-4v-22q2 -12 4 -23q4 -16 7 -33.5t5 -34.5q2 -12 4 -28q4 -25 -4 -53q-8 -23 -22 -48 q-10 -18 -23 -36v-7q-6 -23 -16 -45q-2 0 -4 -4v-12q0 -12 2 -23q2 -16 2 -32q0 -37 -45 -51z" />
<glyph unicode="X" horiz-adv-x="1056" d="M930 1102q14 -8 18 -24.5t-2 -30.5l-8 -15q-6 -10 -8 -20q-2 -6 0 -15q2 -10 4 -18q6 -14 12 -31q4 -16 8 -33q2 -18 0 -36q-4 -25 -25.5 -36.5t-41.5 -6.5q-16 4 -31 16q-8 -12 -20 -21q-14 -12 -31 -24q-14 -8 -27 -19q-4 -4 -8 -10q-2 -6 -2 -10v-20q2 -20 -8 -37 t-27 -23q-12 -6 -26 -12q-10 -4 -23 -12q-14 -12 -29 -23q-10 -8 -23.5 -22.5t-17.5 -22.5t-6 -16q-2 -14 -6 -27q4 -8 6 -14q12 -16 21 -31q16 -27 37 -57q20 -29 43 -58q20 -31 104 -174q82 -141 92 -158l10 -18q6 -10 7 -25q2 -6 6 -10l4 -14q8 -14 2 -29.5t-20.5 -23 t-31 -1t-22.5 20.5l-6 12q-4 12 -12 25q-8 12 -17.5 25.5t-17.5 25.5q-10 14 -21 29q-6 8 -14 20q-6 -6 -10 -12q-8 -12 -14 -25q-10 -18 -47 -11t-33 36q2 23 14 45q6 8 10 19q4 12 6 24q2 8 2 16v21q0 6 -4 12q-4 8 -12 17q-6 8 -13 11t-14 5q-16 2 -30 6 q-18 4 -31.5 20.5t-13.5 34.5v80q0 12 -2 21q0 4 -7 12q-8 12 -16 25v-4q0 -14 -2 -29q-2 -14 -4 -31q-8 -39 -45 -49q-20 -6 -43 -2q-8 -8 -12 -16q-8 -16 -21 -33q-16 -23 -39 -35q-10 -6 -18 -13t-15 -18q-8 -16 -16 -30q-8 -12 -10 -23q-4 -6 -4 -18q-2 -12 -4 -23 q6 -18 -5 -35l-2 -2v-2q-6 -31 -30 -49q-23 -18 -47 -20q-10 0 -19 -5q-6 -2 -14 -10l-2 -2q-2 -6 -4 -10q-2 -14 -6 -29v-6q0 -20 2 -31q2 -14 4 -43q4 -33 2 -55v-43l-2 -22q0 -16 -12.5 -27.5t-29 -11.5t-27.5 12t-11 29l2 22v43q2 18 0 45q-4 27 -6 39q0 6 -2 16 q-12 16 -4 37v2q-18 25 0 50q-2 14 2 24l6 16q8 18 22 43q12 20 27 48q16 27 46 70.5t75 101.5q43 55 92 123q51 66 74 96q12 16 24 35q-10 16 -16 30q-6 12 -12 23q-12 16 -21 33q-4 10 -14 22q-12 14 -23.5 26.5t-23.5 26.5q-16 18 -25 39q-10 6 -20.5 10.5t-20.5 6.5 q-29 6 -45 32q-14 20 -16 48q-2 20 0 36q2 10 2 22.5v22.5q-10 16 -23 37q-16 23 -24 41h-2l-15 6q-14 8 -20 23.5t2 30.5q4 8 10 14q6 20 25 29q14 6 29.5 0t21.5 -23l10 -24q0 -2 2 -5l10 -10q16 -18 27 -37q8 -14 14 -32q6 -10 8 -21q2 -4 5 -8q10 -18 22 -35 q16 -20 35 -49q16 -27 33 -53q14 -25 30 -49q18 -27 35 -54q16 -27 37 -59q8 -12 16 -25q8 12 17 25q25 31 73 91t72 89q25 29 43 55q18 25 31 43q12 20 25 35q8 14 16 27q8 20 31 51l20 31q10 14 26.5 17t28.5 -7q6 -4 11 -10h4zM856 946h6q-2 2 -2 4l-2 -2z" />
<glyph unicode="Y" horiz-adv-x="1101" d="M958 1153q33 -8 29 -43q12 -12 12 -31v-14q0 -18 -2 -35q-4 -20 -14 -41q-6 -14 -8 -23.5t-2 -17.5q0 -10 2 -22v-33q0 -20 -12.5 -27.5t-28.5 -3.5t-28.5 11.5t-14.5 9.5q-8 18 -14 32q0 2 -7.5 -4t-9.5 -8q-10 -10 -16 -20q-14 -25 -37 -39q-10 -8 -21.5 -19.5 t-18.5 -21.5t-11 -21q-4 -8 -6 -20q-6 -20 -22.5 -31.5t-33.5 -11.5q-6 2 -12 0q-2 0 -6 -6q-10 -10 -19 -23q-16 -23 -39 -35q-8 -6 -12 -12q-2 -2 -2 -4q0 -16 -2 -31q-2 -12 -2 -24v-52q0 -4 4 -12q8 -18 12 -37q4 -16 5 -30q2 -14 2 -31q0 -10 2 -19q2 -10 6 -22 q10 -20 12 -43q2 -27 -6 -53q-6 -16 -10 -31q-4 -12 -11 -25q-4 -12 -7 -24t-4 -24.5t-1 -24.5v-33q0 -14 1 -26.5t5 -28.5q2 -14 4 -33q4 -27 -4 -51q-6 -16 -12 -31q-2 -6 -2 -10t4 -13q6 -14 12 -26q14 -23 15 -47v-15q0 -14 -9.5 -25.5t-23.5 -13.5q0 -12 2 -24 q2 -18 4 -31l2 -12q4 -16 -4 -29.5t-24.5 -17.5t-31 5t-18.5 25l-2 13q-4 14 -6 37q-4 25 -4 45q0 23 2 41l2 16q0 14 12 25h-1t-1 2q-10 23 -10 45q0 16 4 32l2 2v15q2 10 2 22q0 8 -2 29q-4 23 -4 47v35q-2 18 -2 39q0 20 -2 47q-2 29 0 55q2 23 2 49q2 25 -2 45 q-4 27 -6 52v49q0 25 -2 53q-2 31 -2 45v33v2q-8 6 -15 12l-10 17q-6 10 -14 16q-6 4 -12 6q-25 4 -45 21q-31 23 -31 55v22q-2 6 -4 13q-4 10 -13 26q-4 10 -12 19q-14 10 -31 24q-18 16 -32 33q-8 10 -17 16q-6 4 -10 7h-22q-27 0 -52 16t-34 49q-4 20 -7 37q-2 14 -4 31 q0 10 -4 18q-4 10 -10 23l-10 14q-8 10 -6 25q-16 27 4 49q10 10 26.5 12t28.5 -10l18 -15q20 -18 47 -51q29 -31 43 -53q14 -20 29 -37q18 -20 37 -43q16 -20 39 -43q18 -23 39 -45q18 -23 33 -41q14 -18 26 -33q10 -12 21 -24q14 -16 26 -33l4 -4q8 12 23 29q18 23 33 39 q16 18 35 34q16 12 31.5 26.5t35.5 33.5q20 23 43 43q23 18 39 37q18 18 35 34q14 14 36.5 38t43.5 50q16 18 20 27l4 12q4 16 18.5 24.5t30.5 2.5z" />
<glyph unicode="Z" horiz-adv-x="1327" d="M549 1141q35 0 63 -2h47h46q20 0 47.5 -1t48.5 -3q14 -2 28 0q20 2 35 2q20 2 37 2q16 0 33 -2q10 -2 24 -2q14 -2 25 0q20 2 38.5 -9.5t25.5 -29.5q12 -37 -17 -70q-12 -12 -22 -25q-10 -14 -25 -28q-6 -8 -14 -17q0 -14 -4 -28q-4 -18 -17 -39q-10 -16 -20 -33 q-12 -16 -27 -33q-10 -10 -16 -20t-9.5 -19.5t-5.5 -19.5q-2 -16 -8 -33l-4 -20q-8 -37 -45 -49q-20 -6 -45 -3q-2 2 -4 1t-6 -5q-10 -14 -21 -26q-2 -2 -4 -6q4 -2 8 -7l7 -6q12 -12 12 -28.5t-12.5 -27.5t-29 -11t-28.5 10l-6 8h-2l-6 -12q-4 -4 -4 -8q0 -20 -6 -41 q-6 -18 -17 -39q-6 -10 -8 -19q-2 -10 -2 -18q0 -16 -2 -31q0 -16 -4 -33q-6 -25 -25.5 -29.5t-37 1.5t-21.5 14q-8 8 -14 16q-16 -18 -31 -32q-12 -14 -23 -27q-8 -10 -12 -18q-2 -6 -4 -15q0 -14 -2 -26q-2 -18 -6 -35q-6 -16 -15 -33q-18 -33 -57 -33h-29q-8 0 -14 -4 q-10 -4 -29 -16q-14 -12 -24 -21q10 -4 16 -10l6 -6q12 -12 12.5 -28.5t-12.5 -28.5q-8 -8 -20 -11q-2 -6 -2 -10q29 -2 66.5 -3t76.5 -1h27q14 25 41 21l16 -2q16 -2 35 -5q16 -4 31 -4q23 0 47 -4q4 -2 10 -2h41q41 2 78 6q41 4 73 2q31 -2 66 -4h51h43h74h31h26 q10 0 31 2h21q33 2 40 -28q2 -2 5 -4q10 -12 8 -30t-15 -28l-20 -14q-18 -14 -31 -27q-33 -27 -69 -10q-20 10 -39 31h-13q-16 -4 -30 -6q-18 -4 -35 -4h-33h-20q-6 -2 -13 -7q-8 -6 -16 -14q-10 -12 -21 -27q-6 -8 -6 -14q-2 -12 -4 -25q-2 -23 -14 -47q-2 -6 -10 -12 q4 -2 6 -6l6 -6q8 -8 10 -21l4 -4q10 -10 10 -27.5t-10 -27.5q-16 -16 -37 -12q0 -4 -2 -9l-4 -36l-2 -21q-2 -16 -15 -25.5t-29.5 -7.5t-27 15.5t-8.5 29.5l4 21q2 18 5 33v26.5v26.5l-3 14q-2 12 7 25l-2 10q-4 16 4 31l-4 8q-8 16 -13 35q-6 20 -4 41q2 16 6 33l-4 4h-10 q-16 -4 -31 -4l-24 -5q-12 0 -27 -4q-16 -2 -31 -4q-16 -2 -32 -2q0 2 -5 -2q-10 -6 -18 -16q-10 -10 -16 -21q-10 -20 -41 -20t-43 22q-4 10 -13 19q-10 12 -22 24q-4 -2 -10 -4q-18 -6 -35 -10q-12 -2 -31 -4q-8 -2 -12 -6q-14 -14 -44 -9t-38 29q-2 10 -8 23q-2 0 -2 2 q-16 6 -31 10l-14 6q-14 4 -23 21q-10 2 -20 6l-2 2q-18 -4 -33 8q-14 8 -16.5 25.5t8.5 29.5v2q4 10 14 21.5t20 25.5q12 16 37 43q20 23 31 37q10 16 23 33q12 16 24 35q14 18 31 41q16 20 31 43q16 23 37.5 47.5t39.5 48.5q20 25 39 47q18 20 37 47q18 31 42 63t44 58 q20 27 39 53q20 29 47 58q25 27 47 53q23 29 44.5 53.5t43.5 46.5q23 25 43 48t39 40q16 16 31 35l2 2q4 10 12 21l2 2q-10 0 -22 -2q-10 0 -23 -4q-18 -6 -37 -6q-14 0 -30 2l-2 -2q-6 -4 -11 -13q-10 -20 -26 -39q-2 -2 -13.5 -8t-26.5 -11t-29.5 3t-18.5 31q-2 16 -2 32 q0 14 2 29q-6 0 -15 -2q-18 -4 -34 -6q-12 -2 -25 -4q-18 -6 -39 -6h-14q2 -20 0 -39q-2 -4 -6 -8l16 -21q8 -14 5 -30.5t-16.5 -25.5t-29.5 -6t-25 17l-20 27q-12 18 -4 39q-2 4 -4 10q-6 4 -10 8l-15 12q-10 10 -26 23l-19 12q-10 6 -14 17q-10 -12 -21 -25 q-12 -16 -39.5 -19.5t-46.5 25.5q-4 10 -12 21l-10 16q-8 10 -8 25q-27 16 -17 45q4 16 18.5 24t30.5 2l19 -4q16 -6 27.5 -8t27.5 -2h37h41q23 0 46.5 -1t47.5 -3z" />
<glyph unicode="[" horiz-adv-x="630" d="M508 -332v-6q2 -10 4 -29q2 -14 2 -34v-19q0 -16 -11 -27.5t-27.5 -11.5t-29 11.5t-12.5 27.5v17v26q-4 14 -4 29q-4 16 -4 33q0 12 -2 26q-2 16 -2 33v37q2 20 2 35v28l-2 13h-14q-10 -2 -23 -4q-16 -6 -33 -9q-2 0 -8 -4q-12 -6 -27.5 -17t-35.5 -26q0 -2 -8.5 -5 t-21.5 -5t-25.5 -1t-20.5 11t-8 29v27v28q0 10 -2 19q-4 16 -9 34q-2 10 -4 19q-4 4 -4 10q-6 18 -8 41q0 16 2 31v2v33q2 8 2 16v35v45q2 25 0 55q-2 33 -2 64q-2 31 -4 65q-6 37 -7 69t-5 70q-2 37 -6 66q-4 33 -7 74q-2 37 -5 68.5t-7 64.5t-8 61q-4 27 -8 58 q-4 29 -4 51q-2 23 -5 43q-2 23 -4 47v41t2 43q0 31 9 55q12 41 51 49q14 4 29 7q18 2 38 2q14 0 33 4q20 2 39 6l21 6q27 6 43 -16q27 -4 32 -31l4 -12q0 -4 7 -11q12 -16 22 -30q12 -23 3 -45.5t-27 -32.5q-41 -20 -76 14q-10 12 -23 23q-10 8 -18 12q-6 4 -12 4 q-10 2 -21 0q-2 -2 -6 -4q0 -10 2 -19q4 -16 6 -32v-39q0 -20 -2 -41q-4 -23 -12 -43q-6 -14 -15 -33q-6 -12 -8 -20q-4 -14 -8 -29q-2 -8 -4 -23q0 -10 4 -20q6 -20 12 -39q4 -16 11 -29l10 -30q6 -16 8 -35q4 -16 4 -31q2 -12 4 -29.5t4 -31.5q2 -18 2 -39v-15.5v-15.5 v-35v-16v-15q0 -10 2 -18q4 -14 7 -37v-37v-92v-33q-2 -16 -5 -32q-2 -20 -4 -37q-4 -14 -6 -31q-4 -14 -8 -35q0 -8 -2 -14v-2q0 -25 -2 -43v-4v-27v-10q4 0 10 -2q29 -6 47 -8q6 2 15 4l14 2q16 2 29 -8q12 0 26 2q20 0 41 6l25 6q23 6 39 -10q29 -8 28 -39v-17v-30 q2 -20 2 -38t-2 -38v-33v-29q0 -14 -2 -30t-6 -35l-4 -14q-2 -9 -6 -15zM281 -104h-5v-5z" />
<glyph unicode="\" horiz-adv-x="800" d="M162 1180q16 4 30.5 -5.5t18.5 -23.5l4 -18q4 -14 12 -35q10 -25 21 -51q10 -25 24 -56q16 -37 27 -59q14 -31 28.5 -63.5t30.5 -71.5q18 -41 33 -76t33 -75t37 -77q18 -39 35 -82q14 -41 32 -90q14 -45 27 -75q14 -31 25 -66q10 -31 24 -61q14 -35 25 -62q8 -25 16 -51 q8 -23 14 -39q8 -18 15 -37l4 -16q10 -8 12 -23l2 -14q2 -14 4 -29q4 -18 4 -49l-2 -27q0 -14 -8 -24q0 -12 2 -23q-2 -16 -2 -34v-37q-2 -23 -10 -45q-4 -10 -4 -19q-2 -10 0 -24q0 -10 4 -21q2 -12 6 -24q8 -20 8 -39q0 -18 -4 -35q-2 -10 -4 -21q0 -14 -2 -28l-2 -13 q-2 -16 -15.5 -26t-29.5 -8t-26.5 15t-8.5 30l2 12q2 12 2 24q2 16 6 33q2 8 2 17q0 6 -2 12q-6 14 -10 29l-4 16q-8 10 -10 25l-2 18q-2 18 -6 37l-5 18q-10 14 -8 31l2 16q0 16 3 30.5t8 31.5q2 14 4 31q2 12 0 22q-2 14 -6 25q-6 16 -9 37q-4 20 -2 40v29q-2 10 -4 21 q0 4 -6 12q-10 16 -20 33q-10 18 -19 32q-4 10 -12 23q-6 8 -17 18q-2 0 -6 -2q-12 -12 -24 -26l-51 -4q-43 4 -27 41q4 8 6 18q4 12 8 29q4 12 6 24.5t5 24.5q0 16 4 35q2 16 4 28q0 4 -2 15q-4 12 -11 20q-6 10 -16 27q-12 20 -16 41q-4 16 -4 35q0 12 -3 24q0 6 -4 14 q-4 4 -4 7l-28 12q-31 14 -43 41q-10 23 -9 49v23q0 12 -2 28q-2 20 0 43q0 12 -2 23q-2 12 -8 22q-12 18 -22 35q-12 20 -19 41q-6 20 -6 41v27q0 8 -2 20q-2 -6 -2 -8q-4 -12 -8 -25q-6 -20 -21 -41q-8 -16 -47 -9t-31 38q2 16 5 29q4 16 6 30q4 12 7 29t7 35q4 16 6 33 q2 12 1 26.5t-5 26.5q-4 14 -6 29l-4 12q-4 20 10 37q2 29 31 37zM483 225v2v-2z" />
<glyph unicode="]" horiz-adv-x="638" d="M430 -272q-2 6 -6 14q-10 23 -14 47q0 14 -4 27q-2 2 -4.5 4t-4.5 2q-25 0 -45 10h-2q-4 -2 -11 -6t-11 -12q-2 -6 -2 -9q-2 -10 -21.5 -11t-40 5t-20.5 13q0 12 -2 22q2 0 -2 4t-9 4q-10 2 -22 2q-18 0 -45 2l-27 4q-16 2 -26.5 15.5t-8.5 28.5q4 29 33 34q6 8 15 13 l20 8q29 12 53 14q20 2 43 2t49 -2q25 -2 50 -2q29 0 51 -6h2q2 8 4 14v2q0 10 1 16.5t1 14.5v12q0 14 2 29q0 10 -2 20q-2 14 -4 31q0 12 -2 28.5t-2 33.5v26q0 12 2 31q0 23 6 43q4 10 4 18v29q0 20 2 35q0 14 2 29v28v33q-4 18 -6 35q-4 18 -8 31q-4 12 -10 26 q-10 20 -13 43q-2 12 -4 23q-4 12 -10 26q-6 16 -12 29q-12 23 -9 49q0 16 5 35q4 18 12 39q4 6 4 12v33q0 14 -2 27q-4 23 0 45q2 16 8 37q2 14 3 25t-3 22q-2 16 -6 34q-6 23 -6 39q0 14 2 33v23q-2 2 -4 6q-14 12 -23 26q-10 2 -20 2q-12 2 -27 2q-14 0 -27 -2 q-8 -2 -14 -6q-4 -2 -8 -8q-4 -10 -8 -18q-4 -18 -43 -18.5t-39 26.5v24q-2 8 -6 19v2l-13 6q-14 6 -20 21.5t1 31t24 19.5q2 14 14 23.5t26 6.5l21 -2q18 -2 31 0h34h37q16 0 27 2q14 2 33 7q37 8 63 -13q27 -20 33 -61q4 -27 8 -47q2 -20 4 -47q2 -25 4 -51.5t4 -59.5 q2 -29 7 -59q4 -35 6 -68v-65q0 -35 2 -68t2 -70q-2 -35 -2 -67q0 -29 3 -64t5 -67q4 -35 4 -71v-67q0 -35 -2 -65q-2 -29 -4 -57v-56q-2 -25 -2 -51q0 -29 -2 -47v-33q0 -6 -2 -10v-12q0 -12 -2 -27v-8v-29q0 -12 -4 -20q2 -8 4 -19q4 -14 10 -26q8 -14 14 -31 q12 -27 11 -55q-2 -18 -5 -35q-4 -16 -8 -33q-4 -10 -8 -16v-11q0 -14 -2 -34v-19q-2 -16 -14.5 -27.5t-28.5 -10.5t-27.5 14.5t-9.5 29.5v19q2 16 2 28q0 10 -4 50h-2z" />
<glyph unicode="^" horiz-adv-x="798" d="M109 662q-8 12 -5.5 28.5t17.5 26.5l8 4q4 16 14 41q14 33 25 51q8 18 18 39q10 20 21 39q8 18 16 37q8 18 18.5 38.5t20.5 40t23 42.5q12 18 22 36q8 16 12 29q6 16 13 33q2 10 4 18q6 20 17.5 27.5t23.5 3.5t23.5 -12t17.5 -17l8 -6q10 -25 18 -41q8 -18 17.5 -40.5 t23.5 -51.5q2 -6 7 -12q10 -8 20 -17q25 -14 37 -36q8 -18 12 -39q0 -14 2 -25q4 -14 6 -27q2 -4 9 -12q16 -16 24 -37q12 -23 12 -47q-2 -4 0 -8q8 -18 13 -37q4 -8 8 -14q4 -4 6 -8l10 -13q6 -8 8 -20q4 -14 7 -29l4 -12q6 -16 14 -33l6 -16q4 -10 2 -21q8 -14 4 -28 l-2 -15q-2 -10 -2 -20v-17q0 -16 -11 -28.5t-27.5 -12.5t-29 12.5t-12.5 28.5v17q0 18 4 37l2 12q-2 2 -2 6l-6 16q-6 14 -12 27q-10 18 -12 39q0 6 -4 12q-2 6 -7 13q-4 4 -6 10q-10 12 -16 26q-10 23 -18 41q-8 16 -19 33q-12 23 -24 49q-10 27 -25 60q-12 31 -25 53 q-8 12 -14 27q-6 4 -12 6q-2 2 -6 2q-4 -8 -11 -15q-10 -16 -22 -30q-8 -10 -12 -19q-4 -12 -9 -22q-4 -16 -8 -33q-4 -16 -12 -35q-6 -14 -14 -31q-8 -14 -15 -28q-4 -6 -4 -10q-4 -18 -12 -39q-8 -16 -19.5 -34t-25.5 -32q-6 -6 -10 -16q-6 -14 -13 -29q-4 -10 -6 -23 q-4 -20 -14 -43q-6 -10 -10 -22q-4 -14 -43 -12t-37 26q0 14 2 27q2 12 2 24q0 16 2 35q2 6 2 15q-2 12 2 24q-8 5 -14 13z" />
<glyph unicode="_" horiz-adv-x="1155" d="M1036 8q12 -8 15.5 -24.5t-4.5 -30.5l-11 -16q-6 -8 -6 -11q0 -6 2 -14q6 -23 4 -41v-25q0 -10 2 -18q6 -18 4 -37v-24q0 -16 -4 -35q-2 -14 -8 -29q14 -8 17.5 -24.5t-5.5 -30.5q-8 -10 -22 -17v-10q0 -18 -2 -39q0 -20 -2 -37l-2 -16q0 -16 -13.5 -27.5t-30 -9.5 t-26.5 14.5t-10 28.5l2 16q2 16 2 37q2 16 2 33v29v24v4q-8 10 -20 23l-15 16q-23 23 -6 50q-8 14 -4 30l-4 8h-2q-14 -6 -29 -10q-20 -4 -40.5 11.5t-20.5 37.5v29q0 12 -2 23l-13 6q-8 6 -14 14h-16q0 -2 -2 -2q-6 -4 -9 -8q-8 -12 -14 -25q-8 -14 -22 -35q-8 -14 -11 -22 q-2 -6 0 -12q4 -20 6 -33q2 -10 -36.5 -19.5t-40.5 0.5q-2 8 -7 21q-6 12 -12 20q-16 23 -16 52q2 10 2 20q-8 2 -12 4q-8 2 -13 2q-14 -2 -30 -4q-12 0 -25 -2q-16 -4 -31 -6q-2 0 -8 -2q-2 -2 -6 -8q-10 -18 -40 -23.5t-46 23.5q-2 10 -10 18q-2 4 -6 10q-4 -2 -9 -2 q-20 -6 -41 -6q-12 0 -24 -2q-8 0 -17 -4q-6 -2 -14 -8q-6 -4 -10 -10q-4 -10 -10 -27q-2 -2 -14.5 -8t-28 -11.5t-28.5 2t-13 27.5q-2 14 0 31q0 2 -2 4q-6 10 -17 20l-14 13q-14 14 -12 35q-10 14 -8.5 30.5t15 26.5t29.5 8l23 -2q23 -4 43 -4q25 0 57 -2q29 -2 62 -2 q37 0 76 -2q37 -2 77 -2h154q33 0 72 2q14 2 24 2q8 4 17 4q18 4 34 4q14 0 27 -2h29q29 2 53.5 3t46.5 5q14 2 23 6l14 9q31 16 51 -13q4 0 6 -2z" />
<glyph unicode="`" horiz-adv-x="589" d="M139 1251q20 4 35 -14l21 -14q25 -16 43 -35q12 -12 24 -21q14 -10 35 -24q23 -16 46.5 -36t46 -41.5t46.5 -49.5q27 -33 39 -62l10 -22q8 -14 2 -29.5t-22 -23.5q-8 -4 -19 -2v-11q-4 -27 -6 -41v-14l2 -14q2 -16 -8 -29.5t-25.5 -15.5t-28.5 8t-15 24l-3 15q-4 18 0 37 q0 14 5 38q2 25 4 41q0 8 -2 15q0 2 -9 8l-24 20q-29 18 -33 48q-2 10 -4 22q-23 10 -37 25q-14 10 -29 26v2q-6 -2 -10 -4q-20 -12 -45 -18q-20 -4 -42.5 9t-22.5 40q0 10 -2 27q-2 16 -2 30q-4 14 -5 29l-2 14q-2 16 9.5 29.5t27.5 13.5z" />
<glyph unicode="a" horiz-adv-x="903" d="M328 768v2v-12q2 -18 -2 -39q-6 -35 -43 -49q-14 -6 -25 -13q-4 -2 -6 -6q-4 -6 -4 -18q-2 -33 -23 -62l-14 -20q-10 -12 -26.5 -15.5t-28.5 7.5q-23 14 -17 43q-12 25 8 45q6 6 17 10q-2 2 -2 6l-2 15q-4 18 -4 38q0 23 8 43q8 16 20 35q12 18 35 35q20 16 41 21 q12 4 27 10q20 6 41 10q18 4 32 6q18 2 35 2h25q18 2 41 0q16 -2 28 -2q14 0 31 -2q16 -2 33 -4q14 -2 29.5 -3t33.5 -3q20 0 37 -4q14 -2 27 -4q12 0 31 -2q33 -2 55 -33q10 -14 16 -29q23 -20 9 -47q2 -2 2 -6q2 -20 4 -41q4 -23 4 -41v-33q0 -16 -2 -35q-2 -14 0 -34v-37 t-2 -35q-2 -12 -2 -23v-34v-45q-2 -23 -4 -48q0 -27 -2.5 -41t-6.5 -32q-2 -6 -2 -11l-4 -20q0 -18 -4 -37q-4 -16 -6 -33l-4 -20q0 -2 2 -2q10 -18 18 -35q12 -27 4 -55q-6 -18 -14 -33q-4 -10 -12 -23q8 -14 12 -28q8 -23 6 -45q-2 -14 -4 -27q0 -14 -4 -35l-2 -20 q-2 -16 -15.5 -26.5t-29.5 -7.5t-26.5 16.5t-8.5 29.5l4 18q2 20 4 31q0 14 2 29q0 6 -2 12q-4 10 -10 21q-14 27 -4 55q-2 6 -2 12v70v6q-2 -4 -4 -6q-4 -8 -6 -14q-4 -25 -23 -46q-6 -6 -10 -20l-6 -20q-6 -16 -20.5 -23.5t-31 -2.5t-23.5 19.5t-1 30.5l6 21q4 12 10 26 h-2q-8 0 -12 -2q-16 -10 -35 -14q-16 -6 -33 -10q-2 -2 -6 -7q-16 -18 -39 -28q-20 -6 -36 -10q-4 0 -15 -7q-10 -6 -12 -12q-4 -6 -6 -20v-31q2 -16 4 -29q2 -25 -38 -28t-44 14q-6 18 -6 41v24q-2 4 -4 11q-12 25 -8 53q-6 2 -13 2q-18 0 -41 6q-25 8 -47 27 q-25 20 -35 43l-6 16h-2q-6 12 -12 27q-14 29 -14 51l-5 20q-2 16 -2 43t2 43q2 14 5 39q6 29 12 54q8 27 24 47q12 16 21 30q16 20 45 35q20 12 37 19q14 6 37 10q18 4 34 10q20 6 43 10t48 7q20 2 43.5 4t44.5 2q23 2 43 0q14 -2 26 -2q10 0 19 -2q14 2 26 -5 q23 -6 43 -16q23 -10 39 -18q12 -8 23 -15q2 10 2 19v35q-2 27 0 45q2 14 2 26v31v18q-6 -6 -10 -12q-4 -12 -9 -22q-4 -18 -42.5 -11.5t-36.5 27.5q2 12 2 27v14q-12 4 -23 8q-23 8 -41 31q-8 8 -12 18q-12 0 -23 -2l-16 -8q-18 -12 -41 -20q-43 -12 -72 26q-10 2 -22 2 l-13 2q-26 4 -34 31zM262 410l-2 -2l-8 -15q-8 -14 -12 -28q-6 -16 -15 -33q-8 -16 -16 -34.5t-12 -33.5q-2 -8 -2 -16q2 -14 4 -25l10 -20q10 -18 18 -37q4 -12 13 -25q6 -10 14 -20q8 0 16 2q14 2 29 2q18 2 41 -4q6 -2 16 0q12 2 25 6q12 6 29 14q18 8 41 17q16 6 26 10 q12 6 25 14q16 10 37 19q16 6 28 12q16 8 39 12q14 2 25 6l26 13q12 6 22.5 15t20.5 20l9 10q2 12 4 33q0 25 2 47v8q-6 4 -10 10l-13 14q-4 8 -9 10.5t-9 6.5q0 -10 -2 -19l-2 -14q-2 -16 -16.5 -25.5t-30 -7.5t-25.5 16.5t-6 30.5l2 9l-12 12q-10 12 -11 29q-12 -2 -28 -7 q-18 -4 -35 -8q-14 -2 -27 -8q-6 -2 -10 -8q-10 -10 -16 -21q-10 -16 -23 -32q-6 -8 -12 -19v-18q-2 -12 0 -21.5t-17.5 -14.5t-40 -5t-22.5 6q-4 23 -4 41q0 12 2 22q0 6 -2 13q-4 20 -12 28q-14 2 -31 6q-15 5 -31 7z" />
<glyph unicode="b" horiz-adv-x="944" d="M418 -238v-28q0 -10 -40 -19.5t-42 13.5v28q-2 12 4 29v18q0 12 -2 23q-2 14 -2 31q-2 18 2 39q2 14 4 30v2q-8 2 -18 2q-16 2 -37 11q-16 6 -31 14v-10q4 -23 -14 -37q-12 -23 -30.5 -21t-37.5 19l-16 14q-12 27 -15 49q-2 20 -2 39v4l-2 17q-2 18 0 34v31q2 14 2 33 q0 14 -2 33q-2 20 -2 45v6v8q-8 12 -16 25q-10 20 -15 43q-4 23 -3 42t10 44q6 20 12 35q6 12 10 24q0 4 2 8v43v31q-4 16 -8 27q-2 10 -8 22l-4 12q-6 14 -1 30t21 24h4v24q-4 35 0 58q2 16 4 30q0 10 -2 19q-4 16 -8 33q-6 23 -6 41q0 12 -2 22q-2 16 -4 35q-2 20 1 40.5 t9 39.5q4 18 14 37q6 10 13 20q0 2 -2 4v49q2 20 2 37v4v6q-2 16 -2 35v13q0 16 11 28.5t28 12.5q16 0 26 -11q10 -4 17 -10l6 -6q12 -12 12 -28.5t-12 -26.5q-2 -4 -6 -7q2 -6 2 -12q4 -16 6 -33v-34t-8 -39v-11q0 -18 -1 -36.5t-3 -36.5q-2 -16 -5 -39q-2 -20 -2 -39 q0 -23 -2 -45v-45q-2 -18 -2 -41h29q20 0 35 2q16 2 28 4q14 2 26.5 4l37.5 6l63 10q16 2 43 2h45q27 2 39 3q16 0 39 -5q27 -2 49 -10q20 -8 37 -16q20 -8 37 -19q18 -14 32.5 -30.5t25.5 -40.5q10 -20 18 -47q6 -23 10 -39q6 -16 8 -31q2 -12 4 -27q2 -16 3 -32 q0 -8 2 -23q2 -16 4 -29q4 -16 2 -32v-37v-39q0 -16 -4 -35q-2 -14 -4 -27q-2 -8 0 -24q0 -23 -3 -47v-35q0 -20 -4 -37q-4 -16 -12 -37q-8 -25 -35 -39v-8q0 -20 -6 -41q-6 -16 -12 -31q-4 -8 -6 -18t-2 -21v-28q0 -29 -30 -39t-44 0q-25 16 -37 41q-10 20 -12 45 q-2 18 -4 33v6q-2 -2 -4 -2q-4 -2 -7 -4q-12 -27 -38 -41q-39 -20 -74 14q-8 8 -17 10q-6 4 -12 4h-20q0 -6 -2 -12q0 -20 2 -37q2 -23 0 -43q-2 -29 -19 -51q-8 -13 -18 -25zM344 563l-2 6v-2q-4 -18 -8 -32q-4 -10 -4 -23q0 -4 -2 -8v-39q0 -14 -39 -19.5t-41 13.5 q-2 16 0 33v14v84q-8 0 -17 -2h-4q-2 -10 -10 -17v-30v-15q6 -20 6 -40.5t-4 -41.5q0 -6 -2 -14v-8v-57q-2 -27 0 -56v-57v-6q6 -8 12 -17q12 -20 17 -41q4 -16 6 -38q2 -18 2 -35v-56v-10q14 -2 31 -6q18 -4 30 -6q14 -2 31 -4h27h33q18 0 36 -2q12 -2 29 -2q16 0 35 2 q18 0 39 2q23 2 43 0q14 0 26 4q18 2 33 6q14 4 39 12q12 4 25 11q4 16 10 30q4 12 10 27q4 16 8 31q4 10 4 20q0 6 -4 12q-6 16 -14 35q-10 29 -8 51q2 16 8 39q6 16 10 29q2 8 4 18q0 6 -2 13q-2 6 -8 18q-8 14 -18 25l-11 12q-12 12 -11 28.5t13 26.5q8 8 21 11 q-2 4 -2 8q-8 18 -12 37q-2 14 -7 26q-2 6 -10 19v2q-14 2 -24 6q2 -14 4 -29v-37q-2 -16 -2 -26q0 -29 -21.5 -31t-42.5 12l-20 13q-10 27 -8 55q-20 -16 -43 -2l-19 10q-2 -10 -6 -20l-6 -5v-10t2 -14q4 -14 8 -33q4 -20 -2 -45q-2 -16 -4 -29q-2 -10 -2 -22q0 -14 2 -25 q0 -14 2 -28q2 -18 -2 -41l-2 -19q-2 -16 -15.5 -26.5t-30 -8.5t-26.5 16.5t-8 28.5l4 19q2 14 0 22q-2 23 -2 29q-2 14 -2 33q0 18 2 35q2 14 6 32q2 4 2 7q-14 -6 -29.5 -1t-21.5 17l-8 14q-10 16 -19 35l-10 16q-8 15 -4 31z" />
<glyph unicode="c" horiz-adv-x="815" d="M668 692q6 -16 -1.5 -31.5t-21.5 -21.5l-16 -4q-8 -4 -23 -14q-12 -8 -22 -21q-8 -8 -15 -18q-2 -6 -2 -13v-32q0 -18 -2 -35q-2 -23 -15 -30t-28.5 -3t-28 9t-14.5 9q-16 27 -16 54q0 18 2 39q2 4 0 6q-16 -4 -35 -2q-14 2 -31 4q-14 4 -28 6q-8 2 -17 2q-2 -2 -6 -4 q-12 -12 -24 -25q-18 -18 -39 -28q-14 -6 -33 -13q-4 -2 -6 -4q-8 -12 -21 -28q-8 -16 -12 -25q-6 -20 -18 -41l-11 -16q0 -2 -2 -2v-11q2 -27 2 -40v-33v-189q0 -6 4 -14q6 -10 15 -17q10 -8 24 -12q18 -4 33 -8l4 -2q4 2 8 2l17 4q14 2 24 4q16 6 31 10q10 2 21 9 q23 8 45 8q18 0 32 -2h25h27q20 2 41 0q10 -2 24 -2q12 0 23 4q23 6 43 4l12 -2q12 0 20 -8q12 -4 21 -11l6 -8q25 -6 29 -30q4 -18 -8 -33q0 -10 -3 -19l-8 -20q-8 -18 -12 -33q-4 -18 -10 -41q-2 -4 -4 -12l4 -8q8 -20 10 -37q4 -14 6 -35q0 -14 4 -25q2 -18 2 -34 q0 -35 -21.5 -39t-43.5 8l-23 12q-25 29 -28 60q-4 23 -3 40q0 16 7 46q2 10 6 20v27q0 14 -2 24q-4 14 -6 27q0 4 -2 8l-11 -4q-18 -12 -32 -25q-8 -8 -11 -14q-6 -16 -10 -31q-6 -20 -39 -27t-47 21q-4 10 -10 23q-8 12 -15 26h-4q-4 -2 -6 -4q-16 -20 -35 -30 q-14 -10 -34 -19q-14 -6 -29 -16q-2 0 -2 -2q-2 -8 -2 -19l-29 -28q-39 -31 -51 8q-6 18 -10 35q-4 27 4 49q2 6 2 20q0 12 -2 21q-2 4 -8 10q-20 18 -31 35l-6 8q-2 2 -4 2q-23 18 -37 43q-14 27 -15 53v189v32t-2 37v58q2 27 4 57q2 35 11 61q8 25 16 41q10 20 27.5 37 t44.5 29q18 8 35 14q20 8 47 10q18 0 43 5q25 4 37 6t22 4q16 4 43 8q25 2 47.5 4t42.5 4h39t33 -2h12q16 -2 27 -14q25 -2 35 -25z" />
<glyph unicode="d" horiz-adv-x="958" d="M793 1196q10 2 18 -2h12q16 -2 25.5 -16.5t7.5 -28.5l-4 -21q-2 -16 -2 -38q-2 -25 -2 -41v-35v-41q-2 -23 -2 -43t-2 -43t-4 -49v-62v-8v-8l2 -37q2 -14 -8 -29q-2 -20 -3 -47q0 -35 3 -65v-68q0 -35 -3 -70q-2 -33 -2 -63q0 -35 -4 -66q-2 -29 -6 -55q-4 -27 -8 -76 q-4 -53 -6 -71q-2 -14 -2 -31q0 -23 -2 -41q-2 -12 -2 -27q0 -20 -2 -37l-2 -12q0 -6 -2 -10q0 -16 2 -41q4 -29 4 -53v-37q0 -18 -2 -35q-2 -10 -2 -20q0 -18 -2 -45t-7 -48l-4 -32l-2 -19q-2 -16 -15 -26.5t-30 -8.5q-27 2 -33 29q-6 10 -6 21v12v26q0 16 6 37q2 12 3 21 q0 10 -3 22v37v35q2 12 0 23q0 6 -2 14q-4 8 -12 18q-18 25 -18 52q0 25 18 51q8 14 17 28q4 8 4 15q0 8 -1 14t-3 12q-16 -20 -37 -34q-18 -12 -39 -23q-18 -8 -39 -16q-8 -6 -17 -13q-14 -12 -28 -22q-12 -8 -27 -21q-18 -12 -42.5 -9t-37.5 24q-6 6 -14 12q-14 -2 -31 -6 q-18 -2 -41 -2q-16 0 -30 -2q-4 0 -9 -2q-4 -4 -4 -6q-4 -12 -8 -25q-2 -12 -42 -19.5t-40 23.5v23q-2 12 -4 26q-2 16 -2 33v16q-2 2 -6 2q-14 10 -37 27q-23 23 -35 49q-10 25 -16 43q-6 23 -6 39v39q-2 27 -4 39q-4 16 -5 35v28q-2 20 -2 37q0 16 2 31q0 12 2 39t3 39 q0 16 6 46t16 54q10 25 23 43q14 18 28 37q23 20 51 29q18 6 43 12t39 10q16 6 33 8q12 0 31 5q23 4 47 6q20 0 39 2h33q18 2 41 2q18 0 32 2q18 2 35 4q18 2 38 3t46 3q23 0 37 2l18 4h11q2 16 2 33q-2 25 -4 37q-4 18 -6 35q-4 12 -11 28q-8 20 -12 37q-4 16 -8 33 q-6 25 2 51q4 18 10 35q6 18 19 39q8 14 12 24q2 10 2 19q0 14 -2 31l-2 16q-2 16 8.5 29.5t26.5 15.5zM221 483q-2 -10 -6 -20q-6 -12 -6 -25q-2 -14 -2 -30q0 -14 2 -25q2 -14 4 -29q2 -8 6 -22q4 -18 8 -39q4 -18 9 -39q4 -18 6 -29l8 -32q2 -18 2 -35q0 -20 -8 -43l4 -4 q25 -16 35 -41l2 -2q18 -8 28 -11q12 -2 27 -6q14 -4 29 -6q12 0 26 -2q18 0 35 -2q14 -2 35 -2q25 2 37 2l20 4q10 4 23 8q14 16 33 29q14 8 26 18t25 21q10 10 16 18q6 12 13.5 27.5t11.5 28.5q6 20 20 41q8 14 17 26q8 18 34 23q2 20 4 39q4 27 5 57q0 35 2 68t2 66.5 v62.5q-2 18 -2 34q-6 -2 -16.5 -9t-16.5 -9q-8 -6 -10 -10q-4 -10 -11 -25q-4 -16 -7 -28.5t-3 -28.5q0 -6 -19.5 -18.5t-38 -13.5t-26.5 22q-2 14 -6 32q-4 20 -4 37q-4 20 -4 33q-2 2 -4 8q-6 -2 -13 -4q-23 -6 -43 -4q-10 0 -22 2l-8 -16q-6 -14 -11 -29 q-8 -23 -43.5 -17.5t-39.5 27.5v8h-15q-16 2 -35 4q-6 2 -14 0q-2 0 -2 -2q-8 -12 -10 -22q-4 -14 -8 -29q-4 -14 -7 -31q-4 -20 -6 -36q0 -6 -18.5 -18.5t-40 -11.5t-25.5 23q-4 18 -4 35v2zM653 645v-2q2 0 2 2h-2z" />
<glyph unicode="e" horiz-adv-x="888" d="M700 82q6 -14 0 -29.5t-22 -21.5l-16 -8q-2 0 -3 -3q-4 -8 -4 -14q0 -18 -2 -39q-2 -16 -4 -28v-5q10 -23 10 -45q-2 -23 -12 -43l-14 -28q-2 -4 -2 -11q0 -20 -17 -38q0 -4 2 -9q4 -18 5 -34v-64q0 -12 2 -31l2 -22q2 -16 -8.5 -29.5t-27 -15.5t-28.5 8t-14 27l-4 22 q-2 25 -2 41v64q0 8 -2 18q-4 14 -7 33v24q0 10 5 19l4 24q0 4 -2 9q-8 29 -2 53q4 14 10 28v11q-2 6 -6 14l-6 14q-2 0 -3 2q-4 -2 -8 -2q-6 0 -14 -4q-4 -16 -10 -32q-12 -27 -35 -41q-20 -12 -47 0t-27 38v25q-10 8 -18 12l-15 6q-8 4 -14 11q-12 -4 -25 -6q-27 -6 -51 4 q-16 6 -35 18q-16 10 -30 23q-20 14 -37 32q-20 25 -25 52v4q0 2 -2 4q-12 20 -18 43q-6 20 -10 39q-2 18 -4.5 39.5t-2.5 35.5q0 12 -2 37v45q2 14 4 39v37q-2 23 -2 37v28.5t2 37.5l9 45q4 27 12 47q10 23 26.5 45t34.5 35q12 10 29 24q20 18 41 29q18 10 35 16 q16 8 39 15q20 4 33 6q14 2 30.5 3t36.5 1h47q27 -2 43.5 -4t30.5 -6q12 -4 29 -7q18 -6 45 -16q25 -12 47 -29q25 -20 39 -49q12 -23 18 -37q6 -18 10 -39q2 -16 7 -30q4 -25 0 -45v-2q27 2 36 -25q8 -14 1 -29.5t-21 -21.5l-16 -6q-20 -8 -41 -15q-31 -6 -56 4h-8 q-12 -2 -20 -6l-13 -4q-4 -2 -10 -4q6 -20 4 -43q-2 -29 -22 -51q-12 -14 -25 -29l-12 -12q0 -10 -2 -23q-2 -25 -22.5 -24.5t-40 11.5t-19.5 15q-2 20 4 39v21q0 14 2 33q0 8 -2 18q-2 6 -8 12q-16 16 -23 37q-6 0 -12 -4l-4 -12q-4 -14 -19.5 -22.5t-29.5 -2.5 q-14 4 -23 17l-6 -2q-12 -6 -21 -11q2 -14 5 -24v-29q0 -20 -12.5 -28.5t-28 -5.5t-28.5 8.5t-15 9.5q-14 25 -15 47q-2 14 2 29q-8 14 -20 26l-17 14q-2 4 -6 9q0 -4 2 -11q14 -12 15 -30v-15q0 -12 2 -30q2 -20 0 -41q-2 -12 -2 -33v-36.5v-33.5q0 -12 2 -20q2 -10 6 -21 q2 -6 12 -16t21 -18q18 -12 34 -29q6 -8 13.5 -11.5t15.5 -5.5h27q10 0 20 2q20 6 45 5q18 -2 47 -9q27 -6 39 -8q8 0 19 2l16 2q14 2 25 -4l16 8q23 10 39 17q12 6 23 12q6 4 10 12l6 17q8 14 23.5 20t31 -1t20.5 -22.5t-1 -29.5l-9 -18q-4 -8 -10 -17q6 -4 8 -10zM188 543 h11q18 0 45 -2q25 -2 39 -2t28 2q16 0 32.5 1t33.5 1h31q18 2 41 2h35.5h43.5q25 0 35 2h27q10 4 20 2h54q4 4 4 6q2 8 0 16q-2 16 -4 33q-2 10 -7 19q-2 4 -2 6q-6 -4 -14 -4q-16 -2 -29.5 7t-15.5 25l-2 19h-23h-22q-16 -2 -33 -2q-20 2 -43 10q-6 2 -12 2q-8 0 -17 -2 q-8 -14 -12 -25v-2q-2 -16 -12 -27.5t-27 -13.5h-2q-43 -14 -69 27q-6 10 -19 23l-2 2h-12q-10 0 -19 6l-2 -2q-16 -14 -30 -25q-10 -8 -20.5 -22.5t-16.5 -26.5q-4 -12 -8 -31q-3 -12 -5 -24z" />
<glyph unicode="f" horiz-adv-x="966" d="M457 807q8 -2 18 -2q18 -2 35 -4q20 0 37 -2h6q8 0 18 2q12 2 23 2l8 8q29 23 53 -2q16 0 27.5 -10.5t13.5 -26.5t-9 -28.5t-25 -14.5l-15 -2q-8 0 -18 -2q-6 -4 -13 -10q-8 -8 -12 -17q-8 -14 -20 -30q-12 -18 -35 -24.5t-45 7.5l-15 15v-4q-2 -14 -2 -29 q0 -18 -39.5 -18.5t-39.5 16.5q-2 14 -2 31q-2 12 -3 26l-2 2q0 -20 -2 -39v-35v-45v-86q2 -14 0 -30q0 -10 -2 -21v-43v-176q0 -23 -2 -39q0 -14 -2 -26q0 -16 -1 -34t-3 -34q-2 -10 -2 -23q2 -16 2 -32v-15v-2v-8v-31q0 -16 -2 -30t-2 -27q-2 -10 0 -18q4 -20 4 -39v-25 q2 -18 4 -31q0 -14 2 -30q0 -14 1 -30.5t1 -31.5v-61q0 -8 4 -17l9 -16q8 -14 3 -30.5t-19.5 -23.5t-30 -3t-23.5 18l-8 18q-14 25 -15 54v61q0 12 -2 29v29q-2 14 -2 28q-2 23 -4 31v33q0 8 -2 20q-4 20 -2 41q0 14 2 29q2 10 2 22v31q0 12 -2 25q-2 10 -6 18 q-12 23 -12 49v31q0 20 8 43q6 12 8 25q4 12 4 22v25q-2 2 -4 6q-14 20 -22 41q-8 23 -7 47q2 16 7 33q2 16 10 34q6 16 14 35q8 12 12 27v16q-2 12 -6 23q-4 18 -8 35q-4 29 12 55v2q-31 -8 -45 18l-12 21q-10 20 -12 41h-15q-6 0 -16 -4q-2 -2 -4 -2q-2 -6 -4 -15l-41 -22 q-37 -12 -41 20q0 8 -4 19q-8 18 -17 35q-14 39 11 71q23 29 57 31q12 0 35 2q23 4 41 4q10 2 22 2h17q6 2 12 2l21 -2h8q2 12 4 29q6 27 8 41q4 18 8 45q6 29 15.5 53.5t22.5 48t28 43.5q14 16 26 33q16 14 33 29q14 10 31 20q14 8 29 17q16 10 36 16q18 6 37 10q20 6 43 6 q18 2 35 2h31q12 0 26 2q23 4 39 4q25 0 47 -12l15 -6q14 -8 19 -23.5t-1 -29.5l-8 -15l-4 -8q0 -16 -12 -28q-8 -8 -21 -11q-4 -4 -4 -6q-2 -6 -2 -12q2 -16 4 -37v-35q0 -20 -8 -41q-12 -29 -43 -25.5t-41 23.5q-12 23 -12 49q0 20 2 35q2 10 2 23q-16 -2 -28.5 6 t-16.5 22l-2 4h-15v-10q-2 -20 -8 -39q-8 -25 -42 -24.5t-42 24.5q-2 8 -10 19q0 2 -2 2q-6 -4 -12 -12q-8 -16 -19 -33q-10 -16 -24 -37q-14 -20 -43 -47l-23 -21q-4 -23 -6 -37q-4 -16 -10 -45q-2 -10 -2 -18h12h18q9 2 17 -2z" />
<glyph unicode="g" horiz-adv-x="892" d="M751.5 819q16.5 0 29 -11t12.5 -28v-20q0 -20 -2 -53t-3 -54v-147v-51l-4 -54v-50t-4 -52q-4 -23 -4 -41q0 -25 -4 -49q-2 -23 -2 -41q0 -20 -2 -39v-35v-196q0 -16 -2 -33q-2 -12 -2 -23q0 -16 -2 -35q-2 -12 -2 -24q-2 -18 -8 -45q-4 -23 -9 -39q-2 -16 -8 -39 q-2 -10 -6 -20q4 -12 -2 -25q14 -14 12 -35l-4 -16q-2 -18 -12 -41q-8 -23 -18 -43q-4 -10 -5 -19q0 -16 2 -30l3 -19q2 -16 -8.5 -29.5t-26 -15.5t-28.5 8.5t-15 26.5l-2 10q-29 8 -39 33q-8 25 -6 47v4v-2q-20 -29 -58 -26q-27 0 -51 16q0 -16 -6 -31q-4 -8 -4 -16 q2 -16 2 -33v-29q0 -20 -10 -41q-16 -31 -36 -27.5t-36 23.5l-14 19q-10 29 -11 47v26q-2 18 0 35v17q-18 0 -37 4q-12 2 -26 0t-29 -8h-4q-2 -10 -2 -21q-2 -14 -42 -14t-40 18v27q-2 16 -4 26q-4 16 -4 35q0 10 -2 23q-2 8 -6 18t-13 23l-10 14q-14 18 -4 41q-6 12 -12 27 q-4 12 -10 24l-5 15q-8 14 -1.5 29.5t21.5 22.5t30.5 1t21.5 -23l6 -12q6 -14 13 -31q4 -10 14 -24q8 -16 20 -31q12 -14 29 -27q12 -10 31 -18q23 -8 34 -12t25 -9q14 -2 29 -4h31q12 0 24 2q18 4 43 7q23 2 41 6q16 4 33 8q16 6 29 10q14 6 28 10q10 4 27 13q8 2 12 10 q8 10 10 24q6 18 9 35q2 16 8 39q-16 12 -15 33l3 20v29q0 16 4 55v7q-2 4 -2 8l-2 4l-3 8q-8 25 -15 46.5t-11 41.5q-6 20 -8 38.5t0 35.5q-8 -2 -15 -6q-8 -4 -16 -13q-16 -18 -35 -28l-12 -6q-14 -8 -29.5 -4t-23.5 18q-4 4 -5 10q-12 -6 -22 -12q-6 -6 -10 -12 q-10 -16 -25 -35q-14 -14 -26 -23q-16 -16 -29 -26q-6 -6 -24.5 -10.5t-37 4t-18.5 34.5v33q2 4 0 8q-4 8 -16 23q-8 12 -15 30q-10 4 -20 9q-18 10 -35 22q-16 12 -33.5 32.5t-30.5 47.5q-14 27 -18 51q-2 14 -4 33q-4 18 -6 38.5t-4 47.5q-2 20 -4 41q-2 23 -4.5 46.5 t-2.5 37.5q0 16 5 39q2 20 6 41q4 23 12 45q6 20 12 39q8 23 22.5 44t33.5 40q16 16 30 28q16 16 37 29q20 12 45 22.5t41 14.5q14 4 29 10q18 4 43 8q23 2 45 7q25 4 51 4q27 0 49 -6q18 -4 37 -13q12 -4 23 -6q20 -4 43 -20q16 -10 32 -23q6 -4 13 -8v16q0 16 11 27.5 t27.5 11.5zM281 236q6 -10 10 -21q4 -12 11 -23.5t17 -23.5q12 -16 19 -33h2q16 -2 33 0q20 2 45 4q23 4 71 11q45 6 66 12q20 4 41 10q16 6 33 12q20 6 35 13h6q10 8 22 8q0 4 2 12q2 20 2 41q0 25 4 53q4 20 5 41v51q2 27 4 56v47v133l-13 8q-2 -4 -4 -6l-10 -14 q-16 -23 -39 -33q-6 -2 -12 -6q-4 -14 -6 -29q-4 -12 -7 -22v-19q0 -4 -18 -17.5t-36.5 -17.5t-24.5 19q-4 20 0 43v8q-2 23 2 41t16 35q2 6 0 10q0 12 -6 25q-8 14 -16 24q-8 8 -17 14v-2q-10 -20 -41 -23t-45 21q-2 2 -2 4q-4 -2 -8 -6q-4 -6 -4 -14q-4 -16 -4 -29 q-4 -16 -11 -35q-8 -25 -28.5 -26.5t-36.5 8.5t-21 18l-4 7q-10 -12 -24 -21q-12 -6 -31 -22q-16 -12 -27 -33q-16 -25 -26 -43l-10 -19q-4 -6 -11 -10v-8q0 -12 2 -33q0 -20 4 -41q2 -23 5 -47v-18q6 -2 10 -6l20 -21q6 -6 13 -10h10q16 -2 26.5 -15.5t10.5 -27.5 q-2 -8 -4 -14zM598 735q0 2 2 4h-6zM346 727q2 0 2 -2v2h-2z" />
<glyph unicode="h" horiz-adv-x="915" d="M219 37q16 -6 22.5 -21.5t0.5 -29.5l-6 -15q-4 -12 -9 -24q-2 -6 0 -15q0 -12 2 -26q2 -20 -2 -39l4 -8q12 -16 2 -47t-40 -33q-41 -2 -64 33q-16 27 -10 57q2 16 3 29.5t3 38.5q0 27 2 43t6 34l2 17q2 6 4 10q-2 10 -2 25q0 16 -2 34v43v97v51q0 20 -2 47q-2 31 -4 55 q0 27 2 60q2 31 4 59q2 31 4 58.5t4 56.5q2 31 4 55q2 23 0 45q0 25 3 49v2q-2 4 -3 10l-4 19q-2 18 -4 37q-2 10 -6 26q-2 8 -6 13q-27 23 -25 55q2 31 27 55q8 6 16 29q4 10 5 18q-6 12 -13 25q-18 37 13 72q6 4 8 8q12 23 37 22q16 0 27 -12t11 -29v-43q0 -20 -2 -36v-29 v-33q2 -20 2 -39v-88q0 -23 -1 -44t-3 -44q-2 -20 -2 -41.5v-44.5q4 2 11 4q8 4 16 4q12 2 22 4q14 4 29 6q12 2 35 7q27 4 43 4q12 2 41 4t43 4q16 2 39 4h37q16 0 35 -2q14 -2 26 -4q14 -2 37 -6q25 -6 45 -15q23 -8 43.5 -26.5t34.5 -44.5q14 -25 18 -43q4 -16 11 -45 q4 -29 8 -45t6 -41t4 -43v-43q0 -20 2 -43v-43v-37v-113q0 -23 -2 -41q-2 -14 -2 -24v-33v-37q0 -14 -2 -29q4 -14 0 -26l-6 -19q-4 -14 -4 -26q2 -20 -2 -41q0 -2 -2 -9v-30l-5 -4q2 -6 0 -13v-28q0 -20 -6 -41q-2 -10 -2 -19v-26q0 -12 2 -31v-19q2 -16 -9 -29.5 t-27.5 -14.5t-28.5 10.5t-15 27.5v21q-2 20 -2 35v26q0 18 7 39q2 10 2 21v30v9q0 2 -2 2q-6 16 -13 32q-4 12 -8 23q-12 23 -8 49q0 16 4 33q2 14 6 31q2 14 4 30v29q0 8 -2 18q-4 18 -8 37q-2 18 -4 35q-2 20 0 39q4 16 10 35q4 16 10 35q2 2 2 6t2 10l3 12q2 10 2 29 q0 14 -2 24q-4 16 -7 31q-2 8 -6 19q-6 12 -12 26q-12 20 -14 43q0 12 -4 25q-2 18 -3 35q0 10 -4 22q-2 10 -6 23q-10 18 -14 35q-6 16 -6 34q-4 -2 -8 -2q-16 -4 -33 -4q-4 -2 -13 -8q-6 -4 -10 -12q-2 -8 -2 -13q2 -8 2 -18q6 -10 6 -20q4 -18 -36.5 -21.5t-42.5 10.5 q-18 14 -29 35q-10 18 -14 39q0 4 -3 10l-30 -22q-2 -31 -25 -45q-8 -6 -16 -15q4 -8 6 -18q12 -25 6 -57q-2 -6 -20.5 -17.5t-39 -11.5t-26.5 27q-2 10 -6 20q-2 10 -8 18q-10 12 -21 27q-16 29 -10 59l-2 2q-16 4 -27 19l-6 -4q-2 -14 -2 -27q-2 -27 -4 -57q-2 -29 -4 -60 q-2 -27 -2 -49q2 -25 4 -53q2 -31 2 -55v-49v-97v-34q2 -25 2 -41q0 -14 2 -25v-6z" />
<glyph unicode="i" horiz-adv-x="425" d="M197 819q16 2 28.5 -9t12.5 -28q8 -6 12 -16l6 -14q6 -18 10 -35q6 -20 8 -43v-41q-2 -25 -8 -43q-4 -12 -4 -23q-2 -10 -2 -23.5t2 -39.5q2 -18 8 -29q8 -16 17 -31q8 -14 14 -32q6 -16 8 -33q6 -31 -10 -57q-12 -18 -31 -33q-6 -4 -10 -10v-9q0 -12 2 -24v-33v-25v-26 v-31q-4 -20 -16 -43q-2 -4 -2 -6v-12q6 -18 6 -35v-21q2 -16 2 -32v-7v-6v-147q0 -18 -4 -37l-2 -16q0 -2 -2 -5q6 -12 4 -24l-2 -19q-2 -16 -4 -30v-25q2 -18 2 -45v-37v-14q0 -16 -12.5 -27.5t-29 -11.5t-27.5 11.5t-11 27.5v14v37t-2 39q-2 20 0 39q2 12 4 27 q-27 18 -17 49l9 20q6 14 6 21q0 14 2 30v25v29q0 14 2 30q2 12 2 25q2 10 2 19.5t-2 19.5q0 14 -2 29q-2 10 -2 24q-14 23 -14 45q0 16 4 37q4 16 8 35v2v27l-4 12q-12 20 -17 43q-4 23 -4 41q0 16 4 35.5t15 37.5q2 2 2 5v2v59q-4 10 -6 29q-4 18 -5 37q0 18 5 38 q4 12 8 29v10v29q-8 14 -19 31q-14 27 -12 55q2 18 6 35q4 12 8 27l2 14q4 12 15 20q0 14 11.5 25.5t25.5 11.5zM254 1030q-6 -4 -10 -6q-10 -8 -23 -20q-4 -4 -6 -9q-2 -16 -2 -30q-2 -10 -42 -14.5t-40 16.5q0 8 -2 20q0 8 -4 21q-6 14 -14 28q-18 37 2 70q4 10 8 18 q2 10 0 17q-2 27 10 49q14 27 41 37q23 10 47 8l12 -2q14 -2 23 -12l12 -4q27 -10 45 -39q25 -37 6 -74q-2 -6 -6 -12v-2q-2 -2 -2 -3l2 -16q4 -16 -5 -29.5t-25 -17.5q-15 -2 -27 6z" />
<glyph unicode="j" horiz-adv-x="782" d="M211 -485q-10 10 -19.5 19t-21.5 15l-12 11q-20 10 -21 34l-16 11q-12 8 -16.5 24.5t4.5 30.5q14 25 43 16q2 2 4 5q14 8 30.5 5t24.5 -18l16 -24q10 -2 21 -4q20 -2 43 -7q10 -2 18 -2q12 4 25 9q12 4 28 14q16 12 25 22q12 14 25 31q10 10 12 19v2q0 6 -2 12 q-4 18 -6 35q-2 14 -2 30v37q0 20 2 41t4 41q2 18 4 31q2 14 6 31q2 14 4 26t2 27q0 25 4 41q2 12 6 31q4 14 9 28q2 16 6 35q4 14 4 23q0 18 4 39v4q2 2 2 4q0 10 -2 25.5t0 31.5q-4 12 -10 29q-6 20 -6 41q0 10 -2 20q-4 18 -4.5 34.5t4.5 37.5q4 18 12 39q0 4 2 6v24v31 q2 10 2 37v43v2q-10 18 -18 35q-8 23 -11 39q-6 29 11 53q6 12 12 27q8 12 14 26l6 15q6 12 21 18q10 4 22 2q4 0 8 -2h5q8 -6 14 -16q8 -12 6 -27l-2 -16q-2 -12 -2 -23q0 -14 -2 -33q-2 -16 -2 -32q-2 -10 -2 -23q14 -6 22.5 -19.5t3.5 -27.5l-2 -12q-2 -8 -2 -17v-28 q2 -18 4 -35q0 -12 5 -23q2 -12 6 -26t6 -33q2 -14 2 -31q0 -10 2 -18q2 -16 4 -39q2 -18 2 -31q2 -10 6 -22q6 -20 8 -41q2 -14 4 -31q4 -20 5 -39v-27l2 -18q0 -16 -10.5 -28.5t-26.5 -14.5q-29 -2 -41 25v-7q-2 -10 0 -22v-31v-53q0 -14 -2 -31v-35q0 -27 -2 -41 q0 -16 -2 -30q-2 -12 -4 -29q-2 -18 -9 -37q-4 -14 -6 -33q-4 -18 -6 -32q-2 -18 -6 -39q-2 -8 -4 -15v-24q0 -14 -2 -33q-2 -12 -2 -25v-26q0 -10 2 -23q0 -10 2 -24t2 -29q0 -14 -2 -31v-26q0 -18 -23 -23v-4q0 -6 2 -14q12 -23 13 -49v-19q0 -16 -12.5 -27.5t-29 -11.5 t-27.5 11.5t-11 27.5v19q0 8 -4 16q-10 25 -11 47q0 18 3 35v24v11v2l-3 2q-6 4 -12 4h-24q-18 0 -35 2q-12 2 -25 2q-8 -6 -10 -11t-6 -9q2 -20 4 -50l4 -47q2 -14 -9 -27.5t-27.5 -14.5t-29 9.5t-14.5 26.5l-4 45q-4 46 -4 62zM651 1055v-2q-2 -16 -6 -35l-2 -17 q-2 -16 -15.5 -26t-29.5 -7t-26.5 16t-6.5 30l2 16q2 8 2 17v-3q-14 -8 -26 -16q-8 -6 -15 -12q2 -6 2 -15l-4 -38q0 -16 -12 -26.5t-28.5 -9.5t-28 13t-8.5 29l2 35q-14 8 -11 20q2 8 2 16q0 10 2 35q0 12 -4 21q-16 27 -14 51v4v6q2 25 18 51q16 31 41 45q23 10 47.5 11.5 t47.5 -11.5q29 0 38 -24q20 -4 29 -23l10 -28q12 -31 19 -54l4 -20q4 -16 -4.5 -30.5t-24.5 -18.5zM535 1143z" />
<glyph unicode="k" horiz-adv-x="907" d="M717 766q10 -12 8 -28.5t-14 -26.5l-15 -13q-4 -4 -6 -8q-2 -6 0 -14q4 -16 10 -37q6 -23 11 -35q8 -29 -2 -55q-8 -20 -26.5 -25.5t-34 -0.5t-23.5 14q-20 20 -33 47q-2 6 -6 12l-4 -8q-12 -20 -33 -35q-12 -37 -43 -49q-20 -6 -45 -8q0 -2 2 -4q27 -10 26 -37l3 -15 q0 -4 2 -10q4 -10 14 -27q8 -12 16 -20q16 -10 33 -25q16 -12 31 -22q14 -12 26 -21q23 -14 35 -36q12 -20 19 -46q4 -18 8 -32q0 -2 3 -12.5t5 -16.5q4 -4 10 -12q10 -12 29 -35q18 -25 33 -49q10 -20 24 -37l17 -19q10 -14 8 -30.5t-14 -26.5q-14 -12 -35 -8 q-6 -10 -13 -21l-8 -14l-2 -2v-2q4 -14 -5 -28.5t-24.5 -18.5t-30 5t-18.5 24l-4 14q-2 14 -6 27q-8 27 0 51q4 10 4 20q2 12 2 21q-2 12 0 22q-8 6 -12 15l-6 8q-4 0 -8 -2q-41 -10 -66 28q-8 12 -18 25q-6 8 -13 12q-20 14 -34 37q-14 25 -15 53v7q-23 4 -43 18 q-29 20 -28 53l-5 10q-8 14 -16 29q-8 16 -16 33l-6 12q-10 10 -23 29q-4 -8 -8 -14l-6 -5q8 -16 8 -30q2 -25 -10 -47q0 -4 -2 -7q-2 -4 -5 -8l-53 -69q-16 -25 -45 -15q-2 -12 -6 -22q-2 -4 -2 -8q0 -23 -2 -43q0 -18 -2 -33v-10v-9q0 -14 -2 -30q0 -12 -2 -23 q-2 -8 -2 -18l2 -13q0 -6 -2 -12v-2q27 -10 26 -37v-16q0 -20 -6 -39q-4 -12 -6 -27q0 -4 2 -14q4 -16 8 -33q4 -20 4 -41q-2 -20 -8 -37q-2 -6 -2 -14q2 -18 2 -35v-31q0 -14 2 -30l4 -19q2 -16 -8 -29.5t-26.5 -15.5t-29.5 8.5t-15 26.5l-3 19q-4 20 -4 40v31v27 q-2 25 4 45q2 10 5 20q0 10 -2 17q-2 12 -9 28q-4 20 -4 37q-18 18 -10 43l4 13q2 6 2 14t-2 14q-6 18 -10 37q-2 20 2 41q2 16 4 33l2 2v6v25v16v27q-2 20 2 39q0 6 2 12v37q2 25 4 53v39q-4 4 -10 8q-10 10 -10 27.5t12 27.5l6 6q-6 18 -6 39v29q-2 16 -2 31v30 q0 16 -2 31v39q2 14 2 27q0 8 -2 18q-2 6 -6 17q-16 23 -17 47q0 20 7 41q2 12 6 24q2 14 6 31q2 8 2 18t-4 21q-8 18 -10.5 36.5t2.5 39.5q2 23 16 43q6 12 10 22t8 21q0 4 -2 14q-2 23 0 41v14q2 8 4 15v14q-2 16 8.5 29.5t27 14.5t29.5 -9.5t13 -26.5l2 -16q2 -16 2 -45 v-47q0 -20 -2 -48v-43q0 -25 -2 -53q-2 -29 -2 -55q0 -31 -2 -66q-4 -33 -4 -65v-199q14 12 31 27q18 16 43.5 36.5t52.5 37.5q23 16 43 34q23 20 47 39q25 18 47 37q23 14 39 31q20 16 40 31.5t36 28t37 26.5l20 16q14 8 30.5 6t27.5 -16q12 -18 2 -41z" />
<glyph unicode="l" horiz-adv-x="555" d="M210 1183q15 -3 24.5 -17.5t7.5 -30.5l-4 -19q-4 -18 -7.5 -42.5t-3.5 -37.5v-35v-40q-2 -20 -4 -43v-44v-49q2 -29 2 -51t2 -49v-59q0 -31 2 -56q2 -29 2 -57v-45q2 -8 7 -16q10 -27 0 -54q-4 -8 -5.5 -20t-0.5 -23.5t4 -21.5q8 -23 6 -45q0 -10 4 -25q4 -23 6 -37 q4 -20 4 -39q-2 -18 -6 -37q-4 -16 -12 -34q0 -4 -2 -9q4 -16 4 -34v-29q6 -23 6 -41v-4q0 -2 2 -6q4 -12 12 -27q4 -8 12 -14q12 -8 21 -10q12 -2 31 -7q20 -4 43 -8l4 -2v4q0 16 11 28.5t27.5 12.5t29 -12t12.5 -29v-69v-27l2 -16q2 -31 -27 -41v-6v-25v-29q0 -8 2 -18 q2 -14 6 -29q2 -18 2 -41q0 -20 -4 -43l-2 -22q-2 -16 -15.5 -26.5t-29.5 -8.5t-26.5 15.5t-8.5 29.5l4 22q2 18 2 35q0 12 -2 23q-2 14 -4 26q-4 18 -4 37v13q-6 -8 -14 -15q-14 -10 -30.5 -6t-25.5 16l-10 15q-16 25 -14 55v2h-2q-2 0 -4 2q-2 0 -2 -2q-6 -20 -43 -16 t-39 26q-2 4 -6 13q-27 35 -15 69q6 18 23 35v23v30v13q0 4 -2 10q-2 14 -2 35q-4 14 -6 28q-2 25 0 43v9v18q0 16 -2 37v45v235q-8 14 -15 31q-4 14 -10 29q-4 16 -6 35q-4 20 0 43q2 10 0 18q0 14 -4 25q-2 14 -6.5 33.5t-6.5 33.5q-4 23 0 47q2 12 2 25v27q0 18 5 38 q2 12 2 25q2 23 8 41q2 8 2 21q0 25 8 47q6 12 10 28q4 10 4 23q-2 16 -2 33v14q-2 23 17 35l4 10q2 16 16.5 25.5t29.5 6.5z" />
<glyph unicode="m" horiz-adv-x="1290" d="M131 877q8 2 16 2q10 4 23 2q16 -4 25.5 -17.5t5.5 -29.5l-2 -15v-12v-2q10 -16 18 -41v-2q16 23 41 41q29 18 49 26q16 6 35 11q16 6 35 10q20 4 41 6h35q18 0 34.5 -2t32.5 -6q18 -4 46 -18.5t46 -30.5q23 -18 39 -47q12 -20 19 -35l4 4q10 20 28 39q16 14 39 28 q20 14 43 25q20 10 39 18q25 12 47 17q20 4 37 8q25 4 47 4q20 2 43 -2q27 -2 50.5 -12t46.5 -29q23 -18 34 -39q10 -18 21 -41q12 -27 16 -55q4 -20 9 -31q2 -10 4 -22l6 -17q4 -10 2 -22q2 -16 2 -35q2 -27 0 -51v-37q-2 -16 -4 -31.5t-4 -32.5q-2 -16 -2 -28 q-2 -18 -4 -37q-2 -14 -5 -31q-2 -12 -2 -26q0 -12 -2 -29v-31q-2 -16 -2 -33q-2 -16 -4 -43q-2 -25 -4 -47q-2 -23 -2 -39q0 -6 -2 -12q25 -18 16 -45l-6 -18q-2 -8 -4 -23q-2 -8 -6 -22v-2v-3v-51q0 -12 2 -22q2 -18 2 -37q0 -14 2 -29q2 -20 -2 -41q-2 -10 -2 -20v-27 q2 -14 2 -31v-16q2 -16 -9 -28.5t-27.5 -12.5t-29 11.5t-14.5 27.5v14q0 18 -2 31v31q0 18 4 37q2 8 0 18q-2 16 -2 35q0 10 -2 20q-2 18 -2 39v39q-4 4 -2 10q0 4 2 11v10q0 8 2 14q-6 10 -6 21v14q0 8 2 16q-2 10 -2 21q0 10 -2 18q-4 14 -8 31q-4 18 -6 39q-2 20 -2 32.5 v30.5v29q0 8 -2 19q-4 14 -7 47q-6 41 4 65q8 12 15 29q4 8 4 16t-2 13q-6 12 -12 26q-10 20 -9 45v15q-18 -29 -49 -17q-14 6 -21 21.5t-1 29.5l4 13q-8 23 -12 37q-4 20 -3 40q2 14 5 33q2 8 0 19v2l-17 2v-12q-2 -16 -6 -33q-4 -23 -22 -45q-8 -8 -9 -15q-2 -8 -2 -14 q2 -8 6 -18q10 -20 15 -43q0 -8 -2 -15q2 0 2 -2l6 -6q12 -10 12 -27.5t-12 -27.5q-6 -8 -16 -10q0 -2 -3 -5q-10 -8 -22 -10q-16 -14 -37 -6q-14 4 -22.5 19.5t-2.5 29.5l9 25v2q-14 16 -17 39l-4 16q-4 6 -12 14q-14 14 -29 33q-20 27 -22 53q-4 -6 -8 -14q-8 -16 -15 -33 q-4 -14 -4 -20q-2 -10 2 -27q2 -18 6 -35.5t11 -35.5q6 -20 8 -39q4 -27 -4 -52q-2 -14 -11 -26l-2 -2l-10 -25q-8 -16 -10 -28q-2 -18 0 -31v-47q2 -35 -2 -58q-2 -25 -10 -43q-10 -23 -42 -23.5t-42 23.5q-6 14 -13 33q-6 20 -6 41v92q0 8 -2 15q-6 16 -6 32q-2 16 -2 39 q2 16 2 27q-2 10 -4 27q-4 20 -4 38q0 25 8 45q6 12 12 29q2 2 2 6l-2 4q-16 6 -20 23l-2 4h-6q-35 4 -54 41l-2 8l-10 -8q-2 -2 -6 -4l-2 -2l-8 -15q-6 -10 -9 -18q-2 -12 -4 -25q0 -8 2 -14q16 -39 -12 -72q-10 -10 -18 -22l-11 -14q-8 -12 -24 -15.5t-29.5 6t-16.5 25.5 t5 31l10 12q8 14 21 27q-6 23 -6 43q2 10 4 22q-18 20 -4 45q-10 20 0 39l8 19q0 4 2 10l2 8q-6 4 -12.5 9t-10.5 9l-12 -24q-6 -16 -12 -31q-4 -14 -13 -35l-2 -2v-2l4 -8q10 -12 6 -28.5t-18 -24.5t-30.5 -4t-24.5 16l-2 4q-10 2 -19 10l-6 7q-10 10 -10 24l-2 2 q-4 -6 -6 -10l-4 -12q23 -16 14 -43l-4 -15q-2 -10 -2 -18q0 -16 -2 -41q-2 -23 -2 -47v-72q0 -23 -2 -45q-2 -20 -2 -39q-2 -12 4 -43q10 -41 8 -59l-4 -33q-4 -33 -4 -45l-2 -16q-2 -14 -15 -27v-2q-6 -10 -8 -23q-4 -12 -6 -24q0 -2 2 -8q10 -23 12 -43q2 -25 -10 -50 l-6 -14q-8 -14 -23.5 -19.5t-31 2t-20.5 23t3 29.5l7 14q2 6 2 8q0 8 -5 17q-14 29 -8 55q0 6 2 14q-8 10 -8 23v12q-2 16 0 35q2 14 2 29v28v29q0 20 2 39q2 12 2 25v30t-2 37q-2 25 -2 43v129q-6 10 -12 25q-14 29 -14 57q-2 33 14 59q4 8 6 15v24l-4 50q-4 29 -4 53 q2 10 0 20q-8 14 -12 31l-5 16q-4 16 4.5 31t22.5 19zM1038 618l2 3h-2v-3z" />
<glyph unicode="n" horiz-adv-x="931" d="M192.5 812q16.5 1 28.5 -10t15 -28v-8q10 8 20 14q23 12 47 21q25 10 41 12q14 0 31 2q20 2 35 4q12 0 32 2q23 2 50 4q25 0 34 2q18 0 37 -2q12 -2 25 -2q16 0 41 -4q29 -6 48 -15t38 -26q18 -16 33 -37q12 -18 26 -47t21 -49q4 -18 6 -39q2 -14 6 -26q6 -18 8 -35 q0 -14 4 -37q0 -18 3 -36.5t7 -37.5q2 -20 2 -41v-37q0 -20 -2 -47q0 -25 -2 -45q-2 -16 -4 -33v-36t-2 -35q-2 -16 -4 -35v-37q0 -25 -2 -47q-2 -18 0 -33v-14q0 -6 -2 -10l4 -15q10 -29 2 -59l-6 -19q-6 -20 -27 -26q-2 -10 -4 -21q8 -10 11 -22v-17q2 -16 2 -34 q0 -20 -2 -35v-23v-14q0 -16 -12.5 -27.5t-29 -11.5t-27.5 11.5t-11 27.5v14q0 16 2 31v27v28l-2 15q-2 8 2 18q-16 6 -17 23q0 20 7 41q2 12 6 22v12v13q-2 4 -4 10q-8 20 -11 41q0 12 -2 26q-2 20 0 43t4 39q2 12 2 25q0 12 -2 29q-2 18 -6 43q-4 27 -4 45q0 23 5 44 t14 38q6 10 10 22q4 6 2 12q0 14 -4 29q-2 16 -6 29q-4 16 -7 31q-4 16 -4 36q-2 14 -4 25q-6 18 -8 35q-2 18 -4 30q0 6 -6 13q-10 14 -19 33q-8 23 -8 45q0 8 -2 16h-2l-2 -2q-4 -4 -6 -8q-4 -10 -6 -21q-2 -12 -6 -26q-2 -8 -42 -6t-38 18v4q-6 12 -15 23q-10 14 -18 28 h-4l-2 -10q-4 -16 -18.5 -24.5t-30.5 -6.5q-12 4 -21 15q-4 -12 -10 -27q-4 -14 -6 -27q0 -4 -2 -8q4 -14 4 -31q2 -16 2 -28q0 -18 -4 -37l-2 -14q-2 -10 -10 -19q8 -25 -9 -41q-12 -10 -28.5 -10t-28.5 10l-6 6q-12 12 -12 28.5t12 29.5l2 2v8l4 14q2 12 2 23q0 12 -2 26 q0 8 -2 15l-4 4q-20 25 -21 57q0 10 2 21q-6 -4 -10 -4l-14 -7q-20 -8 -37 5q-6 -14 -8 -26.5t0 -23.5v-14q2 -18 -12 -33v-14q-2 -25 -7 -51q-4 -29 -8 -56q-2 -27 -4 -54.5t-2 -53.5q-2 -31 -4 -55q-2 -25 -2 -48q-2 -23 -2 -43v-28q4 -14 10 -25l12 -28q4 -14 11 -29 l6 -17q6 -14 0 -29.5t-21 -21.5q-2 -4 -2 -10q2 -12 4 -20q8 -27 -2 -54q-8 -10 -26.5 -9t-37 13.5t-14.5 22.5q0 6 -2 14q-2 12 -2 25q-23 10 -22 35v12v37q0 25 4 45q2 12 2 27q-4 14 -6 24q-4 20 -4 41v29q0 10 -2 22q-2 14 -2 31q0 12 -4 22q-4 18 -5 39q-2 20 -2 37 q2 20 11 41q8 18 18 37q6 10 8 16q2 14 6 29q2 12 5 27q2 10 2 20v53q0 14 2 31q2 16 6 31q0 18 -2 29q-2 23 -2 43v18q-2 16 9 28.5t27.5 13.5z" />
<glyph unicode="o" horiz-adv-x="927" d="M586 791q16 8 32 4l15 -4q20 -6 41 -17q16 -10 33 -24q18 -12 32 -35q14 -18 25 -35q12 -18 22 -37q8 -20 17 -43q10 -27 14 -53q4 -25 6 -49q2 -23 2 -43q0 -25 -4 -43q-4 -14 -8 -33q-4 -14 -10 -43q0 -8 -4 -19q2 -2 4 -2q14 -6 20 -21t0 -32l-8 -16q-4 -12 -4 -19 v-14q0 -27 -25 -37l-2 -10q0 -4 2 -8q8 -23 7 -45l-2 -15q0 -16 -13.5 -27.5t-29.5 -9.5q-8 2 -17 7q-23 -12 -43 4q-2 -4 -4 -6q-10 -14 -22 -29q-2 -2 -5 -2q10 -27 -8 -45l-14 -13q-4 -2 -4 -4v-28v-13q0 -16 -12.5 -28.5t-29 -12.5t-27.5 12.5t-11 28.5v13v28 q-6 2 -10 9q-6 6 -11 12q-10 -4 -18 -6q-16 -4 -31 -6q-12 -4 -22 -7q-14 -4 -31 -10q-8 -2 -16 -6q-2 -12 -4 -25q-2 -12 -5 -24q-4 -27 -41.5 -26t-42.5 22q-2 6 -6 12q-16 25 -18 51v23q0 4 -4 10q-14 20 -19 41q-6 4 -14 8q-10 8 -22 17q-10 -25 -37 -25 q-16 0 -27.5 11.5t-11.5 27.5v16v15q-2 10 -2 20l2 19q0 4 2 6q-6 10 -12 24q-8 23 -17 43q-8 25 -14 41q-4 16 -6 45q-4 25 -7 39q-2 14 -2 27q-4 18 0 47q4 23 8.5 40t8.5 38q6 20 10 39q6 23 14 39q8 20 27 38q12 16 31 35q18 20 35 35q14 14 28 25q14 12 39 26 q25 16 51 27q23 8 41 12q23 8 41 10q16 0 33 3q14 2 37 2q25 2 43 0q16 0 29 -2h6zM692 326q-2 4 -2 10l-4 20q-2 25 -2 41q0 14 2 31q0 8 -2 18t-10 23q-12 20 -19 39q-4 18 -7 35.5t-3 38.5v51q0 29 29 39l-4 4q-12 -20 -39 -19q2 -18 4 -32q2 -27 -8 -50q-8 -25 -35 -38 q-2 -14 -2 -23q-2 -35 -41 -27.5t-43 19.5q-8 25 -6 49q2 16 2 29q2 10 0 20q0 8 -2 19q-4 12 -6 24q-8 -25 -30 -25.5t-38 8.5t-20 15l-13 19q-2 4 -4 6q-12 -14 -27 -27q-14 -8 -28 -20q-4 -4 -6 -9v-8q4 -23 2 -41q0 -8 2 -18q4 -14 10 -31q10 -25 10 -45q2 -33 -26 -55 q-4 -4 -7 -8q-16 -43 -67 -23v-4v-14q4 -18 6 -33v-31v-33q0 -16 2 -30q2 -18 2 -35q0 -6 4 -17q4 -12 10 -22q10 -14 15 -31q18 -10 35 -29q4 -4 6 -8q4 -2 6 -4q10 -4 18 -8q16 -4 37 -8q12 -4 23 -4h24q14 2 29 4q10 0 27 4q18 6 30.5 9t26.5 9q10 4 22 13q16 10 29.5 21 t28.5 24q14 14 22 24q-6 14 -2 27l4 16q4 18 9 33q6 16 16 43l10 23v2zM592 537z" />
<glyph unicode="p" horiz-adv-x="999" d="M295 139q20 2 33 -16l20 -4h21q16 0 34 -2q14 -2 41 -2q25 -2 55.5 -4t67.5 -2q37 -2 60 0q27 2 51 6t45 8q16 4 33 12q12 4 16 12q6 10 8 17q4 12 4 22q2 10 4 35q2 20 3 35q2 16 6 35q0 8 2 14l-4 10q-6 20 8 39q2 6 4 15q2 16 4 34q2 20 2 39v27q-18 8 -20 27l-5 18 q-2 10 -6 18q-8 14 -14 33q-8 20 -8 41q-2 10 -4 25q-4 20 -4 37v26v11q-16 -14 -33 -23q-14 -6 -31 -10q-4 -8 -4 -15l-4 -24q-2 -23 -14 -43q-6 -12 -13 -25q-4 -6 -4 -14q-2 -16 -41 -13t-39 19q0 20 6 41q2 2 3 4q-4 14 -5 29q-2 16 -2 33q0 6 -2 12q-8 18 -10 39v6 q-20 -6 -35 -6l-24 -4q-14 -4 -31 -6q-4 0 -12 -9q-2 -4 -4 -6q-2 -12 -2 -24q-4 -35 -40 -36t-44 13q-12 14 -21 29l-4 6q-2 -2 -6 -4q-12 -10 -24.5 -22.5t-22.5 -26.5q-10 -10 -15 -23l-6 -14q-6 -14 -18 -21v-16q0 -12 -2 -23q4 -14 6 -28q6 -23 6 -39t-2 -31 q-2 -18 -8 -41q-4 -10 -8 -18v-15q-2 -27 -2 -55v-57q-2 -27 -2 -51q-2 -23 -2 -52v-10h10q12 -2 20 -2q13 10 29 10zM258 776q31 -16 18 -49q6 4 11 8q14 12 28 25q16 16 35 28q18 10 39 19q23 10 41 12q14 4 33.5 5t36.5 1h24q12 2 34 2h44q23 0 47 -2q20 -2 37 -4 q18 -2 39 -8q18 -4 35 -6q20 -4 37 -12q23 -12 37 -33q8 -14 18 -33q12 -20 18 -41q4 -16 9 -33q6 -18 8 -43q0 -16 2 -34v-43q0 -18 2 -29q0 -14 2 -29v-35q0 -20 -2 -45q-2 -23 -6 -45q-4 -16 -6 -33v-6l4 -20l4 -4q27 -27 2 -53q2 -10 2 -17v-2q10 -16 4 -35l-8 -20 q-8 -25 -13 -37q-8 -23 -22 -41q-10 -12 -21 -25q-6 -10 -10 -22q-8 -14 -12 -29q-4 -10 -6 -20q-4 -25 -41 -26t-43 22q-2 10 -8 20q-2 4 -4 6h-9h-14q-8 2 -16 0q-18 -4 -39 0q-10 0 -25 2q-8 0 -14 -2q-12 -4 -27 -8q-27 -10 -51 -4h-14q-14 -2 -37 0v-4q0 -20 -8 -41 q-4 -12 -13 -29v-6q4 -27 -6 -51q-12 -31 -41 -41q-20 -8 -39.5 1t-29.5 26q-12 20 -17 41q-2 12 -4 28q-4 16 -4 31q0 10 -4 18q-4 18 -2 41l-2 2q-6 10 -15 21q-6 8 -10 14q-12 0 -24 2h-6v-8q0 -25 -3 -51v-47q-2 -23 -2 -45v-35q6 -10 11 -21q8 -23 10 -45t-2 -43 q-2 -8 -2 -16q2 -12 2 -27v-65v-15v-223q0 -14 -2 -26q0 -16 -2 -33q-2 -10 -4 -25l-2 -14q0 -16 -13.5 -27.5t-30 -9.5t-26.5 14.5t-8 28.5v16q2 16 4 33q2 8 2 19q2 12 2 24v170q-4 10 -4 19l2 14q2 10 2 20v15v4q-12 14 -12 31v12q2 10 -2 24q-4 23 -4 39v90 q-6 14 -13 31q-6 16 -12 27q-8 18 -14 43q-4 25 -4 41q0 20 7 43.5t21 46.5q6 10 10 20q2 4 3 9v4q-2 14 -7 26q-4 12 -12 29q-10 20 -18 41q-10 27 -11 47q0 18 4 37q4 18 17 41q12 18 20 33q10 12 19 24v23q2 27 4 53q2 25 2 45v10q-2 16 -2 31q0 18 2 37v18q-2 18 0 39 q2 18 4 37q2 8 0 12l-4 13q-4 16 3 30.5t24 20.5q4 2 10 2q8 12 23.5 17t29.5 -3z" />
<glyph unicode="q" horiz-adv-x="991" d="M828.5 836q15.5 -2 25.5 -15.5t8 -29.5l-4 -19q-2 -16 -6 -39q-2 -18 0 -26q2 -16 2 -33v-125q10 -10 10 -27.5t-10 -27.5v-21q0 -12 -2 -27q10 -6 12 -16l6 -16q8 -23 9 -43v-29q0 -12 2 -29v-34q0 -12 2 -25q2 -16 2 -31q0 -8 2 -18q2 -16 2 -35q0 -18 -3 -36.5 t-7 -35.5q-4 -10 -7 -24q-4 -18 -8 -35q-4 -16 -10 -35q-4 -12 -6 -22q-4 -18 -6 -31l-4 -12v-33q2 -18 2 -37v-35v-260q0 -16 -13 -29q-2 -4 -6 -8l-12 -16v-9v-16v-12l-4 -14q0 -2 -2 -7q2 -18 2 -36q-2 -18 -2 -31q0 -12 2 -27q2 -14 4 -22q6 -20 4 -45l-2 -15 q-2 -16 -15.5 -26.5t-28.5 -8t-26.5 14.5t-9.5 28l2 17v10q-6 18 -8 39q-2 20 -2 35q0 12 2 33q0 16 -2 32q-2 20 -2 35v12q0 14 8 25q2 20 19 39l12 14q-20 12 -19 37v27q2 18 -2 35q-6 23 -8 36q-6 18 -6 39q0 20 6 43q2 12 4 25q2 12 4 33q2 23 2 39q4 25 15 47q0 2 2 4 v127v2h-2q-2 -2 -4 -2q-16 -12 -35 -21q-18 -8 -41 -8q-4 0 -12 -4q-10 -6 -19 -16q-6 -8 -10 -17q-6 -18 -12 -37q-4 -8 -26 -10t-40 5t-16 28q2 10 2 18v27v2q-18 -2 -39 -2h-25q-10 -6 -18 -12q-18 -12 -39 -19q-16 -4 -37 -6q-6 0 -10 -2q-8 -6 -15 -12 q-10 -18 -42.5 -16.5t-38.5 30.5q-2 12 -7 25q-4 14 -8 32q0 2 -6 9q-2 2 -2 4q-8 2 -16 6q-20 10 -41 24q-20 16 -41 37q-23 23 -35 50q-10 23 -14 40q-6 20 -7 43q0 20 2 41q2 12 2 25q-2 18 0 43q4 20 5.5 39.5t1.5 32.5v75q0 20 4 43q2 18 6 41q2 25 4 41q2 23 14 45 q10 23 23 39q12 14 29 31q16 16 38 29q20 12 43 20q18 6 31.5 11.5t34.5 13.5q25 8 53 12q27 2 62 4l22 2q16 2 43 4q31 2 53 -2q18 -2 33 -6q16 -2 35 -6q16 -6 35 -12q20 -10 41 -31q18 -18 28 -35q8 -14 19 -31q4 -6 8 -14q0 6 2 12q2 25 6 43l2 17q2 16 16.5 25.5 t30 7.5zM719 647q-25 0 -35 21l-8 12q-6 12 -12 27q-4 -25 -25 -27t-39 10l-16 10q-8 16 -13 31q-2 10 -8 21q-6 10 -14 22q-6 2 -12 0q-8 0 -19 -4q-16 -6 -35 -10q-12 -2 -26 -4q-10 -14 -20.5 -26.5t-18.5 -24.5q-6 -8 -8 -17q-2 -10 -2 -20q0 -16 2 -31q2 -31 -33 -40 t-49 9q-25 31 -15 64q2 10 4 24q0 8 -2 13q-2 8 -10 18l-10 12l-4 4q-10 -4 -19 -10q-14 -8 -24 -16q-12 -12 -21 -23q-4 -4 -8 -12q4 -2 8 -6l13 -17q16 -25 18 -47q4 -23 -2 -47q-4 -14 -4 -24q0 -14 2 -27q2 -14 6 -29q6 -20 6 -37q0 -23 -12 -45q-4 -8 -6 -18 q-2 -18 -8 -37q-4 -14 -4 -24v-29q0 -14 2 -29q2 -16 4 -33q4 -14 6 -24q6 -12 10 -25q2 -6 10 -16q6 -6 11 -10q10 -4 20 -13q4 0 6 -2q14 -4 31 -8q18 -4 35 -6q18 0 32.5 -2t30.5 -2q10 -2 25 -2q18 10 39 12q23 2 41 0l32 -4q2 -2 7 -2q10 0 22 2q20 4 37 6q14 2 26.5 5 t22.5 7q10 2 37 19l29 18l8 4q0 14 2 29q2 25 4 49q2 23 2 41v45v43q0 23 4 45q2 16 2 33v82q-18 4 -26 18l-25 45q-6 13 -4 29z" />
<glyph unicode="r" horiz-adv-x="745" d="M637 725q8 -20 6 -41q-2 -31 -41 -19.5t-41 21.5q0 4 -2 8l-12 8q-12 8 -19 9l-12 2q-29 4 -33 35q-8 -10 -16 -21q-6 -6 -8 -14q0 -2 -3 -7.5t-12.5 -16.5t-18.5 -16t-22.5 -1t-25.5 20h-2l-13 -4q-2 -2 -6 -2q-6 -14 -22 -39q-8 -14 -12 -26q-2 -10 -7 -19v-2l-6 -27 q-4 -16 -18.5 -24t-30.5 -4q-8 2 -16 8q-4 -10 -4 -18q-2 -18 -4 -35q-2 -10 0 -21q2 -18 4 -33v-28q0 -10 2 -25q2 -12 4 -20q4 -14 8 -31q6 -25 2 -47q-2 -18 -7 -37.5t-11 -34.5q-4 -12 -9 -26q-2 -14 -2 -27q0 -16 -2 -37q-2 -18 -2 -33v-24q0 -16 -2 -37q-2 -14 -2 -29 q0 -20 -4 -39q-4 -16 -8 -30q-4 -10 -6 -23q-2 -10 -4 -22v-15q-2 -12 -13 -22q0 -8 2 -17q2 -23 2 -49q2 -25 2 -41q4 -23 3 -41l-3 -14q-2 -16 -15 -26.5t-28.5 -9.5t-26.5 14.5t-9 29.5l2 14v25q-2 18 -4 47q0 25 -3 43q-2 23 -4 37v16q-2 23 19 35q0 6 2 12q2 16 6 31 q4 10 8 23q2 10 2 22v6q-16 14 -14 33l2 21q0 18 2 36q2 16 2 37v35v27q0 14 2 28q0 14 -2 29v41v41q0 20 -2 43q-2 25 -2 43v41q-2 25 -2 47q-2 20 -2 39q0 18 -2 37q-2 23 -4 41q0 16 -2 31q-2 18 -3 34.5t-1 36.5t2 37l2 12q0 16 13 26.5t29.5 9.5t27 -14t8.5 -30v-12 q-2 -12 -3 -29v-32q2 -8 3 -19q23 29 36 45q14 12 23 25q16 20 43 41q29 23 47 30q14 4 33 9q16 4 37 8q20 6 45 6h37h32q18 0 35 -2q12 -2 23 0h12q16 0 28.5 -11.5t12.5 -27.5q0 -12 -4 -21q2 -12 2 -22v-14q2 -6 2 -15v-12z" />
<glyph unicode="s" horiz-adv-x="1060" d="M635 92l6 4q14 6 31 0l12 4q14 2 57 19q39 14 60 31q16 16 22 32q8 25 11 39q4 12 6 25q-4 4 -9 8l-8 14l-20 35q-12 23 -19 45q-4 12 -8 23q-10 -14 -28 -15h-48q-12 0 -24 -2q-14 -2 -29 -4q-12 -2 -22 -6q-33 -10 -64 12q-14 12 -29 23q-10 6 -16 10h-4q-12 -4 -31 -6 q-23 -4 -41 -2l-14 2q-12 0 -20 8l-7 -4h-2q-6 -18 -14 -37q-6 -10 -10 -20q-2 -8 -2 -19q0 -20 -37 -29.5t-45 15.5q-4 12 -8 27q-2 6 -9 16q-14 20 -16 41q-2 2 -2 4l-27 27q-16 16 -26 28q-20 12 -35 31q-16 20 -23 43q-4 18 -6 31q-4 16 -4 37v36q2 27 6 48q4 16 6 30 q2 20 11.5 44t23.5 42q16 27 43 37q18 4 39 8q18 2 33 4q14 4 31.5 4.5t31.5 0.5q10 0 23 2q14 2 33 4q20 2 41 2q20 0 36.5 1t30.5 1q12 2 35 4q14 2 43 2q27 0 45 2q25 2 47 0q20 -2 43 -6q4 -2 8 -2q25 12 45 -6q8 -6 13 -17q8 -4 18 -10q23 -14 39 -33q14 -18 25 -32 q10 -16 16 -37v-2q6 -8 12 -17q16 -16 25 -37l8 -14q6 -14 1 -29.5t-19 -23.5q-4 -2 -11 -2q-2 -6 -4 -13l-6 -18q-4 -14 -19.5 -22.5t-30.5 -3t-22.5 20.5t-3.5 30l7 18q4 12 4 18v15q0 6 2 12v2q-8 16 -15 31l-4 6q-16 6 -24 25l-6 14q0 2 -2 4l-13 8q-8 4 -12 12 q-2 -2 -6 -4l4 -16q2 -25 -35 -35t-47 12q-4 10 -8 23l-8 -4q-8 -4 -17 -2l-2 -2h-18q-31 -4 -41 28l-2 -2q-18 -14 -39 -20q-20 -4 -41 0v-3v-1q0 -31 -31 -40t-45 3q-20 14 -33 37q-12 4 -20 4q-20 0 -43 8l-8 2q-2 -2 -7 -4q-16 -12 -30 -20l-3 -7q-3 -6 -5 -14t-2 -10 q-6 -12 -13 -27q-2 -8 -2 -12q2 -12 2 -31q2 -27 -8 -49q-4 -8 -6 -16t-2 -19q2 -8 4 -14q2 -2 2 -4l16 -4q23 -6 41 -8q16 -2 27 -5q16 0 37 -2q14 -2 29 -2q20 2 34 4h33h64q14 0 28 3h31q10 0 27 2q20 2 43 2t45 -4q20 -2 36.5 -5.5t30.5 -5.5q20 -4 45 -20 q20 -14 39 -31q16 -16 27.5 -34.5t17.5 -39.5q2 -14 6 -28q29 -8 29 -39v-23v-22q23 -16 16 -43l-6 -17q-4 -18 -12 -34q-6 -16 -12 -31q-6 -14 -13.5 -27.5t-15.5 -30.5q-2 -6 -2 -12q0 -10 4 -18q6 -16 12 -33q4 -23 -2 -49q2 -12 0 -27q-2 -27 -20 -51q-6 -8 -8 -14v-11 q4 -16 6 -30v-35q-2 -25 -4 -29v-28q0 -23 -4 -41l-2 -17q-4 -16 -17.5 -25.5t-30 -7.5t-25.5 16.5t-7 31.5l4 14q2 14 2 29v34q2 14 4 29v20q-2 10 -4 23q-4 23 2 45q4 23 20 43q4 6 4 12q2 6 0 13l-12 14q-12 27 -18 49l-10 6q-4 -4 -11 -8q-16 -14 -28 -27 q-10 -6 -21 -16q-14 -18 -40.5 -17t-41.5 21q-2 0 -4 2q-10 2 -16 10l-6 7q-6 4 -9 12l-20 -8q-16 -8 -29 -13l-14 -6q-29 -12 -47 13q-2 -10 -6 -27q-8 -23 -26.5 -29t-34 -1t-23.5 16q-12 14 -23 28q-2 2 -4 6q-16 -12 -35 -20q-39 -16 -69 4q-16 12 -33 27q-16 14 -33 34 l-14 19q-8 10 -8 22q-18 12 -35 35q-18 23 -25 39q-6 14 -14 39t-12 39l-5 12q-4 14 3.5 29.5t23.5 20t30.5 -4t18.5 -22.5l4 -12q4 -12 11.5 -35t13.5 -35l6 -12q16 2 28.5 -6.5t16.5 -22.5l6 -16q14 -2 29 -11q4 -2 10 -4h2q20 16 43 2l25 -12q2 -2 6 -4q14 -2 25 -2 q12 -2 26 -2h33h37q16 2 33 4q20 2 40 2q8 0 15 2h4q16 6 33 8h8z" />
<glyph unicode="t" horiz-adv-x="729" d="M309 705q14 -8 19.5 -24.5t-2.5 -31.5l-7 -12q-4 -6 -4 -12q-2 -14 -2 -27v-33q-2 -12 -2 -24q0 -18 -2 -35v-23v-73q0 -12 1 -27.5t3 -28.5q2 -18 0 -35q-2 -8 0 -14q2 -12 6 -24q4 -16 7 -33q2 -12 4 -25.5t6 -25.5q0 -4 2 -9q10 -6 16 -18l25 -49q10 -23 -6 -43 l16 -12q12 -8 21 -11q12 -4 24 -6q14 0 33 -2q16 -2 35 0q14 2 28 8l2 2l19 29q10 14 26.5 17t30 -5t16.5 -24.5t-6 -30.5l-10 -18q-2 -2 -2 -7q10 -27 -8 -45q-12 -10 -29 -10q-8 -8 -18 -10l-14 -2q-8 -4 -19 -8q-12 -6 -22 -15q-12 -8 -25 -18q-16 -14 -42 -13t-42 19 q-14 20 -20 41q-2 8 -5 16h-4q-8 0 -18 -2q-12 -2 -25 -4q-4 -6 -6 -12v-2q2 -8 2 -14q2 -16 2 -31q0 -20 -8 -39q2 -4 2 -8q0 -12 4 -25q2 -18 2 -43v-35v-45l-2 -26q-2 -16 -14 -27.5t-28.5 -10.5t-28 13t-9.5 29l2 28v39v35q0 16 -2 27q-2 16 -4 33q-2 8 -2 18 q-4 4 -4 10q0 18 2 35q2 16 4 29v6v2q-6 23 -6 43v31q0 20 2 39q2 12 2 24q0 18 6 35q-6 18 -8 39q-2 18 -4 37q-4 20 -6 39q-2 23 0 49q2 20 4 47v35q0 16 2 30q2 10 2 23v238v38q2 23 2 37v19q-4 2 -6 2q-6 -14 -20 -33l-52 -12q-41 -2 -30 39l4 12q-14 10 -17 27 q-2 14 6.5 27t22.5 18q12 14 33 14q12 0 24 -8h11h14h10v28v82q0 14 -2 27q0 12 -4 27q-4 23 -4 43v14q0 16 11.5 27.5t27.5 11.5t28.5 -11.5t12.5 -27.5v-14q0 -10 2 -23q4 -20 6 -39q2 -16 2 -35v-82v-41q18 -2 41 0q25 2 43 5q20 2 43 2q20 0 39 2q20 2 37 2h29 q18 2 36 2h17q16 0 27.5 -11.5t11.5 -27.5q2 -33 -31 -39q-4 -12 -10 -27q-4 -6 -4 -10q2 -16 2 -35q0 -6 -20.5 -9t-40 -2t-19.5 5q0 6 -2 14q-6 18 -6 37h-11h-10q-6 -4 -14 -10q-20 -14 -43 -20q-2 0 -8 -7q-16 -14 -43 -12t-41 25q-4 4 -9 10l-8 -4h-6v-12q2 0 6 -2z " />
<glyph unicode="u" horiz-adv-x="1093" d="M929.5 843q16.5 -1 28 -14.5t9.5 -29.5v-23q-2 -23 -2 -35v-16q8 -14 4 -33l-4 -12v-23q0 -6 2 -14q4 -23 -2 -45q0 -10 2 -23q2 -23 2 -43q2 -20 2 -40v-39q2 -18 4 -37v-37v-100v-33q-2 -16 -6 -39q-2 -23 -2 -41v-4q29 -10 24 -41v-15q-2 -20 -12 -40q2 -12 4 -25 l2 -14q4 -16 -5 -30.5t-25.5 -18t-30 6t-17.5 25.5l-2 15q-4 14 -6 26v10q-12 10 -12 27v14q-2 -4 -6 -8q-8 -14 -15 -26q-12 -25 -37 -39q-12 -6 -28 -19q-16 -12 -24.5 -22.5t-14.5 -18.5q-2 -12 -5 -26.5t-7 -26.5q-2 -10 -2 -22q2 -14 2 -29q2 -14 2 -29q2 -18 2 -35 v-30v-37l-2 -21q0 -16 -12.5 -27.5t-29 -10.5t-27.5 13.5t-11 28.5l2 19v35v30q0 14 -2 27q0 16 -1 31.5t-3 34.5q0 20 4 36q2 16 6 33q0 2 -2 6q-6 16 -10 33q-4 14 -7 27q-16 -2 -34 -4h-2q-8 -2 -15 -2q-14 -2 -24 -7q-10 -2 -19 -8q-6 -4 -22 -18q-6 -6 -15.5 -13.5 t-32 -6.5t-34.5 30q-12 6 -25 10l-14 6q-8 4 -14 13q-10 -2 -21 -2q-4 -2 -10 -4q-4 -2 -6 -9q-10 -14 -23 -30q-2 -4 -15.5 -9.5t-28.5 -8.5t-27.5 6.5t-12.5 31.5v55q0 8 -4 17l-2 4q-16 10 -33 26l-16 15q-27 25 -4 53q-10 18 -17 39q-2 14 -6 27q-14 -8 -30 -4t-24.5 18 t-4.5 31l4 14q6 23 20 43l11 14q4 6 10 11v36q-2 25 -2 52v45q0 16 2 35q-14 -10 -29.5 -9.5t-27 14t-9.5 29.5l2 13q2 23 17 47q8 14 12 24q2 6 2 13v28q0 25 12 47q8 20 25 37l6 6v7q-2 16 8.5 28t26.5 14.5t29.5 -9t13.5 -27.5l2 -15q2 -14 2 -26q2 -16 0 -51 q-4 -35 -4 -52q-2 -18 -4 -32q-2 -10 -2 -29q-2 -23 -2 -49q-2 -23 -2 -43v-45q0 -25 2 -47q2 -25 2 -43v-37v-27q4 -14 8 -31.5t8 -36.5q2 -12 10 -24q12 -16 23 -29q6 -8 14 -14q12 -8 29 -14q18 -8 37 -15q20 -8 43 -16h2l8 6q12 8 28.5 5t26.5 -15q4 -4 7 -11 q16 -4 26 -2h35h33h22q6 2 11 2q14 4 26 9q18 6 37 0q14 4 31 8l20 4q10 4 21 8q10 6 23.5 16.5t29.5 26.5q12 10 20 23q-6 14 -2 30l9 21q2 4 2 8q-6 14 -11 29q-8 23 -4 45l4 28q4 18 13 37q4 12 10 27q8 14 20 33q2 6 4 8l-2 6q-10 25 -12 43q-4 20 2 43q4 20 17 39 q2 6 6 14v2v37q0 4 -2 11q0 12 2 26v27v26q0 16 2 39v25q2 16 14 27.5t28.5 10.5z" />
<glyph unicode="v" horiz-adv-x="1001" d="M846 836q20 -10 18 -35l4 -6q16 -20 23 -43q4 -14 6 -27q4 -18 2 -39q0 -18 -10 -41q-4 -8 -4 -16t2 -17q2 -14 4 -30q2 -14 2 -29q0 -35 -32 -43t-44 2q-25 12 -35 35q-4 -12 -12 -25q-2 -4 0 -6q2 -18 2 -33q2 -14 2 -26q0 -18 -14.5 -34.5t-32.5 -19.5 q-12 -14 -28.5 -28.5t-32.5 -26.5q-10 -8 -17 -18q-6 -10 -8 -23l-4 -18q-4 -12 -14 -21q-6 -18 -15 -37q-10 -25 -18 -43q4 -10 2 -22l-2 -16q-4 -16 -6 -29q-2 -12 -9 -33q-6 -23 -16 -39l-16 -24q-4 -6 -6 -17q-4 -23 -17 -43q0 -2 -2 -2q-2 -10 -6 -20q-2 -6 -2 -13v-26 l4 -27q0 -12 2 -31q2 -20 0 -41v-28q0 -16 -2 -33l-2 -16q-2 -16 -14.5 -26.5t-28.5 -9.5t-26.5 14t-10.5 30l2 14q2 14 2 27v35q2 14 0 26q0 14 -2 31q0 6 -2 29q-2 14 -2 32q0 23 8 43q-18 12 -26 25q-10 18 -15 33q-6 16 -8 32q-2 4 -6 11.5t-8 13.5q-6 0 -13 2 q-14 4 -22 18.5t-4 30.5l6 21q4 14 6 24q-12 16 -20 33q-8 18 -13 37q-6 23 -2 45q4 12 9 23q-2 2 -3 2q-2 8 -6 18q-4 4 -6 8q-14 18 -22 35q-6 12 -13 31q-6 14 -8 28q-6 12 -12 23q-12 25 -25 45q-12 23 -26 49q-12 23 -23 43q-12 20 -22 41q-12 20 -19 39q-6 16 -12 31 q-4 10 -10 26q-6 18 -11 37l-2 15q-2 16 8.5 29.5t26.5 17.5q12 2 27 -6q23 -2 33 -25l4 -12q4 -10 10 -21q4 -6 12 -10q12 -10 27 -18q29 -14 37 -43q8 -27 2 -50q-4 -16 -13 -32q-2 -4 -2 -9q0 -2 2 -4q12 -12 25 -24q8 -10 18 -19q29 -23 31 -53q2 -20 -4 -41 q-2 -6 -2 -10q2 -4 4 -10q10 -23 23 -47q6 -12 12 -25q4 -6 10 -12q16 -20 15 -47q2 -8 6 -17q10 -25 16 -45q6 -18 12 -33q6 -18 11 -39q2 -16 4 -26t8 -27l4 8q10 16 25 37q12 20 20 39q10 18 20.5 44t22.5 54q10 31 23 60q12 29 22 57q12 31 24.5 61.5t24 56.5t23.5 50 q10 25 20 51q12 25 27 47q10 23 22 43q12 18 21 31q6 14 16 33l11 14q8 14 24.5 18.5t30.5 -3.5z" />
<glyph unicode="w" horiz-adv-x="1525" d="M1417 790.5q10 -12.5 7 -30t-15 -25.5l-20 -16q-12 -10 -19 -21q-4 -6 -6 -10q20 -25 4 -49l-8 -12q-4 -8 -6 -13q-2 -8 -2 -18q0 -2 2 -4q16 -20 24 -39q10 -20 11 -43q0 -23 -15 -47l-4 -8l2 -2q6 -14 8 -29q10 -16 17 -29q10 -23 -8.5 -34t-40 -8t-25.5 3 q-14 18 -18 37q-4 4 -7 10q-2 -4 -4 -6q-8 -14 -18 -28l-4 -4q-2 -33 -25 -54q-14 -14 -33 -24q-2 -10 -4 -21q-2 -12 -8 -28v-7q8 -20 8 -41v-24q0 -25 -17 -35t-33.5 -9t-24.5 7q-6 2 -11 4l-8 -16q-8 -20 -14 -37q-4 -14 -8 -37q-2 -6 -2 -10l2 -6q10 -25 -9 -43v-2 q8 -23 2 -45v-17q0 -2 3 -6l10 -14q10 -12 7 -28.5t-15 -27.5q-6 -4 -13 -6q2 -4 2 -8q2 -18 0 -39v-33v-51q0 -16 -12 -28.5t-28.5 -12.5t-28 12.5t-11.5 28.5v51q0 20 3 39q0 12 -3 21q0 14 -4 30l-2 17q-2 20 15 35q-2 8 -2 14q-2 18 2 37v2q-4 10 -6 18q-53 -10 -56 37 q0 10 -2 21q-4 20 0 43q2 8 0 16q0 14 -2 25q-2 6 -8 16q-14 27 -10 53q0 8 -2 17q-2 6 -6 14l-7 12l-8 -12q-8 -16 -45 -14t-37 37v26q0 18 6 39q4 14 11 31q2 4 2 6q0 8 -4 22q-8 31 8 62q-4 12 -8 22q-10 27 -19 50v-2q-4 -6 -6 -11q-2 -4 -21.5 3.5t-35.5 17.5v-2 q-12 -27 -27 -62q-10 -31 -25 -61q23 -8 27 -31l2 -16q6 -35 -24 -64q-12 -10 -19 -22l-4 -4v-25q0 -18 -6 -39q-4 -16 -12 -33q4 -12 6 -24q4 -20 2 -41q0 -16 -4 -31q-2 -23 -16.5 -31t-30 -5t-25.5 8.5t-14 7.5q-10 8 -19 10l-2 -8q-2 -14 -10 -31q12 -16 8 -35 q-4 -18 -20 -26q-2 -14 -9 -29l-6 -12q-8 -16 -23.5 -21.5t-30.5 1.5t-20.5 22.5t1.5 29.5l8 15q2 4 0 8v10q-6 6 -19 23l-22 28q-10 12 -9 27.5t13 26.5l-12 36q-6 20 -15 48q-12 29 -24 61q-8 23 -17 43q-16 0 -28.5 12.5t-12.5 28.5v12q0 2 -2 2q-4 8 -16 19 q-18 14 -29 34q-8 18 -14 37q-6 20 -8 39q-2 14 -2 29q0 6 -2 16q-4 8 -11 17q-14 16 -20 35q-8 18 -10 40q-10 20 -19 39q-10 23 -26 54q-4 8 -9 14l-12 12q-8 8 -10 21l-14 18q-10 12 -8.5 28.5t15 27t30 8.5t26.5 -15l14 -18q10 -14 23 -33q6 -6 14 -10q23 -14 36 -34.5 t18 -45.5v-31v-12q14 -25 24 -43q14 -25 31 -59q12 -31 26 -58q14 -29 31 -63q14 -33 31 -68q14 -35 27 -69q12 -31 22 -60t18 -55l9 -27l4 4t2 4q12 20 18 36t15 36q8 23 18 47.5t20.5 49t22.5 57t27 67.5q16 37 28 72q14 33 29 66q10 27 16 47q10 23 25 61q18 45 43 66 l16 12q12 12 28.5 10t29.5 -14q12 -16 6 -39q29 2 41 -25l6 -16q10 -23 10 -45q0 -14 -2 -31v-20q0 -2 2 -4q6 -10 15 -21q18 -20 24 -45q4 -27 -10 -53q2 -6 6 -12q16 -37 29 -70q12 -31 26 -62t25 -61q4 -6 6 -14q4 6 6 12q6 12 10 22q4 12 11 29q6 18 18 37q10 12 21 27 q8 12 14 22q4 8 6 19l4 24q2 18 8 37q4 10 6 23q6 25 25 47l12 16q14 16 37 14q8 20 17 39q16 37 32 70t27 55q10 25 22 47q14 25 41 43l19 15q14 10 30.5 8t26.5 -14.5z" />
<glyph unicode="x" horiz-adv-x="929" d="M815 735q12 -12 13 -28.5t-9 -28.5l-14 -14q-10 -12 -21 -25q6 -16 11 -29q4 -20 2 -41q-2 -33 -35 -39t-43 7q-16 10 -33 22l-8 -4q-6 -6 -12 -14l-2 -2q2 -12 4 -24.5t6 -22.5q6 -18 6 -37q2 -29 -37 -31t-45 14q-2 6 -8 13q-4 -4 -6 -9l-9 -14q-16 -29 -47 -16 q-10 -12 -18 -23q12 -18 27 -33q23 -31 47 -59q23 -27 47 -59q23 -27 47 -56q23 -27 55 -69q35 -43 43 -56q8 -12 21 -24l12 -13q18 -23 4 -49v-4q-2 -18 -4 -35q-2 -8 0 -18q0 -12 2 -29q2 -20 -4 -39q-4 -10 -25 -12q14 -12 15 -31v-16v-33q2 -10 6 -18l6 -15 q6 -14 0 -30.5t-20.5 -22.5t-31 0t-22.5 21l-6 14q-8 18 -10 43q-2 20 -2 41v16q0 27 24 37q-16 8 -16 23q2 4 0 10t-6 12q-16 6 -23 23l-6 14q-6 14 -10 31q-6 20 -6 39v28v15q-20 12 -33 33q-6 12 -16 26q-6 2 -13 2q-25 0 -51 15q-37 20 -37 57q0 8 -2 16v2l-14 9 q-27 20 -12 51l-54 35q-8 4 -12 12q-8 -10 -16 -21q8 -14 2 -32l-4 -15q-6 -14 -13 -30q-10 -23 -34 -41q-18 -12 -37 -23q-12 -6 -23 -14q-14 -10 -30.5 -21.5t-28.5 -21.5q-6 -4 -13 -8q-8 -10 -14 -17q-8 -10 -14 -20l-8 -15q-4 -4 -9 -8q-2 -6 -4 -10l-6 -12 q-6 -16 -22.5 -21.5t-30.5 1.5t-20.5 22.5t1.5 29.5l7 13q4 8 6 18q4 23 22 43q14 16 31 29l4 4q2 4 6 8q16 23 40 50.5t52 56.5q27 27 54.5 59.5t56.5 64.5q-4 6 -4 15q-27 -8 -43 12l-10 14q-16 20 -25 43q-2 10 -8 21q-6 12 -12 25q-12 20 -15 45q-2 18 0 34l-6 -4 q-8 -4 -14 -4q-2 -20 -17 -33q-14 -10 -30.5 -7t-26.5 16l-12 18q-25 35 -15 70q2 8 2.5 16t-4.5 14q-8 16 -10 35q-4 18 -2 37v14v2q-2 4 -4 9l-12 22q-8 14 -4 30.5t18 25t30.5 3t24.5 -19.5l13 -22q14 -25 24 -41q6 -12 25 -33q18 -20 39 -41l12 -16l18 4q14 4 28.5 -6.5 t16.5 -24.5q6 -23 -12 -39q14 -20 31 -39q25 -29 53 -70l12 -16q16 20 32 38.5t32 39.5q14 14 27 33q14 20 28 34q10 10 13 19q6 12 16 35q12 25 20 41l7 12q16 29 47 20q2 2 6 7q12 12 18 20q12 18 31 37l16 16q12 10 28.5 10.5t29 -11t11.5 -28t-11 -28.5l-17 -16 q-6 -4 -10 -11q25 14 45 -4z" />
<glyph unicode="y" horiz-adv-x="1034" d="M244 745q14 -8 19 -23t-3 -30l-6 -14q-2 -2 -2 -6q2 -18 2 -37q-2 -14 -2 -25q-2 -23 -14 -45q-6 -10 -11 -22q-4 -8 -6 -17v-22v-8v-15q2 -16 2 -30v-56q2 -4 2 -6q8 -14 13 -29q8 -18 10 -43q0 -20 -4 -38q-2 -16 -4 -31l-2 -21q0 -20 -2 -34q2 -10 6 -19q6 -12 16 -31 q8 -14 16 -20q10 -6 19 -10q16 -6 35 -17q14 -8 22 -10q12 -4 27 -8q16 -4 29 -8q10 -4 18 -4q14 -2 29 -3q16 -2 28 -2q12 -2 29 -4q10 0 20 2q16 2 35 4q16 2 29 5q16 4 34.5 7t35.5 7q14 4 28 10t29 14q14 10 31 19q10 8 24 20q12 12 23 27l12 18q8 10 20 15q-2 16 -2 31 q0 12 -2 24q-2 16 -2 33v20q-2 12 -4 25q-2 10 -6 20q-6 14 -12 29q-10 23 -12 41v31q0 18 4 39q4 18 8 32q4 12 8 23q2 8 2 16q0 10 -2 23q0 8 -4 16q-10 23 -12 43q-2 18 2 39q4 20 16 43l2 4q6 27 31 31q6 2 12 2q10 0 21 -6q23 -12 18 -39q4 -16 4 -33q2 -18 2 -35v-41 v-36q0 -14 2 -35q2 -25 0 -51q0 -20 2 -39q2 -18 4 -35q2 -18 2 -35v-29q0 -10 5 -28q4 -27 2 -47q-2 -12 -2 -23q0 -16 -3 -31q0 -10 -2 -22q2 -8 5 -19q4 -14 6 -28q4 -16 6 -29q4 -18 4 -37v-59q0 -16 -4 -35q-2 -10 -4 -23q-2 -20 -13 -41q-2 -6 -4 -14v-22v-27v-23 q2 -18 -2 -38q-2 -4 -2 -9q0 -8 -2 -16q-2 -23 -12 -41q-6 -14 -14 -31q-6 -8 -13 -16q6 -14 10 -27q4 -14 9 -28q6 -16 8 -33q0 -8 4 -19q6 -18 6 -39q0 -16 -4 -30q-2 -16 -12 -31q10 -14 6 -33l-8 -32q-4 -10 -13 -19v-22q2 -14 2 -31l2 -17q2 -16 -8 -29.5t-26.5 -15.5 t-29.5 9.5t-13 27.5l-2 17q-2 18 -3 34.5t-1 40.5v48q0 16 -3 30l-2 6q-4 14 -6 27v8q-23 -6 -39 10l-6 7q-14 14 -12 32q-8 2 -16 6q-10 2 -21 3h-24q-6 -2 -11 -5q-23 -12 -47 -12q-6 0 -12 -2t-12 -10q-16 -16 -41 -17.5t-43 15.5q-6 6 -13 8l-2 -2q-23 -8 -43 -8 q-25 0 -49 16q-10 8 -20 10q-8 4 -17 7q-14 -10 -26 -23q-12 -12 -21 -23q-12 -18 -31 -30q-14 -14 -42.5 -8t-36.5 32q-4 18 -5 39v25l-4 12q-4 8 -14 19q-12 14 -20 32q-6 6 -13 19q-10 20 -16 39q-6 16 -10 37q-4 20 -9 38q-2 23 -2 39l2 13q0 16 12.5 27.5t28.5 11.5 q29 -2 37 -29q14 -2 25.5 -14.5t9.5 -28.5v-27q-2 -27 -2 -42v-27q2 -6 4 -13q6 -2 12 -2q16 -4 37 -8q16 -4 33 -6q18 -2 37 -4q25 0 41 -2q14 -2 31 -6q12 -2 24 -2h101h32.5t28.5 2q14 0 37 2q25 4 47 6q20 2 37 6q18 4 37 8q10 0 18 6q6 2 12 9q2 16 11 32q8 16 16 31 q6 10 12 23q2 4 2 6v8v57v33q0 18 2 37q2 14 2 31q2 10 0 26v25h-2q-23 -4 -34 -8q-12 -18 -31 -33q-14 -8 -29 -21q-18 -12 -37 -20q-8 -2 -14 -8v-21q2 -16 2 -33q0 -16 -36 -28.5t-46 14.5q-6 18 -6 39q0 8 -2 18q0 2 -6 9q-4 4 -8 6q-6 2 -13 2q-8 0 -14 -2 q-10 -2 -21 -8q-23 -12 -45 -13q-27 0 -49 17q-8 4 -16 6q-20 6 -39 20q-4 4 -8 4q-14 2 -27 2q-8 2 -18 2l-4 -4q-8 -4 -11 -10q-6 -14 -8 -26q-6 -16 -45 -11.5t-37 27.5q2 10 2 22q0 10 -2 21q-2 8 -8 20q-8 18 -12 35q-4 14 -6 29q-4 10 -9 18q-4 10 -12 23 q-12 20 -18 39q-2 12 -4 22q-4 18 -9 39q-4 25 -4 41v123q0 4 -2 10q-4 18 -4 39q0 20 2 39q0 10 2 19q-2 6 -2 12q-4 16 -6 33q-4 18 -4 43v32v33q-2 20 -2 43q0 31 12 51l6 15q8 14 23.5 19t30.5 -3q14 -6 18 -20q15 1 27 -5z" />
<glyph unicode="z" horiz-adv-x="1081" d="M410 102q25 2 39 2h24q12 0 31.5 1t42.5 1q20 0 41 3q23 4 41 4q14 0 28 2q18 2 33 4q12 0 27 4q16 2 32.5 5t36.5 5q16 4 33 6q12 4 23 8q14 6 26 17q8 6 13 12q4 8 4 17l4 32l2 17q2 16 15.5 25t29.5 7t26.5 -15t8.5 -30l-2 -14q-2 -14 -4 -29q0 -12 -4 -22 q10 -6 16 -14q6 -16 1 -32t-20 -24l-14 -6q-16 -8 -31 -14q-10 -2 -20 -11q-25 -14 -53 -18q-23 -4 -38.5 -4t-29.5 2h-16q-4 -2 -11 -6q-16 -12 -32 -19q-12 -14 -33 -38q-2 -14 -4 -33v-29q0 -14 -2 -39q-2 -23 0 -35q2 -16 2 -32q0 -10 2 -25l2 -16q2 -16 -7 -29.5 t-25.5 -17t-30 7t-15.5 26.5l-4 17q-2 20 -2 37q0 12 -2 26q-2 18 0 45q2 20 2 31q-23 2 -23 6t-2 10q-4 6 -12 15q-23 18 -31 43q-4 10 -6 20h-10q-14 2 -29 2q-16 2 -32 2q-4 0 -9 -2q-8 -6 -14 -12q-10 -14 -25 -31q-31 -35 -67 -20q-23 8 -41 28q-14 14 -27 29 q-8 10 -12 10q0 2 -2 2h-2q-18 -4 -39 -2q-16 2 -31 2q-16 2 -35 7q-20 4 -34.5 23.5t-8.5 41.5q6 23 29 45q16 16 39 35q23 18 35 29q14 16 22 28q12 16 21 31q12 25 31 43q16 16 32 27q23 16 47 18h9v2q14 14 26 29q14 20 43 47q27 25 39 37l27 26q20 20 28 31 q16 14 31 27q16 14 35 28q16 12 33 25q16 12 33 27q20 18 41 30q16 12 36 29q18 14 45 37q-6 -2 -12 -2h-31q-14 0 -24 -2q-12 -2 -27 -4q-4 0 -8 -4q-8 -6 -14 -17q-6 -10 -8 -18q-6 -18 -45 -12t-37 26q2 6 2 14q-25 -8 -54 0q-20 8 -39 23l-4 2q-18 2 -36 10q-6 2 -15 2 q-2 0 -7 -4t-7 -8q-4 -14 -8 -27q0 -2 -2 -6t-10.5 -13t-15.5 -13t-20.5 -2t-25.5 14q-10 -6 -21 -14v-19q-2 -27 -22 -51l-14 -16q-10 -12 -25 -15q-8 -8 -20 -12q-16 -2 -31 7t-17 26l-2 16q-4 16 -6 37q-2 25 4 47q2 20 9 39q8 27 28 49q18 20 43 31q23 10 49 12 q20 2 33 4q14 2 37 6q25 2 53 2h45h35q12 -2 25 -2q14 0 34 -2h33h31q16 0 35 -2q16 -2 26 -2q16 0 37 -2h23q16 0 41 -2q18 -2 33 -2q20 2 36 2h29q27 -2 34 -21.5t2 -38t-11 -24.5q-14 -14 -35 -31q-6 -6 -12 -10q8 -16 2 -31l-9 -16q-10 -27 -34 -45q-16 -12 -31 -25 q-14 -10 -23 -20q-8 -8 -12 -18q-4 -6 -4 -9q0 -23 -8 -41q-12 -27 -42 -27.5t-40 13.5q-4 4 -10 6q-6 -4 -13 -12q-14 -14 -30.5 -27.5t-30.5 -21.5q-14 -6 -27 -15q-6 -2 -10 -8q-10 -14 -23 -26q-4 -6 -4 -11q-4 -14 -6 -26q-4 -20 -14 -39q-18 -29 -51 -35q-27 -4 -49 2 q-6 2 -13 2q-4 -2 -6 -4q-16 -12 -35 -31q-18 -18 -32 -30q-12 -12 -31 -29q-14 -16 -27 -27l-6 -6l-20 -24q-2 -2 -7 -5q4 0 9 -2l14 -2l12 -4h13q12 0 28 2q25 4 45 4q16 -2 37 -2z" />
<glyph unicode="{" horiz-adv-x="833" d="M563 1268q16 -4 24.5 -18.5t4.5 -30.5l-4 -15q-4 -12 -4 -24q-2 -6 0 -13l12 -28q2 -6 10 -17q18 -20 -12.5 -45.5t-44.5 -13.5q-20 14 -37 33q-8 8 -18 16l-2 -2q-4 -8 -5 -14v-35q0 -18 -2 -35q-4 -16 -11 -36.5t-11 -37.5q-6 -16 -14 -30q0 -14 -11 -27v-27 q0 -16 -14 -28l2 -2q18 -23 25 -47q4 -23 2 -41l-2 -15q-2 -14 -13.5 -24.5t-25.5 -10.5l4 -14q6 -23 4 -45q-2 -18 -10.5 -37.5t-22.5 -40.5q-10 -14 -18 -24q-4 -6 -7 -13q0 -6 5 -16q4 -16 14 -31q12 -20 20 -39q6 -18 12.5 -35.5t8.5 -33.5q4 -14 6 -29q2 -10 6 -23 q6 -18 10 -32q4 -16 5 -37q0 -18 -3 -35q0 -20 -4 -35q-2 -8 -2 -18v-33q0 -20 -4 -41q-2 -18 -4 -35q-4 -12 -6 -26q-2 -12 -4 -23q-2 -10 -2 -24q0 -10 4 -23l4 -8q2 -2 6 -4q16 -10 31 -13q18 -2 76 17q66 20 94 41l35 22q12 8 28.5 5t25.5 -17t6 -30.5t-17 -24.5l-2 -2 q4 -18 -6 -33l-13 -16q-14 -18 -26 -33q-14 -16 -29 -31q-25 -23 -53 -25q-6 0 -13 -4q-8 -4 -20 -14q-12 -12 -23.5 -25.5t-17.5 -23.5q-12 -16 -31 -33q-16 -14 -41.5 -15t-44.5 25q-10 20 -12 45q-2 18 -2 37t2 37q2 8 0 16q-4 14 -8 23q-4 12 -11 25q0 2 -2 4 q-10 12 -18 26q-14 29 -19.5 46.5t-7.5 33.5t-2 35v74v33q2 16 2 35.5t4 43.5q2 18 3 35q0 16 -11 80q-2 14 -6 27v2q-12 23 -16 45l-8 24q-2 6 -13 17l-12 12q-14 2 -25 6q-14 2 -34 6q-4 0 -13 11q0 -2 -2 -2l-18 -13q-14 -8 -30.5 -4t-25 17.5t-4 30t16.5 24.5l20 12 q23 14 39 21q10 4 21 10l12 8q16 10 35 2q2 2 2 4q10 10 22 29q8 12 15 24v2q2 14 6 27q2 12 4 23q4 14 6 30q4 10 4 21v31v32q0 20 2 41q2 23 4 37l2 12q2 4 4 11q-2 10 -2 20q-2 18 -2 37v37q-2 23 -2 42v32q2 18 11 45q8 31 18 47q10 20 31 35q20 16 47 22q18 4 37 8 q18 4 35 8l18 5q10 4 20 0q15 10 33 6z" />
<glyph unicode="|" horiz-adv-x="425" d="M231 1163q16 0 27.5 -11t11.5 -28v-20q0 -18 2 -37q2 -23 0 -47q0 -25 -6 -47q-2 -18 -4 -31q0 -14 1 -26.5t5 -24.5q2 -14 4 -31q2 -18 0 -35q-2 -14 -4 -32q-2 -14 -2 -25q0 -14 -2 -33q-2 -14 -2 -26v-29q0 -8 4 -21q2 -14 8 -26q6 -16 13 -37q6 -16 10 -31 q4 -10 10 -22q8 -18 10 -37q4 -14 5 -29q2 -16 2 -33q0 -18 -5 -36q-4 -29 -28 -48q-4 -2 -6 -4q0 -8 -6 -14q2 -6 2 -12q4 -12 8 -27q8 -20 8 -39q0 -16 -4 -35l-8 -32q-4 -14 -11 -31q-4 -16 -6 -29q-4 -18 -8 -35v-2q2 -8 10 -20q10 -16 19 -31q12 -20 16 -41q0 -8 4 -18 q8 -20 8 -41q0 -23 -8 -45q-10 -23 -28 -45l-15 -17q-12 -12 -28 -14q-2 -2 -2 -6v-25v-57q0 -4 2 -10q6 -14 10 -27q10 -25 6 -51q-2 -8 -2 -17v-106q0 -18 -2 -39v-18q-2 -16 -14.5 -27.5t-29 -10.5t-27.5 14t-9 28v20q2 16 2 33v106q0 16 4 35l-2 2q-4 12 -10 27 q-8 20 -8 41v57v27q-33 6 -31 39v14q0 16 2 35q2 14 4 39q2 27 4 57q2 29 4 66q2 39 2 76v258q0 41 -2 86q-2 37 -4 67v2q-8 18 -14 43t-8 41t-2 31q0 18 4 37q4 14 8 33q4 18 8 32q2 6 6 17q-2 31 0 61q0 20 2 39q-2 10 -6 18q-4 16 -10 37q-8 23 -14 43q-6 23 -7 43 q0 20 4 37q4 20 21 45q10 14 18 29q2 14 2 22l3 15q2 16 15 26.5t28.5 9.5t26.5 -14.5t9 -29.5l-2 -13v-2h4z" />
<glyph unicode="}" horiz-adv-x="792" d="M270 967v-23q0 -16 -12 -28.5t-28.5 -12.5t-28 12.5t-11.5 28.5v39q0 16 3 35l4 12q-6 6 -7 17l-4 18q-4 18 -8 47v4l-20 -8q-14 -6 -29.5 0t-23 20.5t-1 31t22.5 22.5l23 8q20 10 43 20q25 10 40 15l13 4q6 2 12 2q18 8 35 8q27 0 49 -10q18 -8 35 -17q25 -14 35 -38 q4 -8 8 -21q8 -12 16 -25q16 -25 23 -53q4 -23 7 -48.5t3 -49t-6 -74.5q-4 -45 -6 -59l2 -10q0 -14 -8 -27v-8q2 -8 4 -15q4 -14 6 -32q2 -16 4 -35q2 -20 2 -37q0 -12 -2 -25l4 -4q10 -16 25.5 -31.5t29.5 -27.5q18 -12 33 -23q10 -6 21 -10q12 -4 22 -6q14 -2 29 -6 q8 -2 16 -2q49 0 29 -53q23 -18 12 -46l-6 -14v-12q4 -20 8 -35q4 -20 4 -39q0 -20 -6 -39q-6 -18 -20 -39q-18 -23 -45 -19.5t-41 21.5q-6 10 -13 17q-4 -6 -4 -15l-10 -30q-2 -10 -10 -17q2 -8 4 -18q4 -18 4 -43q2 -25 2 -41q2 -25 0 -45q0 -16 -2 -31q-2 -20 -10 -43 q-6 -20 -13 -35q-4 -10 -6 -20q-4 -18 -14 -39q-6 -18 -12 -33q-6 -14 -14.5 -31.5t-14.5 -31.5q-8 -16 -21 -33q-4 -8 -6 -17q-2 -16 -4 -30q-2 -2 -2 -4q0 -10 2 -23q6 -31 6 -47v-31v-35q2 -20 2 -34v-13q0 -16 -12 -28.5t-27.5 -12.5t-27.5 12.5t-12 28.5v13q0 10 -3 28 v41v31q0 10 -4 31l-14 12q-14 27 -16 47q-2 12 -4 27q-2 6 -7 12q-4 6 -14 12q-12 8 -24 15q-12 6 -29 12q-25 12 -43 35t-25 49q-2 20 -3 48t3 54q4 23 6 43l2 23q2 16 14.5 27.5t29 9.5t26.5 -14.5t10 -28.5l-2 -23q-2 -23 -6 -49q-2 -4 -2 -10q6 -6 8 -17l4 -16 q2 -8 9 -16q12 -12 24 -21q8 -8 21 -12q4 -4 14 -2q14 0 25 6q10 4 20 14q8 10 16 25q10 18 17 39q8 18 10 31q4 10 6 22q2 14 4 29q2 14 2 24v31q-2 20 2 39q2 16 2 29v45q0 33 2 49q0 18 5 43q6 27 15 48t19 40q10 14 23 27q-4 2 -6 2q-12 2 -29 4h-4q-4 -2 -8 -9 q-6 -10 -12 -24q-6 -8 -26 -9t-38 9t-14 24q4 20 14 39q6 14 18 33q12 16 25 35q-10 8 -20 18q-29 27 -25 62q0 4 2 10q-4 8 -4 14q-6 20 -8 45q-2 23 -4 37t0 39v8q-12 25 -13 48v26q0 18 4 41q4 14 7 25q0 10 2 20q-2 2 -4 6q-10 12 -21 17q-20 14 -33 32q-10 16 -16 37 v-2l2 -28q4 -33 -27 -41zM383 -166l2 -2l4 4q-4 0 -6 -2z" />
<glyph unicode="~" horiz-adv-x="1040" d="M219 147.5q-12 10.5 -13 26.5t9 31l18 20q20 25 39 39q16 10 38 23.5t50 25.5q29 14 56 25q29 10 59 18q35 6 66 6h51q31 0 67 -10q31 -8 56 -14q29 -8 51 -21q18 -10 37 -20q4 -2 6 -2q12 -4 22 -16q10 -6 21 -17l22 -20q12 -10 13.5 -26.5t-8.5 -29.5q-12 -16 -33 -14 q2 -12 2 -27q-2 -18 -10 -43q-8 -29 -29 -49q-10 -12 -23 -24q-16 -20 -51 -35q-31 -14 -63 -19q-33 -6 -53.5 -2t-40.5 17q-16 10 -33 26q-18 16 -31 35q-12 20 -16 47q-4 23 -6 45v39t2 39q2 16 6 39l2 19q-4 0 -8 -3q-27 -4 -50 -14q-25 -8 -49 -20q-27 -12 -44 -22.5 t-32 -20.5q-10 -8 -26 -25l-19 -22q-10 -12 -26.5 -13.5t-28.5 9zM637 812q10 13 26.5 15t30.5 -8l23 -16q25 -20 39 -35q4 -2 6 -6q8 8 18 20q29 33 58 43l18 6q16 6 30.5 -2t19.5 -23t-2 -29.5t-21 -20.5l-19 -6q-8 -2 -22 -21q-10 -10 -19 -20q12 -8 31 -19 q25 -12 51 -39l23 -22q12 -10 12 -27.5t-11 -29t-27.5 -11.5t-29.5 10l-22 23q-20 18 -35 27q-18 12 -35 20q-6 4 -16 12q-10 -12 -23 -24q-12 -12 -20 -23l-10 -14q-8 -12 -24.5 -15.5t-30 6t-16.5 26t7 30.5l8 12q12 16 29 35q10 10 23 21q-4 2 -7 6q-10 10 -32 26l-23 17 q-12 10 -15 26.5t7 29.5zM105.5 841.5q7.5 14.5 23.5 19.5t31 -1l16 -8q16 -8 30.5 -16.5t31.5 -20.5q10 18 18 37q12 23 23 37l8 12q8 14 24.5 17.5t29.5 -5t17 -25t-4 -30.5l-8 -12q-8 -12 -18 -33q-12 -20 -25 -45q-2 -2 -4 -6q10 -8 20 -17q14 -10 33 -24q14 -12 29 -23 l14 -10q12 -8 15.5 -24.5t-6 -29.5t-26 -16.5t-30.5 5.5l-14 10q-16 12 -33 26q-16 14 -29 23q-8 6 -18 14l-1 -1l-1 -1q-10 -16 -27 -37q-16 -20 -24 -32l-8 -13q-10 -14 -26.5 -17t-30 6t-16.5 25.5t5 30.5l10 13q8 14 27 37q14 20 24 34q4 4 7 9h-3q-12 10 -22 16 q-12 8 -27 14l-16 8q-14 6 -20.5 22.5t1 31zM582 283v-11l-4 -22q-2 -23 -5 -39q-2 -16 -2 -31v-33q0 -16 4 -34q2 -12 9 -21q4 -8 14 -18q12 -10 20 -15q8 -6 16.5 -7t27.5 1q20 4 40 13q18 8 25 14q12 14 25 29q6 6 10 18q4 16 6 25q0 10 -2 18q-2 14 -2 31q-2 12 -2 28 q-18 10 -35 19q-2 2 -4 2q-2 -14 -4 -31q-2 -14 -2 -22q0 -16 -2 -37l-2 -17q-2 -16 -14.5 -26.5t-29 -8t-26.5 15.5t-8 28v18q2 12 2 23q0 16 2 36q2 16 4 33q2 6 2 12h-6q-27 8 -47 9h-5h-5z" />
<glyph unicode="&#xa2;" horiz-adv-x="860" d="M471 1243q31 4 41 -26q10 -10 10 -27v-57q2 -14 0 -25v-31v-6v-39q-2 -29 -2 -67v-31q6 0 10 2q20 2 50 -4q25 -6 43 -14q23 -8 49 -31q23 -18 37 -37q16 -20 22 -41q4 -12 8 -25q4 -16 6 -34l5 -25q2 -14 4 -29l4 -14q2 -18 -8 -33q6 -8 6 -18v-15q0 -8 2 -18 q4 -23 0 -43q-12 -35 -46 -26.5t-40 24.5q-8 20 -10 43q-2 20 -5 43q-2 20 -4 31q-2 16 -6 30q-2 16 -4 33q-2 12 -8 23l-6 3t-13.5 6t-11.5 5q-18 10 -35 31q-14 14 -26 35q-2 6 -8 10h-3q-8 0 -16 -4q-2 -25 -2 -54q-2 -18 -2 -36q0 -6 2 -13q2 -18 4 -38.5t2 -36.5 q0 -18 -4 -41q-4 -20 -8 -39q-2 -8 -4 -17q-2 -41 -4 -84q-2 -55 -4 -106q0 -16 -2 -33q4 -18 4 -31q0 -18 -4 -39q-2 -8 -5 -14q-2 -8 -2 -16q12 0 25 2q14 2 27 6q14 2 28.5 7t26.5 10t31 14q16 8 28 20q4 4 4 8l2 19q0 16 12.5 27.5t29 10.5t27.5 -13.5t11 -28.5l-2 -19 q0 -6 -2 -12q10 -16 4 -33l-4 -14q-8 -23 -28 -45q-20 -20 -45 -33q-18 -10 -31 -18q-8 -4 -13.5 -11.5t-7.5 -15.5q-6 -20 -18 -45q-8 -6 -20.5 -16.5t-36 -12.5t-33.5 31q-2 12 -6 27q-4 4 -13 10h-2v-4q-2 -35 -4 -64q0 -4 2 -8q6 -20 8 -41q2 -23 -2 -43q-2 -6 -4 -16.5 t-2 -14.5q-4 -16 -8 -30.5t-10 -32.5q-2 -4 -4 -6l-4 -17l-4 -8t0 -10q0 -8 4 -14q6 -12 12 -27q8 -18 10 -39l2 -14q2 -16 -8 -29.5t-26.5 -15.5t-30 8t-15.5 26v15q-2 8 -6 16q-4 12 -10 25q-10 18 -12 41q-2 25 4 47q4 10 10 22q2 12 4 25q2 12 4 35t2 47q2 20 4 51 q-2 6 -4 10q-4 18 -4 41v17q-4 0 -10 2q-12 0 -25 2q-18 2 -37 10q-6 2 -12 2q-2 0 -8 -4q-12 -6 -25 -12q-23 -14 -47 -17q-18 -2 -37.5 9.5t-23.5 35.5q-2 16 -2 31q-2 12 -4 27q-2 16 -6 34q0 4 -2 11q-12 14 -21 32q-10 27 -12 54q-2 18 -2 30q-2 14 -2 33v21 q-8 16 -11 30q-2 23 7 45q2 6 4 13l4 32q2 10 2 21v31q2 16 4 34q4 25 14 52q8 25 13 39q4 14 12 41q8 29 17 49t16 35q14 29 43 40q14 6 30 15q18 8 41 14q23 8 39 12q10 2 23 5q12 4 32 6v4q6 16 17 39q8 16 14 37q4 20 6 36t2 29v14v43q0 6 -2 15q-4 27 -4 43l-2 14 q-2 16 9.5 29.5t27.5 13.5zM408 821q-4 0 -11 -4q-14 -4 -24 -12q-12 -4 -27 -17q-14 -8 -20 -18q4 -23 2 -41v-29q-2 -16 -6 -32q-10 -39 -52 -43q-18 -2 -37 6q0 -10 -2 -23q-2 -23 -7 -41t-13 -41q-8 -16 -16 -34q0 -4 -2 -9v-14v-39q8 -20 10 -41v-33q0 -14 2 -24 q0 -4 4 -8q12 -20 16 -45q8 -4 19 -11q14 -10 35 -14q25 -8 38 -12q12 -2 27 -4h29h26q2 12 9 24q0 6 2 10q0 8 2 19q2 18 2 47q0 4 -6 31q-4 20 -6.5 38.5t-4.5 32.5q-2 16 0 37q0 18 2 33q2 18 11 37q4 14 12 31q2 2 2 6v8q2 47 4 102q2 25 4 51q-2 8 -6 17q-6 25 -14 45 q-2 6 -4 14z" />
<glyph unicode="&#xa3;" horiz-adv-x="940" d="M465 995q-12 -16 -33 -16q-4 -18 -8 -33l-6 -14q-4 -16 -19.5 -23.5t-31 -2.5t-22.5 19.5t-3 30.5l6 17q4 12 10 37v4h-2q-4 0 -8 -2l-4 -4q-4 -12 -6 -19v-26q0 -25 -8 -45t-21 -37q-6 -10 -12 -25q-8 -18 -16 -39q-6 -10 -9 -18q-2 -10 -4 -25q-2 -14 -4 -31 q-2 -12 -2 -24q0 -8 4 -14q6 -20 8 -41q2 -18 0 -39q0 -18 -4 -37q-2 -10 -2 -19q25 -2 41 -2h8q12 10 27 11l25 2h47q25 2 43 2h18q14 20 39 16q14 -4 24.5 -17.5t8.5 -29.5l-4 -16q-2 -12 -2 -25q2 -14 2 -27q4 -16 4 -37q0 -18 -4 -36q-2 -16 -42 -16.5t-40 22.5 q0 8 -4 18v2q-14 -6 -27 -12q-18 -8 -37 -10q-14 -2 -28 -2q-8 0 -19 -2q-4 0 -9 -5.5t-9 -17.5q-86 -61 -86 6q0 10 -2 23q0 10 -4 26q-2 6 -5 9q-2 0 -4 2v-13q-2 -20 -6 -49q-4 -25 -4 -49q-2 -23 0 -35q2 -20 0 -53q-2 -29 -2 -47q-2 -16 0 -35q2 -20 2 -37 q0 -12 -2 -33q-2 -10 0 -24q2 -18 2 -35q2 -16 2 -35q0 -14 2 -28q0 -14 2 -33q2 -2 2 -6h21h41t78 4q47 2 71 2q23 0 174 4q139 2 160 6l16 4q16 4 31 -5t19 -24q4 -18 -9 -34l-2 -13q-4 -16 -16 -41q-8 -20 -16 -37l-15 -30q-8 -18 -14 -33q-6 -12 -10 -31l-4 -14l-4 -31 q0 -10 -9 -20v-2q0 -14 2 -27q0 -10 4 -20q10 -27 5 -52q-2 -12 -5 -24q-2 -8 -2 -19q0 -16 -2 -30q-2 -18 -6 -35l-4 -12q-4 -16 -18.5 -24.5t-29.5 -4.5t-24.5 19.5t-3.5 29.5l2 14q2 8 5 19q2 14 2 24q0 18 2 35q4 12 6 27v4q-8 20 -10 41q-2 16 -3 35v26v25q-2 6 -6 14 t-12 17q-16 12 -19.5 33.5t15.5 45.5q-4 0 -6 -2l-21 -6q-33 -12 -49 19q-16 -12 -33 -19q-12 -6 -28 -12q-6 -4 -13 -12q-10 -12 -18 -25q-10 -18 -41 -20t-43 26q-6 16 -10 35q-2 8 -6 16q-16 2 -29 7q-10 4 -25 6q-16 2 -41 8q-8 2 -14 0l2 -4q12 -31 -16 -49 q-2 -2 -2 -6q-2 -2 -2 -5q-6 -33 -43 -24.5t-41 27.5q-2 12 -2 26q-8 14 -13 27q-6 14 -10 24q-10 20 -16 45l-6 19q-8 14 -9 31v36q0 23 2 39v27v35q0 23 2 43t7 43q4 18 4 33q0 18 -2 41q-2 29 0 55q4 25 8 51q4 25 4 45q0 27 2 49q2 23 2 45q0 27 1 51.5t3 49.5t4 47 q2 25 4 47q2 25 7 47q4 18 8 39.5t8 44.5l10 45q4 16 8 35q4 20 10.5 39.5t14.5 36.5q6 14 10 24q4 14 10 27q4 16 17 39q14 25 28 41q16 18 41 32q20 10 37 17q16 8 37 12q12 2 29 10q29 10 49 9h27q18 -2 45 -9q27 -6 45 -14q12 -8 32 -16q20 -12 35 -23q16 -12 33 -27 q12 -12 23 -26q12 -12 18 -25l8 -16q10 -16 19 -39q8 -20 12 -41q6 -20 8 -41q0 -18 2 -31l2 -12q2 -31 -26 -43q2 -8 4 -14q6 -16 8 -35q2 -14 4 -29q2 -18 -2 -39q-4 -18 -14.5 -24t-21.5 -1t-22.5 13t-19.5 16l-8 9q-2 14 -8 45q-4 25 -4 45q-2 18 -4 32q-4 18 -4.5 34 t1.5 34q0 18 3 33q2 16 2 26q0 12 -2 25v2q-8 10 -15 23q-2 0 -2 2q-2 0 -2 2q-14 12 -27 20q-12 10 -26 21q-31 -27 -39 -29q-33 -12 -68 12q-12 8 -18 13h-2q22 -25 2 -52z" />
<glyph unicode="&#xa5;" horiz-adv-x="1099" d="M133 1165q14 8 30.5 5t24.5 -15l13 -18q12 -16 33.5 -43t37 -44.5t33.5 -35.5q18 -20 35 -37q14 -18 31 -35q16 -16 32 -35q6 -8 13 -14q2 -2 4 -6q6 -4 10 -10q12 -12 27 -25q16 -16 39 -43q16 -20 28 -37h6q12 18 29 35l31 31q14 14 35 39q23 27 47 53q25 25 41 43 t35 41q20 23 47 51q29 31 47 49q16 18 24 29q10 12 19 26l8 15q10 14 25.5 17t29.5 -5q12 -6 17 -18l2 -2q16 -2 25 -15.5t5 -30.5l-2 -14q-4 -25 -20 -47q-10 -10 -19 -22q-10 -18 -22 -33q-10 -14 -27 -33q-12 -16 -18 -27q-4 -12 -10 -28q-8 -25 -27 -45q-29 -35 -70 -17 q-8 -20 -22.5 -38.5t-30.5 -32.5q-16 -12 -37 -21q-8 -6 -14 -12t-10 -17q-6 -14 -11 -28q-4 -16 -10 -29q-4 -12 -10 -31q-2 -10 -21.5 -21t-35.5 -9q0 -8 -2 -17q2 -6 4 -18q6 -43 6 -82q0 -2 2 -4h104q27 0 56 2q31 0 57 -2q29 -2 45 -4l12 -2q16 -2 26.5 -16.5 t6.5 -30.5q0 -4 -2 -9q0 -2 2 -4l10 -12q23 -27 0 -53q2 -18 -6 -39q-4 -12 -6 -25q-2 -8 -2 -16q2 -14 4 -33v-35v-30q0 -12 2 -25q2 -16 2 -31q0 -18 -6 -39q-8 -27 -43 -24.5t-41 24.5q-6 18 -8 35q0 8 -5 22.5t-12 26.5q-4 8 -14 17q-8 6 -12 10v-2q-2 0 -4 -2t-2 -10 q-2 -20 -17.5 -33.5t-31.5 -16.5q-37 -4 -64 29q-8 10 -16 14q-4 2 -9 3h-22q-2 -2 -4 -3q-4 -18 -4 -32q-2 -18 -3 -35t-1 -29v-78q0 -14 -11 -26q0 -8 -2 -17q-4 -18 -12 -34q-4 -8 -6 -19q-2 -6 0 -10q2 -14 4 -29q2 -8 4 -18q6 -18 6 -41q0 -14 2 -25q0 -14 2 -35l2 -16 q0 -16 -10 -29.5t-26.5 -14.5t-29.5 10.5t-13 27.5l-3 16q-2 18 -2 33q-2 14 -2 33q0 10 -2 18q-6 16 -8 33q0 10 -2 21q-6 20 0 43q4 18 12 36q4 10 7 19q2 10 2 20q0 8 -2 19q-4 18 -9 30q-6 14 -10 29q-4 18 -6 35v12q-18 -8 -37 -2q-25 8 -43 33q-4 6 -14 12h-8 q-8 -2 -15 -6q-12 -10 -22 -18q2 -16 0 -31q-4 -29 -40 -31t-46 19q-8 23 -9 45v30q2 14 3 29l2 12q-10 18 -5 45t33 25h15q14 -2 24 -12q8 4 19 2h18q18 -2 41 -4t45 -2q23 -2 53 -2q16 0 31 2v8v22q-2 12 -6 25.5t-8 28.5q-8 25 -13 36q-2 2 -2 3q-16 -10 -34 -15 q-31 -6 -56 17q-12 -4 -22.5 -5.5t-20.5 -3.5q-6 -2 -16 -10q-8 -12 -39 -12t-45 29q-10 2 -19 4q-16 6 -9 45t28 34q6 0 14 -2q10 12 27 13l33 4q35 2 59 2q23 -2 49 -2h41q0 10 2 22q4 18 8 35q4 16 11 37q2 6 4 10q-2 16 -6 37q-4 8 -13 17l-14 14q-6 6 -10 14 q-29 -4 -56 17q-25 20 -30 47q-6 18 -7 39v26q-2 8 -4 19q-20 8 -36 22q-18 16 -29 37q-4 8 -14 18q-6 8 -15 13l-28 14q-6 4 -13 6q0 -2 -2 -4q0 -6 -21.5 -12t-42 -2t-18.5 22q2 12 2 28.5t-2 29.5q0 10 -4 18q-6 12 -16 27q-16 25 -17 51v12q0 23 21 35q4 6 10 12z M821 395h-10h-23.5t-25.5 -2q-12 -2 -21 -4q-4 -2 -10 -10q-14 -12 -26 -27q-2 -2 -7.5 -5t-18.5 -7t-23.5 -4t-19.5 9t-9 30h-4l-13 -4q-8 0 -16 2v-23q2 -35 2 -65q8 2 14 2q37 2 70 4t61 4q14 6 31 2q20 0 41 2q0 14 2 25q4 18 10 36q2 6 2 11q0 10 -4 22z" />
</font>
</defs>
</svg>
