<?xml version="1.0" standalone="no"?>
<!DOCTYPE svg PUBLIC "-//W3C//DTD SVG 1.1//EN" "http://www.w3.org/Graphics/SVG/1.1/DTD/svg11.dtd" >
<svg xmlns="http://www.w3.org/2000/svg" xmlns:xlink="http://www.w3.org/1999/xlink" version="1.1">
<metadata></metadata>
<defs>
<font id="tcaregular" horiz-adv-x="1484" >
<font-face units-per-em="2048" ascent="1638" descent="-410" />
<missing-glyph horiz-adv-x="500" />
<glyph horiz-adv-x="0" />
<glyph horiz-adv-x="682" />
<glyph unicode=" " />
<glyph unicode="!" d="M575 1511l196 74q40 -87 65 -185t34 -209t-10.5 -233t-68.5 -236l-190 82q43 107 59 207.5t4.5 189.5t-32.5 160t-57 150zM624 -184v411h207v-411h-207zM639 503q138 154 196 319.5t42 355.5l209 21q21 -195 -50 -418t-226 -398z" />
<glyph unicode="&#x22;" d="M394 1169v416h209v-416h-209zM655 1248l206 105v232h208v-359l-319 -165z" />
<glyph unicode="#" d="M-55 929v210h401v359l319 165l96 -187l-207 -105v-232h375v416h210v-416h413v-210h-1607zM117 -112q84 81 140 167.5t83 173.5t36.5 161.5t9.5 162.5l211 -13q1 -97 -16 -197.5t-54.5 -207.5t-106 -212t-161.5 -190zM331 652l47 206q198 -70 375 -60.5t349 97.5l100 -187 q-113 -61 -253.5 -92t-303.5 -23.5t-314 59.5zM821 -178q74 112 106.5 235t28.5 235t-33 242l208 36q33 -125 34.5 -267.5t-40 -304.5t-128.5 -292z" />
<glyph unicode="$" d="M191 1223l211 -5q-54 -424 181 -704l-162 -135q-78 87 -138.5 215t-89 298t-2.5 331zM225 1326l183 310l359 -22l-14 -209l-231 15l-118 -200zM455 -272l260 1586l206 -34l-259 -1586zM738 -289l401 110l56 -201l-401 -111zM810 467l130 169q157 -120 272 -327.5 t136 -444.5l-208 -42q-17 208 -98 366t-232 279z" />
<glyph unicode="%" d="M107 137l922 1292l168 -121l-922 -1291zM312 1169v416h209v-416h-209zM939 163v360l319 164l95 -187l-206 -105v-232h-208z" />
<glyph unicode="&#x26;" d="M61 236q28 90 77 182t118.5 181t164.5 166.5t201 125.5q400 139 544 470l190 -84q-31 -79 -90.5 -162.5t-141 -163t-190.5 -146t-225 -102.5q-176 -81 -283 -218.5t-172 -327.5zM95 -33l24 208q202 -48 374.5 -20t332.5 133l171 117l189 129l-29 227l204 26l44 -353 l-291 -199l116 -169l-171 -117l-114 166q-104 -72 -240 -117t-293.5 -56t-316.5 25zM180 1621l207 -19q-7 -93 3.5 -177.5t31.5 -150.5t56 -130t70 -111t81 -97l-163 -130q-65 70 -119 155.5t-97 188.5t-62.5 225t-7.5 246zM403 1378v207h822v-207h-822z" />
<glyph unicode="'" d="M638 1169v416h209v-416h-209z" />
<glyph unicode="(" d="M463 800q-5 116 31.5 254t123.5 287.5t210 256.5l158 -139q-315 -294 -313 -659q-1 -196 79.5 -352.5t228.5 -297.5l-154 -145q-151 135 -258 350t-106 445z" />
<glyph unicode=")" d="M422 143q315 294 313 659q1 196 -79.5 352.5t-228.5 297.5l154 144q151 -135 258 -349.5t106 -444.5q5 -116 -31.5 -254t-123.5 -287.5t-210 -256.5z" />
<glyph unicode="+" d="M113 505l164 320h359v314h210v-312h416v-209h-416v-312h-210v309l-232 1l-107 -206z" />
<glyph unicode="," d="M443 -104l204 104v229h205v-355l-315 -162z" />
<glyph unicode="-" d="M113 505l164 320h359l626 2v-207l-626 -5l-232 1l-107 -206z" />
<glyph unicode="." d="M619 -184v411h206v-411h-206z" />
<glyph unicode="/" d="M197 137l922 1292l169 -121l-923 -1291z" />
<glyph unicode="0" d="M227 911.5q8 169.5 67 319.5l202 -49q-141 -399 27 -717l-184 -96q-57 100 -88.5 236.5t-23.5 306zM307 1499q88 37 186.5 59t210.5 27t233 -19t233 -77l-88 -187q-105 47 -205 66.5t-189.5 11.5t-161.5 -27t-152 -52zM420 179l109 176l194 -121l195 121l109 -176 l-304 -187zM929 469q172 363 35 715l195 80q49 -117 65 -258t-7.5 -300.5t-89.5 -302.5z" />
<glyph unicode="1" d="M356 1202l109 339l352 56l33 -205l-227 -35l-70 -218zM739 50q221 338 135 703q-41 124 -53.5 259.5t18 299t111.5 305.5l180 -103l1 -3q-55 -101 -81.5 -199.5t-26 -188t13.5 -162.5t40 -155q24 -91 27.5 -196t-13 -215t-58.5 -224t-107 -214z" />
<glyph unicode="2" d="M23 314l1302 907l118 -170l-1302 -907zM53 938q310 289 308 648h208q5 -115 -31 -250.5t-121.5 -282t-207.5 -252.5zM143 143q106 71 242 114t294 52.5t316 -29.5l27 200l205 -27l-54 -407l-205 27q-202 50 -374.5 24t-333.5 -129zM569 1586q86 15 194 8t213 -30.5 t217.5 -78.5t206.5 -136l-135 -157q-72 59 -147.5 99.5t-141.5 61t-138 29t-130.5 6.5t-125.5 -10z" />
<glyph unicode="3" d="M308 207q206 -7 370.5 55t300.5 196l150 -146q-136 -141 -352.5 -230t-450.5 -83zM313 1201l3 209q96 6 196 -6.5t207 -45t213.5 -95t194.5 -150.5l-147 -147q-83 79 -171 130.5t-175 74t-161 29t-160 1.5zM602 702l187 303l176 -108l-120 -195l120 -195l-176 -109z" />
<glyph unicode="4" d="M79.5 1058.5q-4.5 140.5 33.5 301t121 290.5l175 -111q-71 -112 -100.5 -234t-24 -233t37.5 -238l-204 -39q-34 123 -38.5 263.5zM284 692l68 198q186 -90 361 -101t353 57l78 -194q-118 -48 -258.5 -63t-300 10t-301.5 93zM1018 27q215 366 110 709q-34 90 -51.5 189.5 t-18.5 212t27.5 233t86.5 230.5l184 -96q-51 -103 -74.5 -202.5t-19.5 -190t19.5 -163.5t45.5 -154q37 -108 41.5 -248.5t-35.5 -305.5t-126 -301z" />
<glyph unicode="5" d="M155 844v411h207v-411h-207zM244 1441l311 175l296 -198l-115 -172l-191 128l-199 -113zM376 678l6 208q96 4 196 -9.5t206.5 -47t212 -97.5t192.5 -153l-148 -145q-82 80 -169.5 132.5t-174.5 76.5t-161 31t-160 4zM553 205q193 13 341.5 104t276.5 246l154 -141 q-123 -159 -326 -280t-430 -136z" />
<glyph unicode="6" d="M182 0v1585h207v-1377v-1q423 -46 693 189l136 -157q-84 -78 -210 -139.5t-293 -92t-326 -7.5h-207zM387 1375v210q196 1 410.5 -92t373.5 -266l-137 -158q-139 153 -297.5 227.5t-349.5 78.5zM405 554v206h399h13h355l162 -316l-184 -94l-104 204h-229h-13h-399z" />
<glyph unicode="7" d="M115 1378v207h822v-61h1l207 -1l-1 -229l203 -105l-94 -183l-316 163q1 104 1 199v10h-823zM542 97l319 260q87 75 147.5 157t92 167t45.5 158.5t19 159.5l207 -25q-4 -96 -27 -194.5t-66.5 -202t-117.5 -203t-170 -178.5l-319 -259z" />
<glyph unicode="8" d="M438 491.5q19 160.5 81 304.5l200 -60q-83 -189 -86.5 -365t70.5 -351l-191 -86q-52 116 -72.5 256.5t-1.5 301zM471.5 1055.5q-13.5 139.5 13.5 302.5t102 298l183 -99q-63 -116 -84.5 -240t-9 -234t52.5 -235l-201 -53q-43 121 -56.5 260.5zM719 20q51 103 74.5 202 t19 189t-20 162t-45.5 154l201 59q46 -122 63 -256.5t-7.5 -298t-100.5 -308.5zM746 846q169 388 25 717l191 83q50 -103 71 -241.5t0.5 -307.5t-89.5 -314z" />
<glyph unicode="9" d="M154 206q206 1 367.5 69.5t291.5 208.5q130 144 174 311.5t29 368.5l209 5q14 -127 -4.5 -266.5t-82.5 -292.5t-168 -266q-130 -146 -343 -244t-447 -102zM415 1249l203 43l171 -804l-202 -43zM571 1476l339 110l250 -254l-147 -145l-161 163l-218 -70z" />
<glyph unicode=":" d="M443 805l204 104v229h205v-355l-315 -162zM639 -184v411h207v-411h-207z" />
<glyph unicode=";" d="M443 -104l204 104v229h205v-355l-315 -162zM643 727v411h207v-411h-207z" />
<glyph unicode="=" d="M-57 931v207h1584v-207h-1584zM113 403l164 320l359 -1l626 3v-208l-626 -4l-232 1l-107 -206z" />
<glyph unicode="?" d="M213 1501q121 50 254 72t297 3.5t312 -89.5l-89 -187q-105 47 -205 67t-189.5 12.5t-161.5 -25.5t-152 -51zM336 -184v411h207v-411h-207zM339 401v355l315 164q89 46 159.5 108t120.5 136t85 152t62 171l197 -68q-31 -124 -97.5 -248t-179.5 -244t-250 -191l-207 -106 v-229h-205z" />
<glyph unicode="@" d="M150 655l209 -13q-13 -196 58 -357t209 -311l-163 -135q-142 145 -235.5 365.5t-77.5 450.5zM168 734q85 180 263.5 335t405.5 225l85 -194q-200 -60 -337.5 -172.5t-224.5 -285.5zM436 278l54 356l341 114l66 -198l-220 -74q0 -4 -3 -22l411 -63l-31 -207l-412 63z M924 1100l166 130q119 -140 184.5 -376.5t20.5 -473.5l-210 11q66 425 -161 709z" />
<glyph unicode="A" d="M107 -2v1587h207v-1587h-207zM330 750v206h823v-206h-823zM388 1378v207h411v-207h-411zM852 1467l125 166q69 -48 137 -125t126 -174.5t98 -218.5t48 -243l-203 -42q-43 421 -331 637zM900 120q83 79 138.5 164.5t82.5 171t36.5 159.5t9.5 160l209 -13v-11 q0 -91 -16 -185q-17 -100 -54.5 -204.5t-105 -208t-159.5 -187.5z" />
<glyph unicode="B" d="M176 0v1585h207v-1585h-207zM398 3l21 207q46 -5 91 -4q142 0 264 48q162 64 314 194l127 -166q-149 -135 -371 -219q-172 -65 -346 -65q-50 0 -100 5zM409 1369l7 208q21 1 42 1q76 0 154 -12q100 -14 206 -48.5t211.5 -99.5t191.5 -154l-149 -144q-82 81 -169 134 t-173 78q-86 24 -160 32q-53 6 -115 6q-22 0 -46 -1zM413 789l740 358l90 -187l-740 -357zM937 722l162 130l257 -321l-162 -130z" />
<glyph unicode="C" d="M296 -447l7 207h10q109 0 205 21q100 22 178.5 65t137 88.5t118.5 107.5l140 -155q-142 -148 -350 -245q-192 -90 -410 -90q-18 0 -36 1zM312 -211v1587h206v-1587h-206zM312 1602q25 2 50 2q173 0 364 -72q219 -82 388 -245l-128 -165q-148 145 -310 211 q-147 60 -317 60q-18 0 -36 -1z" />
<glyph unicode="D" d="M72 137l922 1292l169 -121l-923 -1291zM99 474v822h207v-822h-207zM110 1495q120 51 253 75q79 14 170 14q62 0 128 -6q165 -16 313 -85l-87 -189q-106 46 -206 64q-69 13 -132 13q-29 -1 -57 -3q-90 -8 -161.5 -27t-151.5 -53zM415 27l6 208q82 -11 159 -11 q315 0 537 185l132 -160q-136 -121 -368 -191q-149 -45 -299 -45q-83 0 -167 14zM1062 1144l181 106q63 -110 99 -248q34 -130 34 -281v-17q-2 -162 -48 -312l-206 39q49 155 49 300q0 217 -109 413z" />
<glyph unicode="E" d="M189 1414l186 95q68 -108 110.5 -243t53.5 -296q2 -31 2 -61q0 -129 -38 -253q-79 -189 -79 -371q0 -177 75 -345l-190 -89q-54 115 -77 255q-13 82 -13 170q1 64 7 131q16 161 76 306q28 96 32 190q1 18 1 37q-1 74 -15 144q-18 88 -50 167t-81 163zM398 1476 q96 61 232 98q132 36 297 36h9q170 -1 322 -53l-41 -204q-165 50 -314 50q-218 0 -401 -107zM446 142l795 209l53 -200l-795 -209zM648 879l408 53l27 -205l-408 -53z" />
<glyph unicode="F" d="M264 -2v1587h207v-1587h-207zM479 748v206h356l162 -316l-184 -94l-105 204h-229zM479 1375v210h4q195 0 407 -92q214 -93 373 -266l-136 -158q-272 299 -648 306z" />
<glyph unicode="G" d="M99 758q14 161 71 307l202 -54q-73 -181 -73 -356q0 -184 81 -360l-189 -92q-56 114 -81 253q-16 90 -16 188q0 56 5 114zM304 1240q119 48 258 68q67 9 140 9q78 0 163 -11q164 -21 302 -90l-92 -187q-118 59 -243 75q-61 9 -118 9q-60 0 -116 -9q-110 -18 -233 -63z M304 1483q101 55 238 83q96 19 207 19q49 0 101 -4q169 -12 317 -74l-54 -201q-191 73 -365 73q-186 0 -353 -83zM340 89l87 189q106 -46 206 -64q68 -12 131 -12q30 0 58 2q90 9 161.5 28.5t151.5 53.5l69 -197q-120 -52 -253 -76q-80 -14 -171 -14q-61 0 -127 6 q-165 16 -313 84zM965 665l92 186l319 -159l2 -356l-207 -2l-1 229z" />
<glyph unicode="H" d="M123 0v1585h207v-632h822v-207h-822v-746h-207zM948 413l204 104v229h205v-355l-315 -162zM1152 953v411h207v-411h-207z" />
<glyph unicode="I" d="M269 75l53 201q191 -71 363 -71q188 0 355 84l92 -186q-101 -55 -238 -83q-99 -21 -215 -21q-45 0 -91 3q-170 11 -319 73zM292 1511q118 47 258 66q65 9 136 9q80 0 167 -12q164 -22 301 -91l-92 -186q-118 59 -243 76q-62 8 -119 8q-60 -1 -116 -9q-110 -18 -232 -61z M406 903q17 165 87 313l187 -89q-47 -105 -66 -205q-13 -71 -13 -136q0 -26 2 -54q8 -90 27 -161.5t52 -151.5l-197 -67q-51 120 -73 253q-13 76 -13 162q0 65 7 136zM703 412q80 192 80 369q0 174 -77 347l191 88q54 -114 77 -254q13 -81 14 -170q0 -62 -8 -130 q-16 -160 -76 -307z" />
<glyph unicode="J" d="M130 319l241 263l152 -139l-154 -169l81 -214l-193 -74zM440 159q202 42 347 140.5t245 261.5l181 -106q-99 -169 -288 -306.5t-418 -187.5zM622 1351l338 234l118 -170l-338 -234zM913 1290l184 98q51 -81 89 -174.5t62 -202.5q21 -95 21 -201q0 -16 -1 -32 q-3 -123 -37 -243l-200 57q29 111 31 213q1 10 1 20q0 91 -21 169q-22 87 -52.5 155t-76.5 141z" />
<glyph unicode="K" d="M101 0v1585h207v-1585h-207zM349 611l120 195l-120 195l176 109l187 -304l-187 -303zM673 1097q108 38 194 93t145.5 122.5t99 130.5t74.5 142l185 -97q-38 -88 -95 -171.5t-134.5 -164.5t-182 -147t-222.5 -105zM689 511l73 197q184 -68 353 -230.5t257 -379.5 l-184 -100q-77 192 -199.5 317t-299.5 196z" />
<glyph unicode="L" d="M120 164q-4 42 -4 86q0 54 6 111q11 104 41.5 213t89 217t138.5 193l561 601l151 -141l-560 -601q-132 -141 -179 -309q-37 -133 -37 -288q0 -40 2 -81zM334 15l13 209q103 -19 198 -18q93 0 177 17q172 36 325 149l128 -167q-156 -119 -383 -175q-131 -32 -263 -32 q-97 0 -195 17z" />
<glyph unicode="M" d="M112 0v1585h207v-1585h-207zM323 1385l59 200q94 -20 187 -59t187.5 -99t180 -149t146.5 -197l-180 -102q-59 99 -130 172t-149 118t-147.5 71t-153.5 45zM598 678q108 163 305.5 289.5t429.5 161.5l55 -202q-204 -30 -354.5 -120t-260.5 -246zM1150 0v820h206v-820h-206 z" />
<glyph unicode="N" d="M118 -2v1587h206v-1587h-206zM330 1286l195 69l275 -775l-195 -69zM669 317l185 93l103 -205l229 1v-207l-357 -1zM981 279v411q-3 43 -3 85q0 186 58 360q70 213 223 375l150 -143q-125 -133 -181 -309q-44 -136 -44 -283q0 -42 4 -85v-411h-207z" />
<glyph unicode="O" d="M20 330q34 122 106 245.5t190.5 241.5t257.5 185q84 47 180 79t206 50q70 11 144 11q44 0 90 -4q124 -10 240 -51l-68 -197q-110 36 -212 44q-33 3 -64 2q-65 0 -125 -12q-88 -18 -157.5 -44t-145.5 -67q-175 -86 -281 -226t-166 -330zM43 39l32 206q145 -38 277 -38 q240 0 435 125q185 100 301.5 231.5t170.5 310.5l202 -57q-50 -182 -202.5 -363t-359.5 -297q-73 -45 -168 -81t-207 -58q-95 -19 -200 -19q-19 0 -38 1q-127 4 -243 39z" />
<glyph unicode="P" d="M150 1v822h206h207v-169q99 4 188 29t166 70t141.5 99.5t128.5 125.5l147 -147q-82 -97 -195.5 -179.5t-267.5 -141.5t-308 -63v-35h-207v-411h-206zM165 1038l229 12l93 209l187 -83l-144 -325l-354 -20zM446 1279l37 204q84 -12 179 -50.5t191 -99t185.5 -151 t151.5 -195.5l-163 -129q-227 356 -581 421z" />
<glyph unicode="Q" d="M-94 80l71 194l215 -78l167 157l141 -151l-259 -244zM250 705l204 38q19 -91 51.5 -170t70.5 -136.5t89 -109.5t97.5 -87.5t104.5 -71.5l-122 -170q-82 50 -157 117.5t-144 155t-120.5 200t-73.5 234.5zM250 832q3 85 31 183t78 200t130 201t178 172l146 -148 q-330 -263 -356 -623zM853 1465l168 120l477 -670l-169 -120zM882 191q90 43 163 102t126 131.5t90.5 149.5t67.5 169l195 -76q-57 -193 -202 -379.5t-350 -283.5z" />
<glyph unicode="R" d="M216 -2v1587h207v-1587h-207zM425 1449l157 135l232 -270l-137 -329l-191 79l88 212zM436 844l88 188q216 -85 377.5 -239t242.5 -363l149 -386l-194 -74l-148 385q-66 170 -200.5 295.5t-314.5 193.5z" />
<glyph unicode="S" d="M148 -317l940 1278l167 -123l-941 -1277zM272 763v822h207v-822h-207zM496 763v207h411v-207h-411zM496 1380v205h355l162 -315l-184 -94l-104 204h-229z" />
<glyph unicode="T" d="M136 903q32 124 98.5 248t179.5 244t250 190l96 -184q-89 -46 -159.5 -108t-120.5 -136t-85 -152t-62 -171zM710 159v356h207v-229l204 -103l-93 -185zM710 542v823h207v-226h409v-207h-409v-390h-207z" />
<glyph unicode="U" d="M102 132v822v355l315 163l94 -184l-203 -104v-230v-822h-206zM302 84l65 199q202 -94 399 -94q160 0 316 62l82 -194q-117 -50 -258 -67q-61 -7 -125 -7q-85 1 -176 13q-160 22 -303 88zM1169 62v1587h207v-1587h-207z" />
<glyph unicode="V" d="M27 770l208 -7q0 -15 -1 -29q0 -178 69 -322q74 -156 215 -300l-156 -138q-145 139 -244 354q-92 199 -92 408q0 17 1 34zM107 931q301 286 301 640v12l208 2q1 -14 1 -29q-1 -72 -17 -156q-20 -101 -60.5 -206.5t-112 -211t-162.5 -186.5zM421 -64l108 176l195 -120 l195 120l109 -176l-304 -187zM905 1585l207 -14q-1 -23 -1 -45q-1 -68 9 -132q12 -84 35.5 -149.5t60.5 -128.5t73.5 -108.5t83.5 -94.5l-159 -134q-67 68 -123.5 152t-102.5 185.5t-68 223.5q-17 90 -17 180q0 32 2 65zM929 113q152 140 225.5 299t76.5 350l210 1v-7 q-1 -124 -37 -256q-38 -136 -119.5 -276t-196.5 -247z" />
<glyph unicode="W" d="M98 1552l204 35l270 -1564l-204 -35zM432 1048l303 187l304 -187l-109 -176l-195 120l-195 -120zM548 796h208q-1 -194 78.5 -348.5t225.5 -293.5l-152 -143q-150 134 -255.5 346t-104.5 439zM927 371l76 404l203 -39l-76 -403zM1008 792l150 808l204 -38l-151 -808z" />
<glyph unicode="X" d="M85 80l527 705l-1 1q-179 133 -283.5 329.5t-129.5 427.5l203 43q16 -195 101 -359t233 -275l2 -1l299 399l165 -123l-443 -593l641 -493l-126 -164l-639 492l-384 -513z" />
<glyph unicode="Y" d="M191 1567h209q-9 -71 -9 -138q0 -126 31 -236q47 -169 169 -316l-159 -137q-129 148 -198 371q-51 161 -51 326q0 65 8 130zM597 0v1585h207v-1585h-207zM808 895q63 68 107.5 140.5t68.5 138.5t37.5 135t13.5 131t-3 126l209 1q3 -38 3 -77q0 -58 -6 -118 q-11 -101 -41.5 -208.5t-91.5 -215t-147 -197.5z" />
<glyph unicode="Z" d="M218 479l583 579l146 -147l-584 -579zM246 1280l28 206q137 -33 263 -33q249 0 448 132l114 -173q-93 -67 -227 -112q-136 -44 -300 -55q-32 -2 -63 -2q-132 0 -263 37zM261 273q119 42 261 50q28 2 56 2q116 0 244 -27q158 -33 297 -107l-77 -194q-220 121 -443 121 q-134 0 -269 -44zM816 1074l292 289l146 -147l-292 -289z" />
<glyph unicode="\" d="M202 1357l177 107l823 -1356l-176 -108z" />
<glyph unicode="^" d="M432 1396l303 187l304 -187l-109 -176l-195 120l-195 -120z" />
<glyph unicode="_" d="M113 -437l164 320h359l626 2v-207l-626 -5l-232 1l-107 -206z" />
<glyph unicode="a" d="M16 314l184 94l104 -204h229v-206h-355zM81 569q79 179 251.5 337t394.5 233l89 -190q-196 -64 -329 -178.5t-214 -287.5zM490 319q154 117 229 273.5t97 356.5l206 -34q-10 -127 -55 -260.5t-136.5 -270.5t-214.5 -230zM1015 818l207 -23q-4 -48 -4 -93q0 -64 8 -122 q14 -100 51 -183t78 -144.5t98 -126.5l-165 -128q-137 154 -218 368q-61 162 -61 338q0 56 6 114z" />
<glyph unicode="b" d="M251 0v1585h207v-1585h-207zM465 157q133 149 345 255q210 105 435 104h4v-207h-5q-192 -1 -344 -79q-154 -80 -293 -225zM483 941l67 198q93 -24 184.5 -66.5t183.5 -106.5t174 -156.5t139 -202.5l-185 -95q-44 82 -98.5 147.5t-108 109.5t-117.5 79t-118.5 55 t-120.5 38z" />
<glyph unicode="c" d="M107 565l182 304l177 -107l-118 -196l120 -195l-175 -108zM383 248l137 156q146 -128 314 -170q120 -30 256 -31q55 0 112 5l7 -208q-59 -7 -120 -7q-71 -1 -147 9q-140 18 -292 80.5t-267 165.5zM387 888q147 130 370 200q163 52 331 51q62 0 125 -7l1 -209 q-69 8 -134 8q-128 1 -240 -31q-168 -48 -315 -171z" />
<glyph unicode="d" d="M205 778q64 71 143.5 133t178 114.5t218.5 83t244 30.5v-208q-115 -3 -213.5 -28t-176 -70.5t-134.5 -93t-115 -111.5zM214 358l137 157q287 -308 643 -308h5v-206h-26q-171 -1 -379 85q-224 92 -380 272zM619 557l177 307l179 -104l-115 -198l124 -193l-173 -111z M1017 0v1585h207v-1585h-207z" />
<glyph unicode="e" d="M189 662q16 160 76 307l202 -57q-79 -189 -79 -371q0 -177 75 -345l-190 -89q-54 115 -77 255q-14 83 -14 172q0 62 7 128zM429 81l84 190q121 -53 246 -65q44 -4 85 -4q78 0 148 14q108 22 231 71l69 -197q-116 -52 -254 -76q-88 -16 -188 -16q-56 0 -116 5 q-165 14 -305 78zM441 1070q90 34 189 52t211 19h8q108 1 224 -27q120 -28 230 -86l-95 -184q-102 51 -202 74q-83 19 -160 19q-15 -1 -30 -1q-90 -4 -162.5 -20t-153.5 -46zM447 452v206h411v-206h-411z" />
<glyph unicode="f" d="M391 -364v1586h207v-431h410v-206h-410v-949h-207zM431 1401l304 184l302 -185l-109 -176l-195 120l-196 -119z" />
<glyph unicode="g" d="M231 224h208q3 -115 28 -213.5t70.5 -176.5t93 -135t111.5 -115l-150 -145q-71 64 -133 143.5t-114.5 178.5t-83 219t-30.5 244zM372 765l90 342l200 -53l-59 -221l171 -153l-138 -153zM656 1079l198 60l7 -24l396 114l58 -199l-394 -113l171 -565l-198 -60zM743 -416 q174 248 174 519q0 89 -19 180l205 47q22 -107 22 -222q0 -22 -1 -44q-5 -138 -56 -293t-140 -285z" />
<glyph unicode="h" d="M20 142q158 132 239 287.5t93 346.5l210 -9q-7 -196 -109 -406.5t-281 -362.5zM564 0v1585h207v-1585h-207zM773 1061l153 142q70 -65 130 -146t111 -181t79 -220q25 -109 25 -221v-24l-208 4q0 115 -23.5 214t-67 178t-90 137t-109.5 117zM1064 0v409h207v-409h-207z " />
<glyph unicode="i" d="M542 932l1 207l229 -1l104 204l183 -94l-163 -316h-354zM618 -2v822h207v-822h-207z" />
<glyph unicode="j" d="M304 -283l107 177l196 -118l195 121l108 -174l-302 -188zM730 568l202 -45q-18 -91 -18 -176.5t12.5 -153.5t39.5 -135.5t56.5 -118.5t68.5 -106l-178 -109q-120 167 -177 388q-30 117 -30 238q0 108 24 218zM795 843l92 400l201 -46l-91 -400z" />
<glyph unicode="k" d="M370 0v1585h207v-446h355l162 -315l-184 -94l-104 203h-229v-933h-207zM594 640l152 143q150 -134 255.5 -345t104.5 -438h-208q1 193 -78.5 347t-225.5 293z" />
<glyph unicode="l" d="M512 1512l180 105q54 -79 95 -169.5t69 -203.5t28 -229t-28 -246q-19 -78 -22 -155q-1 -17 -1 -34q1 -58 9 -112q10 -68 33.5 -137.5t54.5 -130.5t73 -126l-181 -104q-114 165 -168 396q-27 115 -26 227q0 114 27 225q20 90 22 176v26q0 70 -9 128q-11 68 -36.5 136.5 t-53.5 120t-66 107.5z" />
<glyph unicode="m" d="M63 687l158 139q130 -147 201 -370q52 -163 52 -332q0 -62 -7 -124l-209 -1q8 65 8 127q0 319 -203 561zM174 1050q118 51 256 74q82 14 172 14q62 0 130 -7q164 -16 305 -81l-86 -189q-119 55 -245 68q-49 5 -95 5q-73 0 -140 -12q-109 -20 -230 -69zM443 779l146 145 l250 -252l-109 -337l-197 64l72 218zM917 689l156 137q125 -132 202 -362q54 -163 55 -328q0 -69 -10 -138h-208q7 64 7 125q0 336 -202 566z" />
<glyph unicode="n" d="M100 1v818h206v-818h-206zM303 848l315 164l290 -205q159 -116 278.5 -318.5t144.5 -434.5l-204 -46q-21 205 -104.5 359.5t-234.5 271.5l-187 133l-203 -106z" />
<glyph unicode="o" d="M201 355v13q0 189 86 396q89 214 258 375l164 -144q-152 -143 -224.5 -296.5t-73.5 -342.5v-1h-210zM407 181l109 176l195 -120l195 119l107 -175l-303 -185zM719 995l150 145q71 -64 133 -143.5t114.5 -178.5t83 -219t30.5 -244h-208q-3 115 -28 213.5t-70.5 176.5 t-93 135t-111.5 115z" />
<glyph unicode="p" d="M151 0v823h207v-823h-207zM151 -51h207v-411h-207v411zM185 1042q119 53 251 79q87 17 186 17q54 0 112 -5q165 -14 314 -80l-84 -190q-106 44 -206 61q-65 11 -125 11q-33 0 -65 -3q-90 -10 -161.5 -30.5t-150.5 -55.5zM399 213q63 -7 122 -7q134 0 251 35 q169 50 314 174l140 -157q-145 -131 -368 -204q-170 -56 -345 -56q-55 0 -111 6zM978 834l148 143l247 -255l-113 -336l-196 66l74 217z" />
<glyph unicode="q" d="M65 421q19 125 79 254t164 253t235 211l134 -160q-173 -113 -271.5 -258t-132.5 -333zM285 168v207h411v764h207v-1395l229 -1l105 204l183 -94l-163 -316h-354v15h-207v616h-411z" />
<glyph unicode="r" d="M384 0v820h206v-820h-206zM384 933v206h355l162 -315l-184 -94l-104 203h-229zM799 1042l183 97l193 -363l-183 -97z" />
<glyph unicode="s" d="M117 563l206 6l8 -229l207 -97l-88 -186l-321 151zM421 896q101 82 223 140.5t286 87.5q85 15 168 15q78 0 156 -13l-34 -205q-66 9 -129 9q-4 0 -8 1q-58 0 -108 -7q-53 -7 -105 -21.5t-94.5 -32.5t-86 -42.5t-78 -48.5t-71.5 -54zM470 524l51 201l797 -201l-50 -200z M507 36l32 207q141 -39 273 -40q233 0 438 124l111 -177q-107 -68 -245 -108q-136 -39 -294 -44q-16 -1 -33 -1q-141 0 -282 39z" />
<glyph unicode="t" d="M313 823l162 316h355l-1 -207l-229 1l-105 -204zM622 -97v822h207v-822h-207zM829 725v207h411v-207h-411z" />
<glyph unicode="u" d="M98 994l206 36q23 -403 313 -648l177 -145l210 92l82 -188l-325 -143l-275 224q-154 123 -264 331t-124 441zM1122 0v1231h207v-1231h-207z" />
<glyph unicode="v" d="M226 956l94 183l316 -162l1 -354v-411h-207v411v229zM629 135q153 139 227.5 297.5t78.5 349.5h210q1 -196 -92 -410.5t-266 -373.5z" />
<glyph unicode="w" d="M115 690l159 137q129 -148 199 -371q51 -161 51 -327q0 -64 -8 -129h-209q9 71 9 137q0 126 -32 237q-48 169 -169 316zM416 957l304 184l302 -185l-108 -176l-195 120l-196 -119zM614 86v411h206v-411h-206zM902 1q-3 37 -3 75q0 60 7 121q11 100 42 207.5t92.5 214.5 t147.5 196l149 -144q-78 -84 -129 -175t-71 -172q-19 -81 -27 -166q-4 -41 -4 -79q0 -41 4 -79z" />
<glyph unicode="x" d="M82 39q24 124 88.5 251t173 247t242.5 202l128 -165q-176 -106 -280.5 -247.5t-145.5 -328.5zM411 962l108 177l196 -120l195 120l107 -175l-303 -186zM742 575l124 168q80 -49 157 -120t146 -160t120 -200.5t71 -226.5l-204 -38q-18 99 -56 184.5t-94 156t-119.5 126.5 t-144.5 110z" />
<glyph unicode="y" d="M195 1139h209q-9 -71 -9 -138q0 -126 31 -236q47 -169 169 -316l-159 -137q-129 148 -198 371q-51 161 -51 326q0 65 8 130zM490 -269q182 68 299 197t196 314l187 -93q-34 -87 -90 -175.5t-132 -172t-176 -154t-210 -110.5zM516 257l89 186l371 -176l-89 -186zM995 317 v822h207v-822h-207z" />
<glyph unicode="z" d="M183 330l1001 714l120 -168l-1001 -714zM183 938l57 201q191 -79 366 -79q1 0 2 -1q174 0 347 77l89 -190q-114 -54 -254 -77q-82 -14 -172 -14q-62 0 -128 7q-160 16 -307 76zM345 189q88 37 186.5 59t210.5 27q20 1 40 1q94 0 193 -20q121 -24 233 -76l-89 -188 q-105 47 -205 66q-70 13 -136 13q-28 0 -54 -2q-90 -8 -161.5 -26.5t-151.5 -51.5z" />
<glyph unicode="|" d="M632 -204v1584h206v-1584h-206z" />
<glyph unicode="&#xa0;" />
<glyph unicode="&#xa1;" d="M384 202q-21 195 49.5 418t225.5 398l172 -120q-138 -154 -196 -319.5t-42 -355.5zM601.5 364q11.5 165 76.5 315l191 -82q-43 -107 -59 -207.5t-5 -189.5t32 -160t57 -150l-195 -74q-55 118 -82 250.5t-15.5 297.5zM639 1174v411h207v-411h-207z" />
<glyph unicode="&#xa9;" d="M145 743l205 53q28 -207 116.5 -361t244.5 -267l-121 -175q-164 112 -288.5 313.5t-156.5 436.5zM274 1047q76 39 177 62.5t216 29t242 -17t239 -73.5l-60 -202q-396 164 -726 10zM497 585l178 312l181 -105l-115 -201l126 -194l-174 -113zM713 168q162 110 246 264.5 t118 355.5l206 -46q-13 -94 -47 -194t-88.5 -201t-136.5 -194t-180 -159z" />
<glyph unicode="&#xad;" d="M113 505l164 320h359l626 2v-207l-626 -5l-232 1l-107 -206z" />
<glyph unicode="&#xae;" d="M145 743l205 53q28 -207 116.5 -361t244.5 -267l-121 -175q-164 112 -288.5 313.5t-156.5 436.5zM274 1047q76 39 177 62.5t216 29t242 -17t239 -73.5l-60 -202q-396 164 -726 10zM548 370v360l319 164l95 -186l-206 -106v-232h-208zM713 168q162 110 246 264.5 t118 355.5l206 -46q-13 -94 -47 -194t-88.5 -201t-136.5 -194t-180 -159z" />
<glyph unicode="&#xbf;" d="M142 -18q23 91 68 185.5t109.5 187t155.5 174.5t195 136l206 106v229h205v-355l-315 -163q-171 -89 -271 -231.5t-156 -336.5zM344 -86l90 187q105 -47 204.5 -67t189.5 -12t161 26t152 51l66 -198q-121 -50 -254 -72t-297.5 -4t-311.5 89zM877 1174v411h207v-411h-207z " />
<glyph unicode="&#xd7;" d="M158 1030l342 109l254 -254l222 222l148 -148l-220 -220l294 -294l-148 -149l-294 295l-220 -220l-149 148l219 218l-164 165l-221 -71z" />
<glyph unicode="&#xf7;" d="M305 448l49 206q382 -142 724 27l99 -188q-114 -60 -254.5 -89t-304 -19.5t-313.5 63.5zM433 963l107 179l199 -119l197 123l110 -177l-305 -190zM613 -184v411h207v-411h-207z" />
<glyph unicode="&#x2000;" horiz-adv-x="831" />
<glyph unicode="&#x2001;" horiz-adv-x="1663" />
<glyph unicode="&#x2002;" horiz-adv-x="831" />
<glyph unicode="&#x2003;" horiz-adv-x="1663" />
<glyph unicode="&#x2004;" horiz-adv-x="554" />
<glyph unicode="&#x2005;" horiz-adv-x="415" />
<glyph unicode="&#x2006;" horiz-adv-x="277" />
<glyph unicode="&#x2007;" horiz-adv-x="277" />
<glyph unicode="&#x2008;" horiz-adv-x="207" />
<glyph unicode="&#x2009;" horiz-adv-x="332" />
<glyph unicode="&#x200a;" horiz-adv-x="92" />
<glyph unicode="&#x2010;" d="M113 505l164 320h359l626 2v-207l-626 -5l-232 1l-107 -206z" />
<glyph unicode="&#x2011;" d="M113 505l164 320h359l626 2v-207l-626 -5l-232 1l-107 -206z" />
<glyph unicode="&#x2012;" d="M113 505l164 320h359l626 2v-207l-626 -5l-232 1l-107 -206z" />
<glyph unicode="&#x2013;" horiz-adv-x="1359" d="M113 505l146 320h320l558 2v-207l-558 -5l-207 1l-95 -206z" />
<glyph unicode="&#x2014;" horiz-adv-x="2383" d="M113 505l292 320h640l1116 2v-207l-1116 -5l-413 1l-191 -206z" />
<glyph unicode="&#x202f;" horiz-adv-x="332" />
<glyph unicode="&#x205f;" horiz-adv-x="415" />
<glyph unicode="&#x25fc;" horiz-adv-x="1136" d="M0 0v1137h1137v-1137h-1137z" />
</font>
</defs>
</svg>
