<?xml version="1.0" encoding="utf-8"?>
<!-- Generator: Adobe Illustrator 18.1.1, SVG Export Plug-In . SVG Version: 6.00 Build 0)  -->
<svg version="1.1" id="Layer_1" xmlns="http://www.w3.org/2000/svg" xmlns:xlink="http://www.w3.org/1999/xlink" x="0px" y="0px"
	 viewBox="0 0 241.4 149.8" enable-background="new 0 0 241.4 149.8" xml:space="preserve">
<g>
	<polyline fill="none" stroke="#010101" stroke-width="1.5" stroke-miterlimit="10" points="240.4,0 240.4,40 150.7,149 1,149 
		1,109 	"/>
	<polygon fill="none" points="1.6,108.2 149.6,108.2 239.8,0.8 91.8,0.8 	"/>
	<polygon fill="none" stroke="#010101" stroke-width="1.5" stroke-miterlimit="10" points="1.6,108.2 149.6,108.2 239.8,0.8 
		91.8,0.8 	"/>
	<polyline fill="none" stroke="#010101" stroke-width="1.5" stroke-miterlimit="10" points="240.3,8 150.7,114.8 0.7,114.8 	"/>
	<polyline fill="none" stroke="#010101" stroke-width="1.5" stroke-miterlimit="10" points="240.3,14.5 150.7,121.2 0.7,121.2 	"/>
	<polyline fill="none" stroke="#010101" stroke-width="1.5" stroke-miterlimit="10" points="240.3,21.9 150.7,128.7 0.7,128.7 	"/>
	<polyline fill="none" stroke="#010101" stroke-width="1.5" stroke-miterlimit="10" points="240.3,27.9 150.7,134.7 0.7,134.7 	"/>
	<polyline fill="none" stroke="#010101" stroke-width="1.5" stroke-miterlimit="10" points="240.3,34.5 150.7,141.2 0.7,141.2 	"/>
	<path d="M161.7,43.5c1.2,0,2.2,0.6,1.7,2.2c-0.4,1.2-1.4,2.5-2.4,3.7c-0.8,0.9-2,2.4-3.8,3.6c-2,1.4-3.8,1.9-4.9,1.9
		c-2,0-3.1-1.5,0.6-5.9C156.4,44.8,159.9,43.5,161.7,43.5 M163.1,49.2c1.1-1.3,2.4-3.1,2.8-4.6c0.4-1.8-0.9-2.6-2.8-2.6
		c-2.6,0-7.6,1.6-12.3,7.1c-4.6,5.5-2.5,7.2,0.2,7.2c1.9,0,4.6-0.8,7.3-2.7C160.5,52.2,162,50.4,163.1,49.2 M142.7,42.1l-1.2,1.4h5
		l-10.6,12.6h2l10.6-12.6h5.1l1.2-1.4H142.7z M123.3,49.8h10.1l1.3-1.5h-10.1L123.3,49.8z M114.3,42.2l-9,14.1h0.8l10.8-9.3
		l-4.8,9.3h0.8l14.6-14.1h-1.6l-9.6,9.5l4.3-8.5h-0.6l-9.9,8.5l6.1-9.5H114.3z M105.7,43.5c1.2,0,2.2,0.6,1.7,2.2
		c-0.4,1.2-1.4,2.5-2.4,3.7c-0.8,0.9-2,2.4-3.8,3.6c-2,1.4-3.8,1.9-4.9,1.9c-2,0-3.1-1.5,0.6-5.9C100.4,44.8,103.9,43.5,105.7,43.5
		 M107.1,49.2c1.1-1.3,2.4-3.1,2.8-4.6c0.4-1.8-0.9-2.6-2.8-2.6c-2.6,0-7.6,1.6-12.3,7.1c-4.6,5.5-2.5,7.2,0.2,7.2
		c1.9,0,4.6-0.8,7.3-2.7C104.5,52.2,106,50.4,107.1,49.2 M87.3,42.2l-11.8,14h2l5.6-6.7H90l-5.6,6.7h2l11.4-13.5
		c0.2-0.2,0.4-0.2,0.5-0.4c0,0,0-0.1,0-0.1h-2.1l-5,6h-6.8l4.6-5.5c0.2-0.2,0.4-0.3,0.5-0.4c0,0,0.1-0.1,0.1-0.1H87.3z"/>
</g>
</svg>
