<?xml version="1.0" encoding="utf-8"?>
<!-- Generator: Adobe Illustrator 18.1.1, SVG Export Plug-In . SVG Version: 6.00 Build 0)  -->
<svg version="1.1" id="Layer_1" xmlns="http://www.w3.org/2000/svg" xmlns:xlink="http://www.w3.org/1999/xlink" x="0px" y="0px"
	 viewBox="2.2 60.3 787.6 489.3" enable-background="new 2.2 60.3 787.6 489.3" xml:space="preserve">
<g>
	<polyline vector-effect="non-scaling-stroke" fill="#BEC6C9" stroke="#010101" stroke-miterlimit="10" points="788.7,60.3 
		788.7,191.5 494.4,549.1 3.3,549.1 3.3,417.9 	"/>
	<polygon fill="none" points="5.2,415.3 490.8,415.3 786.8,62.9 301.2,62.9 	"/>
	<polygon vector-effect="non-scaling-stroke" fill="#BEC6C9" stroke="#010101" stroke-miterlimit="10" points="3.2,417.3 
		488.8,417.3 788.8,60.9 303.2,60.9 	"/>
	<polyline vector-effect="non-scaling-stroke" fill="none" stroke="#010101" stroke-miterlimit="10" points="788.4,86.5 
		494.4,436.9 2.3,436.9 	"/>
	<polyline vector-effect="non-scaling-stroke" fill="none" stroke="#010101" stroke-miterlimit="10" points="788.4,107.8 
		494.4,457.9 2.3,457.9 	"/>
	<polyline vector-effect="non-scaling-stroke" fill="none" stroke="#010101" stroke-miterlimit="10" points="788.4,132.1 
		494.4,482.5 2.3,482.5 	"/>
	<polyline vector-effect="non-scaling-stroke" fill="none" stroke="#010101" stroke-miterlimit="10" points="788.4,151.8 
		494.4,502.2 2.3,502.2 	"/>
	<polyline vector-effect="non-scaling-stroke" fill="none" stroke="#010101" stroke-miterlimit="10" points="788.4,173.5 
		494.4,523.5 2.3,523.5 	"/>
	<path d="M530.5,203c3.9,0,7.2,2,5.6,7.2c-1.3,3.9-4.6,8.2-7.9,12.1c-2.6,3-6.6,7.9-12.5,11.8c-6.6,4.6-12.5,6.2-16.1,6.2
		c-6.6,0-10.2-4.9,2-19.4C513.1,207.2,524.6,203,530.5,203 M535.1,221.7c3.6-4.3,7.9-10.2,9.2-15.1c1.3-5.9-3-8.5-9.2-8.5
		c-8.5,0-24.9,5.2-40.4,23.3c-15.1,18-8.2,23.6,0.7,23.6c6.2,0,15.1-2.6,24-8.9C526.6,231.5,531.5,225.6,535.1,221.7 M468.2,198.4
		l-3.9,4.6h16.4l-34.8,41.3h6.6l34.8-41.3h16.7l3.9-4.6H468.2z M404.5,223.7h33.1l4.3-4.9h-33.1L404.5,223.7z M375,198.7L345.5,245
		h2.6l35.4-30.5L367.8,245h2.6l47.9-46.3h-5.2l-31.5,31.2l14.1-27.9h-2l-32.5,27.9l20-31.2L375,198.7L375,198.7z M346.8,203
		c3.9,0,7.2,2,5.6,7.2c-1.3,3.9-4.6,8.2-7.9,12.1c-2.6,3-6.6,7.9-12.5,11.8c-6.6,4.6-12.5,6.2-16.1,6.2c-6.6,0-10.2-4.9,2-19.4
		C329.4,207.2,340.9,203,346.8,203 M351.4,221.7c3.6-4.3,7.9-10.2,9.2-15.1c1.3-5.9-3-8.5-9.2-8.5c-8.5,0-24.9,5.2-40.4,23.3
		c-15.1,18-8.2,23.6,0.7,23.6c6.2,0,15.1-2.6,24-8.9C342.9,231.5,347.8,225.6,351.4,221.7 M286.4,198.7l-38.7,45.9h6.6l18.4-22h22.6
		l-18.4,22h6.6l37.4-44.3c0.7-0.7,1.3-0.7,1.6-1.3v-0.3h-6.9l-16.4,19.7h-22.3l15.1-18c0.7-0.7,1.3-1,1.6-1.3l0.3-0.3H286.4z"/>
</g>
</svg>
