<?xml version="1.0" encoding="utf-8"?>
<!-- Generator: Adobe Illustrator 15.0.0, SVG Export Plug-In . SVG Version: 6.00 Build 0)  -->
<!DOCTYPE svg PUBLIC "-//W3C//DTD SVG 1.1//EN" "http://www.w3.org/Graphics/SVG/1.1/DTD/svg11.dtd">
<svg version="1.1" id="Layer_1" xmlns="http://www.w3.org/2000/svg" xmlns:xlink="http://www.w3.org/1999/xlink" x="0px" y="0px"
	 width="1200px" height="806.537px" viewBox="0 109.537 1200 806.537" enable-background="new 0 109.537 1200 806.537"
	 xml:space="preserve">
<linearGradient id="SVGID_1_" gradientUnits="userSpaceOnUse" x1="600" y1="807.877" x2="600" y2="573.6976" gradientTransform="matrix(1 0 0 -1 0 917.0742)">
	<stop  offset="0" style="stop-color:#0D0EFE"/>
	<stop  offset="1" style="stop-color:#FF2C39"/>
</linearGradient>
<rect y="109.537" fill="url(#SVGID_1_)" width="1200" height="233.363"/>
<rect y="342.9" fill="#5BA400" width="1200" height="573.2"/>
<polygon fill="#BEC6C9" points="424.9,510.9 0,510.9 0,580.9 351.5,580.9 0,916.1 601,916.1 1202,916.1 1086.6,806 1200,806 
	1200,611.9 883,611.9 760.9,495.4 1200,495.4 1200,457.9 721.5,457.9 601,342.9 "/>
<rect x="1015.5" y="335" fill="#634E2F" width="30.8" height="107.9"/>
<polygon fill="#5D2C1D" points="680,345.9 779.2,250.8 878.5,382.9 "/>
<rect x="737.8" y="352.9" fill="#99B7CE" width="140.7" height="90"/>
<polygon fill="#CCCCFF" points="680,345.9 679.8,393.6 737.8,442.9 738,352.9 "/>
<g>
	<path fill="#FFFFFF" d="M599,342.9"/>
</g>
<polygon fill="#5D2C1D" points="0,306 0,518 279.9,420.9 60,218.9 "/>
<polyline fill="#FFC2D3" points="279.9,606.9 110,746.9 109.9,476.9 279.9,420.9 "/>
<polygon fill="#969696" points="0,477 0,746.9 110,746.9 110,476.9 "/>
<polygon fill="#5D2C1D" points="812,365.5 961,206.9 1110,404.9 940,554.9 "/>
<rect x="899" y="404.9" fill="#634E2F" width="211" height="186"/>
<polygon fill="#95825A" points="812,365.5 812,516.9 899,590.9 899,404.9 "/>
<rect x="367" y="314.9" fill="#634E2F" width="48" height="168"/>
<g>
	<path fill="#486A16" d="M391,382.875c55.781,0,101-45.22,101-101c0-55.78-45.219-101-101-101s-101,45.22-101,101
		C290,337.7,335.2,382.9,391,382.9"/>
</g>
</svg>
