<?xml version="1.0" encoding="utf-8"?>
<!-- Generator: Adobe Illustrator 15.0.0, SVG Export Plug-In . SVG Version: 6.00 Build 0)  -->
<!DOCTYPE svg PUBLIC "-//W3C//DTD SVG 1.1//EN" "http://www.w3.org/Graphics/SVG/1.1/DTD/svg11.dtd">
<svg version="1.1" id="Layer_1" xmlns="http://www.w3.org/2000/svg" xmlns:xlink="http://www.w3.org/1999/xlink" x="0px" y="0px"
	 width="1200px" height="806.537px" viewBox="0 0 1200 806.537" enable-background="new 0 0 1200 806.537" xml:space="preserve">
<rect y="-1.013" fill="#FCFCF6" width="1200" height="233.363"/>
<polyline fill="#6660EF" points="1200,232.35 1200,805.55 0,805.55 0,232.35 "/>
<polygon fill="#FCFCF6" points="424.9,400.351 0,400.351 0,470.351 351.5,470.351 0,805.55 601,805.55 1202,805.55 1086.6,695.45 
	1200,695.45 1200,501.351 883,501.351 760.9,384.851 1200,384.851 1200,347.351 721.5,347.351 601,232.35 "/>
<rect x="1015.5" y="224.45" fill="#634E2F" width="30.8" height="107.9"/>
<polygon fill="#4E3AF7" points="680,235.35 779.2,140.25 878.5,272.35 "/>
<rect x="737.8" y="242.35" fill="#726BF2" width="140.7" height="90"/>
<polygon fill="#C9C9F7" points="680,235.35 679.8,283.05 737.8,332.351 738,242.35 "/>
<g>
	<path fill="#FFFFFF" d="M599,232.35"/>
</g>
<polygon fill="#4E3AF7" points="0,195.45 0,407.45 279.9,310.351 60,108.35 "/>
<polyline fill="#C9C9F7" points="279.9,496.351 110,636.351 109.9,366.351 279.9,310.351 "/>
<polygon fill="#726BF2" points="0,366.45 0,636.351 110,636.351 110,366.351 "/>
<polygon fill="#4E3AF7" points="812,254.95 961,96.35 1110,294.351 940,444.351 "/>
<rect x="899" y="294.351" fill="#726BF2" width="211" height="186"/>
<polygon fill="#C9C9F7" points="812,254.95 812,406.351 899,480.351 899,294.351 "/>
<rect x="367" y="204.35" fill="#FCFCF6" width="48" height="168"/>
<g>
	<path fill="#C9C9F7" d="M391,272.325c55.781,0,101-45.22,101-101c0-55.78-45.219-101-101-101s-101,45.22-101,101
		c0,55.825,45.2,101.025,101,101.025"/>
</g>
<rect x="-497.5" y="192.911" fill="#FCFCF6" width="465" height="465"/>
<path fill="none" stroke="#4E3AF7" stroke-width="0.5" stroke-miterlimit="10" d="M-291.093,301.017
	c-3.347,4.78-3.549,10.95-3.333,16.667"/>
<path fill="none" stroke="#4E3AF7" stroke-width="0.5" stroke-miterlimit="10" d="M-384.468,402.069
	c0.694,5.893-2.859,11.177-6.667,15.333"/>
<path fill="none" stroke="#4E3AF7" stroke-width="0.5" stroke-miterlimit="10" d="M-325.042,468.932c0,1.777,0,3.557,0,5.334"/>
<path fill="none" stroke="#4E3AF7" stroke-width="0.5" stroke-miterlimit="10" d="M-311.042,498.932c0,0.445,0,0.889,0,1.334"/>
<path fill="none" stroke="#4E3AF7" stroke-width="0.5" stroke-miterlimit="10" d="M-363.042,516.266
	c-3.192,1.336-5.104-0.479-7.333-3.334"/>
<path fill="none" stroke="#4E3AF7" stroke-width="0.5" stroke-miterlimit="10" d="M-48.789,357.548c-0.943,2.863-2.384,5.434-4,8"/>
<path fill="none" stroke="#4E3AF7" stroke-width="0.5" stroke-miterlimit="10" d="M-254.427,227.017c0,0.667,0,1.333,0,2"/>
<path fill="none" stroke="#4E3AF7" stroke-width="0.5" stroke-miterlimit="10" d="M-373.76,308.35c-0.946,1.173-2.238,4.153-2.667,6
	"/>
<path fill="none" stroke="#4E3AF7" stroke-width="0.5" stroke-miterlimit="10" d="M-393.708,476.932
	c-0.449,0.34-0.671,0.783-0.667,1.334"/>
<path fill="none" stroke="#4E3AF7" stroke-width="0.5" stroke-miterlimit="10" d="M-257.76,219.017c2.142,2.41,4.224,5.611,6.667,8"
	/>
<path fill="none" stroke="#4E3AF7" stroke-width="0.5" stroke-miterlimit="10" d="M-327.708,521.598
	c-1.193,0.068-2.081,0.818-2.667,2"/>
<path fill="none" stroke="#4E3AF7" stroke-width="0.5" stroke-miterlimit="10" d="M-353.708,526.266c-2.72,0.418-5.415,1.055-8,2"/>
<path fill="none" stroke="#4E3AF7" stroke-width="0.5" stroke-miterlimit="10" d="M-417.093,283.684
	c0.743,2.004,1.498,4.529,2,6.666"/>
<path fill="none" stroke="#4E3AF7" stroke-width="0.5" stroke-miterlimit="10" d="M-301.76,236.35c4.001,0.054,8.06-0.709,12-1.333"
	/>
<path fill="none" stroke="#4E3AF7" stroke-width="0.5" stroke-miterlimit="10" d="M-269.76,262.35
	c0.339,0.449,0.784,0.671,1.333,0.667"/>
<path fill="none" stroke="#4E3AF7" stroke-width="0.5" stroke-miterlimit="10" d="M-159.297,274.502
	c2.579,3.568,6.142,6.654,8,10.667"/>
<path fill="none" stroke="#4E3AF7" stroke-width="0.5" stroke-miterlimit="10" d="M-372.76,217.971
	c-1.846,4.394-0.53,12.627-7.333,9.334"/>
<path fill="none" stroke="#4E3AF7" stroke-width="0.5" stroke-miterlimit="10" d="M-139.79,354.154
	c4.78,3.347,10.95,3.549,16.667,3.334"/>
<path fill="none" stroke="#4E3AF7" stroke-width="0.5" stroke-miterlimit="10" d="M-395.424,625.22
	c5.893-0.693,11.177,2.859,15.333,6.667"/>
<path fill="none" stroke="#4E3AF7" stroke-width="0.5" stroke-miterlimit="10" d="M-74.5,565.769c1.777,0,3.557,0,5.334,0"/>
<path fill="none" stroke="#4E3AF7" stroke-width="0.5" stroke-miterlimit="10" d="M-149.237,427.721c0.445,0,0.889,0,1.334,0"/>
<path fill="none" stroke="#4E3AF7" stroke-width="0.5" stroke-miterlimit="10" d="M-131.903,479.721
	c1.336,3.191-0.479,5.104-3.334,7.333"/>
<path fill="none" stroke="#4E3AF7" stroke-width="0.5" stroke-miterlimit="10" d="M-106.434,293.684
	c6.125-1.358,11.658-4.052,17.332-6.667"/>
<path fill="none" stroke="#4E3AF7" stroke-width="0.5" stroke-miterlimit="10" d="M-119.903,598.83c2.863,0.943,5.434,2.384,8,4"/>
<path fill="none" stroke="#4E3AF7" stroke-width="0.5" stroke-miterlimit="10" d="M-427.381,473.164c0.667,0,1.334,0,2,0"/>
<path fill="none" stroke="#4E3AF7" stroke-width="0.5" stroke-miterlimit="10" d="M-346.048,592.497
	c1.173,0.945,4.153,2.238,6,2.667"/>
<path fill="none" stroke="#4E3AF7" stroke-width="0.5" stroke-miterlimit="10" d="M-225.381,558.302
	c0.34,0.449,0.783,0.671,1.334,0.667"/>
<path fill="none" stroke="#4E3AF7" stroke-width="0.5" stroke-miterlimit="10" d="M-435.381,476.497c2.41-2.142,5.611-4.224,8-6.667
	"/>
<path fill="none" stroke="#4E3AF7" stroke-width="0.5" stroke-miterlimit="10" d="M-126.571,444.387
	c0.068,1.193,0.818,2.081,2,2.667"/>
<path fill="none" stroke="#4E3AF7" stroke-width="0.5" stroke-miterlimit="10" d="M-121.903,470.387c0.418,2.72,1.055,5.415,2,8"/>
<path fill="none" stroke="#4E3AF7" stroke-width="0.5" stroke-miterlimit="10" d="M-370.714,635.83c2.004-0.743,4.529-1.497,6.666-2
	"/>
<path fill="none" stroke="#4E3AF7" stroke-width="0.5" stroke-miterlimit="10" d="M-418.048,520.497
	c0.054-4.001-0.709-8.06-1.333-12"/>
<path fill="none" stroke="#4E3AF7" stroke-width="0.5" stroke-miterlimit="10" d="M-392.048,488.497
	c0.449-0.34,0.671-0.784,0.667-1.333"/>
<path fill="none" stroke="#4E3AF7" stroke-width="0.5" stroke-miterlimit="10" d="M-436.427,591.497
	c4.394,1.846,12.627,0.53,9.334,7.333"/>
<path fill="none" stroke="#4E3AF7" stroke-width="0.5" stroke-miterlimit="10" d="M-57.166,576.553
	c-4.001-0.054-8.06,0.709-12,1.333"/>
</svg>
