<?xml version="1.0" encoding="utf-8"?>
<!-- Generator: Adobe Illustrator 15.0.0, SVG Export Plug-In . SVG Version: 6.00 Build 0)  -->
<!DOCTYPE svg PUBLIC "-//W3C//DTD SVG 1.1//EN" "http://www.w3.org/Graphics/SVG/1.1/DTD/svg11.dtd">
<svg version="1.1" id="Layer_1" xmlns="http://www.w3.org/2000/svg" xmlns:xlink="http://www.w3.org/1999/xlink" x="0px" y="0px"
	 width="1200px" height="806.537px" viewBox="0 0 1200 806.537" enable-background="new 0 0 1200 806.537" xml:space="preserve">
<rect y="-1.013" fill="#FCFCF6" width="1200" height="233.363"/>
<polyline fill="#6660EF" points="1200,232.35 1200,805.55 0,805.55 0,232.35 "/>
<polygon fill="#FCFCF6" points="424.9,400.351 0,400.351 0,470.351 351.5,470.351 0,805.55 601,805.55 1202,805.55 1086.6,695.45 
	1200,695.45 1200,501.351 883,501.351 760.9,384.851 1200,384.851 1200,347.351 721.5,347.351 601,232.35 "/>
<rect x="1015.5" y="224.45" fill="#634E2F" width="30.8" height="107.9"/>
<polygon fill="#4E3AF7" points="680,235.35 779.2,140.25 878.5,272.35 "/>
<rect x="737.8" y="242.35" fill="#726BF2" width="140.7" height="90"/>
<polygon fill="#C9C9F7" points="680,235.35 679.8,283.05 737.8,332.351 738,242.35 "/>
<g>
	<path fill="#FFFFFF" d="M599,232.35"/>
</g>
<polygon fill="#4E3AF7" points="0,195.45 0,407.45 279.9,310.351 60,108.35 "/>
<polyline fill="#C9C9F7" points="279.9,496.351 110,636.351 109.9,366.351 279.9,310.351 "/>
<polygon fill="#726BF2" points="0,366.45 0,636.351 110,636.351 110,366.351 "/>
<polygon fill="#4E3AF7" points="812,254.95 961,96.35 1110,294.351 940,444.351 "/>
<rect x="899" y="294.351" fill="#726BF2" width="211" height="186"/>
<polygon fill="#C9C9F7" points="812,254.95 812,406.351 899,480.351 899,294.351 "/>
<rect x="367" y="204.35" fill="#FCFCF6" width="48" height="168"/>
<g>
	<path fill="#C9C9F7" d="M391,272.325c55.781,0,101-45.22,101-101s-45.219-101-101-101s-101,45.22-101,101
		c0,55.825,45.2,101.025,101,101.025"/>
</g>
</svg>
