<?xml version="1.0" encoding="utf-8"?>
<!-- Generator: Adobe Illustrator 19.0.1, SVG Export Plug-In . SVG Version: 6.00 Build 0)  -->
<svg version="1.1" id="Layer_1" xmlns="http://www.w3.org/2000/svg" xmlns:xlink="http://www.w3.org/1999/xlink" x="0px" y="0px"
	 viewBox="294 -7.5 1200 806.5" style="enable-background:new 294 -7.5 1200 806.5;" xml:space="preserve">
<style type="text/css">
	.st0{fill:none;stroke:#FFFFFF;stroke-miterlimit:10;}
	.st1{stroke:#FFFFFF;stroke-miterlimit:10;}
	.st2{stroke:#FFFFFF;stroke-width:0.75;stroke-miterlimit:10;}
	.st3{fill:#634E2F;}
	.st4{fill:#FFFFFF;}
</style>
<polyline points="294,797.8 294,-8.7 1494,-8.7 1494,797.8 "/>
<line class="st0" x1="295" y1="224.6" x2="1494" y2="224.6"/>
<polyline class="st1" points="1494,799 1380.6,687.7 1494,687.7 "/>
<path class="st1" d="M895,797.8"/>
<polyline class="st1" points="1494,339.6 1015.5,339.6 895,224.6 718.9,392.6 339.9,392.6 339.9,462.6 645.5,462.6 294,799 "/>
<polyline class="st2" points="1494,493.6 1177,493.6 1054.9,377.1 1494,377.1 "/>
<rect x="1309.5" y="216.7" class="st3" width="30.8" height="107.9"/>
<polygon class="st1" points="974,227.6 1073.2,132.5 1172.5,264.6 "/>
<rect x="1031.8" y="234.6" class="st1" width="140.7" height="90"/>
<polygon class="st1" points="974,227.6 973.8,275.3 1031.8,324.6 1032,234.6 "/>
<g>
	<path class="st4" d="M893,224.6"/>
</g>
<polyline class="st1" points="294,399.7 573.9,302.6 354,100.6 294,187.7 "/>
<polyline class="st1" points="294,628.6 404,628.6 404,358.6 294,358.7 "/>
<polygon class="st1" points="1106,247.2 1255,88.6 1404,286.6 1234,436.6 "/>
<rect x="1193" y="286.6" class="st1" width="211" height="186"/>
<polygon class="st1" points="1106,247.2 1106,398.6 1193,472.6 1193,286.6 "/>
<rect x="661" y="196.6" class="st1" width="48" height="168"/>
<g>
	<path class="st1" d="M685,264.6c55.8,0,101-45.2,101-101s-45.2-101-101-101s-101,45.2-101,101C584,219.4,629.2,264.6,685,264.6"/>
</g>
<polygon class="st1" points="573.9,488.6 404,628.6 403.9,358.6 573.9,302.6 "/>
</svg>
