<?xml version="1.0" encoding="utf-8"?>
<!-- Generator: Adobe Illustrator 18.1.1, SVG Export Plug-In . SVG Version: 6.00 Build 0)  -->
<svg version="1.1" id="Layer_1" xmlns="http://www.w3.org/2000/svg" xmlns:xlink="http://www.w3.org/1999/xlink" x="0px" y="0px"
	 viewBox="528 101.5 1200 806.5" enable-background="new 528 101.5 1200 806.5" xml:space="preserve">
<rect x="528" y="99.3" fill="#FDEE2F" width="1200" height="806.6"/>
<path fill="none" stroke="#4E3AF7" stroke-width="0.5" stroke-miterlimit="10" d="M236.9,402.5c-3.3,4.8-3.5,11-3.3,16.7"/>
<path fill="none" stroke="#4E3AF7" stroke-width="0.5" stroke-miterlimit="10" d="M143.5,503.5c0.7,5.9-2.9,11.2-6.7,15.3"/>
<path fill="none" stroke="#4E3AF7" stroke-width="0.5" stroke-miterlimit="10" d="M203,570.4c0,1.8,0,3.6,0,5.3"/>
<path fill="none" stroke="#4E3AF7" stroke-width="0.5" stroke-miterlimit="10" d="M217,600.4c0,0.4,0,0.9,0,1.3"/>
<path fill="none" stroke="#4E3AF7" stroke-width="0.5" stroke-miterlimit="10" d="M165,617.7c-3.2,1.3-5.1-0.5-7.3-3.3"/>
<path fill="none" stroke="#4E3AF7" stroke-width="0.5" stroke-miterlimit="10" d="M273.6,328.5c0,0.7,0,1.3,0,2"/>
<path fill="none" stroke="#4E3AF7" stroke-width="0.5" stroke-miterlimit="10" d="M154.2,409.8c-0.9,1.2-2.2,4.2-2.7,6"/>
<path fill="none" stroke="#4E3AF7" stroke-width="0.5" stroke-miterlimit="10" d="M134.3,578.4c-0.4,0.3-0.7,0.8-0.7,1.3"/>
<path fill="none" stroke="#4E3AF7" stroke-width="0.5" stroke-miterlimit="10" d="M270.2,320.5c2.1,2.4,4.2,5.6,6.7,8"/>
<path fill="none" stroke="#4E3AF7" stroke-width="0.5" stroke-miterlimit="10" d="M200.3,623.1c-1.2,0.1-2.1,0.8-2.7,2"/>
<path fill="none" stroke="#4E3AF7" stroke-width="0.5" stroke-miterlimit="10" d="M174.3,627.7c-2.7,0.4-5.4,1.1-8,2"/>
<path fill="none" stroke="#4E3AF7" stroke-width="0.5" stroke-miterlimit="10" d="M110.9,385.1c0.7,2,1.5,4.5,2,6.7"/>
<path fill="none" stroke="#4E3AF7" stroke-width="0.5" stroke-miterlimit="10" d="M226.2,337.8c4,0.1,8.1-0.7,12-1.3"/>
<path fill="none" stroke="#4E3AF7" stroke-width="0.5" stroke-miterlimit="10" d="M258.2,363.8c0.3,0.4,0.8,0.7,1.3,0.7"/>
<path fill="none" stroke="#4E3AF7" stroke-width="0.5" stroke-miterlimit="10" d="M368.7,376c2.6,3.6,6.1,6.7,8,10.7"/>
<path fill="none" stroke="#4E3AF7" stroke-width="0.5" stroke-miterlimit="10" d="M155.2,319.4c-1.8,4.4-0.5,12.6-7.3,9.3"/>
<path fill="none" stroke="#4E3AF7" stroke-width="0.5" stroke-miterlimit="10" d="M388.2,455.6c4.8,3.3,10.9,3.5,16.7,3.3"/>
<path fill="none" stroke="#4E3AF7" stroke-width="0.5" stroke-miterlimit="10" d="M132.6,726.7c5.9-0.7,11.2,2.9,15.3,6.7"/>
<path fill="none" stroke="#4E3AF7" stroke-width="0.5" stroke-miterlimit="10" d="M453.5,667.2c1.8,0,3.6,0,5.3,0"/>
<path fill="none" stroke="#4E3AF7" stroke-width="0.5" stroke-miterlimit="10" d="M378.8,529.2c0.4,0,0.9,0,1.3,0"/>
<path fill="none" stroke="#4E3AF7" stroke-width="0.5" stroke-miterlimit="10" d="M396.1,581.2c1.3,3.2-0.5,5.1-3.3,7.3"/>
<path fill="none" stroke="#4E3AF7" stroke-width="0.5" stroke-miterlimit="10" d="M421.6,395.1c6.1-1.4,11.7-4.1,17.3-6.7"/>
<path fill="none" stroke="#4E3AF7" stroke-width="0.5" stroke-miterlimit="10" d="M408.1,700.3c2.9,0.9,5.4,2.4,8,4"/>
<path fill="none" stroke="#4E3AF7" stroke-width="0.5" stroke-miterlimit="10" d="M100.6,574.6c0.7,0,1.3,0,2,0"/>
<path fill="none" stroke="#4E3AF7" stroke-width="0.5" stroke-miterlimit="10" d="M182,694c1.2,0.9,4.2,2.2,6,2.7"/>
<path fill="none" stroke="#4E3AF7" stroke-width="0.5" stroke-miterlimit="10" d="M302.6,659.8c0.3,0.4,0.8,0.7,1.3,0.7"/>
<path fill="none" stroke="#4E3AF7" stroke-width="0.5" stroke-miterlimit="10" d="M92.6,578c2.4-2.1,5.6-4.2,8-6.7"/>
<path fill="none" stroke="#4E3AF7" stroke-width="0.5" stroke-miterlimit="10" d="M401.4,545.8c0.1,1.2,0.8,2.1,2,2.7"/>
<path fill="none" stroke="#4E3AF7" stroke-width="0.5" stroke-miterlimit="10" d="M406.1,571.8c0.4,2.7,1.1,5.4,2,8"/>
<path fill="none" stroke="#4E3AF7" stroke-width="0.5" stroke-miterlimit="10" d="M157.3,737.3c2-0.7,4.5-1.5,6.7-2"/>
<path fill="none" stroke="#4E3AF7" stroke-width="0.5" stroke-miterlimit="10" d="M110,622c0.1-4-0.7-8.1-1.3-12"/>
<path fill="none" stroke="#4E3AF7" stroke-width="0.5" stroke-miterlimit="10" d="M136,590c0.4-0.3,0.7-0.8,0.7-1.3"/>
<path fill="none" stroke="#4E3AF7" stroke-width="0.5" stroke-miterlimit="10" d="M91.6,693c4.4,1.8,12.6,0.5,9.3,7.3"/>
<path fill="none" stroke="#4E3AF7" stroke-width="0.5" stroke-miterlimit="10" d="M470.8,678c-4-0.1-8.1,0.7-12,1.3"/>
<rect x="528" y="99.3" fill="#FDEE2F" stroke="#000000" stroke-width="0.75" stroke-miterlimit="10" width="1200" height="233.4"/>
<polyline fill="#FDEE2F" stroke="#000000" stroke-width="0.75" stroke-miterlimit="10" points="1728,447.6 1249.5,447.6 1129,332.6 
	952.9,500.6 573.9,500.6 573.9,570.6 879.5,570.6 528,907 1129,905.8 1728,907 1614.6,795.7 1728,795.7 "/>
<polyline fill="#FDEE2F" stroke="#000000" stroke-width="0.75" stroke-miterlimit="10" points="1728,601.6 1411,601.6 1288.9,485.1 
	1728,485.1 "/>
<rect x="1543.5" y="324.7" fill="#634E2F" width="30.8" height="107.9"/>
<polygon fill="#FDEE2F" stroke="#000000" stroke-width="0.75" stroke-miterlimit="10" points="1208,335.6 1307.2,240.5 
	1406.5,372.6 "/>
<rect x="1265.8" y="342.6" fill="#FDEE2F" stroke="#000000" stroke-width="0.75" stroke-miterlimit="10" width="140.7" height="90"/>
<polygon fill="#FDEE2F" stroke="#000000" stroke-width="0.75" stroke-miterlimit="10" points="1208,335.6 1207.8,383.3 
	1265.8,432.6 1266,342.6 "/>
<g>
	<path fill="#FFFFFF" d="M1127,332.6"/>
</g>
<polyline fill="#FDEE2F" stroke="#000000" stroke-width="0.75" stroke-miterlimit="10" points="528,507.7 807.9,410.6 588,208.6 
	528,295.7 "/>
<polyline fill="#FDEE2F" stroke="#000000" stroke-width="0.75" stroke-miterlimit="10" points="528,736.6 638,736.6 638,466.6 
	528,466.7 "/>
<polygon fill="#FDEE2F" stroke="#000000" stroke-width="0.75" stroke-miterlimit="10" points="1340,355.2 1489,196.6 1638,394.6 
	1468,544.6 "/>
<rect x="1427" y="394.6" fill="#FDEE2F" stroke="#000000" stroke-width="0.75" stroke-miterlimit="10" width="211" height="186"/>
<polygon fill="#FDEE2F" stroke="#000000" stroke-width="0.75" stroke-miterlimit="10" points="1340,355.2 1340,506.6 1427,580.6 
	1427,394.6 "/>
<rect x="895" y="304.6" fill="#FDEE2F" stroke="#000000" stroke-width="0.75" stroke-miterlimit="10" width="48" height="168"/>
<g>
	<path fill="#FDEE2F" stroke="#000000" stroke-width="0.75" stroke-miterlimit="10" d="M919,372.6c55.8,0,101-45.2,101-101
		s-45.2-101-101-101s-101,45.2-101,101C818,327.4,863.2,372.6,919,372.6"/>
</g>
<polygon fill="#FDEE2F" stroke="#000000" stroke-width="0.75" stroke-miterlimit="10" points="807.9,596.6 638,736.6 637.9,466.6 
	807.9,410.6 "/>
</svg>
